<svg width="491" height="418" viewBox="0 0 491 418" fill="none" xmlns="http://www.w3.org/2000/svg">
<path fill-rule="evenodd" clip-rule="evenodd" d="M40.6274 263.989L48.8018 273.758C48.8018 273.758 44.1649 274.109 39.6695 274.47C38.1021 274.589 36.5456 274.71 35.2177 274.818C31.6801 275.103 22.0798 273.202 16.4088 271.988C16.3871 271.978 16.3762 271.978 16.3653 271.978C13.7965 271.421 12.0441 271.005 12.0441 271.005C12.0441 271.005 9.14873 267.509 6.73232 264.513C6.26428 263.934 5.818 263.377 5.40438 262.864C4.80572 262.109 4.16352 260.853 3.53221 259.367C1.52942 254.625 -0.288333 247.444 0.0382089 246.155C0.451829 244.462 18.0416 206.923 30.178 185.625C31.3862 183.506 32.5836 181.527 33.77 179.67C43.0982 165.016 51.2509 158.404 51.2509 158.404C51.3162 158.962 51.3706 159.529 51.4142 160.119C52.5462 175.67 46.2113 203.776 41.0301 223.49C37.6667 236.33 34.7932 245.641 34.7932 245.641C34.7932 245.641 34.7714 245.619 34.7496 245.586C34.6843 245.511 34.5646 245.38 34.4013 245.182C34.3469 245.106 34.2707 245.029 34.1945 244.941C34.053 244.789 33.9115 244.604 33.7265 244.406C33.585 244.232 33.4326 244.057 33.2802 243.882L31.0053 252.503L40.6165 263.978L40.6274 263.989Z" fill="#00CCB2"/>
<path fill-rule="evenodd" clip-rule="evenodd" d="M44.1163 179.684L41.0272 223.498C37.6693 236.339 34.7881 245.639 34.7881 245.639C31.6097 241.677 28.0276 238.607 24.5205 236.232C28.5947 223.135 38.3409 192.342 44.1163 179.684Z" fill="#00A48F"/>
<path fill-rule="evenodd" clip-rule="evenodd" d="M51.2509 158.4C51.2509 158.4 39.4159 166.024 30.178 185.624C30.1748 185.631 30.1715 185.638 30.1682 185.645C25.1602 194.435 19.228 205.983 13.9543 216.637C10.6269 222.573 8.0755 226.939 7.29833 228.26C7.92747 227.237 9.71039 224.332 12.0843 220.435C5.4501 233.971 0.260257 245.246 0.0382089 246.157C-0.288333 247.445 1.52942 254.626 3.53221 259.369C3.80433 259.553 3.9676 259.652 3.9676 259.652C3.9676 259.652 1.71446 248.232 1.99746 245.982C2.28046 243.719 14.504 218.76 15.3421 217.35C15.6709 216.798 18.6097 210.897 22.0613 203.929C27.5298 194.795 32.7621 185.868 34.3273 182.6C36.9984 177.003 43.4161 168.216 49.3406 162.166C49.3559 162.152 49.3559 162.137 49.3559 162.137C50.0568 161.426 50.7437 160.746 51.4152 160.125C51.3706 159.535 51.3108 158.961 51.2509 158.4Z" fill="#00DABE"/>
<path fill-rule="evenodd" clip-rule="evenodd" d="M48.8019 273.762C48.8019 273.762 44.165 274.111 39.6696 274.472C35.381 273.926 29.8516 273.259 28.1209 273.193C26.129 273.106 20.5887 272.483 16.409 271.991C16.3872 271.98 16.3763 271.98 16.3654 271.98C13.7966 271.423 12.0442 271.008 12.0442 271.008C12.0442 271.008 9.14883 267.511 6.73242 264.517C7.54878 264.757 10.3353 265.544 12.817 266.145C15.7668 266.844 18.858 267.413 18.858 267.413C18.858 267.413 14.5041 264.025 13.6551 262.473C12.817 260.932 12.1095 257.118 12.1095 257.118L22.6459 258.954C22.6459 258.954 17.8675 252.321 16.1804 250.911C14.5041 249.502 10.0087 247.251 10.0087 247.251L7.47258 246.409C7.47258 246.409 11.4129 245.983 12.9585 246.54C14.5041 247.108 16.8879 247.819 16.8879 247.819L20.1206 238.082C20.1206 238.082 22.9289 249.502 26.5753 253.458C29.8843 257.02 38.9077 262.888 40.6166 263.981L40.6275 263.992L48.8019 273.762Z" fill="#00A48F"/>
<path fill-rule="evenodd" clip-rule="evenodd" d="M134.83 409.766L69.7438 413.955L63.9836 414.319L19.6719 417.176L22.0894 374.451L22.1797 372.651L22.3735 369.293L51.5652 368.627L130.114 366.828L132.248 386.308L134.83 409.766Z" fill="#00CCB2"/>
<path fill-rule="evenodd" clip-rule="evenodd" d="M132.246 386.308C116.678 385.975 69.7413 383.223 69.7413 383.223V413.955L63.9811 414.319L65.6367 387.911C63.5479 386.943 33.2208 377.793 22.0869 374.45C19.5507 373.679 18.0127 373.225 18.0127 373.225L22.1772 372.651L51.5627 368.627L130.111 366.828L132.246 386.308Z" fill="#00A48F"/>
<path fill-rule="evenodd" clip-rule="evenodd" d="M150.053 153.424C150.053 153.424 147.785 171.815 144.994 195.197C141.739 222.572 137.771 256.798 135.889 276.369C135.083 284.854 134.576 296.999 134.262 310.64C133.815 330.514 133.8 353.564 133.934 373.058C120.13 373.602 87.7128 374.979 72.6091 376.19C56.6847 377.474 27.9697 374.389 18.0156 373.225C21.0307 342.507 25.1647 305.362 26.9999 279.892C27.1196 278.138 27.2687 276.339 27.4331 274.509C27.5376 273.45 27.6268 272.362 27.7313 271.272C28.6424 262.107 29.9703 252.14 31.5671 242.037C36.7907 208.674 44.7747 173.918 49.3419 162.166C49.3571 162.15 49.3571 162.136 49.3571 162.136C50.0886 160.276 50.7297 158.99 51.2522 158.4C54.9834 154.211 66.4309 149.007 72.6091 146.407C72.6243 146.391 72.6396 146.391 72.6396 146.391C75.0723 145.363 76.6843 144.743 76.6843 144.743L126.651 140.84L150.053 153.424Z" fill="#00CCB2"/>
<path fill-rule="evenodd" clip-rule="evenodd" d="M51.4168 160.122C52.8199 158.822 54.1478 157.732 55.3723 156.915C62.0283 152.485 71.9977 146.767 72.6094 146.404C66.4312 149.005 54.9837 154.209 51.2525 158.398C50.7311 158.988 50.0889 160.274 49.3574 162.134C50.0584 161.423 50.7452 160.742 51.4168 160.122Z" fill="#00DABE"/>
<path fill-rule="evenodd" clip-rule="evenodd" d="M111.053 214.798L85.6357 256.466L43.3692 267.273L48.8007 273.759C48.8007 273.759 40.3759 274.393 35.2165 274.819C33.5892 274.95 30.6841 274.618 27.4677 274.105C27.4557 274.238 27.4437 274.377 27.4307 274.509C37.1311 278.032 58.0113 285.397 64.921 286.033C64.921 286.033 81.875 291.296 93.427 296.999C102.218 301.354 124.246 307.797 134.26 310.64C134.573 296.998 135.081 284.853 135.886 276.369C137.768 256.798 141.737 222.572 144.991 195.196L111.053 214.798Z" fill="#00A48F"/>
<path fill-rule="evenodd" clip-rule="evenodd" d="M103.005 197.266L86.8623 195.56L88.2512 191.242L104.394 192.947L103.005 197.266Z" fill="white"/>
<path fill-rule="evenodd" clip-rule="evenodd" d="M33.6725 229.325C33.2589 231.686 32.8561 234.068 32.4643 236.439C32.1486 238.308 31.8547 240.177 31.5608 242.034C31.3758 243.226 31.1908 244.418 31.0166 245.598C30.6574 247.914 30.3309 250.219 30.0043 252.503L24.5184 259.093C24.5184 259.093 21.2095 256.099 19.838 253.663C19.4135 252.908 18.9672 251.848 18.5754 250.745C17.6937 248.33 16.9971 245.728 16.9971 245.728C16.9971 245.728 18.989 234.418 20.1536 232.724C21.3074 231.031 28.6873 229.653 29.7431 229.446C29.9608 229.402 30.2982 229.369 30.6901 229.358C31.6044 229.303 32.8452 229.314 33.6725 229.325Z" fill="#58BAD3"/>
<path fill-rule="evenodd" clip-rule="evenodd" d="M32.4635 236.441C32.1478 238.31 31.8539 240.179 31.56 242.036C31.375 243.228 31.1899 244.42 31.0158 245.6L27.4238 246.583C27.4238 246.047 29.2089 242.353 29.2089 242.353C29.2089 242.353 30.0579 238.65 30.8961 237.907C31.3641 237.49 31.9301 236.922 32.4635 236.441Z" fill="#0099B8"/>
<path fill-rule="evenodd" clip-rule="evenodd" d="M30.6901 229.359C27.7076 230.408 22.6245 232.288 21.5251 233.25C19.9468 234.627 18.6733 240.757 18.5754 242.036C18.4774 243.238 18.5645 250.002 18.5754 250.745C17.6937 248.33 16.9971 245.728 16.9971 245.728C16.9971 245.728 18.989 234.419 20.1536 232.725C21.3074 231.031 28.6873 229.654 29.7431 229.447C29.9608 229.403 30.2982 229.37 30.6901 229.359Z" fill="#85E4E0"/>
<path fill-rule="evenodd" clip-rule="evenodd" d="M164.921 185.332C162.08 199.56 145.742 228.487 136.337 244.32L136.326 244.332C132.398 250.965 129.676 255.304 129.676 255.304C129.676 255.304 116.102 273.127 110.944 277.564C105.795 282.012 82.415 288.35 79.0407 288.984C75.6664 289.617 60.7108 283.913 54.18 280.525C47.6491 277.138 28.4811 267.412 26.1627 264.45C23.8442 261.488 23.8878 257.784 23.8878 257.784C23.8878 257.784 23.8975 256.265 24.0837 254.309C24.334 251.73 24.9 248.408 26.1953 246.933C28.4811 244.354 31.7792 243.884 31.7792 243.884C31.7792 243.884 37.5372 243.633 40.0625 244.627C42.5877 245.633 61.2333 250.703 65.0756 251.653C65.6634 251.796 66.458 252.058 67.3832 252.364C72.106 253.992 80.2043 257.39 81.0761 257.763C81.1306 257.773 81.1523 257.784 81.1523 257.784C87.7812 254.539 88.3145 251.195 88.2057 249.818C88.4887 249.446 88.7717 249.075 89.0547 248.691C90.2302 248.091 92.0588 246.944 92.3201 245.633C92.4398 245.042 92.3092 244.583 92.0588 244.245C92.7 243.184 93.2562 242.125 93.6916 241.097C93.6916 241.097 93.7024 241.097 93.7024 241.087C93.7569 241.042 93.8102 240.988 93.8537 240.944C94.6266 240.178 97.1409 238.617 95.5855 236.748C95.4211 236.53 95.1708 236.377 94.8562 236.278C94.8562 236.278 94.8127 236.18 94.7583 235.972C94.5623 235.24 94.2467 233.153 95.5855 229.831C95.5855 229.831 102.214 210.805 110.409 193.845L110.421 193.823C114.079 186.261 118.051 179.093 121.883 174.219C126.237 168.667 131.059 164.449 135.489 161.313C137.35 159.991 139.145 158.865 140.801 157.903H140.821C146.428 154.668 150.476 153.423 150.476 153.423C150.476 153.423 152.056 154.428 154.189 156.35C157.084 158.952 161.013 163.258 163.387 169.061C165.259 173.596 166.183 179.06 164.921 185.332Z" fill="#00CCB2"/>
<path fill-rule="evenodd" clip-rule="evenodd" d="M80.6952 257.773C79.7918 257.544 61.3639 252.735 59.4482 252.462C57.4781 252.189 46.245 248.233 42.5877 246.998C38.9413 245.763 34.7943 245.632 34.7943 245.632L39.072 250.626C38.8434 250.495 35.2514 248.353 34.3153 247.698C33.3575 247.02 29.243 246.539 27.4362 247.698C25.6184 248.856 23.6592 254.309 23.6592 254.309C23.9095 251.73 24.4755 248.408 25.7708 246.933C28.0566 244.354 31.3547 243.884 31.3547 243.884C31.3547 243.884 37.1127 243.632 39.638 244.627C42.1632 245.632 60.8088 250.703 64.6511 251.652C68.3846 252.582 79.9768 257.467 80.6952 257.773Z" fill="#00DABE"/>
<path fill-rule="evenodd" clip-rule="evenodd" d="M135.488 161.313C135.488 161.313 114.078 188.032 108.461 203.54C102.845 219.046 96.0852 237.885 96.0852 237.885C96.0852 237.885 95.5192 237.143 94.7572 235.973C94.5613 235.241 94.2457 233.154 95.5845 229.831C95.5845 229.831 102.213 210.806 110.408 193.847L110.42 193.824C114.078 186.262 118.049 179.094 121.882 174.22C126.236 168.668 131.058 164.45 135.488 161.313Z" fill="#00DABE"/>
<path fill-rule="evenodd" clip-rule="evenodd" d="M163.387 169.06L155.376 202.017L136.337 244.319L136.328 244.331C135.805 244.965 119.107 265.225 111.554 273.192C103.88 281.288 87.6729 284.032 81.0767 284.393C74.4806 284.753 65.0762 281.093 65.0762 281.093C65.0762 281.093 84.5925 278.272 93.0173 276.295C101.442 274.316 116.888 257.782 116.888 257.782L147.016 195.44C147.016 195.44 155.332 167.06 154.189 156.35C157.085 158.952 161.013 163.256 163.387 169.06Z" fill="#00A48F"/>
<path fill-rule="evenodd" clip-rule="evenodd" d="M80.7275 257.782C80.7275 257.782 88.2337 256.212 91.5557 251.658C94.8777 247.102 95.1661 242.564 95.1661 242.564C95.1661 242.564 96.8859 239.481 95.657 237.878C94.4282 236.275 84.19 242.564 84.19 242.564L80.7275 257.782Z" fill="#00A48F"/>
<path fill-rule="evenodd" clip-rule="evenodd" d="M93.4297 240.941C93.3861 240.985 93.3317 241.04 93.2773 241.084C93.2773 241.096 93.2664 241.096 93.2664 241.096C92.3412 241.915 90.001 243.247 90.001 243.247C90.001 243.247 91.1003 243.455 91.6337 244.243C91.8841 244.58 92.0147 245.039 91.8949 245.63C91.6337 246.941 89.8051 248.088 88.6295 248.689C88.0635 248.984 87.6499 249.149 87.6499 249.149C87.6499 249.149 87.7479 249.389 87.7805 249.815C87.8894 251.192 87.356 254.536 80.7272 257.781C80.7272 257.781 80.7054 257.77 80.651 257.761C79.8564 257.421 73.0752 254.57 68.2968 252.831C67.8288 252.667 67.3825 252.503 66.958 252.361C67.0015 252.307 67.056 252.263 67.1104 252.209L67.524 251.794C67.6655 251.651 67.807 251.498 67.9703 251.346L68.3513 250.962C69.1458 250.176 70.0602 249.279 71.0507 248.33C71.3554 248.034 71.6602 247.74 71.9759 247.444C72.4113 247.039 72.8466 246.624 73.282 246.22C73.4888 246.023 73.6957 245.837 73.9025 245.64C74.1637 245.411 74.4141 245.171 74.6753 244.941C75.0998 244.56 75.5243 244.176 75.9379 243.805C76.21 243.564 76.4822 243.335 76.7543 243.095C77.1026 242.799 77.4291 242.515 77.7557 242.253C77.7883 242.232 77.821 242.198 77.8536 242.176C78.0604 242.003 78.2564 241.838 78.4632 241.686C79.6387 240.735 80.6945 239.991 81.4891 239.588C82.9368 238.843 84.8307 238.057 86.7573 237.423C89.7833 236.395 92.8963 235.763 94.4311 236.275C94.7467 236.374 94.9971 236.527 95.1604 236.745C96.7169 238.614 94.2025 240.177 93.4297 240.941Z" fill="#58BAD3"/>
<path fill-rule="evenodd" clip-rule="evenodd" d="M86.7573 237.425C84.7437 238.408 82.3381 239.676 80.7272 240.856C78.1802 242.725 71.301 249.741 68.2968 252.833C67.8288 252.669 67.3825 252.505 66.958 252.363C67.0015 252.309 67.056 252.265 67.1104 252.21L67.524 251.795C67.6655 251.653 67.807 251.5 67.9703 251.347L68.3513 250.964C69.1458 250.178 70.0602 249.282 71.0507 248.331C71.3554 248.036 71.6602 247.741 71.9759 247.446C72.4113 247.041 72.8466 246.626 73.282 246.222C73.4888 246.025 73.6957 245.839 73.9025 245.643C74.1637 245.413 74.4141 245.173 74.6753 244.943C75.0998 244.561 75.5243 244.178 75.9379 243.807C76.21 243.566 76.4822 243.337 76.7543 243.096C77.0917 242.812 77.4291 242.528 77.7557 242.255C77.7883 242.233 77.821 242.2 77.8536 242.178C78.0604 242.004 78.2564 241.84 78.4632 241.687C79.6387 240.736 80.6945 239.993 81.4891 239.589C82.9368 238.845 84.8307 238.059 86.7573 237.425Z" fill="#85E4E0"/>
<path fill-rule="evenodd" clip-rule="evenodd" d="M119.037 139.087C100.561 150.99 81.8748 149.432 81.8748 149.432C82.4724 146.71 82.8305 144.214 83.009 141.961C83.7557 132.523 81.4873 127.184 81.4873 127.184L113.65 121.331C113.56 123.993 113.768 126.337 114.142 128.38C115.5 135.73 119.037 139.087 119.037 139.087Z" fill="#B57E65"/>
<path fill-rule="evenodd" clip-rule="evenodd" d="M114.142 128.38C109.322 136.108 98.1126 149.886 83.009 141.961C83.7557 132.523 81.4873 127.184 81.4873 127.184L113.65 121.331C113.56 123.993 113.768 126.337 114.142 128.38Z" fill="#6F4C3C"/>
<path fill-rule="evenodd" clip-rule="evenodd" d="M126.649 140.846C126.649 140.846 83.3167 176.558 72.6279 193.823C72.6279 193.823 72.7803 157.729 76.6553 144.801C76.6662 144.78 76.6771 144.769 76.6771 144.747L82.1956 143.184L82.3915 141.785L82.9467 137.862C82.9467 137.862 82.9467 137.851 82.9575 137.84L83.1208 136.649V136.616L83.1317 136.573C83.1317 136.573 88.2693 140.856 97.0424 139.665C99.7853 139.294 102.539 138.31 105.043 137.141C105.217 137.064 105.391 136.988 105.554 136.901C105.881 136.748 106.196 136.584 106.512 136.42C106.752 136.3 106.991 136.178 107.22 136.048C107.405 135.95 107.579 135.851 107.764 135.753C108.036 135.6 108.297 135.447 108.558 135.294C108.776 135.174 108.994 135.042 109.201 134.923C109.288 134.868 109.375 134.824 109.462 134.769C112.662 132.835 114.785 131.087 114.785 131.087L119.04 139.086L126.649 140.846Z" fill="white"/>
<path fill-rule="evenodd" clip-rule="evenodd" d="M109.462 134.77C103.671 141.457 93.5593 147.282 82.3916 141.786L82.9467 137.862C82.9467 137.862 82.9467 137.851 82.9576 137.841C83.0665 137.458 83.1318 137.065 83.1209 136.65V136.616L83.1318 136.573C83.1318 136.573 88.2694 140.856 97.0425 139.665C99.7854 139.295 102.539 138.31 105.043 137.142C105.217 137.065 105.38 136.988 105.554 136.9C105.881 136.749 106.197 136.584 106.512 136.421C106.752 136.299 106.991 136.179 107.22 136.049C107.405 135.95 107.59 135.851 107.764 135.753C108.036 135.601 108.297 135.447 108.559 135.294C108.776 135.174 108.994 135.055 109.201 134.924C109.288 134.869 109.375 134.825 109.462 134.77Z" fill="#D0D0D0"/>
<path fill-rule="evenodd" clip-rule="evenodd" d="M127.366 83.3611C126.992 76.7267 125.313 69.9165 121.251 64.576C116.817 58.7459 110.164 56.1582 103.153 55.1649C94.723 53.9715 84.9268 54.9168 77.8506 60.1294C74.4589 62.6275 70.5339 65.5223 68.7053 69.4651C66.4129 74.4133 67.3762 80.8629 67.7398 86.1018C67.7409 86.1225 67.7507 86.1367 67.7528 86.1575C67.7398 87.3563 67.7463 88.554 67.7387 89.7364C67.7071 94.643 67.2696 99.5344 67.6658 104.439C68.3341 112.707 71.6953 120.308 76.6838 126.829C80.8341 132.255 86.8545 137.615 94.0438 137.51C101.659 137.397 109.018 131.425 113.604 125.732C118.714 119.39 122.183 111.628 124.685 103.888C126.806 97.3291 127.755 90.2544 127.366 83.3611Z" fill="#B57E65"/>
<path fill-rule="evenodd" clip-rule="evenodd" d="M97.8233 103.059C97.1724 102.626 96.4247 102.64 95.7182 102.852C95.6878 101.635 95.6736 100.43 95.4897 99.2235C95.4624 99.0421 95.1577 99.0432 95.1294 99.2235C94.9128 100.623 94.8725 102.016 94.9139 103.435C94.9237 103.771 95.2491 103.921 95.531 103.792C98.496 102.435 98.9684 107.044 97.4772 108.685C96.9645 109.249 96.3202 109.335 95.5985 109.386C95.1207 109.42 95.0358 110.057 95.4875 110.222C97.2769 110.874 98.717 109.052 99.0522 107.47C99.3635 106 99.1818 103.963 97.8233 103.059Z" fill="#3A180F"/>
<path fill-rule="evenodd" clip-rule="evenodd" d="M102.023 118.503C101.844 118.775 101.665 119.047 101.501 119.335C100.651 122.405 96.9193 124.053 93.8889 123.918C89.9944 123.751 86.815 121.286 85.9943 117.384C85.9344 117.081 86.188 116.885 86.4122 116.93C87.8294 117.748 90.8739 119.199 94.9045 119.228C98.4714 119.259 100.799 118.684 102.038 118.246H102.052C102.097 118.321 102.097 118.412 102.023 118.503Z" fill="white"/>
<path fill-rule="evenodd" clip-rule="evenodd" d="M108.827 90.3079C108.746 90.0237 108.467 89.7833 108.165 89.7954C107.889 89.8085 107.543 90.0008 107.501 90.3079C107.455 90.6434 107.371 90.9657 107.357 91.3045C107.345 91.6192 107.314 91.9329 107.287 92.2465C107.234 92.8639 107.182 93.4835 107.19 94.1042C107.197 94.5184 107.545 94.9151 107.972 94.8954C108.403 94.8757 108.743 94.5479 108.753 94.1042C108.768 93.4802 108.856 92.8661 108.92 92.2465C108.95 91.9449 108.976 91.6411 108.989 91.3362C109.004 90.9832 108.924 90.6455 108.827 90.3079Z" fill="#3A180F"/>
<path fill-rule="evenodd" clip-rule="evenodd" d="M113.171 82.3815C112.632 81.951 111.902 81.716 111.252 81.5117C110.476 81.268 109.684 81.1237 108.873 81.0745C107.47 80.9893 105.843 81.1325 104.759 82.1356C104.527 82.352 104.832 82.7618 105.099 82.5826C106.207 81.8373 107.64 81.8133 108.909 82.0242C109.589 82.1356 110.271 82.2996 110.927 82.5083C111.538 82.7028 112.084 83.0142 112.679 83.2383C113.138 83.4109 113.565 82.6962 113.171 82.3815Z" fill="#3A180F"/>
<path fill-rule="evenodd" clip-rule="evenodd" d="M85.5516 88.2297C85.6833 87.9664 86 87.7795 86.2961 87.8484C86.5649 87.9117 86.8697 88.1642 86.8566 88.4745C86.8425 88.8122 86.8664 89.1444 86.8185 89.4821C86.775 89.7935 86.7478 90.1072 86.7173 90.4208C86.6607 91.036 86.5998 91.6567 86.48 92.2632C86.3995 92.6698 85.9848 92.9954 85.5701 92.8981C85.1488 92.7998 84.8745 92.414 84.9431 91.9758C85.0411 91.3606 85.065 90.7399 85.1129 90.1192C85.1369 89.8165 85.1673 89.5138 85.2098 89.2111C85.2566 88.8614 85.3948 88.5434 85.5516 88.2297Z" fill="#3A180F"/>
<path fill-rule="evenodd" clip-rule="evenodd" d="M82.7037 79.633C83.311 79.3084 84.0719 79.2111 84.7467 79.1314C85.5533 79.0341 86.3577 79.0374 87.1642 79.139C88.5586 79.3139 90.1336 79.7553 91.0185 80.9421C91.2079 81.1967 90.8346 81.5442 90.6049 81.318C89.6503 80.3815 88.244 80.0941 86.9585 80.0657C86.2706 80.0526 85.5696 80.0865 84.8861 80.1706C84.2515 80.2482 83.6583 80.4558 83.0335 80.5662C82.5513 80.6514 82.2596 79.8701 82.7037 79.633Z" fill="#3A180F"/>
<path fill-rule="evenodd" clip-rule="evenodd" d="M68.9344 102.801C68.7276 101.806 68.4609 101.03 68.4185 99.9819C68.3869 99.1929 68.0223 98.5394 67.9439 97.7865C67.8557 96.9418 68.5262 96.3571 68.6677 95.5386C68.7505 95.0654 68.6895 94.5475 68.5916 94.0797C68.4479 93.3946 68.1562 92.6799 67.5662 92.399C68.1159 91.6832 68.4228 90.8833 68.3445 89.9545C68.2639 89.0015 67.8797 88.0934 67.8623 87.1329C67.8427 86.1035 68.3129 85.1331 68.4261 84.1157C68.5763 82.7748 68.2258 81.4569 68.1779 80.1226C68.1703 79.9423 67.9983 79.8964 67.8786 79.962C67.7306 79.7795 67.4584 79.6986 67.2397 79.915C66.3493 80.7892 65.6636 81.3159 65.2935 82.5552C64.8526 84.0261 64.5555 85.5745 64.2932 87.087C63.7544 90.1949 63.5378 93.3301 63.9155 96.4697C64.1789 98.6607 64.7013 100.843 65.3131 102.963C65.6962 104.292 66.2687 106.542 67.8536 106.895C68.0669 106.943 68.2509 106.86 68.3728 106.683C69.1227 105.591 69.1978 104.069 68.9344 102.801Z" fill="#3A180F"/>
<path fill-rule="evenodd" clip-rule="evenodd" d="M129.802 90.5688C129.505 89.7656 128.712 88.5132 127.684 88.7077C126.237 88.9798 126.68 91.2037 126.352 92.1773C126.07 93.0133 125.488 93.5903 125.427 94.5115C125.348 95.7169 125.655 96.849 125.476 98.0675C125.311 99.2007 125.039 100.237 124.526 101.266C124.153 102.018 123.754 102.749 123.667 103.601C123.538 104.866 124.331 106.047 123.766 107.252C123.511 107.797 123.253 108.342 123.064 108.913C122.782 109.76 122.673 110.791 123.42 111.158C123.496 111.355 123.688 111.508 123.917 111.416C125.153 110.921 125.694 109.386 126.244 108.279C127.089 106.584 127.668 105.021 127.991 103.134C128.368 100.921 128.905 98.7931 129.448 96.6174C129.912 94.764 130.493 92.4374 129.802 90.5688Z" fill="#3A180F"/>
<path fill-rule="evenodd" clip-rule="evenodd" d="M120.265 113.195C120.93 109.885 121.159 106.847 121.071 105.137C121.934 103.879 126.02 97.8369 128.131 93.2122L126.844 92.62C125.09 96.4666 121.823 101.477 120.419 103.571C118.552 102.881 109.983 100.407 99.0469 98.8379C88.6063 97.3408 74.2134 98.1626 71.0405 98.3713C69.9335 96.4622 67.3059 91.608 66.0259 86.4697L64.6533 86.814C66.1728 92.9183 69.423 98.462 70.1926 99.7231C69.9531 101.458 69.6015 104.776 69.6875 108.762C68.3966 104.94 67.0904 100.944 66.4439 98.58L65.0789 98.957C66.0455 102.486 69.8443 114.74 69.8693 114.913C71.133 123.585 77.7694 130.565 77.7694 130.565C77.7694 130.565 84.3003 137.545 93.1485 138.391C101.997 139.236 114.141 128.378 117.586 121.47C117.92 120.802 118.218 120.093 118.499 119.37L118.52 119.383C118.732 119.001 123.717 110.003 125.189 106.519L125.593 103.068C124.904 104.7 121.675 110.544 120.265 113.195Z" fill="white"/>
<path fill-rule="evenodd" clip-rule="evenodd" d="M135.282 91.0249C131.528 106.685 120.761 115.273 120.761 115.273C125.072 107.843 127.706 92.9045 126.65 87.8339C126.325 86.2702 126.053 84.7632 125.605 83.277V83.265C124.571 79.8992 122.579 76.6208 116.746 72.9709C115.745 72.3371 114.743 71.7808 113.73 71.3C106.263 67.6829 98.3835 67.814 86.6922 69.8685C73.4139 72.1961 69.7675 76.5673 67.448 85.2331C67.4371 85.2757 67.4273 85.3194 67.4153 85.3631C65.2166 93.8661 68.4287 109.907 68.58 110.662C63.2149 103.58 60.9934 95.9304 60.2869 86.8166C59.9713 82.8169 59.9495 78.5234 60.0801 73.879C60.4937 58.6564 69.7675 46.6029 84.0908 40.2538C95.3249 35.2696 110.323 35.2379 122.373 43.1169C125.682 45.2807 128.774 48.0454 131.495 51.4659C133.265 53.6755 134.597 56.0556 135.597 58.4881L135.62 58.5144L135.869 59.1263L135.957 59.3449C141.584 74.1522 135.282 91.0249 135.282 91.0249Z" fill="#00CCB2"/>
<path fill-rule="evenodd" clip-rule="evenodd" d="M135.28 91.0255C131.526 106.685 120.76 115.273 120.76 115.273C125.07 107.844 127.704 92.9051 126.648 87.8346C126.323 86.2708 126.051 84.7639 125.603 83.2777V83.2656C125.603 83.2656 130.229 84.6316 130.926 81.0593C131.634 77.4749 128.99 71.5618 128.13 66.9076C127.28 62.2524 128.543 61.683 129.522 59.1488C130.512 56.6136 130.993 55.3459 130.122 53.51C129.293 51.7944 128.271 49.8273 128.14 49.5869L135.619 58.515L135.868 59.127L135.955 59.3455C141.582 74.1529 135.28 91.0255 135.28 91.0255Z" fill="#00A48F"/>
<path fill-rule="evenodd" clip-rule="evenodd" d="M73.0264 121.331C73.0264 121.331 78.1117 125.632 81.4871 126.584C84.8635 127.536 91.2844 121.514 96.3926 120.425C101.501 119.335 111.311 120.082 113.325 115.278C115.34 110.473 119.037 104.725 119.037 104.725C119.037 104.725 119.404 110.677 118.009 116.923C116.613 123.17 113.619 125.337 108.088 131.371C102.559 137.406 95.4565 138.187 89.6376 136.7C83.8197 135.213 75.3546 129.086 73.0264 121.331Z" fill="#F0F0F0"/>
<path fill-rule="evenodd" clip-rule="evenodd" d="M122.373 43.1169C120.958 42.8 119.13 42.4831 115.342 41.8056C108.441 40.5707 109.442 39.2692 104.675 38.7021C99.9183 38.1327 95.8256 38.7021 88.6526 40.538C81.4904 42.3727 83.319 43.3574 81.4904 46.4609C79.6618 49.5633 76.0154 52.2417 71.1064 54.7104C66.1865 57.1691 66.7525 58.4477 63.7265 63.8035C60.7114 69.157 61.9741 71.2782 61.6911 76.7749C61.5496 79.5823 60.8965 83.5819 60.2869 86.8165C59.9713 82.8169 59.9495 78.5223 60.0801 73.8779C60.4937 58.6564 69.7675 46.6018 84.0918 40.2538C95.3249 35.2696 110.324 35.2379 122.373 43.1169Z" fill="#00DABE"/>
<path fill-rule="evenodd" clip-rule="evenodd" d="M113.728 71.2976C106.261 67.6794 98.3802 67.8116 86.69 69.865C73.4106 72.1926 69.7642 76.5638 67.4457 85.2307C67.4349 85.2733 67.424 85.317 67.4131 85.3607C67.7614 83.1107 68.2186 80.7164 68.7737 79.0564C70.1125 75.0787 73.6283 71.4167 77.5577 69.724C81.487 68.0302 83.5987 66.7625 88.9322 65.767C94.2766 64.7835 96.9434 65.3528 101.156 66.1932C105.368 67.0455 108.285 66.1932 110.985 68.7284C111.79 69.4836 112.759 70.3906 113.728 71.2976Z" fill="#00DABE"/>
<path fill-rule="evenodd" clip-rule="evenodd" d="M474.808 250.536C474.701 251.355 474.549 252.374 474.366 253.578C473.161 261.037 470.449 275.277 467.767 288.172C466.015 296.605 464.276 304.466 462.996 309.501C462.25 312.482 462.083 318.55 462.296 326.273C463.057 354.737 468.895 405.547 468.895 405.547C468.895 405.547 441.37 411.123 426.039 410.737C410.693 410.335 348.939 401.161 348.939 401.161C348.939 401.161 352.155 386.829 355.661 369.393C360.386 345.918 365.643 316.821 364.302 309.501C363.676 306.088 362.794 295.74 361.94 282.335C361.497 275.586 361.055 268.064 360.675 260.265C359.135 229.285 358.282 193.84 360.324 184.667C360.355 184.528 360.386 184.404 360.415 184.28C360.614 183.478 360.858 182.905 361.117 182.628L361.131 182.613C362.778 180.913 367.091 178.875 372.243 176.898C372.257 176.898 372.257 176.883 372.273 176.883C372.989 176.605 373.736 176.327 374.483 176.049L374.498 176.033C379.374 174.243 384.709 172.527 389.037 171.199C394.127 169.655 397.83 168.636 397.83 168.636L428.584 171.446L434.833 174.83L456.703 186.659C456.703 186.659 458.288 195.106 460.635 202.289C462.996 209.47 475.981 241.347 474.808 250.536Z" fill="#EDA1AB"/>
<path fill-rule="evenodd" clip-rule="evenodd" d="M474.366 253.581C473.162 261.039 470.448 275.278 467.767 288.174C466.014 296.607 464.276 304.468 462.997 309.503C462.249 312.483 462.082 318.552 462.296 326.274C449.173 330.445 406.166 343.974 394.416 346.26C384.525 348.175 365.704 361.735 355.66 369.395C360.385 345.92 365.643 316.824 364.302 309.503C363.372 304.36 361.833 283.572 360.675 260.267L377.53 213.24C377.53 213.24 383.169 254.832 382.284 262.43C382.163 263.495 382.072 264.747 381.996 266.059C385.958 268.298 393.182 272.19 396.915 273.025C402.234 274.229 439.603 268.839 439.603 268.839L437.546 277.905L444.312 269.24C444.312 269.24 465.999 260.993 474.366 253.581Z" fill="#DB909A"/>
<path fill-rule="evenodd" clip-rule="evenodd" d="M456.129 216.626L441.337 216.801L440.758 213.414L455.551 213.238L456.129 216.626Z" fill="#EB8991"/>
<path fill-rule="evenodd" clip-rule="evenodd" d="M455.551 216.194L440.759 216.368L440.181 212.981L454.973 212.807L455.551 216.194Z" fill="white"/>
<path fill-rule="evenodd" clip-rule="evenodd" d="M481.142 307.075C481.142 307.075 477.936 308.948 474.367 306.621C470.798 304.295 469.64 297.527 469.64 297.527L484.597 291.313C484.597 291.313 485.334 294.354 485.123 296.151C484.913 297.949 482.846 304.779 481.142 307.075Z" fill="#EB8991"/>
<path fill-rule="evenodd" clip-rule="evenodd" d="M490.807 281.312C490.796 281.529 490.784 281.759 490.753 281.977C489.827 294.021 481.707 306.248 481.141 307.079C481.337 306.62 482.97 302.894 483.231 300.915C483.296 300.392 483.34 299.243 483.296 297.769C483.188 293.3 482.328 285.758 479.149 283.005C478.866 282.764 478.573 282.514 478.246 282.261C474.729 279.518 469.125 276.58 466.904 275.443C466.871 275.147 466.828 274.766 466.763 274.394C466.632 273.662 466.414 272.973 466.044 273.028L463.192 246.659L458.773 205.799L456.705 186.665C456.705 186.665 467.786 191.124 474.883 202.183C478.801 208.301 483.177 222.191 486.355 236.573V236.583C486.442 237.14 489.196 254.779 490.361 268.712C490.774 273.706 490.992 278.219 490.807 281.312Z" fill="#FFAEB7"/>
<path fill-rule="evenodd" clip-rule="evenodd" d="M478.245 282.26C474.729 279.517 469.123 276.579 466.903 275.442C466.87 275.146 466.827 274.765 466.761 274.393C466.631 273.661 466.413 272.972 466.043 273.027L463.191 246.658V230.713L462.092 206.378C462.092 206.378 471.932 222.823 473.793 227.534C475.643 232.243 481.543 259.312 481.826 264.962C482.054 269.726 479.888 278.863 478.245 282.26Z" fill="#EB8991"/>
<path fill-rule="evenodd" clip-rule="evenodd" d="M442.443 290.198L456.319 224.189L483.946 218.518L470.07 284.528L442.443 290.198Z" fill="#3E5164"/>
<path fill-rule="evenodd" clip-rule="evenodd" d="M483.948 218.515L481.683 216.638L454.057 222.309L440.181 288.319L442.446 290.196L456.322 224.186L483.948 218.515Z" fill="white"/>
<path fill-rule="evenodd" clip-rule="evenodd" d="M483.297 297.767C482.95 298.139 482.591 298.488 482.241 298.794C478.596 302.04 466.654 303.592 466.654 303.592L466.938 275.955C466.938 275.955 466.926 275.747 466.905 275.441C469.321 276.676 475.776 280.064 479.15 283.004C482.328 285.757 483.188 293.298 483.297 297.767Z" fill="#0099B8"/>
<path fill-rule="evenodd" clip-rule="evenodd" d="M477.005 290.149V290.16C476.906 290.576 476.787 291.024 476.634 291.492C476.515 291.876 476.374 292.268 476.22 292.674C476.133 292.913 476.035 293.165 475.927 293.416C475.786 293.799 475.621 294.181 475.437 294.575C475.34 294.805 475.23 295.034 475.122 295.264C474.99 295.547 474.859 295.82 474.729 296.093C474.587 296.378 474.457 296.651 474.305 296.925C474.153 297.209 474.012 297.482 473.858 297.755C473.858 297.766 473.848 297.766 473.848 297.776C473.696 298.06 473.542 298.333 473.38 298.606C473.195 298.935 473.021 299.23 472.836 299.525C472.781 299.601 472.737 299.688 472.683 299.766C472.52 300.028 472.356 300.269 472.205 300.508C472.008 300.792 471.812 301.065 471.638 301.296C471.54 301.416 471.453 301.525 471.356 301.635C471.268 301.733 471.191 301.83 471.104 301.919C468.624 304.64 447.072 306.704 439.409 303.382C439.409 303.382 436.447 301.547 435.871 299.045C435.839 298.923 435.805 298.781 435.805 298.662C435.457 296.247 437.046 293.547 437.046 293.547C437.046 293.547 435 292.084 435.556 290.193C435.599 290.039 435.654 289.876 435.752 289.701C436.85 287.57 437.623 286.827 437.623 286.827L437.613 286.784C437.579 286.609 437.504 286.106 437.613 285.472C437.776 284.434 438.418 283.046 440.583 282.445C440.583 282.445 440.529 281.604 440.888 280.544C441.16 279.799 441.618 278.936 442.457 278.183C442.76 277.899 443.12 277.637 443.534 277.407C443.534 277.407 450.423 279.604 454.353 279.198C454.353 279.198 453.046 278.238 452.187 276.5C451.947 275.998 451.729 275.451 451.599 274.827C451.599 274.827 459.664 275.211 462.996 274.827C464.237 274.675 465.553 274.969 466.849 275.451C468.537 276.096 470.169 277.08 471.453 277.965H471.463C471.9 278.271 472.292 278.555 472.639 278.817C473.357 279.32 473.935 280.238 474.457 281.297C474.772 281.953 475.067 282.663 475.329 283.385C475.959 285.057 476.472 286.74 477.005 287.766C477.265 288.269 477.233 289.111 477.005 290.149Z" fill="#58BAD3"/>
<path fill-rule="evenodd" clip-rule="evenodd" d="M466.853 275.447C464.507 275.014 461.748 275.307 460.772 275.417C459.523 275.569 456.201 275.417 455.103 275.417C453.991 275.417 451.598 274.83 451.598 274.83C451.598 274.83 459.66 275.215 462.997 274.83C464.232 274.674 465.558 274.968 466.853 275.447Z" fill="#85E4E0"/>
<path fill-rule="evenodd" clip-rule="evenodd" d="M453.167 292.561C453.167 292.561 451.49 294.059 450.423 294.26C449.341 294.46 437.043 293.55 437.043 293.55C437.043 293.55 435.001 292.083 435.548 290.198C436.601 290.662 438.949 291.588 441.081 291.666C443.932 291.759 448.381 291.742 449.799 291.898C451.201 292.067 453.167 292.561 453.167 292.561Z" fill="#0099B8"/>
<path fill-rule="evenodd" clip-rule="evenodd" d="M449.586 287.231C449.586 287.231 446.979 287.525 445.395 287.632C443.826 287.725 437.623 286.829 437.623 286.829L437.608 286.783C437.577 286.614 437.501 286.103 437.608 285.471C438.995 285.779 442.394 286.504 443.598 286.628C445.152 286.783 449.586 287.231 449.586 287.231Z" fill="#0099B8"/>
<path fill-rule="evenodd" clip-rule="evenodd" d="M444.314 283.385L440.58 282.443C440.58 282.443 440.534 281.61 440.885 280.543L444.314 283.385Z" fill="#0099B8"/>
<path fill-rule="evenodd" clip-rule="evenodd" d="M466.122 278.259C466.122 278.259 460.041 279.695 454.356 279.201C454.356 279.201 453.046 278.244 452.192 276.499C452.253 276.514 452.497 276.53 453.442 276.499C454.92 276.468 457.861 278.105 459.629 278.259C461.398 278.414 466.122 278.259 466.122 278.259Z" fill="#0099B8"/>
<path fill-rule="evenodd" clip-rule="evenodd" d="M460.955 279.09C459.568 279.291 452.969 280.157 450.272 279.832C448.047 279.553 444.283 278.642 442.453 278.179C442.758 277.901 443.124 277.639 443.535 277.407C443.535 277.407 450.424 279.6 454.357 279.198C456.886 279.415 460.041 279.167 460.955 279.09Z" fill="#85E4E0"/>
<path fill-rule="evenodd" clip-rule="evenodd" d="M477.005 287.766C476.471 286.74 475.958 285.057 475.328 283.384C475.067 282.663 474.772 281.954 474.456 281.297C473.935 280.237 473.357 279.32 472.639 278.817C472.291 278.554 471.9 278.271 471.463 277.964H471.452C471.257 277.998 470.723 278.707 470.583 279.297C470.441 279.899 468.728 284.204 468.728 284.204H468.732C468.113 285.782 467.856 287.722 466.729 289.952C464.4 294.619 459.218 296.892 459.163 296.913C457.51 297.514 456.324 297.843 456.324 297.732C456.324 297.438 455.593 290.193 455.593 290.193L452.676 295.645C452.676 295.645 445.591 299.34 443.566 299.721C442.184 300.005 438.167 299.197 435.805 298.662C435.805 298.782 435.838 298.924 435.871 299.044C436.447 301.546 439.409 303.382 439.409 303.382C447.071 306.704 468.623 304.639 471.104 301.918C471.191 301.83 471.267 301.732 471.355 301.634C471.442 301.526 471.529 301.415 471.617 301.307C471.617 301.307 471.627 301.307 471.637 301.296C471.811 301.065 472.007 300.792 472.204 300.508C472.356 300.268 472.52 300.028 472.682 299.765C472.737 299.689 472.78 299.601 472.836 299.526C473.021 299.23 473.195 298.936 473.38 298.607C473.542 298.333 473.696 298.06 473.848 297.776C473.848 297.765 473.858 297.765 473.858 297.755C473.924 297.668 473.968 297.57 474.022 297.482C474.12 297.296 474.217 297.111 474.305 296.925C474.456 296.652 474.587 296.378 474.729 296.093C474.74 296.073 474.751 296.039 474.772 296.018C474.893 295.765 475.013 295.515 475.121 295.263C475.229 295.033 475.339 294.804 475.437 294.574C475.621 294.181 475.785 293.799 475.927 293.416C476.035 293.165 476.133 292.913 476.22 292.673C476.373 292.268 476.515 291.876 476.633 291.493C476.787 291.023 476.905 290.575 477.005 290.159V290.15C477.233 289.11 477.265 288.269 477.005 287.766Z" fill="#0099B8"/>
<path fill-rule="evenodd" clip-rule="evenodd" d="M447.887 126.029C447.696 124.003 446.872 122.211 444.898 121.83C443.246 121.512 441.298 122.06 440.22 123.534C438.768 124.438 438.359 128.599 438.218 129.751C438.068 130.987 437.993 132.231 437.857 133.468C437.707 134.826 437.088 136.558 436.957 138.102C436.898 138.801 436.928 139.575 437.312 140.164C437.836 140.964 438.766 141.078 439.588 140.905C441.451 140.516 443.168 139.038 444.422 137.551C446.967 134.534 448.272 130.14 447.887 126.029Z" fill="#FFD3D1"/>
<path fill-rule="evenodd" clip-rule="evenodd" d="M428.785 152.682C428.22 155.246 428.206 160.358 428.328 165.022C428.464 170.181 428.587 171.449 428.587 171.449C428.587 171.449 427.412 179.369 416.699 180.357C406 181.361 397.832 168.636 397.832 168.636C398.579 166.273 399.143 163.277 399.555 160.528C400.194 156.326 400.468 152.682 400.468 152.682C400.468 152.682 429.974 147.291 428.785 152.682Z" fill="#FFD3D1"/>
<path fill-rule="evenodd" clip-rule="evenodd" d="M428.786 152.682C428.221 155.246 428.206 160.358 428.328 165.022C425.325 168.543 421.211 171.894 416.699 171.4C410.36 170.705 403.288 164.342 399.556 160.528C400.195 156.326 400.469 152.682 400.469 152.682C400.469 152.682 429.974 147.291 428.786 152.682Z" fill="#FF9BA1"/>
<path fill-rule="evenodd" clip-rule="evenodd" d="M443.983 105.933C444.036 100.161 443.106 94.2586 439.543 89.6842C435.816 84.8988 430.001 82.2783 424.172 81.3265C411.613 79.2775 397.883 83.6356 391.115 95.1033C388.846 98.9456 387.257 103.464 386.506 108.067C386.36 107.928 384.942 119.638 384.711 125.31C384.501 130.461 384.806 135.66 386.422 140.581C389.168 148.933 395.341 154.927 402.251 159.909C405.682 162.382 409.404 165.191 413.696 165.78C417.907 166.357 421.504 164.289 424.58 161.567C431.928 155.066 439.026 146.697 442.178 137.193C444.023 131.628 443.896 125.922 444.164 120.142C444.38 115.478 445.131 110.53 443.983 105.933Z" fill="#FAE0BD"/>
<path fill-rule="evenodd" clip-rule="evenodd" d="M389.931 124.81C389.753 123.162 388.978 120.608 387.249 120.045C387.168 120.018 387.093 120.024 387.02 120.041C386.533 119.605 385.937 119.299 385.247 119.165C383.944 118.913 382.381 119.127 381.369 120.059C380.126 121.202 379.697 123.247 379.472 124.852C379.218 126.657 379.209 128.504 379.424 130.316C379.858 134.003 381.849 137.743 385.366 139.225C386.674 139.776 387.912 139.691 388.355 138.155C388.598 137.306 388.709 136.398 388.893 135.533C389.163 134.26 389.433 132.984 389.617 131.694C389.933 129.48 390.172 127.045 389.931 124.81Z" fill="#FFD3D1"/>
<path fill-rule="evenodd" clip-rule="evenodd" d="M420.146 149.017C419.674 148.978 419.368 149.268 418.995 149.51C418.633 149.747 418.248 149.953 417.847 150.116C417.013 150.452 416.118 150.65 415.221 150.691C414.327 150.733 413.441 150.625 412.584 150.361C412.166 150.232 411.77 150.055 411.398 149.823C411.309 149.768 411.228 149.699 411.129 149.661C411.096 149.648 410.965 149.6 410.936 149.593C410.731 149.494 410.533 149.325 410.362 149.18C410.078 148.941 409.596 149.246 409.819 149.604C409.954 149.819 410.097 150.045 410.268 150.232C410.403 150.38 410.483 150.559 410.727 150.744C411.129 151.047 411.563 151.285 412.026 151.48C413.011 151.898 414.092 152.04 415.156 151.998C416.232 151.955 417.307 151.735 418.305 151.324C419.083 151.004 420.542 150.439 420.551 149.428C420.553 149.192 420.363 149.036 420.146 149.017Z" fill="#FF6969"/>
<path fill-rule="evenodd" clip-rule="evenodd" d="M419.419 138.827C419.235 137.966 418.656 137.446 418.091 136.83C417.903 136.623 417.878 136.259 417.839 135.909C417.768 135.265 417.741 134.631 417.621 133.994C417.575 133.751 417.185 133.753 417.138 133.994C417.03 134.551 416.947 135.096 416.91 135.663C416.884 136.085 416.871 136.533 417.008 136.939C417.227 137.596 417.867 137.948 418.173 138.551C418.3 138.8 418.366 139.058 418.372 139.306C418.377 139.561 418.346 139.736 418.23 139.905C418.21 139.93 418.187 139.953 418.163 139.976C418.144 139.99 418.147 139.99 418.139 139.996C418.131 140.001 418.131 140 418.113 140.012C418.093 140.024 418.074 140.034 418.054 140.044C418.049 140.044 418.036 140.048 418.005 140.059C417.987 140.064 417.917 140.072 417.902 140.074C417.759 140.081 417.743 140.078 417.566 140.023C417.305 139.943 417.11 139.958 416.85 140.037C416.527 140.134 416.383 140.502 416.543 140.8C416.699 141.087 416.883 141.268 417.212 141.329C417.431 141.37 417.653 141.394 417.877 141.371C418.267 141.33 418.643 141.188 418.926 140.903C419.461 140.366 419.572 139.547 419.419 138.827Z" fill="#FF9BA1"/>
<path fill-rule="evenodd" clip-rule="evenodd" d="M427.126 123.426C426.813 122.964 425.903 123.089 425.598 123.495C425.55 123.558 425.498 123.62 425.452 123.683C425.324 123.862 425.314 123.995 425.29 124.19C425.273 124.328 425.257 124.467 425.242 124.605C425.204 124.919 425.189 125.228 425.182 125.543C425.175 125.845 425.17 126.147 425.172 126.45C425.174 126.6 425.176 126.752 425.18 126.904C425.187 127.118 425.246 127.325 425.295 127.536C425.372 127.865 425.931 128.114 426.353 128.08C426.783 128.046 427.308 127.799 427.36 127.441C427.456 126.774 427.423 126.108 427.447 125.44C427.458 125.137 427.468 124.84 427.457 124.539C427.452 124.391 427.454 124.24 427.44 124.091C427.415 123.832 427.276 123.647 427.126 123.426Z" fill="#00143B"/>
<path fill-rule="evenodd" clip-rule="evenodd" d="M431.724 115.907C431.414 115.646 431.116 115.365 430.785 115.132C429.885 114.501 428.67 114.335 427.601 114.287C425.438 114.189 423.495 115.444 422.414 117.302C422.185 117.697 422.802 118.066 423.076 117.72C424.229 116.264 426.104 115.475 427.93 115.657C428.762 115.739 429.608 115.891 430.27 116.433C430.714 116.798 431.538 117.799 432.182 117.483C432.509 117.323 432.625 117.027 432.536 116.675C432.45 116.338 431.981 116.122 431.724 115.907Z" fill="#FF9043"/>
<path fill-rule="evenodd" clip-rule="evenodd" d="M402.926 123.426C403.239 122.964 404.15 123.089 404.455 123.495C404.502 123.558 404.555 123.62 404.601 123.683C404.728 123.862 404.739 123.995 404.762 124.19C404.779 124.328 404.796 124.467 404.811 124.605C404.848 124.919 404.863 125.228 404.871 125.543C404.877 125.845 404.882 126.147 404.879 126.45C404.878 126.6 404.876 126.752 404.872 126.904C404.866 127.118 404.807 127.325 404.758 127.536C404.68 127.865 404.122 128.114 403.698 128.08C403.27 128.046 402.744 127.799 402.693 127.441C402.597 126.774 402.628 126.108 402.605 125.44C402.594 125.137 402.585 124.84 402.596 124.539C402.601 124.391 402.599 124.24 402.613 124.091C402.637 123.832 402.775 123.647 402.926 123.426Z" fill="#00143B"/>
<path fill-rule="evenodd" clip-rule="evenodd" d="M398.328 115.907C398.639 115.646 398.937 115.365 399.269 115.132C400.169 114.501 401.384 114.335 402.453 114.287C404.614 114.189 406.557 115.444 407.639 117.302C407.868 117.697 407.251 118.066 406.977 117.72C405.825 116.264 403.948 115.475 402.123 115.657C401.29 115.739 400.445 115.891 399.784 116.433C399.338 116.798 398.514 117.799 397.87 117.483C397.544 117.323 397.428 117.027 397.517 116.675C397.603 116.338 398.073 116.122 398.328 115.907Z" fill="#FF9043"/>
<path fill-rule="evenodd" clip-rule="evenodd" d="M435.175 137.37C435.175 138.224 433.569 138.915 431.587 138.915C429.605 138.915 427.998 138.224 427.998 137.37C427.998 136.518 429.605 135.826 431.587 135.826C433.569 135.826 435.175 136.518 435.175 137.37Z" fill="#FFBCC1"/>
<path fill-rule="evenodd" clip-rule="evenodd" d="M403.91 137.37C403.91 138.224 402.302 138.915 400.32 138.915C398.339 138.915 396.731 138.224 396.731 137.37C396.731 136.518 398.339 135.826 400.32 135.826C402.302 135.826 403.91 136.518 403.91 137.37Z" fill="#FFBCC1"/>
<path fill-rule="evenodd" clip-rule="evenodd" d="M439.505 141.546L438.181 141.044C438.217 140.948 441.822 131.301 442.921 124.541L444.317 124.769C443.195 131.67 439.656 141.146 439.505 141.546Z" fill="white"/>
<path fill-rule="evenodd" clip-rule="evenodd" d="M439.964 138.613C439.964 138.613 439.897 139.136 439.757 139.979C439.485 141.76 438.908 144.972 438.005 147.497C435.196 155.397 423.963 167.386 418.76 168.368C413.383 169.385 407.81 167.386 401.203 162.588C400.202 161.856 399.221 161.047 398.297 160.183C393.105 155.452 389.263 149.474 389.263 149.474C389.263 149.474 390.112 139.039 391.799 137.629C393.486 136.22 423.963 128.603 439.964 138.613Z" fill="white"/>
<path fill-rule="evenodd" clip-rule="evenodd" d="M439.755 139.977C439.483 141.758 438.907 144.97 438.004 147.496C435.196 155.395 423.961 167.384 418.759 168.367C413.383 169.383 407.809 167.384 401.201 162.586C400.2 161.855 399.22 161.045 398.295 160.182L395.585 155.811C395.585 155.811 398.382 158.258 400.321 158.478C400.321 158.478 408.102 159.406 410.063 158.991C412.022 158.566 414.187 153.386 414.187 153.386C414.187 153.386 423.548 150.62 426.313 150.62C429.077 150.62 432.452 145.988 432.397 143.026C432.343 140.065 432.397 135.867 432.397 135.867C432.397 135.867 436.86 137.277 439.755 139.977Z" fill="#F0F0F0"/>
<path fill-rule="evenodd" clip-rule="evenodd" d="M391.707 138.615C391.649 138.482 385.95 125.248 383.77 122.101L384.93 121.29C387.193 124.553 392.77 137.502 393.005 138.051L391.707 138.615Z" fill="white"/>
<path fill-rule="evenodd" clip-rule="evenodd" d="M389.266 149.474C389.213 149.382 384.008 140.169 381.626 133.135L382.966 132.679C385.304 139.585 390.444 148.679 390.495 148.771L389.266 149.474Z" fill="white"/>
<path fill-rule="evenodd" clip-rule="evenodd" d="M448.401 107.872C447.552 118.308 441.478 135.825 441.478 135.825C442.284 131.77 442.404 125.716 441.076 120.68C440.433 118.21 439.443 115.991 438.006 114.362C436.885 113.095 434.969 112.025 432.564 111.138V111.127C425.576 108.561 414.452 107.599 406.821 108.44C396.568 109.566 391.233 113.937 388.285 120.986C385.868 126.754 386.304 138.83 386.532 143.027C386.598 143.945 386.63 144.512 386.63 144.512C386.63 144.512 380.557 140.306 376.768 133.256C375.276 130.481 374.352 125.925 373.873 121.007C373.133 113.402 373.471 104.953 374.439 100.998C374.45 100.975 374.46 100.966 374.46 100.943C375.386 95.0318 377.627 89.5787 380.981 84.8907C387.447 75.8642 404.013 66.4214 424.66 72.7596C427.557 73.6557 430.137 74.7824 432.401 76.0937C437.059 78.7699 440.466 82.2133 442.926 85.9496C447.802 93.3598 448.879 101.904 448.401 107.872Z" fill="#00CCB2"/>
<path fill-rule="evenodd" clip-rule="evenodd" d="M448.401 107.872C447.552 118.308 441.478 135.824 441.478 135.824C442.283 131.77 442.403 125.716 441.075 120.679C441.587 120.328 442.066 119.816 442.447 119.061C444.047 115.947 444.362 111.292 444.46 108.548C444.568 105.795 445.832 105.981 446.147 102.658C446.386 100.102 445.254 91.6864 442.926 85.9492C447.802 93.3594 448.878 101.904 448.401 107.872Z" fill="#00A48F"/>
<path fill-rule="evenodd" clip-rule="evenodd" d="M432.561 111.128C425.573 108.56 414.448 107.6 406.819 108.44C396.566 109.566 391.231 113.937 388.281 120.986C385.866 126.755 386.301 138.831 386.53 143.027C386.312 139.76 385.734 132.044 385.157 129.957C384.418 127.27 385.583 120.505 387.477 117.86C389.37 115.204 390.632 111.609 393.005 109.391C395.379 107.172 396.532 107.172 402.596 106.429C408.647 105.687 411.663 104.67 415.047 105.391C418.443 106.112 420.969 106.539 424.027 107.172C427.086 107.806 432.561 111.128 432.561 111.128Z" fill="#00DABE"/>
<path fill-rule="evenodd" clip-rule="evenodd" d="M424.661 72.7596C404.013 66.4214 387.447 75.8642 380.98 84.8907C377.628 89.5787 375.386 95.0318 374.461 100.943C374.461 100.966 374.45 100.975 374.439 100.998C373.471 104.953 373.133 113.4 373.874 121.006C374.526 115.478 375.746 105.064 376.202 101.687C376.693 98.0621 378.745 93.0483 381.794 88.5592C381.14 91.1709 381.629 93.044 381.629 93.044C382.055 96.6546 385.371 94.057 387.056 91.5184C388.742 88.981 392.323 86.3364 395.589 82.8777C398.606 79.6813 398.383 76.1418 397.075 75.2031C399.366 74.2414 401.938 73.5453 404.883 73.2513C414.756 72.2689 418.359 74.213 423.399 74.1693C425.533 74.1584 429.047 75.0555 432.4 76.0937C430.136 74.7824 427.556 73.6557 424.661 72.7596Z" fill="#00DABE"/>
<path fill-rule="evenodd" clip-rule="evenodd" d="M434.838 174.826C433.565 182.749 430.495 197.796 424.454 206.375C424.454 206.375 398.177 188.584 389.035 171.198C398.429 168.182 398.57 165.876 398.57 165.876C400.323 167.198 402.01 168.28 403.642 169.165C412.851 174.17 420.089 172.837 424.313 171.056C426.978 169.93 428.438 168.63 428.438 168.63C429.145 171.307 434.109 174.378 434.762 174.782C434.815 174.815 434.838 174.826 434.838 174.826Z" fill="white"/>
<path fill-rule="evenodd" clip-rule="evenodd" d="M476.363 293.147L476.348 293.178C476.012 294.151 475.524 295.278 474.824 296.561V296.576C473.451 299.062 471.304 302.074 467.92 305.379C467.417 305.858 466.883 306.336 466.35 306.816C456.322 315.773 433.599 324.437 425.049 325.04C421.331 325.302 407.95 322.475 393.715 319C393.609 318.986 393.564 318.97 393.564 318.97C375.062 314.46 355.204 308.916 353.375 307.711C345.405 302.46 341.579 294.26 340.695 289.704C340.528 288.885 340.421 287.82 340.36 286.63C340.04 281.179 340.558 273.024 340.558 273.024L370.475 277.209L369.698 283.541L369.302 286.831C369.302 286.831 382.576 293.363 393.198 299.649C403.805 305.935 423.571 310.09 423.571 310.09L423.587 310.073C429.789 302.923 440.38 300.823 441.661 299.649C442.941 298.46 452.771 288.576 454.539 288.283C456.322 287.974 455.728 291.557 453.96 296.051C452.268 300.344 447.193 303.819 446.781 304.098C447.315 303.959 455.941 301.472 461.169 298.46C461.169 298.46 461.184 298.46 461.215 298.445C462.723 297.564 463.942 296.653 464.582 295.742C467.523 291.557 470.769 284.993 472.537 284.993C472.751 284.993 472.934 285.055 473.117 285.178C474.428 286.043 474.885 289.704 474.885 289.704C474.885 289.704 476.668 288.87 476.957 289.704C477.064 290.013 477.018 291.248 476.363 293.147Z" fill="#58BAD3"/>
<path fill-rule="evenodd" clip-rule="evenodd" d="M473.117 285.177C471.7 286.211 469.154 289.656 467.158 293.146C464.948 296.992 461.611 298.305 461.215 298.443C462.723 297.563 463.943 296.651 464.583 295.741C467.524 291.556 470.771 284.991 472.538 284.991C472.752 284.991 472.934 285.054 473.117 285.177Z" fill="#85E4E0"/>
<path fill-rule="evenodd" clip-rule="evenodd" d="M454.54 288.283C454.54 288.283 449.801 291.897 447.91 296.096C446.02 300.298 440.244 301.874 435.459 303.819C430.826 305.703 424.014 309.827 423.587 310.073C429.79 302.923 440.381 300.824 441.662 299.649C442.942 298.46 452.772 288.577 454.54 288.283Z" fill="#85E4E0"/>
<path fill-rule="evenodd" clip-rule="evenodd" d="M476.35 293.176C476.014 294.15 475.526 295.277 474.826 296.56V296.574C473.454 299.061 471.305 302.073 467.922 305.377C467.419 305.857 466.886 306.335 466.352 306.813C456.325 315.772 433.602 324.434 425.052 325.038C421.333 325.3 407.953 322.474 393.718 318.999C395.882 319.339 420.754 323.215 425.845 322.644C431.148 322.058 455.683 312.659 462.07 308.497C472.836 301.481 475.877 293.856 476.35 293.176Z" fill="#0099B8"/>
<path fill-rule="evenodd" clip-rule="evenodd" d="M421.297 322.56C421.166 323.38 421.025 324.123 420.883 324.746C420.547 326.242 420.241 327.138 420.241 327.138C420.241 327.138 418.761 326.713 414.548 326.079C410.337 325.445 356.828 313.172 351.134 309.37C351.123 309.37 351.123 309.359 351.113 309.359C345.442 305.545 340.064 296.638 339.128 291.316C338.998 290.563 338.856 289.011 338.747 286.815C338.095 273.428 338.464 235.869 347.172 205.872C352.582 187.24 360.647 182.889 361.115 182.627L361.137 182.606C361.518 182.738 361.866 182.869 362.214 183.032C362.302 183.054 362.401 183.086 362.487 183.13C379.793 190.539 379.467 223.323 376.376 248.677C375.766 253.659 375.048 258.359 374.34 262.511C374.253 263.035 374.155 263.549 374.058 264.073C372.751 271.571 371.499 277.089 371.042 279.002C370.978 279.252 370.922 279.504 370.868 279.744C370.041 283.579 369.464 286.105 369.464 286.105C369.464 286.105 380.838 290.968 393.715 298.867C406.592 306.758 420.547 309.118 420.547 309.118C420.578 309.217 420.611 309.326 420.634 309.424C420.687 309.577 420.731 309.731 420.775 309.883C422.102 314.561 421.819 319.249 421.297 322.56Z" fill="#FCB0BA"/>
<path fill-rule="evenodd" clip-rule="evenodd" d="M380.13 313.742C385.473 315.621 408.528 320.9 410.803 321.424C408.277 321.031 380.946 316.66 364.509 312.616C359.634 311.425 355.138 310.397 351.111 309.36C345.44 305.546 340.062 296.64 339.126 291.317C338.997 290.564 338.854 289.012 338.745 286.815C340.085 288.476 347.333 297.513 350.642 301.207C354.3 305.284 374.513 311.763 380.13 313.742Z" fill="#DB909A"/>
<path fill-rule="evenodd" clip-rule="evenodd" d="M184.164 334.465L182.716 351.831L180.823 374.419L179.103 394.952C178.994 394.973 178.875 394.984 178.744 394.996C177.84 395.093 175.347 395.334 172.996 395.159C170.776 395.006 167.118 392.318 164.277 389.378C164.256 389.356 164.224 389.323 164.19 389.291C164.06 389.172 163.94 389.029 163.809 388.875C163.058 388.079 162.383 387.269 161.828 386.493C159.085 382.679 156.561 374.013 156.353 368.517C156.202 364.725 156.527 350.398 156.734 341.831V341.754C156.833 337.908 156.908 335.241 156.908 335.241L184.164 334.465Z" fill="#58BAD3"/>
<path fill-rule="evenodd" clip-rule="evenodd" d="M180.822 374.418L179.103 394.951C178.993 394.973 178.874 394.983 178.743 394.995C175.935 395.235 169.045 392.896 167.161 389.661C165.202 386.284 165.899 376.547 166.465 372.319C167.019 368.09 169.132 361.599 169.697 359.49C170.166 357.697 170.644 354.31 170.776 353.294C170.611 355.096 170.253 364.254 170.253 367.107C170.253 370.209 171.799 373.729 172.505 374.58C173.203 375.423 176.294 375.281 177.273 375.281C177.959 375.281 179.756 374.745 180.822 374.418Z" fill="#0099B8"/>
<path fill-rule="evenodd" clip-rule="evenodd" d="M163.809 388.876C163.059 388.079 162.383 387.269 161.829 386.493C159.085 382.68 156.561 374.014 156.353 368.517C156.202 364.725 156.528 350.399 156.734 341.831C156.79 343.175 157.507 360.878 157.507 363.009C157.507 365.239 158.987 375.806 159.511 378.035C160.012 380.112 161.927 386.504 163.809 388.876Z" fill="#85E4E0"/>
<path fill-rule="evenodd" clip-rule="evenodd" d="M184.164 334.465L182.716 351.831C181.715 347.939 180.517 342.859 179.735 341.831C178.472 340.17 156.908 335.241 156.908 335.241L184.164 334.465Z" fill="#0099B8"/>
<path fill-rule="evenodd" clip-rule="evenodd" d="M184.163 336.082L166.78 335.547L156.908 335.239L156.353 329.591L172.146 329.83L183.739 330.017L184.163 336.082Z" fill="#00CCB2"/>
<path fill-rule="evenodd" clip-rule="evenodd" d="M184.162 336.083L166.779 335.547L172.145 329.831L183.738 330.018L184.162 336.083Z" fill="#00A48F"/>
<path fill-rule="evenodd" clip-rule="evenodd" d="M190.478 211.154C189.825 220.924 189.052 233.611 188.27 247.052C188.236 247.786 188.192 248.506 188.149 249.238C185.962 287.126 183.741 330.018 183.741 330.018L172.148 329.831L156.354 329.591C156.354 329.591 151.293 319.024 151.293 310.555C151.293 302.217 153.34 264.712 153.405 248.637V247.949C153.405 247.479 153.415 246.976 153.426 246.451C153.928 229.437 162.418 183.441 167.73 162.929C173.205 141.773 189.64 122.321 189.64 122.321C189.64 122.321 190.131 129.829 190.609 141.194C191.361 159.531 192.045 187.922 190.478 211.154Z" fill="white"/>
<path fill-rule="evenodd" clip-rule="evenodd" d="M190.477 211.155C187.953 248.801 183.741 330.019 183.741 330.019L172.147 329.832L177.841 322.401C177.841 322.401 178.265 277.99 178.265 267.412C178.265 256.833 180.365 226.377 182.902 195.921C184.763 173.519 188.66 151.357 190.608 141.194C191.36 159.531 192.045 187.922 190.477 211.155Z" fill="#D0D0D0"/>
<path fill-rule="evenodd" clip-rule="evenodd" d="M188.267 247.053C188.234 247.786 188.191 248.507 188.147 249.239C172.734 248.856 158.236 248.692 153.403 248.638V247.949C153.403 247.48 153.413 246.978 153.424 246.452C158.28 246.507 172.831 246.671 188.267 247.053Z" fill="#B4B4B4"/>
<path fill-rule="evenodd" clip-rule="evenodd" d="M335.952 370.32C335.756 375.577 333.34 383.87 330.706 387.52C330.183 388.264 329.53 389.029 328.812 389.793C328.692 389.947 328.572 390.078 328.452 390.197C328.42 390.231 328.387 390.252 328.365 390.275C325.644 393.094 322.15 395.661 320.028 395.815C317.775 395.978 315.391 395.75 314.531 395.651C314.4 395.64 314.291 395.628 314.183 395.608L312.539 375.958L311.908 368.44L309.339 337.733L335.419 338.475C335.419 338.475 335.495 341.022 335.582 344.705V344.782C335.778 352.978 336.094 366.692 335.952 370.32Z" fill="#58BAD3"/>
<path fill-rule="evenodd" clip-rule="evenodd" d="M312.537 375.961L314.183 395.609C314.286 395.63 314.402 395.641 314.527 395.652C317.214 395.882 323.807 393.644 325.609 390.549C327.483 387.318 326.817 378 326.275 373.954C325.745 369.907 323.723 363.696 323.181 361.679C322.734 359.963 322.276 356.722 322.151 355.749C322.307 357.475 322.651 366.238 322.651 368.966C322.651 371.935 321.172 375.302 320.495 376.119C319.828 376.924 316.869 376.787 315.933 376.787C315.277 376.787 313.558 376.275 312.537 375.961Z" fill="#0099B8"/>
<path fill-rule="evenodd" clip-rule="evenodd" d="M328.814 389.798C329.533 389.034 330.179 388.26 330.709 387.518C333.335 383.868 335.751 375.576 335.949 370.316C336.094 366.688 335.782 352.98 335.585 344.782C335.533 346.067 334.845 363.007 334.845 365.047C334.845 367.18 333.428 377.292 332.929 379.425C332.45 381.41 330.616 387.528 328.814 389.798Z" fill="#85E4E0"/>
<path fill-rule="evenodd" clip-rule="evenodd" d="M326.167 340.739C322.238 341.438 311.973 344.115 311.973 344.115C311.973 344.115 312.671 349.896 312.539 353.426C312.399 356.956 311.973 368.517 311.973 368.517L311.908 368.441L309.339 337.733L335.419 338.476C335.419 338.476 330.086 340.028 326.167 340.739Z" fill="#0099B8"/>
<path fill-rule="evenodd" clip-rule="evenodd" d="M336.267 332.555L335.418 338.478C335.418 338.478 332.392 338.598 328.343 338.707C320.8 338.915 309.687 339.079 308.032 338.336V332.14L322.999 332.358L336.267 332.555Z" fill="#00CCB2"/>
<path fill-rule="evenodd" clip-rule="evenodd" d="M328.343 338.707C320.8 338.915 309.687 339.079 308.032 338.336V332.14L322.999 332.358L328.343 338.707Z" fill="#00A48F"/>
<path fill-rule="evenodd" clip-rule="evenodd" d="M336.267 332.552C336.267 332.552 331.216 333.023 324.065 333.011C319.352 333.011 313.714 332.815 308.032 332.137C308.032 332.137 304.244 240.343 307.618 196.773C308.914 179.989 309.773 165.093 310.339 153.116C311.243 133.992 311.406 122.321 311.406 122.321C311.406 122.321 320.255 126.966 329.105 139.239C337.954 151.51 345.116 203.111 345.954 244.147C345.976 245.14 345.987 246.134 346.009 247.108C346.02 247.839 346.03 248.571 346.041 249.294C346.575 287.366 343.93 311.9 336.267 332.552Z" fill="white"/>
<path fill-rule="evenodd" clip-rule="evenodd" d="M315.194 291.529C315.194 291.529 315.854 272.669 316.452 250.674L338.372 247.53L316.516 248.301C316.85 235.797 317.157 222.479 317.306 211.155C317.73 179.005 311.723 148.44 311.723 148.44L310.339 153.116C309.774 165.093 308.914 179.989 307.618 196.773C304.244 240.343 308.032 332.137 308.032 332.137C313.715 332.815 319.352 333.012 324.065 333.012L316.043 326.63L315.194 291.529Z" fill="#D0D0D0"/>
<path fill-rule="evenodd" clip-rule="evenodd" d="M346.044 249.295C326.352 248.792 307.391 248.628 307.186 248.628L307.206 246.442C307.414 246.442 326.342 246.606 346.011 247.109C346.021 247.841 346.032 248.573 346.044 249.295Z" fill="#B4B4B4"/>
<path fill-rule="evenodd" clip-rule="evenodd" d="M200.733 114.701L189.638 122.316C189.638 122.316 186.688 203.534 185.844 222.571C185.002 241.606 186.688 294.06 186.688 294.06L177.84 402.774L313.934 404.89C313.934 404.89 308.034 291.522 308.034 289.83C308.034 288.138 313.512 191.266 313.934 174.346C314.355 157.426 311.406 122.316 311.406 122.316L295.676 117.804L200.733 114.701Z" fill="white"/>
<path fill-rule="evenodd" clip-rule="evenodd" d="M289.918 220.043H267.579V197.615H233.887V220.043H211.548V253.868H233.887V276.296H267.579V253.868H289.918V220.043Z" fill="#F0F0F0"/>
<path fill-rule="evenodd" clip-rule="evenodd" d="M251.238 126.943C250.939 127.101 250.617 127.176 250.284 127.211C250.69 139.126 252.238 186.34 251.874 203.527C251.717 210.879 251.282 227.371 250.776 246.47C249.907 279.281 248.924 316.471 248.924 323.675C248.924 334.964 248.506 407.962 248.502 408.698L249.59 408.705C249.595 407.968 250.013 334.968 250.013 323.675C250.013 316.485 250.996 279.304 251.864 246.5C252.369 227.4 252.806 210.904 252.963 203.551C253.33 186.19 251.752 138.299 251.361 126.884C251.319 126.9 251.283 126.928 251.238 126.943Z" fill="#D0D0D0"/>
<path fill-rule="evenodd" clip-rule="evenodd" d="M295.679 117.808C295.679 117.808 295.657 117.819 295.624 117.83C295.026 118.103 289.888 120.354 281.757 122.551C277.98 123.567 273.561 124.583 268.652 125.381C268.609 125.392 268.565 125.392 268.521 125.403C250.137 128.364 224.885 128.32 200.732 114.704C200.732 114.704 206.348 76.6315 206.348 57.1689C206.348 37.7172 210.843 19.6643 220.4 10.3646C229.946 1.05406 243.987 -1.48121 255.786 0.769935C261.044 1.7753 267.531 4.74769 273.376 8.92215C276.533 11.1624 279.493 13.7632 281.986 16.6045C285.251 20.32 287.689 24.4289 288.658 28.6907C290.313 35.925 291.009 49.5084 291.412 62.447C291.477 64.5561 291.543 66.6543 291.597 68.7087C291.608 69.2989 291.63 69.889 291.641 70.4681C291.858 78.6422 292.011 85.8874 292.305 90.1712C293.154 102.29 294.275 113.295 295.679 117.808Z" fill="white"/>
<path fill-rule="evenodd" clip-rule="evenodd" d="M291.408 62.4483L291.412 62.4461C291.009 49.5075 290.312 35.9252 288.658 28.6898C287.689 24.4279 285.251 20.319 281.986 16.6035C283.172 18.8219 284.435 21.226 285.49 23.3351C288.439 29.258 289.703 54.8403 289.703 54.8403C289.703 54.8403 277.066 56.9614 276.228 57.1679L275.473 62.0582C275.039 62.1008 274.597 62.1445 274.181 62.1838L273.768 62.8176L275.455 82.2693C277.142 81.4279 281.626 74.9367 285.001 72.6855C286.862 71.4409 289.583 70.795 291.64 70.4672C291.57 67.8707 291.496 65.1715 291.408 62.4483Z" fill="#D0D0D0"/>
<path fill-rule="evenodd" clip-rule="evenodd" d="M295.677 117.809C295.677 117.809 295.656 117.82 295.623 117.831C294.905 118.071 286.915 120.77 281.756 122.552C280.559 122.956 279.514 123.317 278.752 123.59C277.163 124.147 273.157 124.825 268.651 125.382C268.607 125.393 268.564 125.393 268.52 125.404C261.129 126.322 252.422 126.912 250.734 126.125C250.734 126.125 268.847 121.47 273.059 119.142C277.271 116.815 288.657 102.86 288.864 94.609C289.07 86.3584 289.07 79.3864 289.07 79.3864L288.439 68.6006L291.596 68.7099C291.607 69.3 291.628 69.8901 291.639 70.4693C291.857 78.6433 292.009 85.8885 292.303 90.1723C293.152 102.291 294.273 113.296 295.677 117.809Z" fill="#D0D0D0"/>
<path fill-rule="evenodd" clip-rule="evenodd" d="M292.509 64.0915V68.7695C292.509 69.7211 291.713 70.4997 290.74 70.4997H280.249V62.3613H290.74C291.713 62.3613 292.509 63.1314 292.509 64.0915Z" fill="#00CCB2"/>
<path fill-rule="evenodd" clip-rule="evenodd" d="M286.309 70.4997H280.249V62.3613H284.507C285.129 64.7217 285.915 67.9578 286.309 70.4997Z" fill="#00A48F"/>
<path fill-rule="evenodd" clip-rule="evenodd" d="M203.753 64.0915V68.7695C203.753 69.7211 204.549 70.4997 205.522 70.4997H216.013V62.3613H205.522C204.549 62.3613 203.753 63.1314 203.753 64.0915Z" fill="#00CCB2"/>
<path fill-rule="evenodd" clip-rule="evenodd" d="M209.953 70.4997H216.013V62.3613H211.755C211.132 64.7217 210.346 67.9578 209.953 70.4997Z" fill="#00A48F"/>
<path fill-rule="evenodd" clip-rule="evenodd" d="M216.148 77.9373L217.134 53.8212C217.134 53.8212 229.673 51.2024 238.407 51.3402C247.142 51.4791 276.584 53.1313 278.557 53.6835C280.53 54.2346 280.812 64.7076 280.812 67.1887C280.812 69.6697 279.934 77.1662 277.273 78.5162C274.612 79.8672 264.188 80.2806 260.384 79.7294C256.58 79.1773 250.663 74.7674 247.423 75.7329C244.183 76.6973 236.858 79.3161 232.912 80.4183C228.968 81.5205 216.993 81.245 216.148 77.9373Z" fill="white"/>
<path fill-rule="evenodd" clip-rule="evenodd" d="M229.58 50.3135C227.122 50.3135 225.31 50.3338 224.46 50.3765C218.965 50.651 215.866 52.0287 214.74 54.2342C213.612 56.4386 214.74 77.7992 214.74 77.7992C215.162 81.3835 217.838 82.4857 224.742 82.4857C231.645 82.4857 238.125 80.6935 244.324 78.0747C245.985 77.373 247.192 77.0868 248.189 77.0868C250.912 77.0868 252.08 79.2175 256.721 80.8313C259.086 81.6547 262.471 82.0552 265.933 82.0552C271.747 82.0552 277.777 80.9242 279.544 78.7647C282.36 75.3192 282.924 64.7083 281.797 57.4041C280.978 52.1003 279.121 51.374 278.165 51.374C277.803 51.374 277.571 51.4787 277.571 51.4787C275.785 50.8956 243.004 50.3135 229.58 50.3135ZM229.583 53.5161C244.662 53.5161 273.519 54.1121 276.703 54.5714L277.754 54.9142L277.768 54.9078C278.004 55.4087 278.316 56.3176 278.557 57.8812C279.777 65.7824 278.693 74.6716 276.989 76.7564C276.351 77.4635 272.333 78.8498 265.932 78.8498C262.672 78.8498 259.714 78.4706 257.817 77.8106C256.012 77.1836 254.866 76.4851 253.756 75.8091C252.202 74.8607 250.593 73.8813 248.188 73.8813C246.685 73.8813 245.044 74.2786 243.024 75.1319C236.417 77.9238 230.436 79.2802 224.74 79.2802C223.624 79.2802 220.225 79.2802 218.694 78.5817C218.322 78.4119 218.11 78.3147 218.003 77.5211C217.53 68.4963 217.31 57.7455 217.754 55.524C218.34 54.6952 220.411 53.7853 224.627 53.5738C225.153 53.5471 226.441 53.5161 229.58 53.5161H229.583Z" fill="#00CCB2"/>
<path fill-rule="evenodd" clip-rule="evenodd" d="M199.807 116.936C199.807 116.936 236.435 138.985 295.04 119.968C295.04 119.968 285.743 128.787 247.422 130.441C247.422 130.441 215.303 130.441 199.807 116.936Z" fill="#00CCB2"/>
</svg>
