<svg width="482" height="383" viewBox="0 0 482 383" fill="none" xmlns="http://www.w3.org/2000/svg">
<rect x="56.5439" width="393" height="378" rx="189" fill="white"/>
<path d="M28.7871 362.408C28.7871 362.408 8.17694 361.168 10.6051 375.58C10.6051 375.58 10.1175 378.124 12.4336 379.282C12.4336 379.282 12.4726 378.212 14.5497 378.577C15.2888 378.701 16.0401 378.737 16.7877 378.684C17.7998 378.615 18.7617 378.218 19.5279 377.555C19.5279 377.555 25.3204 375.167 27.5779 365.721C27.5779 365.721 29.2454 363.658 29.1772 363.128L25.7007 364.587C25.7007 364.587 26.8855 367.092 25.9542 369.169C25.9542 369.169 25.8372 364.68 25.1692 364.792C25.0327 364.816 23.3652 365.662 23.3652 365.662C23.3652 365.662 25.4082 370.04 23.8528 373.192C23.8528 373.192 24.4379 367.817 22.7118 365.974L20.2739 367.404C20.2739 367.404 22.6679 371.908 21.0443 375.58C21.0443 375.58 21.4587 369.943 19.7619 367.749L17.5434 369.476C17.5434 369.476 19.7863 373.917 18.4162 376.962C18.4162 376.962 18.2407 370.4 17.0607 369.904C17.0607 369.904 15.1104 371.611 14.8227 372.336C14.8227 372.336 16.3635 375.556 15.4078 377.258C15.4078 377.258 14.8227 372.881 14.3449 372.881C14.3449 372.881 12.3945 375.775 12.2093 377.745C12.2093 377.745 12.2922 374.787 13.8719 372.584C12.7568 372.793 11.7278 373.324 10.9123 374.111C10.9123 374.111 11.2146 372.064 14.3498 371.884C14.3498 371.884 15.949 369.69 16.3781 369.554C16.3781 369.554 13.2576 369.296 11.3657 370.133C11.3657 370.133 13.0284 368.187 16.9486 369.077L19.1427 367.292C19.1427 367.292 15.0324 366.733 13.2917 367.35C13.2917 367.35 15.2957 365.643 19.7327 366.888L22.117 365.468C22.117 365.468 18.6112 364.714 16.5244 364.981C16.5244 364.981 18.7283 363.795 22.8142 365.079L24.5208 364.315C24.5208 364.315 21.9512 363.829 21.2003 363.731C20.4494 363.634 20.4104 363.444 20.4104 363.444C22.0365 363.174 23.7059 363.359 25.2326 363.979C25.2326 363.979 28.8505 362.637 28.7871 362.408Z" fill="#EE6C4D"/>
<path opacity="0.1" d="M14.5885 383.001C22.6455 383.001 29.177 381.899 29.177 380.54C29.177 379.181 22.6455 378.079 14.5885 378.079C6.5315 378.079 0 379.181 0 380.54C0 381.899 6.5315 383.001 14.5885 383.001Z" fill="#EE6C4D"/>
<path d="M481.328 329.678C481.328 329.678 469.704 328.978 471.089 337.101C471.018 337.513 471.08 337.938 471.266 338.314C471.451 338.69 471.751 338.997 472.123 339.192C472.123 339.192 472.123 338.589 473.313 338.793C473.73 338.862 474.154 338.881 474.575 338.852C475.146 338.814 475.689 338.592 476.121 338.219C476.121 338.219 479.388 336.872 480.66 331.546C480.66 331.546 481.597 330.383 481.563 330.087L479.612 330.923C479.612 330.923 480.28 332.334 479.754 333.511C479.754 333.511 479.69 330.977 479.315 331.035C479.237 331.035 478.291 331.521 478.291 331.521C478.291 331.521 479.446 333.954 478.578 335.763C478.578 335.763 478.905 332.737 477.935 331.697L476.55 332.499C476.55 332.499 477.901 335.043 476.984 337.115C476.984 337.115 477.223 333.934 476.262 332.699L475.009 333.671C475.009 333.671 476.277 336.172 475.497 337.893C475.497 337.893 475.395 334.192 474.731 333.915C474.257 334.314 473.833 334.77 473.469 335.272C473.469 335.272 474.337 337.086 473.8 338.049C473.8 338.049 473.469 335.583 473.196 335.573C473.196 335.573 472.108 337.203 471.996 338.321C472.046 337.284 472.369 336.277 472.932 335.403C472.303 335.522 471.723 335.823 471.265 336.269C471.265 336.269 471.435 335.111 473.215 335.009C473.215 335.009 474.117 333.774 474.361 333.696C474.361 333.696 472.601 333.55 471.533 334.022C471.533 334.022 472.474 332.932 474.683 333.428L475.916 332.421C475.916 332.421 473.6 332.105 472.62 332.455C472.62 332.455 473.751 331.483 476.248 332.193L477.594 331.39C476.56 331.164 475.501 331.074 474.444 331.123C474.444 331.123 475.682 330.451 477.989 331.176L478.964 330.743C478.964 330.743 477.501 330.461 477.096 330.417C476.692 330.374 476.648 330.257 476.648 330.257C477.565 330.105 478.507 330.209 479.368 330.558C479.368 330.558 481.363 329.804 481.328 329.678Z" fill="#EE6C4D"/>
<path opacity="0.1" d="M473.322 341.284C477.865 341.284 481.548 340.663 481.548 339.898C481.548 339.132 477.865 338.511 473.322 338.511C468.779 338.511 465.097 339.132 465.097 339.898C465.097 340.663 468.779 341.284 473.322 341.284Z" fill="#EE6C4D"/>
<path d="M457.427 351.797C457.427 351.797 443.395 350.955 445.072 360.771C444.987 361.269 445.061 361.782 445.286 362.235C445.51 362.689 445.872 363.06 446.32 363.296C446.32 363.296 446.32 362.566 447.783 362.809C448.287 362.894 448.799 362.919 449.309 362.882C449.997 362.834 450.651 362.564 451.172 362.114C451.172 362.114 455.116 360.489 456.647 354.059C456.647 354.059 457.783 352.653 457.739 352.293L455.37 353.305C455.37 353.305 456.179 355.007 455.545 356.423C455.545 356.423 455.467 353.363 455.014 353.436C454.921 353.436 453.78 354.025 453.78 354.025C453.78 354.025 455.175 356.997 454.121 359.151C454.121 359.151 454.521 355.494 453.346 354.243L451.679 355.216C451.679 355.216 453.307 358.286 452.205 360.786C452.205 360.786 452.488 356.948 451.328 355.435L449.821 356.607C449.821 356.607 451.347 359.633 450.416 361.705C450.416 361.705 450.294 357.24 449.489 356.904C449.489 356.904 448.168 358.062 447.968 358.543C447.968 358.543 449.016 360.737 448.368 361.895C448.368 361.895 447.968 358.918 447.641 358.903C447.641 358.903 446.325 360.873 446.179 362.225C446.244 360.976 446.636 359.766 447.315 358.714C446.555 358.857 445.853 359.219 445.296 359.754C445.296 359.754 445.501 358.363 447.637 358.242C447.637 358.242 448.724 356.744 449.016 356.651C449.016 356.651 446.891 356.476 445.603 357.045C445.603 357.045 446.739 355.732 449.406 356.33L450.898 355.114C450.898 355.114 448.1 354.73 446.915 355.153C446.915 355.153 448.28 353.991 451.303 354.837L452.927 353.864C452.927 353.864 450.543 353.353 449.124 353.538C449.124 353.538 450.621 352.731 453.405 353.606L454.565 353.086C454.565 353.086 452.815 352.74 452.308 352.687C451.8 352.633 451.766 352.492 451.766 352.492C452.873 352.309 454.009 352.435 455.048 352.857C455.048 352.857 457.466 351.952 457.427 351.797Z" fill="#EE6C4D"/>
<path opacity="0.1" d="M447.758 365.81C453.244 365.81 457.69 365.061 457.69 364.137C457.69 363.213 453.244 362.463 447.758 362.463C442.273 362.463 437.826 363.213 437.826 364.137C437.826 365.061 442.273 365.81 447.758 365.81Z" fill="#EE6C4D"/>
<path opacity="0.1" d="M392.744 360.348C417.607 360.348 437.762 357.21 437.762 353.339C437.762 349.468 417.607 346.33 392.744 346.33C367.881 346.33 347.725 349.468 347.725 353.339C347.725 357.21 367.881 360.348 392.744 360.348Z" fill="#EE6C4D"/>
<path opacity="0.1" d="M250.287 378.586C278.225 378.586 300.873 376.319 300.873 373.523C300.873 370.726 278.225 368.459 250.287 368.459C222.348 368.459 199.7 370.726 199.7 373.523C199.7 376.319 222.348 378.586 250.287 378.586Z" fill="#EE6C4D"/>
<path opacity="0.1" d="M97.0242 373.557C118.23 373.557 135.421 372.499 135.421 371.193C135.421 369.887 118.23 368.829 97.0242 368.829C75.818 368.829 58.627 369.887 58.627 371.193C58.627 372.499 75.818 373.557 97.0242 373.557Z" fill="#EE6C4D"/>
<path opacity="0.1" d="M179.892 29.7302C193.395 17.6957 214.596 15.2286 233.887 16.1868C294.488 19.2 349.19 48.4947 396.51 81.6313C413.642 93.6241 430.506 106.552 441.624 123.072C464.276 156.694 457.545 203.277 426.073 230.979C415.362 240.403 402.381 247.643 389.053 254.035C365.356 265.426 339.787 274.567 312.896 277.178C293.716 279.029 274.3 277.525 255.235 274.933C201.961 267.694 149.672 251.697 105.847 224.342C86.6256 212.307 68.504 197.403 60.5804 177.986C52.6569 158.569 57.7281 133.963 77.3568 122.47C85.4745 117.716 95.1825 115.569 104.682 113.555C118.671 110.588 132.882 107.663 145.507 101.627C158.543 95.3969 173.979 83.3485 171.395 69.5598C168.63 54.762 166.407 41.7647 179.892 29.7302Z" fill="#EE6C4D"/>
<path opacity="0.9" d="M283.218 190.565V97.6899H295.895V69.9646H205.058V97.6899H217.736V190.565C200.229 197.198 185.157 208.985 174.521 224.361C163.884 239.738 158.186 257.977 158.182 276.659C158.182 327.513 199.51 368.736 250.487 368.736C301.464 368.736 342.786 327.513 342.786 276.659C342.782 257.975 337.082 239.734 326.443 224.357C315.803 208.981 300.728 197.195 283.218 190.565Z" fill="#F1BBB7"/>
<path opacity="0.1" d="M283.218 97.4006H217.716V98.6507H283.218V97.4006Z" fill="#202020"/>
<path d="M198.842 274.189C198.842 274.189 254.426 273.216 282.219 259.339C310.011 245.461 325.892 257.85 324.4 266.27C322.908 274.69 314.975 291.018 283.213 293.022C251.452 295.026 198.842 274.189 198.842 274.189Z" fill="#EE6C4D"/>
<path opacity="0.1" d="M198.842 274.189C198.842 274.189 254.426 273.216 282.219 259.339C310.011 245.461 325.892 257.85 324.4 266.27C322.908 274.69 314.975 291.018 283.213 293.022C251.452 295.026 198.842 274.189 198.842 274.189Z" fill="#202020"/>
<path d="M175.038 265.289C175.038 265.289 169.099 347.468 246.99 348.951C324.882 350.435 324.404 266.262 324.404 266.262C324.404 266.262 295.637 297.445 227.638 271.705C227.638 271.724 192.405 262.317 175.038 265.289Z" fill="#EE6C4D"/>
<path opacity="0.1" d="M324.15 266.56C322.595 285.491 312.507 344.751 247.02 343.501C182.824 342.289 175.554 286.304 174.984 266.609C174.628 277.179 174.945 347.572 247.005 348.948C324.916 350.408 324.419 266.259 324.419 266.259C324.419 266.259 324.321 266.38 324.15 266.56Z" fill="#202020"/>
<path opacity="0.3" d="M247.464 239.912C253.046 239.912 257.571 235.398 257.571 229.829C257.571 224.26 253.046 219.746 247.464 219.746C241.881 219.746 237.356 224.26 237.356 229.829C237.356 235.398 241.881 239.912 247.464 239.912Z" fill="#EE6C4D"/>
<path opacity="0.3" d="M253.236 195.73C256.691 195.73 259.492 192.936 259.492 189.489C259.492 186.043 256.691 183.249 253.236 183.249C249.781 183.249 246.98 186.043 246.98 189.489C246.98 192.936 249.781 195.73 253.236 195.73Z" fill="#EE6C4D"/>
<path opacity="0.3" d="M239.277 159.711C242.732 159.711 245.532 156.917 245.532 153.47C245.532 150.024 242.732 147.229 239.277 147.229C235.822 147.229 233.021 150.024 233.021 153.47C233.021 156.917 235.822 159.711 239.277 159.711Z" fill="#EE6C4D"/>
<path opacity="0.2" d="M185.677 237.606C185.141 241.857 185.248 247.179 189.056 249.163C185.862 247.5 198.954 228.637 197.096 224.784C193.122 216.564 186.165 233.656 185.677 237.606Z" fill="white"/>
<path opacity="0.3" d="M234.221 51.4321C239.803 51.4321 244.329 46.9177 244.329 41.3489C244.329 35.7801 239.803 31.2656 234.221 31.2656C228.639 31.2656 224.113 35.7801 224.113 41.3489C224.113 46.9177 228.639 51.4321 234.221 51.4321Z" fill="#EE6C4D"/>
<path opacity="0.3" d="M264.543 31.5587C268.693 31.5587 272.057 28.2029 272.057 24.0632C272.057 19.9235 268.693 16.5676 264.543 16.5676C260.394 16.5676 257.03 19.9235 257.03 24.0632C257.03 28.2029 260.394 31.5587 264.543 31.5587Z" fill="#EE6C4D"/>
<path opacity="0.3" d="M242.885 7.79227C245.042 7.79227 246.791 6.04791 246.791 3.89613C246.791 1.74436 245.042 0 242.885 0C240.728 0 238.979 1.74436 238.979 3.89613C238.979 6.04791 240.728 7.79227 242.885 7.79227Z" fill="#EE6C4D"/>
<path opacity="0.9" d="M144.685 128.016H63V152.185H75.448V340.747C75.3987 344.498 76.0969 348.222 77.502 351.703C78.9071 355.183 80.9911 358.35 83.6331 361.021C86.2751 363.691 89.4225 365.811 92.8926 367.259C96.3626 368.706 100.086 369.451 103.847 369.451C107.608 369.451 111.332 368.706 114.802 367.259C118.272 365.811 121.42 363.691 124.062 361.021C126.704 358.35 128.788 355.183 130.193 351.703C131.598 348.222 132.296 344.498 132.247 340.747V152.185H144.685V128.016Z" fill="#F1BBB7"/>
<path d="M88.0674 194.904C88.0674 194.904 108.283 187.7 113.909 192.822C113.909 192.822 105.723 204.826 98.1848 204.345C90.6467 203.863 88.0674 194.904 88.0674 194.904Z" fill="#EE6C4D"/>
<path opacity="0.1" d="M88.0674 194.904C88.0674 194.904 108.283 187.7 113.909 192.822C113.909 192.822 105.723 204.826 98.1848 204.345C90.6467 203.863 88.0674 194.904 88.0674 194.904Z" fill="#202020"/>
<path d="M121.657 192.523V329.379C121.657 331.649 121.209 333.897 120.338 335.994C119.468 338.091 118.191 339.997 116.582 341.602C114.973 343.207 113.063 344.481 110.96 345.35C108.858 346.218 106.604 346.665 104.329 346.665C99.7329 346.665 95.3252 344.844 92.0755 341.602C88.8257 338.36 87 333.963 87 329.379V192.523C87 192.523 95.3426 190.28 103.202 195.086C111.062 199.892 121.657 192.523 121.657 192.523Z" fill="#EE6C4D"/>
<path opacity="0.1" d="M125.933 152.031H69.1348V153.145H125.933V152.031Z" fill="#202020"/>
<path opacity="0.1" d="M96.5709 338.662C94.2949 338.662 92.0411 338.215 89.9384 337.346C87.8356 336.477 85.9251 335.203 84.3159 333.597C82.7067 331.991 81.4304 330.085 80.5599 327.987C79.6893 325.889 79.2415 323.641 79.2422 321.37V330.014C79.2422 334.599 81.0679 338.996 84.3177 342.238C87.5674 345.48 91.9751 347.301 96.5709 347.301C101.167 347.301 105.574 345.48 108.824 342.238C112.074 338.996 113.9 334.599 113.9 330.014V321.37C113.9 323.641 113.453 325.889 112.582 327.987C111.711 330.085 110.435 331.991 108.826 333.597C107.217 335.203 105.306 336.477 103.203 337.346C101.101 338.215 98.847 338.662 96.5709 338.662Z" fill="#202020"/>
<path opacity="0.3" d="M104.576 179.043C106.526 179.043 108.106 177.467 108.106 175.522C108.106 173.577 106.526 172 104.576 172C102.626 172 101.046 173.577 101.046 175.522C101.046 177.467 102.626 179.043 104.576 179.043Z" fill="#EE6C4D"/>
<path opacity="0.3" d="M116.127 165.637C117.368 165.637 118.374 164.633 118.374 163.395C118.374 162.156 117.368 161.152 116.127 161.152C114.885 161.152 113.879 162.156 113.879 163.395C113.879 164.633 114.885 165.637 116.127 165.637Z" fill="#EE6C4D"/>
<path opacity="0.3" d="M100.402 161.16C101.643 161.16 102.65 160.157 102.65 158.918C102.65 157.68 101.643 156.676 100.402 156.676C99.1607 156.676 98.1543 157.68 98.1543 158.918C98.1543 160.157 99.1607 161.16 100.402 161.16Z" fill="#EE6C4D"/>
<path opacity="0.2" d="M73.5324 220.8C72.9961 225.051 73.1034 230.372 76.9114 232.357C73.7128 230.693 86.8094 211.835 84.9517 207.978C80.9681 199.768 74.02 216.855 73.5324 220.8Z" fill="white"/>
<path opacity="0.3" d="M103.899 112.889C108.636 112.889 112.476 109.058 112.476 104.333C112.476 99.6077 108.636 95.7771 103.899 95.7771C99.1626 95.7771 95.3228 99.6077 95.3228 104.333C95.3228 109.058 99.1626 112.889 103.899 112.889Z" fill="#EE6C4D"/>
<path opacity="0.3" d="M78.1696 96.025C81.6918 96.025 84.5472 93.1765 84.5472 89.6628C84.5472 86.149 81.6918 83.3005 78.1696 83.3005C74.6473 83.3005 71.792 86.149 71.792 89.6628C71.792 93.1765 74.6473 96.025 78.1696 96.025Z" fill="#EE6C4D"/>
<path opacity="0.3" d="M96.5465 75.8622C98.3777 75.8622 99.8621 74.3814 99.8621 72.5547C99.8621 70.7279 98.3777 69.2471 96.5465 69.2471C94.7154 69.2471 93.231 70.7279 93.231 72.5547C93.231 74.3814 94.7154 75.8622 96.5465 75.8622Z" fill="#EE6C4D"/>
<path d="M436.807 219.526C436.807 219.526 429.322 182.393 432.184 177.773C432.184 177.773 432.287 173.478 432.116 168.006C432.116 167.796 432.116 167.587 432.116 167.373C432.617 167.714 433.142 168.02 433.686 168.288C436.324 169.645 439.356 170.036 442.253 169.392L439.976 166.872C439.435 166.269 438.864 165.622 438.747 164.824C438.716 164.057 438.884 163.295 439.235 162.611C441.385 157.188 441.517 150.363 437.353 146.224C433.852 142.741 432.994 138.247 429.21 135.071C426.431 132.741 424.905 129.326 423.462 126.033C422.243 123.241 421.024 120.43 420.317 117.472C419.771 115.162 419.556 112.774 418.805 110.517C418.054 108.26 416.66 106.066 414.47 105.059C413.659 104.776 412.871 104.428 412.115 104.018C411.179 103.391 410.619 102.369 409.946 101.479C406.533 96.9509 395.026 99.6164 389.584 101.455C388.107 101.917 386.738 102.674 385.562 103.678L385.61 103.595L385.747 103.396C385.153 103.876 384.64 104.447 384.226 105.089C383.431 106.343 383.099 107.817 382.441 109.14C381.641 110.745 377.204 115.225 379.111 117.03C379.242 117.151 379.392 117.249 379.555 117.322C380.266 117.612 381.047 117.689 381.802 117.545C381.773 117.609 381.744 117.672 381.719 117.735C381.072 119.328 380.74 121.031 380.744 122.75C380.777 126.348 382.24 129.787 384.813 132.309C387.386 134.831 390.858 136.23 394.465 136.199C395.891 136.201 397.308 135.985 398.668 135.557C398.702 135.727 398.731 135.898 398.761 136.068C398.761 136.141 398.761 136.209 398.795 136.277L398.556 136.613L398.517 136.549L391.403 146.472C390.316 147.231 384.05 151.755 383.714 155.145C383.343 158.856 382.973 163.205 382.973 163.205L382.924 164.134C382.613 164.392 382.25 164.581 381.86 164.687C381.469 164.793 381.061 164.813 380.661 164.747C378.443 164.382 378.443 172.899 378.443 172.899C378.443 172.899 376.98 174.256 375.951 173.079C374.923 171.902 372.255 175.885 372.255 175.885L355.439 176.61H355.054L354.147 173.808C354.047 173.519 353.839 173.279 353.567 173.14C353.294 173 352.977 172.971 352.684 173.059C352.613 173.079 352.544 173.107 352.479 173.142L352.421 173.181C352.379 173.204 352.34 173.232 352.304 173.264C352.28 173.279 352.259 173.297 352.24 173.317C352.207 173.345 352.176 173.376 352.148 173.41C352.13 173.43 352.114 173.451 352.099 173.473L352.07 173.502C351.965 173.646 351.895 173.813 351.867 173.988C351.838 174.164 351.85 174.344 351.904 174.514L352.684 176.917C349.441 177.568 346.121 179.402 348.827 184.461L335.116 181.936L339.553 185.648L362.47 190.366C362.167 190.911 362.367 191.694 363.313 192.798C367.385 197.574 374.825 198.868 377.814 199.209C378.599 200.965 379.581 202.628 380.739 204.165L380.476 208.922C380.476 208.922 372.909 245.203 371.519 247.047C372.206 246.251 372.833 245.405 373.396 244.518C371.197 251.974 368.126 262.179 367.321 263.706C366.024 266.139 364.825 276.022 366.302 276.66C366.765 276.854 368.048 276.762 369.896 276.621V277.438L369.813 308.446C369.813 308.446 370.183 327.47 369.164 329.279C368.145 331.089 367.872 334.892 367.872 334.892C367.872 334.892 363.786 342.398 360.558 345.413L360.485 345.477L360.383 344.766C360.383 344.766 356.482 349.66 347.91 349.387C347.91 349.387 342.737 352.739 350.407 352.919C358.077 353.099 367.867 352.646 367.867 352.646C367.867 352.646 374.693 342.232 380.432 343.589V351.469H382.188V343.521C383.001 342.986 383.697 342.291 384.234 341.479C384.77 340.667 385.136 339.755 385.308 338.798C385.459 337.814 385.351 336.808 384.992 335.879C384.634 334.95 384.039 334.13 383.265 333.501C382.917 333.187 382.638 332.804 382.445 332.378C382.252 331.951 382.15 331.489 382.144 331.021L382.08 331.074C382.08 330.918 382.041 330.758 382.017 330.588C381.529 326.512 380.891 318.126 383.114 311.91C386.161 303.393 387.088 291.534 384.869 284.466C384.155 282.21 383.569 279.916 383.114 277.593C383.06 277.297 383.007 277.019 382.963 276.757C384.482 276.964 385.985 277.271 387.463 277.676C392.612 279.087 403.861 279.349 413.466 279.276C413.49 279.539 413.52 279.811 413.549 280.089C413.725 282 414.087 283.89 414.631 285.731C415.831 289.36 416.387 305.294 416.387 305.294C416.387 305.294 417.942 318.403 417.094 323.744C416.606 326.711 416.197 329.688 415.928 332.679V332.738C415.928 332.738 413.383 339.98 411.54 343.925C411.491 344.027 411.447 344.124 411.399 344.222C410.9 344.267 410.409 344.373 409.936 344.538C409.936 344.538 407.444 349.519 404.948 350.336C402.452 351.153 403.285 353.867 408.922 352.87C414.558 351.873 423.062 351.061 423.062 351.061L423.432 345.987L425.163 343.828L424.724 348.886L426.572 348.526L426.329 342.368L429.161 338.832C429.161 338.832 432.575 335.797 427.499 329.824V329.951C427.445 329.863 427.391 329.775 427.333 329.693V329.664C426.494 328.36 425.821 325.933 427.05 321.623C429.269 313.841 430.561 306.773 430.561 306.773C430.561 306.773 435.519 287.847 429.556 278.887H429.825C429.213 277.627 428.78 276.288 428.537 274.908C428.508 274.743 428.484 274.573 428.454 274.422C432.843 274.169 437.197 273.371 440.722 271.659C440.683 271.606 438.562 226.681 436.807 219.526ZM380.817 188.201V188.289L379.906 188.333L380.817 188.201ZM377.712 188.629C377.562 188.661 377.421 188.728 377.302 188.824C376.913 189.374 376.669 190.013 376.59 190.682L375.176 190.361C375.176 190.361 374.201 190.152 372.738 189.918L372.06 189.242C373.943 189.067 375.873 188.858 377.712 188.629Z" fill="url(#paint0_linear)"/>
<path d="M424.495 342.413L423.954 348.823L425.763 348.459L425.49 341.513L424.495 342.413Z" fill="#1D2366"/>
<path d="M383.241 311.998C381.061 318.19 381.685 326.551 382.173 330.613C382.353 332.116 382.519 333.045 382.519 333.045C382.519 333.045 379.262 340.448 378.989 340.721C378.716 340.993 369.393 346.664 369.393 346.664L362.879 350.454C362.879 350.454 356.273 347.564 359.466 346.562C360.113 346.303 360.695 345.906 361.173 345.4C364.332 342.394 368.335 334.918 368.335 334.918C368.335 334.918 368.604 331.129 369.598 329.324C370.593 327.519 370.232 308.564 370.232 308.564L370.315 277.658V273.63L382.709 273.723C382.789 275.091 382.969 276.451 383.246 277.794C383.692 280.107 384.268 282.394 384.972 284.642C387.127 291.7 386.225 303.51 383.241 311.998Z" fill="#FFB0B1"/>
<path opacity="0.1" d="M382.514 333.045C382.514 333.045 379.257 340.448 378.984 340.721C378.711 340.993 369.393 346.665 369.393 346.665L362.879 350.454C362.879 350.454 356.273 347.564 359.466 346.562C360.113 346.303 360.695 345.906 361.173 345.4L361.456 347.375L363.63 347.282L382.173 330.613C382.349 332.111 382.514 333.045 382.514 333.045Z" fill="#202020"/>
<path d="M382.29 331.041L363.606 347.831L361.431 347.919L360.983 344.762C360.983 344.762 357.18 349.626 348.764 349.364C348.764 349.364 343.698 352.705 351.202 352.885C358.706 353.065 368.306 352.613 368.306 352.613C368.306 352.613 375.001 342.233 380.608 343.59V351.441H382.329V343.497C383.13 342.959 383.813 342.265 384.337 341.457C384.862 340.649 385.217 339.743 385.381 338.794C385.531 337.816 385.426 336.817 385.076 335.891C384.726 334.966 384.143 334.146 383.382 333.511C383.041 333.196 382.768 332.814 382.58 332.389C382.392 331.964 382.294 331.505 382.29 331.041Z" fill="#1D2366"/>
<path d="M426.217 321.653C425.012 325.948 425.671 328.365 426.49 329.664V329.693C427.555 331.3 428.295 333.099 428.669 334.99L428.747 335.398L420.244 347.763L415.631 349.568C415.631 349.568 408.21 347.043 409.566 346.318C409.907 346.138 410.439 345.204 411.029 343.886C412.847 339.995 415.344 332.767 415.344 332.767V332.704C415.602 329.722 416.021 326.755 416.485 323.798C417.314 318.481 415.792 305.416 415.792 305.416C415.792 305.416 415.251 289.535 414.071 285.921C413.541 284.084 413.186 282.202 413.013 280.298C412.769 278.027 412.716 276.173 412.716 276.173C412.716 276.173 417.591 269.402 426.558 276.713C427.271 277.3 427.9 277.983 428.426 278.742C434.613 287.497 429.635 306.861 429.635 306.861C429.635 306.861 428.387 313.894 426.217 321.653Z" fill="#FFB0B1"/>
<path opacity="0.1" d="M428.747 335.374L420.244 347.738L415.631 349.543C415.631 349.543 408.21 347.018 409.566 346.293C409.907 346.113 410.439 345.18 411.029 343.861C414.169 343.861 415.797 346.819 415.797 346.819L419.776 346.191C419.776 346.191 425.027 335.899 426.202 335.271C427.377 334.644 426.383 330.573 426.383 330.573V329.537L426.475 329.649V329.678C427.547 331.288 428.293 333.093 428.669 334.989L428.747 335.374Z" fill="#202020"/>
<path d="M416.08 347.104C416.08 347.104 413.818 342.955 409.478 344.487C409.478 344.487 407.04 349.454 404.602 350.266C402.164 351.078 402.974 353.783 408.503 352.79C414.032 351.798 422.345 350.986 422.345 350.986L422.706 345.932L428.313 338.801C428.313 338.801 431.663 335.776 426.685 329.822V330.858C426.685 330.858 427.66 334.92 426.504 335.552C425.349 336.184 420.083 346.472 420.083 346.472L416.08 347.104Z" fill="#1D2366"/>
<path opacity="0.1" d="M382.695 273.725C382.775 275.093 382.954 276.454 383.231 277.796C378.126 277.047 373.392 277.421 370.291 277.66V273.632L382.695 273.725Z" fill="#202020"/>
<path opacity="0.1" d="M428.928 279.866C428.928 279.866 421.672 280.216 413.032 280.289C412.788 278.017 412.735 276.164 412.735 276.164C412.735 276.164 417.611 269.393 426.577 276.704C427.291 277.291 427.919 277.974 428.445 278.733C428.586 279.118 428.747 279.497 428.928 279.866Z" fill="#202020"/>
<path d="M428.927 279.054C428.927 279.054 397.171 280.586 387.483 277.882C377.795 275.177 368.214 277.517 366.765 276.884C365.317 276.252 366.497 266.417 367.741 263.98C368.984 261.543 375.976 236.902 375.976 236.902L382.67 202.06L389.731 200.115L390.218 199.978L402.51 196.573L411.526 194.093C411.526 194.093 429.439 263.863 427.899 269C427.34 270.971 427.252 273.045 427.64 275.056C427.881 276.441 428.315 277.787 428.927 279.054Z" fill="#1D2366"/>
<path d="M359.354 178.229C359.354 178.229 353.016 185 357.814 188.789C362.611 192.579 365.776 189.154 365.776 189.154L359.354 178.229Z" fill="#C7DAF5"/>
<path opacity="0.1" d="M359.354 178.229C359.354 178.229 353.016 185 357.814 188.789C362.611 192.579 365.776 189.154 365.776 189.154L359.354 178.229Z" fill="#202020"/>
<path d="M410.609 133.644C410.609 133.644 409.868 134.345 408.746 135.39C407.152 136.874 404.792 139.048 402.696 140.872C399.77 143.392 397.405 145.25 398.259 143.659C399.112 142.069 398.951 139.335 398.527 136.762L398.439 136.251C398.085 134.362 397.616 132.495 397.035 130.663C397.035 130.663 401.72 124.621 404.314 122.238C405.289 121.348 405.957 120.968 405.992 121.591C406.04 122.437 406.679 124.286 407.454 126.29C407.484 126.348 407.508 126.411 407.532 126.47C408.059 127.817 408.649 129.223 409.171 130.424C409.965 132.268 410.609 133.644 410.609 133.644Z" fill="#FFB0B1"/>
<path opacity="0.1" d="M407.527 126.47C407.087 128.833 406.018 131.035 404.433 132.846C402.848 134.656 400.805 136.009 398.517 136.763C398.158 134.698 397.66 132.66 397.025 130.663C397.025 130.663 405.845 119.291 405.982 121.591C406.065 122.467 406.718 124.403 407.527 126.47Z" fill="#202020"/>
<path opacity="0.1" d="M397.649 139.804L398.79 138.204C398.79 138.204 399.546 142.805 402.33 140.777C405.114 138.749 405.255 156.05 405.255 156.05L402.262 200.596L380.681 199.307L381.291 177.783L383.729 166.951L389.77 151.176L393.388 145.967L397.649 139.804Z" fill="#202020"/>
<path d="M405.246 156.323L402.544 196.597L402.262 200.863L390.228 200.148L389.74 200.119L380.667 199.579L381.276 178.051L383.714 167.223L389.755 151.449L393.388 146.235L397.664 140.077L398.805 138.472C398.805 138.472 399.56 143.078 402.345 141.045L402.398 141.006C405.114 139.265 405.246 156.323 405.246 156.323Z" fill="#1D2366"/>
<path d="M384.05 163.429C384.05 163.429 382.968 165.686 380.793 165.326C378.619 164.966 378.624 173.449 378.624 173.449C378.624 173.449 377.161 174.802 376.186 173.629C375.21 172.457 372.568 176.426 372.568 176.426L356.102 177.151C356.102 177.151 363.416 180.488 361.982 190.6C361.982 190.6 386.849 189.063 387.678 186.709C388.507 184.355 384.05 163.429 384.05 163.429Z" fill="white"/>
<path opacity="0.03" d="M384.05 163.429C384.05 163.429 382.968 165.686 380.793 165.326C378.619 164.966 378.624 173.449 378.624 173.449C378.624 173.449 377.161 174.802 376.186 173.629C375.21 172.457 372.568 176.426 372.568 176.426L356.102 177.151C356.102 177.151 363.416 180.488 361.982 190.6C361.982 190.6 386.849 189.063 387.678 186.709C388.507 184.355 384.05 163.429 384.05 163.429Z" fill="#202020"/>
<path d="M336.189 182.471L340.533 186.173L376.273 193.663L371.836 189.154L336.189 182.471Z" fill="white"/>
<path d="M397.712 141.225C397.122 142.11 395.426 146.76 394.002 150.802C392.822 154.168 391.832 157.125 391.832 157.125C391.832 157.125 389.526 172.112 388.351 174.816C387.176 177.521 387.81 188.095 387.81 188.095L383.421 214.181C383.421 214.181 381.432 227.63 378.36 235.661C375.347 243.546 371.934 247.257 371.841 247.369C373.202 245.535 380.618 209.376 380.618 209.376L383.056 163.789C383.056 163.789 383.417 159.46 383.782 155.759C384.148 152.057 391.471 147.003 391.471 147.003L398.551 136.959C399.278 137.946 398.8 139.6 397.712 141.225Z" fill="white"/>
<path d="M379.248 199.8C379.248 199.8 368.843 199.352 363.777 193.301C358.711 187.25 375.45 190.869 375.45 190.869L379.789 191.842L379.248 199.8Z" fill="#FFB0B1"/>
<path opacity="0.1" d="M427.933 269.033C427.375 271.004 427.286 273.077 427.675 275.089C416.304 275.896 404.139 272.822 404.139 272.822C401.877 274.899 395.904 277.968 395.904 277.968L392.647 237.708C390.57 232.289 389.755 203.859 389.755 203.859C389.755 203.859 389.941 202.37 390.243 200.143C390.243 200.089 390.243 200.031 390.267 199.977C391.082 193.751 392.705 182.063 393.476 180.482C394.563 178.318 390.131 172.544 390.131 172.544L392.145 155.383L392.388 153.316C396.645 151.419 399.902 145.373 399.902 145.373L402.398 140.995C405.124 139.254 405.256 156.312 405.256 156.312L402.554 196.587L411.57 194.106C411.57 194.106 429.469 263.887 427.933 269.033Z" fill="#202020"/>
<path d="M439.606 271.829C427.211 277.968 404.68 272.282 404.68 272.282C402.418 274.359 396.445 277.428 396.445 277.428L393.188 237.168C391.111 231.754 390.296 203.323 390.296 203.323C390.296 203.323 392.92 182.111 394.002 179.947C394.319 179.314 394.168 178.376 393.792 177.364C391.942 172.542 391.262 167.351 391.808 162.217L392.676 154.848L392.92 152.781C397.171 150.884 400.428 144.833 400.428 144.833L402.696 140.873L406.869 133.577L408.844 130.124L409.176 130.425L411.74 132.741C411.74 132.741 412.828 133.636 414.456 135.012C418.006 137.994 424.14 143.247 427.299 146.457C430.083 149.293 430.961 160.301 431.2 168.589C431.37 174.042 431.268 178.317 431.268 178.317C428.46 182.919 435.788 219.929 435.788 219.929C437.524 227.06 439.606 271.829 439.606 271.829Z" fill="white"/>
<path opacity="0.03" d="M415.816 144.746C415.816 144.746 407.308 160.905 408.308 167.038C409.307 173.172 412.106 180.128 410.746 181.752C410.28 182.367 409.678 182.867 408.987 183.211C408.296 183.555 407.535 183.735 406.762 183.737C405.407 183.829 401.784 186.354 401.784 186.626C401.784 186.898 398.439 186.898 395.445 188.163C392.451 189.428 388.024 190.148 388.024 190.148C388.024 190.148 379.428 189.875 378.614 190.688C377.8 191.5 376.985 196.374 378.706 200.255C380.428 204.137 382.324 207.026 383.772 207.551C385.221 208.077 394.358 205.027 401.774 204.302C409.19 203.577 417.279 197.731 417.279 197.731C417.279 197.731 426.143 194.569 427.684 189.243C429.225 183.917 425.783 154.674 425.783 154.674C425.783 154.674 423.13 141.045 415.816 144.746Z" fill="#202020"/>
<path opacity="0.03" d="M414.724 143.393C414.724 143.393 406.221 159.547 407.215 165.685C408.21 171.824 411.014 178.775 409.653 180.399C409.188 181.014 408.586 181.514 407.895 181.858C407.204 182.202 406.442 182.382 405.67 182.384C404.314 182.476 400.696 185.001 400.696 185.273C400.696 185.545 397.347 185.54 394.358 186.805C391.369 188.07 386.937 188.79 386.937 188.79C386.937 188.79 378.341 188.522 377.526 189.334C376.712 190.147 375.898 195.021 377.619 198.902C379.34 202.784 381.237 205.673 382.685 206.198C384.133 206.724 393.27 203.669 400.692 202.949C408.113 202.229 416.172 196.363 416.172 196.363C416.172 196.363 425.037 193.206 426.577 187.88C428.118 182.554 424.676 153.311 424.676 153.311C424.676 153.311 422.053 139.692 414.724 143.393Z" fill="#202020"/>
<path d="M415.539 143.932C415.539 143.932 407.04 160.091 408.015 166.205C408.99 172.319 411.814 179.294 410.453 180.919C409.989 181.535 409.387 182.035 408.696 182.379C408.004 182.724 407.242 182.903 406.47 182.903C405.114 182.996 401.496 185.52 401.496 185.793C401.496 186.065 398.147 186.065 395.158 187.33C392.169 188.594 387.737 189.314 387.737 189.314C387.737 189.314 379.14 189.042 378.326 189.854C377.512 190.667 376.698 195.54 378.419 199.422C380.14 203.303 382.037 206.193 383.485 206.718C384.933 207.243 394.07 204.194 401.491 203.469C408.912 202.744 416.962 196.883 416.962 196.883C416.962 196.883 425.827 193.721 427.367 188.395C428.908 183.069 425.466 153.826 425.466 153.826C425.466 153.826 422.867 140.231 415.539 143.932Z" fill="white"/>
<path opacity="0.1" d="M415.358 187.258C415.358 187.258 408.571 185.906 410.926 188.163C413.281 190.42 413.276 192.404 416.172 192.312C419.068 192.22 415.358 187.258 415.358 187.258Z" fill="#202020"/>
<path opacity="0.1" d="M426.85 235.908C426.85 235.908 423.774 237.985 429.654 242.766C435.534 247.548 426.85 235.908 426.85 235.908Z" fill="#202020"/>
<path opacity="0.1" d="M420.965 252.965C420.965 253.237 419.883 262.892 423.954 265.329C428.026 267.766 420.965 252.965 420.965 252.965Z" fill="#202020"/>
<path d="M356.365 177.142C353.089 177.254 345.995 178.256 349.671 185.095C352.923 191.146 358.384 187.104 361.441 184.029C360.695 181.17 358.879 178.705 356.365 177.142Z" fill="#FFB0B1"/>
<path d="M361.495 183.977C361.544 183.933 361.588 183.884 361.632 183.84C361.588 183.884 361.544 183.933 361.495 183.977Z" fill="#FFB0B1"/>
<path opacity="0.1" d="M414.456 135.278C410.974 137.651 408.054 139.655 407.488 140.074C405.923 141.222 402.939 147.992 401.037 151.446C399.506 154.228 394.548 154.943 392.675 155.118L392.9 153.071C397.151 151.178 400.408 145.127 400.408 145.127L408.824 130.418L411.72 133.035C411.72 133.035 412.827 133.906 414.456 135.278Z" fill="#202020"/>
<path d="M414.456 135.012C410.974 137.381 408.054 139.39 407.488 139.803C405.923 140.956 402.939 147.722 401.037 151.176C399.506 153.958 394.548 154.673 392.675 154.848L392.919 152.781C397.171 150.884 400.428 144.833 400.428 144.833L408.844 130.124L411.74 132.741C411.74 132.741 412.827 133.616 414.456 135.012Z" fill="#DCE7FF"/>
<path d="M407.756 123.49C407.76 124.432 407.66 125.372 407.459 126.292C407.096 128.012 406.394 129.642 405.392 131.088C403.57 133.731 400.86 135.634 397.752 136.454C394.645 137.273 391.345 136.954 388.453 135.554C385.561 134.154 383.268 131.767 381.989 128.825C380.711 125.882 380.532 122.58 381.485 119.518C382.438 116.455 384.461 113.835 387.185 112.133C389.909 110.43 393.154 109.758 396.332 110.239C399.511 110.72 402.411 112.321 404.507 114.752C406.603 117.183 407.756 120.284 407.756 123.49Z" fill="#FFB0B1"/>
<path opacity="0.1" d="M431.215 168.589C429.374 167.459 427.876 165.851 426.88 163.939C426.124 162.445 425.622 160.728 424.325 159.663C423.165 158.719 421.594 158.486 420.156 158.063C415.392 156.657 411.38 152.313 411.243 147.362C411.175 145.032 411.901 142.702 411.57 140.396C411.383 139.088 410.86 137.85 410.053 136.802C409.659 136.297 409.222 135.826 408.747 135.396C408.113 134.798 407.445 134.219 406.869 133.582C406.496 133.191 406.169 132.758 405.894 132.293C405.679 131.911 405.505 131.509 405.373 131.091C404.485 128.329 405.29 125.04 404.295 122.244C404.295 122.195 404.261 122.141 404.241 122.093C403.861 121.096 403.096 120.103 402.037 120.026C400.979 119.948 400.058 120.828 399.044 121.227C396.918 122.049 394.621 120.648 392.851 119.218C391.081 117.788 389.082 116.154 386.825 116.475C385.338 116.684 384.158 117.7 382.788 118.226C382.47 118.342 382.144 118.433 381.812 118.498C382.977 115.61 385.112 113.216 387.852 111.727C390.592 110.238 393.767 109.747 396.83 110.338C399.894 110.929 402.656 112.565 404.643 114.965C406.629 117.366 407.716 120.381 407.718 123.494C407.721 124.436 407.621 125.375 407.42 126.295C407.45 126.354 407.474 126.417 407.498 126.475C408.025 127.823 408.615 129.228 409.137 130.43L411.701 132.745C411.701 132.745 412.789 133.64 414.417 135.017C417.967 137.998 424.101 143.252 427.26 146.462C430.083 149.293 430.961 160.3 431.215 168.589Z" fill="#202020"/>
<path d="M382.661 109.971C383.309 108.653 383.636 107.179 384.406 105.934C385.543 104.11 387.532 102.967 389.565 102.266C394.89 100.437 406.143 97.7766 409.502 102.266C410.166 103.156 410.712 104.178 411.628 104.805C412.369 105.208 413.14 105.553 413.935 105.836C416.08 106.843 417.45 109.027 418.181 111.274C418.913 113.522 419.127 115.905 419.644 118.211C420.327 121.158 421.531 123.955 422.726 126.737C424.135 130.021 425.651 133.421 428.352 135.746C432.063 138.912 432.897 143.392 436.324 146.86C440.405 150.985 440.274 157.79 438.172 163.189C437.824 163.872 437.656 164.632 437.685 165.397C437.882 166.179 438.3 166.888 438.889 167.44L441.117 169.95C438.456 170.523 435.68 170.216 433.208 169.075C430.737 167.934 428.706 166.022 427.421 163.627C426.66 162.133 426.158 160.416 424.861 159.356C423.701 158.408 422.136 158.179 420.692 157.751C415.929 156.345 411.916 152.001 411.779 147.05C411.711 144.725 412.438 142.39 412.111 140.084C411.915 138.793 411.395 137.571 410.599 136.534C409.346 134.909 407.469 133.805 406.455 132.025C404.739 129.004 406.041 125.074 404.802 121.81C404.422 120.837 403.661 119.821 402.598 119.743C401.535 119.665 400.619 120.55 399.604 120.944C397.479 121.766 395.187 120.365 393.417 118.935C391.647 117.505 389.643 115.876 387.39 116.197C385.898 116.406 384.723 117.418 383.348 117.943C382.334 118.332 380.277 118.682 379.384 117.826C377.517 116.036 381.861 111.571 382.661 109.971Z" fill="#591D4B"/>
<path opacity="0.1" d="M428.689 162.134C427.933 160.64 427.431 158.923 426.134 157.858C424.973 156.91 423.403 156.681 421.965 156.258C417.201 154.852 413.189 150.508 413.052 145.557C412.979 143.227 413.71 140.897 413.379 138.591C413.192 137.283 412.669 136.045 411.862 134.997C410.614 133.372 408.732 132.263 407.723 130.483C406.002 127.462 407.308 123.532 406.07 120.268C405.69 119.296 404.929 118.279 403.866 118.201C402.803 118.123 401.886 119.004 400.872 119.398C398.746 120.225 396.45 118.824 394.685 117.394C392.92 115.964 390.911 114.334 388.653 114.65C387.191 114.86 385.991 115.871 384.616 116.401C383.602 116.791 381.544 117.141 380.652 116.285C378.785 114.485 383.129 110.02 383.914 108.424C384.562 107.106 384.889 105.632 385.66 104.387L385.791 104.183C385.218 104.667 384.724 105.238 384.328 105.876C383.548 107.121 383.227 108.595 382.583 109.913C381.798 111.513 377.454 115.978 379.321 117.773C380.208 118.629 382.246 118.26 383.285 117.89C384.655 117.365 385.83 116.353 387.322 116.139C389.575 115.823 391.579 117.452 393.349 118.882C395.119 120.312 397.415 121.713 399.536 120.891C400.555 120.497 401.443 119.607 402.53 119.69C403.617 119.772 404.358 120.76 404.739 121.757C405.977 125.001 404.67 128.931 406.387 131.971C407.401 133.747 409.283 134.856 410.531 136.48C411.338 137.528 411.861 138.767 412.048 140.075C412.379 142.381 411.648 144.71 411.721 147.04C411.872 151.997 415.87 156.34 420.634 157.741C422.072 158.165 423.642 158.393 424.803 159.346C426.1 160.407 426.597 162.124 427.358 163.617C428.643 166.012 430.674 167.924 433.145 169.065C435.616 170.206 438.392 170.513 441.054 169.94L440.006 168.754C435.403 168.831 430.776 166.234 428.689 162.134Z" fill="#202020"/>
<path opacity="0.1" d="M397.444 141.5C396.849 142.385 395.153 147.035 393.734 151.072C392.407 150.562 391.198 147.274 391.198 147.274L398.263 137.229C399.004 138.222 398.527 139.875 397.444 141.5Z" fill="#202020"/>
<path d="M397.713 141.225C397.123 142.11 395.426 146.76 394.002 150.802C392.676 150.291 391.472 147.003 391.472 147.003L398.551 136.959C399.278 137.946 398.8 139.6 397.713 141.225Z" fill="#DCE7FF"/>
<path d="M356.556 187.413L352.631 175.083C352.584 174.938 352.566 174.785 352.578 174.633C352.59 174.481 352.633 174.333 352.702 174.198C352.772 174.062 352.868 173.942 352.985 173.843C353.101 173.745 353.236 173.67 353.381 173.624C353.527 173.576 353.68 173.557 353.833 173.568C353.986 173.58 354.134 173.622 354.271 173.692C354.407 173.761 354.528 173.858 354.626 173.975C354.725 174.092 354.799 174.227 354.844 174.373L358.769 186.713L358.379 189.296L356.556 187.413Z" fill="#BE8B87"/>
<path opacity="0.1" d="M353.001 173.986C353.147 173.939 353.3 173.921 353.453 173.934C353.605 173.947 353.754 173.989 353.89 174.059C354.026 174.129 354.146 174.225 354.245 174.342C354.344 174.459 354.418 174.594 354.464 174.74L358.389 187.07L358.092 189.016L358.379 189.313L358.769 186.73L354.844 174.399C354.799 174.253 354.725 174.118 354.626 174.001C354.528 173.884 354.407 173.788 354.271 173.718C354.134 173.648 353.986 173.606 353.833 173.595C353.68 173.583 353.527 173.602 353.381 173.65C353.137 173.726 352.926 173.882 352.782 174.093C352.851 174.049 352.924 174.013 353.001 173.986Z" fill="white"/>
<path d="M356.556 187.415L358.76 186.715L358.438 188.836L358.369 189.298L357.726 188.626L356.556 187.415Z" fill="#EFC8C4"/>
<path d="M357.726 188.626C357.766 188.58 357.814 188.54 357.867 188.51C357.899 188.49 357.935 188.48 357.972 188.48C358.009 188.48 358.045 188.49 358.077 188.51C358.109 188.546 358.135 188.587 358.155 188.631C358.184 188.682 358.225 188.726 358.274 188.759C358.323 188.792 358.379 188.813 358.437 188.821L358.369 189.307L357.726 188.626Z" fill="#727A9C"/>
<path d="M352.611 179.45C352.611 179.45 360.486 179.406 358.628 182.743C356.77 186.08 353.879 186.488 353.879 186.488L352.611 179.45Z" fill="#FFB0B1"/>
<defs>
<linearGradient id="paint0_linear" x1="388.658" y1="353.065" x2="388.658" y2="98.9841" gradientUnits="userSpaceOnUse">
<stop stop-color="#808080" stop-opacity="0.25"/>
<stop offset="0.54" stop-color="#808080" stop-opacity="0.12"/>
<stop offset="1" stop-color="#808080" stop-opacity="0.1"/>
</linearGradient>
</defs>
</svg>
