<svg width="180" height="211" viewBox="0 0 180 211" fill="none" xmlns="http://www.w3.org/2000/svg">
<mask id="path-1-inside-1" fill="white">
<path fill-rule="evenodd" clip-rule="evenodd" d="M70.5529 102.822C71.5615 104.219 71.5615 106.106 70.5529 107.504L0.923714 203.985C-0.98548 206.63 0.904824 210.325 4.16726 210.325H175.789C179.051 210.325 180.941 206.63 179.032 203.985L109.403 107.504C108.394 106.106 108.394 104.219 109.403 102.822L179.032 6.34082C180.941 3.69536 179.051 0 175.789 0H4.16726C0.904824 0 -0.98548 3.69537 0.923714 6.34082L70.5529 102.822Z"/>
</mask>
<path d="M179.032 6.34082L182.276 8.68164L179.032 6.34082ZM109.403 107.504L106.159 109.844L109.403 107.504ZM109.403 102.822L106.159 100.481L109.403 102.822ZM179.032 203.985L182.276 201.644L179.032 203.985ZM70.5529 107.504L73.7965 109.844L70.5529 107.504ZM70.5529 102.822L73.7965 100.481L70.5529 102.822ZM0.923714 203.985L-2.31983 201.644L0.923714 203.985ZM4.16725 206.325L73.7965 109.844L67.3094 105.163L-2.31983 201.644L4.16725 206.325ZM175.789 206.325H4.16726V214.325H175.789V206.325ZM106.159 109.844L175.789 206.325L182.276 201.644L112.646 105.163L106.159 109.844ZM112.646 105.163L182.276 8.68164L175.789 3.99999L106.159 100.481L112.646 105.163ZM175.789 -4H4.16726V4H175.789V-4ZM-2.31983 8.68165L67.3094 105.163L73.7965 100.481L4.16725 4L-2.31983 8.68165ZM4.16726 -4C-2.3576 -4 -6.13822 3.39073 -2.31983 8.68165L4.16725 4C4.15862 3.98804 4.15468 3.98084 4.15353 3.97865C4.15237 3.97642 4.153 3.97729 4.1543 3.981C4.15559 3.98466 4.15698 3.98949 4.15809 3.99508C4.15918 4.00059 4.15978 4.00571 4.16002 4.01006C4.16051 4.01881 4.15946 4.02181 4.16011 4.01883C4.16085 4.0154 4.16292 4.00848 4.16725 4C4.17159 3.99153 4.176 3.9858 4.17834 3.98319C4.18038 3.98092 4.17856 3.98353 4.17118 3.98825C4.16751 3.9906 4.16301 3.99311 4.1579 3.99545C4.15272 3.99782 4.14799 3.99952 4.14427 4.00062C4.14049 4.00173 4.13943 4.00173 4.14191 4.00137C4.14437 4.00102 4.15251 4 4.16726 4V-4ZM182.276 8.68164C186.094 3.39071 182.313 -4 175.789 -4V4C175.803 4 175.811 4.00102 175.814 4.00137C175.816 4.00173 175.815 4.00173 175.812 4.00062C175.808 3.99952 175.803 3.99782 175.798 3.99545C175.793 3.99311 175.788 3.9906 175.785 3.98825C175.777 3.98353 175.775 3.98092 175.777 3.98319C175.78 3.9858 175.784 3.99153 175.789 4C175.793 4.00847 175.795 4.0154 175.796 4.01883C175.796 4.02181 175.795 4.01881 175.796 4.01006C175.796 4.0057 175.797 4.00059 175.798 3.99507C175.799 3.98948 175.8 3.98465 175.801 3.98099C175.803 3.97728 175.803 3.97642 175.802 3.97864C175.801 3.98084 175.797 3.98803 175.789 3.99999L182.276 8.68164ZM112.646 105.163L106.159 100.481C104.142 103.276 104.142 107.049 106.159 109.844L112.646 105.163ZM175.789 214.325C182.313 214.325 186.094 206.935 182.276 201.644L175.789 206.325C175.797 206.337 175.801 206.345 175.802 206.347C175.803 206.349 175.803 206.348 175.801 206.344C175.8 206.341 175.799 206.336 175.798 206.33C175.797 206.325 175.796 206.32 175.796 206.315C175.795 206.307 175.796 206.304 175.796 206.307C175.795 206.31 175.793 206.317 175.789 206.325C175.784 206.334 175.78 206.34 175.777 206.342C175.775 206.345 175.777 206.342 175.785 206.337C175.788 206.335 175.793 206.332 175.798 206.33C175.803 206.328 175.808 206.326 175.812 206.325C175.815 206.324 175.816 206.324 175.814 206.324C175.811 206.324 175.803 206.325 175.789 206.325V214.325ZM73.7965 109.844C75.8137 107.049 75.8137 103.276 73.7965 100.481L67.3094 105.163L73.7965 109.844ZM-2.31983 201.644C-6.13822 206.935 -2.3576 214.325 4.16726 214.325V206.325C4.15251 206.325 4.14437 206.324 4.14191 206.324C4.13943 206.324 4.14049 206.324 4.14427 206.325C4.14799 206.326 4.15272 206.328 4.1579 206.33C4.16301 206.332 4.16751 206.335 4.17118 206.337C4.17856 206.342 4.18038 206.345 4.17834 206.342C4.176 206.34 4.17159 206.334 4.16725 206.325C4.16292 206.317 4.16085 206.31 4.16011 206.307C4.15946 206.304 4.16051 206.307 4.16002 206.315C4.15978 206.32 4.15918 206.325 4.15809 206.33C4.15698 206.336 4.15559 206.341 4.1543 206.344C4.153 206.348 4.15237 206.349 4.15353 206.347C4.15468 206.345 4.15862 206.337 4.16725 206.325L-2.31983 201.644Z" fill="white" mask="url(#path-1-inside-1)"/>
<path d="M90 79L137.631 19.75H42.3686L90 79Z" fill="white"/>
</svg>
