<svg width="443" height="327" viewBox="0 0 443 327" fill="none" xmlns="http://www.w3.org/2000/svg">
<g clip-path="url(#clip0)">
<path opacity="0.1" d="M28.994 128.167H67.4963V180.59H31.8092C31.7182 181.132 31.6271 181.67 31.5247 182.212H67.4963V224.482C67.4356 224.482 67.3749 224.436 67.318 224.413C66.3062 224.012 65.2945 223.586 64.2827 223.136C64.0665 223.038 63.854 222.936 63.6339 222.841C62.6222 222.363 61.6104 221.858 60.5987 221.325C60.2458 221.139 59.893 220.946 59.5477 220.749C53.9308 217.618 48.8258 213.649 44.4094 208.978C44.2766 208.853 44.1551 208.717 44.0299 208.599C43.4153 207.932 42.812 207.258 42.2278 206.568C42.0077 206.314 41.7952 206.056 41.579 205.81C40.8884 204.969 40.2207 204.097 39.5757 203.222C39.4771 203.089 39.386 202.96 39.2911 202.843C36.6489 199.191 34.4578 195.233 32.7653 191.057C32.7122 190.932 32.6629 190.795 32.6136 190.678C32.09 189.351 31.6157 188.006 31.206 186.634C31.0314 186.062 30.8607 185.497 30.7165 184.902C30.6634 184.732 30.6217 184.557 30.5762 184.387C28.4439 175.993 28.1973 167.269 28.1973 158.587C28.1973 157.576 28.1973 156.566 28.1973 155.555C28.2276 152.01 28.2694 148.47 28.3225 144.933C28.3427 144.023 28.3617 143.11 28.3794 142.193C28.4325 139.871 28.5084 137.544 28.607 135.212C28.6298 134.568 28.6601 133.92 28.6943 133.279C28.7095 132.908 28.7284 132.536 28.7512 132.165C28.8195 130.824 28.9004 129.491 28.994 128.167Z" fill="#54A0FC"/>
<path opacity="0.1" d="M67.4966 69.7982H46.375C49.81 64.4339 53.5614 59.2784 57.6093 54.3591C60.7508 50.5087 64.0592 46.757 67.4966 43.1416V69.7982Z" fill="#54A0FC"/>
<path opacity="0.1" d="M67.4961 71.4128V126.545H29.1152C29.1152 126.386 29.138 126.223 29.1532 126.064C29.1873 125.628 29.2215 125.196 29.2594 124.76C29.2973 124.252 29.3467 123.745 29.396 123.244C29.4453 122.744 29.4946 122.138 29.5553 121.588C29.6161 121.039 29.6654 120.482 29.7261 119.932C29.7868 119.383 29.8475 118.833 29.9158 118.287C29.9841 117.742 30.0448 117.188 30.1207 116.643C30.1776 116.192 30.2345 115.737 30.299 115.282C30.3862 114.642 30.4773 114.001 30.5722 113.365C30.5722 113.266 30.6025 113.171 30.6177 113.077C31.3111 108.416 32.2534 103.796 33.4405 99.2367C34.6871 94.4542 36.2784 89.768 38.202 85.2149C40.2461 80.4442 42.6403 75.8309 45.3653 71.4128H67.4961Z" fill="#54A0FC"/>
<path opacity="0.1" d="M76.6934 128.166V180.588H158.934V128.166H76.6934ZM76.6934 182.21V227.232C77.1638 227.326 77.6267 227.421 78.0934 227.501C78.7194 227.622 79.3492 227.732 79.9904 227.827L80.3698 227.88C80.6202 227.921 80.8744 227.956 81.1286 227.986C81.7622 228.077 82.3959 228.145 83.0257 228.206C83.3216 228.236 83.6289 228.259 83.9287 228.285L84.6609 228.338C85.0593 228.369 85.4539 228.391 85.8485 228.407C86.0913 228.407 86.3341 228.426 86.5807 228.433C86.8273 228.441 86.9601 228.433 87.1574 228.433H87.8745C88.2008 228.433 88.5271 228.433 88.8496 228.433H89.2669C89.5932 228.433 89.9195 228.433 90.242 228.403H90.261C90.4886 228.403 90.7125 228.403 90.9401 228.376C91.0046 228.38 91.0692 228.38 91.1336 228.376C91.3233 228.376 91.513 228.376 91.6951 228.354C91.7381 228.35 91.7812 228.35 91.8241 228.354C92.2453 228.327 92.6702 228.293 93.0989 228.255C93.5277 228.217 93.9336 228.172 94.3624 228.126L95.2236 228.02C98.743 227.528 102.223 226.788 105.638 225.807C113.314 223.669 120.815 220.679 128.486 218.493C138.396 215.669 149.354 214.279 158.93 217.716V182.21H76.6934ZM158.934 69.7971V0.00638813C149.931 -0.0925497 140.952 0.958122 132.216 3.13287C111.39 8.35884 92.6892 19.6938 76.6934 34.1703V69.7933H80.8327V71.4115H76.6934V126.544H158.934V71.4115H97.7657V69.7895L158.934 69.7971ZM264.591 46.2215C259.439 46.0396 254.317 44.4138 249.68 41.8937C240.825 37.0846 233.745 29.6493 225.838 23.3811C209.41 10.3181 189.036 2.43178 168.134 0.476308V69.7971H285.527L285.819 69.4902L264.591 46.2215ZM275.287 44.3267L286.627 56.7606V41.0562C282.81 41.5375 279.487 42.6554 275.287 44.3115V44.3267ZM286.627 238.411V182.21H262.444C262.383 181.972 262.315 181.729 262.239 181.487C262.311 181.729 262.375 181.972 262.44 182.21H168.134V222.851C169.03 223.514 169.914 224.215 170.79 224.92C171.736 225.693 172.676 226.475 173.609 227.266L174.55 228.043C175.002 228.422 175.461 228.801 175.916 229.161C176.829 229.896 177.749 230.624 178.674 231.344C179.137 231.707 179.603 232.065 180.071 232.416C187.481 238.073 195.298 243.179 203.457 247.692C205.286 248.712 207.134 249.693 208.993 250.652C210.23 251.289 211.475 251.913 212.73 252.524C214.612 253.441 216.509 254.325 218.421 255.177C236.051 263.081 254.693 268.504 273.815 271.291C278.059 271.915 282.322 272.407 286.604 272.769V238.404H286.984L286.627 238.411ZM168.134 71.4115V126.544H286.627V71.4115H168.134ZM168.134 128.158V180.588H286.627V128.166L168.134 128.158ZM295.824 40.9804V58.5266L310.295 42.6592C305.499 41.8685 300.675 41.3088 295.824 40.9804ZM295.824 128.166V180.588H411.069V128.166H295.824ZM410.663 242.569L411.069 182.21H295.824V273.379C303.247 273.687 310.682 273.597 318.095 273.11H318.224C321.765 272.882 325.29 272.559 328.798 272.139H328.878C347.6 269.963 365.906 265.078 383.221 257.64L410.663 242.569ZM433.302 136.776C432.865 135.765 432.416 134.755 431.955 133.744C431.098 131.849 430.195 130.008 429.262 128.17H420.27V180.588H443C442.981 165.74 439.217 150.582 433.302 136.776ZM420.27 182.21V234.129C426.67 228.001 432.084 220.986 435.977 212.967C440.663 203.308 442.806 192.856 442.985 182.207L420.27 182.21ZM420.27 112.89V126.532H428.419C425.949 121.843 423.228 117.288 420.27 112.89ZM342.112 51.2694C341.512 51.0382 340.909 50.807 340.306 50.5872C333.945 48.2392 327.445 46.2875 320.842 44.7436L298.692 69.0202L298.26 69.4864L298.544 69.7933H377.378C366.398 62.2466 354.559 56.0284 342.112 51.2694ZM379.692 71.4115H297.44L295.824 72.8857V126.544H309.995H411.069V100.547C401.93 89.507 391.381 79.7119 379.692 71.4115Z" fill="#54A0FC"/>
<path opacity="0.1" d="M67.4961 99.2251V126.545H29.1152C29.1152 126.386 29.138 126.223 29.1532 126.064C29.1873 125.628 29.2215 125.196 29.2594 124.76C29.2973 124.252 29.3467 123.744 29.396 123.244C29.4453 122.744 29.4946 122.137 29.5553 121.588C29.6161 121.038 29.6654 120.481 29.7261 119.932C29.7868 119.382 29.8475 118.833 29.9158 118.287C29.9841 117.741 30.0448 117.188 30.1207 116.642C30.1776 116.191 30.2345 115.737 30.299 115.282C30.3862 114.642 30.4773 114.001 30.5722 113.364C30.5722 113.266 30.6025 113.171 30.6177 113.076C31.3111 108.416 32.2534 103.796 33.4405 99.2365L67.4961 99.2251Z" fill="#54A0FC"/>
<path opacity="0.1" d="M28.994 128.167H67.4963V180.59H31.8092C31.7182 181.132 31.6271 181.67 31.5247 182.212H67.4963V224.482C67.4356 224.482 67.3749 224.436 67.318 224.413C66.3062 224.012 65.2945 223.586 64.2827 223.136C64.0665 223.038 63.854 222.936 63.6339 222.841C62.6222 222.363 61.6104 221.858 60.5987 221.325C60.2458 221.139 59.893 220.946 59.5477 220.749C53.9308 217.618 48.8258 213.649 44.4094 208.978C44.2766 208.853 44.1551 208.717 44.0299 208.599C43.4153 207.932 42.812 207.258 42.2278 206.568C42.0077 206.314 41.7952 206.056 41.579 205.81C40.8884 204.969 40.2207 204.097 39.5757 203.222C39.4771 203.089 39.386 202.96 39.2911 202.843C36.6489 199.191 34.4578 195.233 32.7653 191.057C32.7122 190.932 32.6629 190.795 32.6136 190.678C32.09 189.351 31.6157 188.006 31.206 186.634C31.0314 186.062 30.8607 185.497 30.7165 184.902C30.6634 184.732 30.6217 184.557 30.5762 184.387C28.4439 175.993 28.1973 167.269 28.1973 158.587C28.1973 157.576 28.1973 156.566 28.1973 155.555C28.2276 152.01 28.2694 148.47 28.3225 144.933C28.3427 144.023 28.3617 143.11 28.3794 142.193C28.4325 139.871 28.5084 137.544 28.607 135.212C28.6298 134.568 28.6601 133.92 28.6943 133.279C28.7095 132.908 28.7284 132.536 28.7512 132.165C28.8195 130.824 28.9004 129.491 28.994 128.167Z" fill="#54A0FC"/>
<path opacity="0.1" d="M105.642 79.3103V126.545H76.6895V79.3103H80.8174V63.3179H97.7618V79.3103H105.642Z" fill="#54A0FC"/>
<path opacity="0.1" d="M105.638 128.163H76.6895V180.586H105.638V128.163Z" fill="#54A0FC"/>
<path opacity="0.1" d="M76.6934 182.211H105.642V225.793C102.227 226.775 98.747 227.513 95.2274 228.002C94.9391 228.044 94.6545 228.078 94.3662 228.108C93.9412 228.157 93.5201 228.203 93.0989 228.241L91.8279 228.343H91.6989L91.1374 228.373H90.9439C90.7163 228.373 90.4924 228.4 90.2648 228.404H90.2458C89.9195 228.404 89.597 228.427 89.2707 228.434H88.8534C88.5309 228.434 88.2084 228.434 87.8783 228.434H87.165H86.5845C86.3379 228.434 86.0951 228.434 85.8485 228.404C85.4589 228.389 85.0644 228.366 84.6647 228.336L83.9325 228.283C83.6289 228.26 83.3254 228.229 83.0257 228.199C82.3883 228.144 81.7559 228.072 81.1286 227.983L80.3698 227.877L79.9904 227.824C79.3568 227.729 78.727 227.623 78.0934 227.502C77.6229 227.418 77.16 227.324 76.6934 227.225V182.211Z" fill="#54A0FC"/>
<path opacity="0.1" d="M286.623 73.7317H262.751V126.541H286.623V73.7317Z" fill="#54A0FC"/>
<path opacity="0.1" d="M286.628 128.163V180.59H168.135V157.977H231.249V171.316H262.751V128.163H286.628Z" fill="#54A0FC"/>
<path opacity="0.1" d="M287.003 238.424C286.878 238.424 286.753 238.424 286.624 238.401V272.792C282.347 272.441 278.085 271.95 273.838 271.318C254.709 268.533 236.06 263.112 218.421 255.212C213.33 252.918 208.342 250.418 203.458 247.712C195.301 243.197 187.486 238.091 180.075 232.436C178.208 231.011 176.369 229.555 174.558 228.066C173.302 227.028 172.058 225.967 170.791 224.94C169.918 224.231 169.034 223.53 168.135 222.863V182.211H262.44C262.372 181.969 262.311 181.73 262.243 181.488C262.315 181.73 262.383 181.969 262.444 182.211H286.628V238.397C286.753 238.401 286.878 238.412 287.003 238.424Z" fill="#54A0FC"/>
<path opacity="0.1" d="M348.888 69.7987H333.332V64.9707H340.302V50.5889C340.906 50.8112 341.508 51.0386 342.108 51.271V64.9707H348.884L348.888 69.7987Z" fill="#54A0FC"/>
<path opacity="0.1" d="M386.37 126.545H309.995C310.003 126.547 310.01 126.547 310.018 126.545H309.984H295.824V73.7359H299.838V112.77H318.179V89.6526H333.336V71.4128H348.892V89.6639H364.042V112.781H386.374L386.37 126.545Z" fill="#54A0FC"/>
<path opacity="0.1" d="M295.824 128.167V180.59H386.374V128.167H295.824ZM410.94 242.293L411.069 200.796H386.374V182.227H295.824V273.38C303.247 273.688 310.682 273.598 318.095 273.111H318.224C321.766 272.883 325.29 272.56 328.799 272.141H328.878C347.6 269.964 365.906 265.08 383.221 257.641" fill="#54A0FC"/>
<path opacity="0.1" d="M421.863 182.211H442.985C442.803 192.857 440.663 203.312 435.977 212.968C432.084 220.991 426.67 228.006 420.27 234.134V200.785H421.863V182.211Z" fill="#54A0FC"/>
<path opacity="0.1" d="M443 180.59H421.863V136.777H433.302C439.217 150.583 442.981 165.742 443 180.59Z" fill="#54A0FC"/>
<path opacity="0.1" d="M286.628 88.4131H273.838V104.97H286.628V88.4131Z" fill="#54A0FC"/>
<path opacity="0.1" d="M286.628 122.733H273.838V126.545H286.628V122.733Z" fill="#54A0FC"/>
<path opacity="0.1" d="M286.628 128.163H273.838V139.286H286.628V128.163Z" fill="#54A0FC"/>
<path opacity="0.1" d="M286.628 157.052H273.838V173.609H286.628V157.052Z" fill="#54A0FC"/>
<path opacity="0.1" d="M286.628 191.371H273.838V207.928H286.628V191.371Z" fill="#54A0FC"/>
<path opacity="0.1" d="M286.628 238.397C286.753 238.397 286.878 238.397 287.007 238.424C286.882 238.424 286.757 238.424 286.628 238.401V242.248H273.838V225.691H286.628V238.397Z" fill="#54A0FC"/>
<path opacity="0.1" d="M286.628 260.006V272.793C282.348 272.442 278.085 271.95 273.838 271.319V260.006H286.628Z" fill="#54A0FC"/>
<path opacity="0.1" d="M222.948 179.373H168.135V180.589H222.948V179.373Z" fill="#54A0FC"/>
<path opacity="0.1" d="M222.948 182.207H168.135V186.869H222.948V182.207Z" fill="#54A0FC"/>
<path opacity="0.1" d="M222.948 202.149H168.135V209.645H222.948V202.149Z" fill="#54A0FC"/>
<path opacity="0.1" d="M222.947 224.925V232.421H180.074C178.207 231.001 176.369 229.543 174.558 228.048C173.298 227.013 172.053 225.952 170.79 224.925H222.947Z" fill="#54A0FC"/>
<path opacity="0.1" d="M222.947 247.698V255.212H218.421C213.329 252.918 208.341 250.419 203.457 247.713L222.947 247.698Z" fill="#54A0FC"/>
<path opacity="0.1" d="M328.886 133.245H318.096V144.023H328.886V133.245Z" fill="#54A0FC"/>
<path opacity="0.1" d="M95.2542 83.0281H84.4639V93.8059H95.2542V83.0281Z" fill="#54A0FC"/>
<path opacity="0.1" d="M95.2542 108.062H84.4639V118.84H95.2542V108.062Z" fill="#54A0FC"/>
<path opacity="0.1" d="M95.2542 133.097H84.4639V143.875H95.2542V133.097Z" fill="#54A0FC"/>
<path opacity="0.1" d="M95.2542 158.128H84.4639V168.906H95.2542V158.128Z" fill="#54A0FC"/>
<path opacity="0.1" d="M95.2542 183.163H84.4639V193.941H95.2542V183.163Z" fill="#54A0FC"/>
<path opacity="0.1" d="M95.2542 208.197H84.4639V218.975H95.2542V208.197Z" fill="#54A0FC"/>
<path opacity="0.1" d="M370.078 133.245H359.288V144.023H370.078V133.245Z" fill="#54A0FC"/>
<path opacity="0.1" d="M328.886 159.83H318.096V170.608H328.886V159.83Z" fill="#54A0FC"/>
<path opacity="0.1" d="M370.078 159.83H359.288V170.608H370.078V159.83Z" fill="#54A0FC"/>
<path opacity="0.1" d="M328.886 186.41H318.096V197.188H328.886V186.41Z" fill="#54A0FC"/>
<path opacity="0.1" d="M370.078 186.41H359.288V197.188H370.078V186.41Z" fill="#54A0FC"/>
<path opacity="0.1" d="M328.886 212.995H318.096V223.773H328.886V212.995Z" fill="#54A0FC"/>
<path opacity="0.1" d="M370.078 212.995H359.288V223.773H370.078V212.995Z" fill="#54A0FC"/>
<path opacity="0.1" d="M328.886 239.58H318.096V250.358H328.886V239.58Z" fill="#54A0FC"/>
<path opacity="0.1" d="M370.078 239.58H359.288V250.358H370.078V239.58Z" fill="#54A0FC"/>
<path opacity="0.1" d="M318.096 273.111V266.16H328.882V272.122L318.096 273.111Z" fill="#54A0FC"/>
<path opacity="0.1" d="M30.5723 113.065V119.231H67.4962V113.065H30.5723ZM34.2487 118.844H31.2135V113.455H34.2487V118.844ZM37.9252 118.844H34.8899V113.455H37.9252V118.844ZM41.5941 118.844H38.5588V113.455H41.5941V118.844ZM45.2705 118.844H42.2353V113.455H45.2705V118.844ZM48.9432 118.844H45.9079V113.455H48.9432V118.844ZM52.6196 118.844H49.5844V113.455H52.6196V118.844ZM56.2961 118.844H53.2608V113.455H56.2961V118.844ZM59.9688 118.844H56.9335V113.455H59.9688V118.844ZM63.6414 118.844H60.6062V113.455H63.6414V118.844ZM67.3179 118.844H64.2826V113.455H67.3179V118.844Z" fill="#54A0FC"/>
<path opacity="0.1" d="M30.5723 131.013V137.178H67.4962V131.013H30.5723ZM34.2487 136.792H31.2135V131.403H34.2487V136.792ZM37.9252 136.792H34.8899V131.403H37.9252V136.792ZM41.5941 136.792H38.5588V131.403H41.5941V136.792ZM45.2705 136.792H42.2353V131.403H45.2705V136.792ZM48.9432 136.792H45.9079V131.403H48.9432V136.792ZM52.6196 136.792H49.5844V131.403H52.6196V136.792ZM56.2961 136.792H53.2608V131.403H56.2961V136.792ZM59.9688 136.792H56.9335V131.403H59.9688V136.792ZM63.6414 136.792H60.6062V131.403H63.6414V136.792ZM67.3179 136.792H64.2826V131.403H67.3179V136.792Z" fill="#54A0FC"/>
<path opacity="0.1" d="M30.5723 148.965V155.127H67.4962V148.965H30.5723ZM34.2487 154.736H31.2135V149.347H34.2487V154.736ZM37.9252 154.736H34.8899V149.347H37.9252V154.736ZM41.5941 154.736H38.5588V149.347H41.5941V154.736ZM45.2705 154.736H42.2353V149.347H45.2705V154.736ZM48.9432 154.736H45.9079V149.347H48.9432V154.736ZM52.6196 154.736H49.5844V149.347H52.6196V154.736ZM56.2961 154.736H53.2608V149.347H56.2961V154.736ZM59.9688 154.736H56.9335V149.347H59.9688V154.736ZM63.6414 154.736H60.6062V149.347H63.6414V154.736ZM67.3179 154.736H64.2826V149.347H67.3179V154.736Z" fill="#54A0FC"/>
<path opacity="0.1" d="M30.5723 166.913V173.075H67.4962V166.913H30.5723ZM34.2487 172.688H31.2135V167.292H34.2487V172.688ZM37.9252 172.688H34.8899V167.292H37.9252V172.688ZM41.5941 172.688H38.5588V167.292H41.5941V172.688ZM45.2705 172.688H42.2353V167.292H45.2705V172.688ZM48.9432 172.688H45.9079V167.292H48.9432V172.688ZM52.6196 172.688H49.5844V167.292H52.6196V172.688ZM56.2961 172.688H53.2608V167.292H56.2961V172.688ZM59.9688 172.688H56.9335V167.292H59.9688V172.688ZM63.6414 172.688H60.6062V167.292H63.6414V172.688ZM67.3179 172.688H64.2826V167.292H67.3179V172.688Z" fill="#54A0FC"/>
<path opacity="0.1" d="M30.751 184.853C30.8952 185.437 31.0659 186.013 31.2404 186.585V185.244H34.2757V190.629H32.648C32.6935 190.758 32.7429 190.89 32.796 191.008H67.5118V184.853H30.751ZM37.9597 190.629H34.9245V185.244H37.9597V190.629ZM41.6286 190.629H38.5933V185.244H41.6286V190.629ZM45.305 190.629H42.2698V185.244H45.305V190.629ZM48.9777 190.629H45.9424V185.244H48.9777V190.629ZM52.6542 190.629H49.6189V185.244H52.6542V190.629ZM56.3306 190.629H53.2954V185.244H56.3306V190.629ZM60.0033 190.629H56.968V185.244H60.0033V190.629ZM63.6759 190.629H60.6407V185.244H63.6759V190.629ZM67.3524 190.629H64.3172V185.244H67.3524V190.629Z" fill="#54A0FC"/>
<path opacity="0.1" d="M39.3027 202.801C39.4014 202.922 39.4924 203.058 39.5873 203.18H41.5944V205.768L42.2431 206.526V203.164H45.2784V208.599H44.0302C44.1516 208.724 44.2692 208.856 44.4096 208.978H67.4889V202.801H39.3027ZM48.9625 208.599H45.9272V203.187H48.9625V208.599ZM52.6389 208.599H49.6037V203.187H52.6389V208.599ZM56.3154 208.599H53.2801V203.187H56.3154V208.599ZM59.988 208.599H56.9528V203.187H59.988V208.599ZM63.6607 208.599H60.6254V203.187H63.6607V208.599ZM67.3372 208.599H64.3019V203.187H67.3372V208.599Z" fill="#54A0FC"/>
<path opacity="0.1" d="M59.5596 220.749C59.9086 220.946 60.2615 221.128 60.6143 221.321V221.132H63.6496V222.841C63.8696 222.936 64.0783 223.038 64.2946 223.136V221.132H67.3298V224.414C67.3876 224.44 67.4472 224.461 67.5082 224.478V220.749H59.5596Z" fill="#54A0FC"/>
<path opacity="0.1" d="M286.624 238.397H287.003H286.624ZM262.239 181.488C262.311 181.73 262.376 181.973 262.44 182.211C262.383 181.973 262.315 181.73 262.239 181.488ZM80.833 69.7981V71.4125H97.7811V69.7905L80.833 69.7981ZM286.627 238.397H287.007H286.627ZM262.239 181.488C262.311 181.73 262.376 181.973 262.44 182.211C262.383 181.973 262.315 181.73 262.239 181.488ZM286.624 238.397H287.003H286.624ZM262.239 181.488C262.311 181.73 262.376 181.973 262.44 182.211C262.383 181.973 262.315 181.73 262.239 181.488Z" fill="#54A0FC"/>
<path opacity="0.1" d="M333.662 327C354.08 327 370.631 324.345 370.631 321.069C370.631 317.793 354.08 315.138 333.662 315.138C313.244 315.138 296.692 317.793 296.692 321.069C296.692 324.345 313.244 327 333.662 327Z" fill="#54A0FC"/>
<path opacity="0.1" d="M166.928 321.069C187.346 321.069 203.898 318.414 203.898 315.139C203.898 311.863 187.346 309.208 166.928 309.208C146.511 309.208 129.959 311.863 129.959 315.139C129.959 318.414 146.511 321.069 166.928 321.069Z" fill="#54A0FC"/>
<path d="M209.489 158.314C209.48 158.276 209.461 158.242 209.433 158.215C208.867 157.658 201.658 147.476 201.658 147.476C201.658 147.476 201.279 146.339 200.664 144.861C200.861 144.606 201.009 144.317 201.101 144.008C201.134 143.877 201.158 143.744 201.173 143.61C201.173 143.568 201.203 143.534 201.215 143.493C201.346 142.979 201.333 142.438 201.177 141.931C201.134 142.061 201.082 142.188 201.021 142.31C200.878 141.869 200.687 141.444 200.452 141.044C199.496 139.4 198.13 138.013 197.125 136.41C195.602 133.919 194.997 130.976 195.413 128.088C195.413 128.235 195.413 128.387 195.413 128.535C195.451 127.962 195.527 127.392 195.641 126.829C195.8 126.189 196.012 125.563 196.275 124.957C197.178 122.892 198.638 121.092 199.526 119.019C199.824 118.32 200.05 117.592 200.202 116.847C200.514 115.604 200.628 114.318 200.539 113.039C200.539 113.342 200.49 113.645 200.444 113.944C200.348 110.868 199.105 107.939 196.958 105.732C193.858 102.621 189.407 101.412 185.15 100.775C183.362 100.567 181.653 99.9155 180.18 98.8805C178.545 97.8232 176.432 97.5693 174.519 97.8004C172.322 98.0378 170.279 99.0463 168.756 100.646C166.734 102.867 165.858 106.013 163.498 107.885C162.067 109.022 160.254 109.552 158.588 110.325C156.923 111.098 155.348 112.22 154.813 113.88C154.813 113.88 154.813 113.857 154.813 113.846V113.941L154.79 114.001C154.236 115.964 155.306 117.962 155.864 119.921C156.444 121.948 156.482 124.089 156.513 126.185C156.555 128.747 156.592 131.313 156.551 133.878C156.532 134.886 156.498 135.906 156.422 136.91C155.524 137.181 154.651 137.531 153.815 137.956C152.965 138.509 149.786 141.939 149.786 141.939L143.567 165.67L143.651 165.765L143.567 166.087L143.882 166.015C144.763 166.962 147.392 169.66 150.23 171.343L150.495 175.997C150.495 175.997 150.814 180.666 155.113 182.594C155.211 184.213 155.519 190.784 154.096 193.387C153.111 195.289 152.647 197.418 152.753 199.557C152.753 199.557 153.25 203.506 152.685 205.583C152.354 206.971 152.33 208.414 152.612 209.812C152.612 209.812 152.612 210.271 152.612 211.059C152.612 215.262 152.662 228.73 152.612 230.253C152.54 232.054 152.612 258.676 152.612 258.676C152.612 258.676 152.26 271.982 151.129 275.586C149.998 279.19 150.283 291.123 150.283 291.123C150.283 291.123 149.573 305.338 152.081 308.143C152.081 308.268 152.059 308.397 152.055 308.522C152.055 308.579 152.055 308.643 152.055 308.7C152.024 309.78 152.233 310.928 153.163 311.281C155.06 312.008 157.568 314.191 158.042 314.816C158.516 315.442 161.274 316.999 164.871 316.582C167.124 316.329 169.392 316.226 171.659 316.272C171.659 316.272 173.078 316.014 172.619 314.252C172.323 313.153 171.215 311.463 170.426 310.352C170.57 310.39 170.71 310.42 170.843 310.447L170.98 310.473H171.086C171.144 310.477 171.202 310.477 171.26 310.473H171.336C171.407 310.479 171.478 310.479 171.549 310.473C172.501 310.382 176.052 312.035 176.686 313.126C177.319 314.218 179.554 315.048 181.239 315.256C182.24 315.377 184.767 315.173 186.888 314.9C187.956 314.79 189.014 314.597 190.052 314.324C190.553 314.134 190.659 313.528 190.515 312.846C190.345 311.979 189.881 311.198 189.203 310.633C188.588 310.197 187.776 309.048 187.176 308.109L187.017 307.855C188.076 306.847 189.988 303.55 190.568 302.868C191.274 302.038 189.43 271.686 189.43 271.686V256.47L192.257 242.07L194.233 234.449L195.929 222.943C195.929 222.943 198.896 209.505 197.982 208.186C197.982 208.16 197.223 194.324 196.426 191C196.081 189.518 196.168 186.183 196.373 182.939C196.587 182.727 196.737 182.458 196.804 182.164C196.871 181.87 196.853 181.564 196.753 181.279C196.696 181.085 196.622 180.896 196.533 180.715C196.533 180.658 196.533 180.597 196.533 180.54C198.172 179.787 199.884 179.206 201.643 178.805C204.47 178.252 203.764 176.796 203.764 176.796C203.764 176.796 204.402 175.549 204.823 174.788C205.244 174.026 204.895 167.303 204.823 166.75C204.796 166.526 204.622 165.291 204.421 163.889C205.327 163.244 206.507 162.445 207.794 161.687C210.241 160.239 209.691 158.712 209.489 158.314ZM172.611 254.394C172.611 254.394 170.49 259.798 171.34 261.181C172.19 262.564 171.2 267.699 171.2 267.699L170.49 275.32C170.49 275.32 168.513 289.456 169.219 292.779C169.773 295.387 169.978 303.174 170.042 306.422C169.994 306.441 169.947 306.464 169.902 306.49L169.807 306.54C170.134 305.263 169.997 302.678 168.377 297.479L168.24 276.002C168.24 276.002 167.99 251.195 169.951 248.421C171.913 245.647 172.607 240.937 172.607 240.937C172.607 240.937 172.182 247.731 171.905 249.532C171.628 251.332 172.611 254.394 172.611 254.394ZM168.661 307.775C168.642 307.821 168.62 307.866 168.604 307.908L168.498 307.771C168.552 307.777 168.607 307.778 168.661 307.775Z" fill="url(#paint0_linear)"/>
<path d="M190.292 316.286C189.195 316.707 183.25 317.423 181.588 317.222C179.926 317.021 177.726 316.18 177.1 315.081C176.474 313.982 172.964 312.322 172.023 312.428C171.637 312.44 171.253 312.386 170.885 312.269C170.236 312.073 169.602 311.83 168.988 311.542C168.902 311.064 168.916 310.574 169.03 310.102C169.051 310.006 169.079 309.913 169.113 309.821C169.334 309.199 169.793 308.69 170.388 308.404L170.524 308.339C170.787 308.226 171.062 308.142 171.344 308.089C174.326 307.517 186.63 308.665 186.63 308.665C186.63 308.665 186.976 309.283 187.45 310.049C188.042 310.996 188.846 312.152 189.453 312.588C190.126 313.162 190.582 313.948 190.747 314.816C190.891 315.487 190.785 316.101 190.292 316.286Z" fill="white"/>
<path opacity="0.1" d="M190.292 316.287C189.195 316.707 183.254 317.423 181.592 317.223C179.93 317.022 177.729 316.177 177.1 315.081C176.47 313.986 172.968 312.323 172.027 312.429C171.086 312.535 168.992 311.542 168.992 311.542C168.992 311.542 168.665 310.026 169.614 308.991L171.511 310.337C171.511 310.337 176.587 311.91 177.528 313.369C178.469 314.828 180.184 315.642 182.662 315.79C184.513 315.911 188.766 315.191 190.758 314.831C190.891 315.487 190.789 316.101 190.292 316.287Z" fill="#202020"/>
<path d="M172.129 318.219C169.892 318.176 167.653 318.281 165.429 318.534C161.866 318.951 159.146 317.397 158.672 316.756C158.198 316.116 155.743 313.952 153.857 313.194C152.935 312.838 152.719 311.678 152.761 310.594C152.761 310.538 152.761 310.473 152.761 310.416C152.796 309.73 152.897 309.048 153.064 308.381L167.827 308.067L169.106 309.799L169.303 310.064L170.081 311.121C170.081 311.121 170.434 311.583 170.896 312.258C171.678 313.395 172.771 315.074 173.063 316.184C173.529 317.961 172.129 318.219 172.129 318.219Z" fill="white"/>
<path opacity="0.1" d="M172.13 318.219C169.892 318.176 167.653 318.281 165.429 318.534C161.87 318.951 159.146 317.397 158.676 316.757C158.205 316.116 155.743 313.933 153.857 313.202C152.935 312.846 152.719 311.686 152.761 310.602C153.815 310.848 156.031 311.477 156.9 312.573C158.038 314.036 160.076 316.495 162.971 316.65C165.308 316.775 170.999 316.359 173.086 316.192C173.533 317.962 172.13 318.219 172.13 318.219Z" fill="#202020"/>
<path opacity="0.1" d="M170.373 308.389C170.203 309.655 169.675 309.996 169.296 310.071C169.203 310.089 169.108 310.089 169.015 310.071C168.965 310.068 168.916 310.06 168.867 310.049C168.867 310.049 155.611 312.974 152.932 310.606C152.864 310.545 152.8 310.479 152.742 310.409C152.777 309.722 152.879 309.041 153.046 308.374L167.808 308.059L169.087 309.791C169.309 309.169 169.767 308.66 170.362 308.374L170.373 308.389Z" fill="#202020"/>
<path opacity="0.1" d="M187.447 310.033C187.151 310.359 186.904 310.545 186.748 310.481C186.05 310.2 180.329 309.226 178.511 310.064C176.694 310.901 170.544 310.2 170.544 310.2C170.544 310.2 170.544 309.472 170.51 308.305C170.773 308.192 171.048 308.108 171.329 308.055C174.311 307.483 186.616 308.631 186.616 308.631C186.616 308.631 186.976 309.268 187.447 310.033Z" fill="#202020"/>
<path d="M196.105 224.311L194.428 235.885L192.477 243.555L189.685 258.054V273.403C189.685 273.403 191.499 303.94 190.8 304.773C190.102 305.607 187.45 310.356 186.752 310.079C186.054 309.802 180.333 308.825 178.515 309.658C176.698 310.492 170.548 309.799 170.548 309.799C170.548 309.799 170.407 297.948 169.709 294.602C169.011 291.256 170.965 277.033 170.965 277.033L171.663 269.367C171.663 269.367 172.642 264.205 171.804 262.81C170.965 261.416 173.059 255.989 173.059 255.989C173.059 255.989 172.084 252.916 172.365 251.104C172.646 249.293 173.059 242.46 173.059 242.46C173.059 242.46 172.365 247.204 170.426 249.99C168.488 252.775 168.734 277.738 168.734 277.738L168.871 299.339C172.365 310.776 168.871 309.658 168.871 309.658C168.871 309.658 155.614 312.588 152.936 310.215C150.257 307.843 151.023 292.912 151.023 292.912C151.023 292.912 150.746 280.921 151.862 277.298C152.977 273.675 153.33 260.286 153.33 260.286C153.33 260.286 153.258 233.512 153.33 231.705C153.383 230.189 153.33 216.618 153.33 212.377C153.33 211.589 153.33 211.123 153.33 211.123L154.931 207.151L173.902 204.779H182.977C182.977 204.779 196.636 207.985 198.047 209.368C198.077 209.391 198.103 209.42 198.123 209.452C199.037 210.789 196.105 224.311 196.105 224.311Z" fill="#00B4D8"/>
<path opacity="0.1" d="M173.07 285.105C173.07 285.105 177.244 295.144 179.213 295.841C181.182 296.538 173.07 285.105 173.07 285.105Z" fill="#202020"/>
<path opacity="0.1" d="M174.615 299.885C174.615 299.885 188.706 300.582 188.566 302.117C188.426 303.652 174.615 299.885 174.615 299.885Z" fill="#202020"/>
<path opacity="0.1" d="M155.762 295.872C156.319 296.398 166.51 297.387 165.672 298.35C164.833 299.313 156.6 301.185 156.6 301.185L155.762 295.872Z" fill="#202020"/>
<path opacity="0.1" d="M154.089 278.553C154.089 278.97 156.183 291.938 156.745 292.495C157.306 293.052 161.908 293.609 161.908 293.609L154.089 278.553Z" fill="#202020"/>
<path d="M169.284 101.295C167.284 103.527 166.419 106.691 164.09 108.578C162.674 109.715 160.884 110.257 159.237 111.03C157.59 111.803 155.959 112.982 155.47 114.733C154.923 116.703 155.978 118.716 156.532 120.686C157.105 122.725 157.139 124.855 157.173 126.989C157.211 129.569 157.253 132.15 157.207 134.731C157.139 138.752 156.805 142.958 154.669 146.365C162.382 148.817 170.585 149.151 178.674 149.465C180.229 149.576 181.79 149.537 183.337 149.348C184.677 149.081 186.003 148.746 187.309 148.343C189.892 147.661 192.553 147.321 195.224 147.332C196.389 147.332 197.576 147.404 198.699 147.1C199.822 146.797 200.904 146.02 201.207 144.899C201.476 143.891 201.082 142.818 200.566 141.912C199.625 140.26 198.289 138.881 197.28 137.251C196.25 135.53 195.639 133.591 195.496 131.591C195.353 129.59 195.682 127.584 196.457 125.734C197.352 123.654 198.794 121.842 199.674 119.758C200.576 117.52 200.816 115.071 200.365 112.701C199.914 110.331 198.792 108.14 197.132 106.388C194.07 103.258 189.677 102.045 185.473 101.401C183.703 101.192 182.014 100.54 180.564 99.5059C178.951 98.4448 176.861 98.1871 174.971 98.422C172.791 98.666 170.772 99.6857 169.284 101.295Z" fill="#3F3D56"/>
<g opacity="0.1">
<path opacity="0.1" d="M196.575 123.547C195.801 125.373 195.47 127.356 195.607 129.334C195.692 127.919 196.02 126.53 196.575 125.226C197.467 123.145 198.908 121.334 199.789 119.25C200.508 117.509 200.811 115.625 200.673 113.747C200.594 115.063 200.296 116.357 199.789 117.575C198.908 119.659 197.467 121.467 196.575 123.547Z" fill="#202020"/>
<path opacity="0.1" d="M157.287 126.473C157.31 127.958 157.333 129.448 157.337 130.933C157.337 128.887 157.318 126.844 157.287 124.802C157.257 122.683 157.219 120.538 156.646 118.496C156.267 117.2 155.705 115.885 155.508 114.577C155.17 116.434 156.13 118.318 156.646 120.171C157.219 122.194 157.257 124.355 157.287 126.473Z" fill="#202020"/>
<path opacity="0.1" d="M198.829 144.932C197.691 145.239 196.522 145.171 195.357 145.163C192.688 145.146 190.028 145.48 187.447 146.156C186.14 146.557 184.814 146.891 183.474 147.157C181.926 147.349 180.363 147.389 178.807 147.278C170.992 146.971 163.066 146.641 155.58 144.409C155.358 144.905 155.104 145.386 154.821 145.849C162.535 148.297 170.737 148.635 178.823 148.949C180.378 149.06 181.941 149.02 183.489 148.828C184.825 148.564 186.146 148.232 187.447 147.831C190.023 147.153 192.678 146.815 195.342 146.827C196.507 146.827 197.691 146.899 198.814 146.592C199.937 146.285 201.018 145.516 201.321 144.394C201.449 143.874 201.436 143.33 201.284 142.817C200.946 143.878 199.902 144.617 198.829 144.932Z" fill="#202020"/>
</g>
<path d="M187.591 140.442C187.31 141.071 186.126 146.505 185.845 147.062C185.565 147.619 184.032 156.537 183.891 157.037C183.751 157.537 173.788 154.945 173.788 154.945L167.789 149.924L161.624 143.796C161.624 143.796 161.442 138.267 165.983 136.493C166.292 136.372 166.609 136.273 166.932 136.197C172.441 134.875 171.887 118.143 171.887 118.143L183.193 123.021C183.193 123.021 181.099 132.783 181.171 134.666C181.19 135.299 181.687 135.693 182.336 135.932C183.339 136.217 184.383 136.33 185.424 136.266C185.424 136.266 187.871 139.816 187.591 140.442Z" fill="#FBBEBE"/>
<path d="M207.832 158.776L209.437 159.197C209.437 159.197 210.624 161.001 207.832 162.68C206.059 163.756 204.357 164.944 202.736 166.238L194.484 168.747L192.895 163.764L200.574 157.943L207.832 158.776Z" fill="#54A0FC"/>
<path opacity="0.1" d="M207.832 158.776L209.437 159.197C209.437 159.197 210.624 161.001 207.832 162.68C206.059 163.756 204.357 164.944 202.736 166.238L194.484 168.747L192.895 163.764L200.574 157.943L207.832 158.776Z" fill="#202020"/>
<path d="M147.608 163.589L144.398 166.727C144.398 166.727 150.188 173.419 154.642 173.836C159.097 174.253 161.969 168.747 161.969 168.747L158.114 162.683L147.608 163.589Z" fill="#54A0FC"/>
<path opacity="0.1" d="M147.608 163.589L144.398 166.727C144.398 166.727 150.188 173.419 154.642 173.836C159.097 174.253 161.969 168.747 161.969 168.747L158.114 162.683L147.608 163.589Z" fill="#202020"/>
<path opacity="0.1" d="M178.098 129.076C184.264 129.076 189.264 124.083 189.264 117.923C189.264 111.764 184.264 106.77 178.098 106.77C171.931 106.77 166.932 111.764 166.932 117.923C166.932 124.083 171.931 129.076 178.098 129.076Z" fill="#202020"/>
<path d="M178.098 128.239C184.264 128.239 189.264 123.246 189.264 117.086C189.264 110.926 184.264 105.933 178.098 105.933C171.931 105.933 166.932 110.926 166.932 117.086C166.932 123.246 171.931 128.239 178.098 128.239Z" fill="#FBBEBE"/>
<path opacity="0.1" d="M198.13 210.717C195.588 211.008 193.084 211.568 190.66 212.389C186.486 213.776 153.781 212.411 153.326 212.389C153.326 211.6 153.326 211.134 153.326 211.134L154.927 207.163L173.898 204.79H182.973C182.973 204.79 196.632 207.996 198.043 209.38C198.1 210.213 198.13 210.717 198.13 210.717Z" fill="#202020"/>
<path opacity="0.1" d="M187.591 140.442C187.31 141.071 186.126 146.505 185.845 147.062C185.565 147.62 184.032 156.537 183.891 157.037C183.751 157.537 173.788 154.945 173.788 154.945L167.789 149.924L161.624 143.796C161.624 143.796 161.442 138.267 165.983 136.493L177.259 149.442L182.336 135.932C183.339 136.217 184.383 136.33 185.424 136.266C185.424 136.266 187.871 139.817 187.591 140.442Z" fill="#202020"/>
<path d="M177.259 149.859L165.718 136.595C165.042 136.164 164.27 135.908 163.471 135.849C162.671 135.79 161.87 135.931 161.138 136.258C158.555 137.376 155.345 138.281 154.506 138.839C153.668 139.396 150.526 142.844 150.526 142.844L159.883 167.291L155.762 183.394C155.762 183.394 156.392 191.621 154.787 194.619C153.81 196.535 153.352 198.674 153.459 200.822C153.459 200.822 153.949 204.798 153.391 206.886C153.065 208.282 153.04 209.732 153.319 211.138C153.319 211.138 186.475 212.533 190.66 211.138C193.083 210.315 195.588 209.755 198.131 209.467C198.131 209.467 197.372 195.521 196.613 192.174C195.854 188.828 197.243 176.072 197.243 176.072L196.336 162.407L201.777 148.385C201.777 148.385 198.829 139.396 195.756 138.49C195.756 138.49 190.174 137.164 188.987 136.538C187.799 135.913 184.309 135.352 184.309 135.352L182.476 135.966L177.259 149.859Z" fill="#00B4D8"/>
<path opacity="0.1" d="M193.362 161.945L169.076 160.296C168.461 160.254 167.929 160.718 167.887 161.332L165.28 199.633C165.238 200.246 165.702 200.778 166.317 200.82L190.604 202.469C191.218 202.511 191.75 202.047 191.792 201.433L194.4 163.132C194.441 162.518 193.977 161.987 193.362 161.945Z" fill="#202020"/>
<path d="M194.198 161.113L169.912 159.464C169.297 159.422 168.765 159.886 168.723 160.5L166.116 198.801C166.074 199.415 166.538 199.946 167.153 199.988L191.44 201.638C192.054 201.679 192.586 201.215 192.628 200.602L195.236 162.3C195.277 161.687 194.813 161.155 194.198 161.113Z" fill="#3F3D56"/>
<path d="M193.397 164.116L170.299 162.547L167.925 197.415L191.023 198.984L193.397 164.116Z" fill="white"/>
<path opacity="0.1" d="M191.326 173.016L172.458 171.697L172.09 176.949L190.958 178.268L191.326 173.016Z" fill="#202020"/>
<path opacity="0.1" d="M190.643 193.889L187.648 193.686L187.462 196.423L190.456 196.626L190.643 193.889Z" fill="#202020"/>
<path opacity="0.1" d="M187.689 187.282L172.362 186.241L172.176 188.979L187.503 190.02L187.689 187.282Z" fill="#202020"/>
<path d="M190.538 162.812L174.579 161.728L174.293 165.936L190.252 167.02L190.538 162.812Z" fill="#3F3D56"/>
<path opacity="0.1" d="M190.538 162.812L174.579 161.728L174.293 165.936L190.252 167.02L190.538 162.812Z" fill="#202020"/>
<path opacity="0.1" d="M178.655 209.948C178.655 209.948 178.515 230.587 173.07 242.437C173.07 242.437 179.634 226.82 179.634 226.195C179.634 225.569 183.261 219.013 182.29 217.061C181.319 215.11 178.655 209.948 178.655 209.948Z" fill="#202020"/>
<path opacity="0.1" d="M178.951 114.297C178.743 112.47 179.191 110.629 180.215 109.101C180.093 110.632 180.526 112.156 181.436 113.395C182.346 114.633 183.671 115.503 185.17 115.847C185.042 115.736 184.951 115.589 184.908 115.425C184.865 115.262 184.873 115.089 184.931 114.93C185.709 115.809 186.304 116.851 187.184 117.624C188.065 118.397 189.385 118.86 190.421 118.31C191.828 117.552 191.844 115.555 191.479 114.001C190.698 110.692 189.094 107.633 186.816 105.107C186.248 104.343 185.511 103.721 184.661 103.29C183.812 102.859 182.875 102.63 181.922 102.621C179.767 102.454 177.529 102.644 175.597 103.61C174.511 104.202 173.493 104.913 172.562 105.728L167.25 110.056C166.739 110.424 166.302 110.884 165.96 111.413C165.732 111.855 165.596 112.338 165.558 112.834C165.423 114.251 165.685 115.679 166.316 116.955C166.948 118.232 167.923 119.307 169.132 120.061C169.107 118.941 169.415 117.838 170.018 116.894C170.622 115.949 171.493 115.205 172.52 114.755C172.681 114.89 172.812 115.057 172.903 115.246C172.994 115.435 173.043 115.641 173.048 115.851L174.167 113.857C174.333 113.495 174.596 113.184 174.926 112.959C175.616 112.58 176.478 113.027 177.066 113.562C177.654 114.096 178.227 114.763 179.016 114.846L179.046 111.879" fill="#202020"/>
<path d="M178.952 113.879C178.742 112.051 179.19 110.209 180.215 108.68C179.874 111.712 182.161 114.842 185.174 115.426C185.046 115.316 184.954 115.169 184.912 115.006C184.869 114.843 184.877 114.671 184.935 114.512C185.713 115.391 186.308 116.43 187.189 117.207C188.069 117.984 189.389 118.442 190.425 117.889C191.833 117.131 191.848 115.134 191.484 113.584C190.702 110.275 189.098 107.216 186.821 104.689C186.114 103.829 185.223 103.137 184.214 102.666C183.483 102.396 182.716 102.24 181.938 102.203C179.783 102.037 177.544 102.222 175.613 103.189C174.527 103.784 173.509 104.495 172.578 105.311L167.266 109.639C166.754 110.006 166.316 110.466 165.976 110.995C165.747 111.437 165.611 111.921 165.574 112.417C165.438 113.833 165.701 115.26 166.332 116.536C166.964 117.812 167.939 118.887 169.148 119.64C169.123 118.52 169.432 117.418 170.035 116.473C170.638 115.529 171.509 114.784 172.536 114.334C172.696 114.469 172.826 114.636 172.917 114.825C173.008 115.014 173.058 115.22 173.063 115.429L174.179 113.444C174.344 113.08 174.607 112.769 174.938 112.545C175.628 112.166 176.489 112.614 177.077 113.148C177.665 113.682 178.238 114.346 179.028 114.433L179.058 111.462" fill="#3F3D56"/>
<path d="M184.241 184.228C183.266 183.735 167.141 186.248 167.141 186.248C167.141 186.248 164.485 185.49 158.065 184.436C151.646 183.383 151.236 177.115 151.236 177.115L150.534 164.567L152.701 162.672L161.981 168.736C161.981 168.736 162.125 171.801 161.981 172.355C161.89 172.734 161.647 173.185 161.67 173.492C161.677 173.575 161.711 173.653 161.767 173.715C161.824 173.777 161.899 173.818 161.981 173.833C162.611 173.992 171.193 175.379 171.193 175.379C171.193 175.379 191.085 174.018 196.044 180.711C196.437 181.202 196.734 181.763 196.921 182.363C198.15 186.937 185.125 184.664 184.241 184.228Z" fill="#FBBEBE"/>
<path opacity="0.1" d="M196.932 182.39C196.173 182.727 195.703 182.97 195.703 182.97C195.703 182.97 188.585 182.761 184.586 181.314C180.587 179.866 175.727 180.124 175.727 180.124C175.727 180.124 159.063 177.259 161.647 173.518C161.654 173.601 161.689 173.68 161.745 173.742C161.801 173.803 161.876 173.845 161.958 173.859C162.588 174.019 171.17 175.406 171.17 175.406C171.17 175.406 191.063 174.045 196.021 180.738C196.427 181.226 196.736 181.787 196.932 182.39Z" fill="#202020"/>
<path d="M203.852 160.311C203.852 160.311 204.831 167.212 204.899 167.773C204.967 168.334 205.32 175.091 204.899 175.86C204.478 176.63 203.852 177.88 203.852 177.88C203.852 177.88 204.55 179.343 201.757 179.904C198.965 180.465 195.687 182.132 195.687 182.132C195.687 182.132 188.565 181.924 184.589 180.461C180.613 178.998 175.726 179.275 175.726 179.275C175.726 179.275 154.574 175.648 163.65 171.222C172.725 166.795 179.145 172.791 179.145 172.791L189.263 172.165C189.263 172.165 193.035 169.861 194.082 170.073C194.821 170.168 195.572 170.046 196.245 169.725L196.317 162.403L203.852 160.311Z" fill="#FBBEBE"/>
<path opacity="0.1" d="M152.541 143.371L150.515 143.265L144.376 167.14C144.376 167.14 151.004 165.465 153.861 167.14C156.718 168.815 161.958 169.16 161.958 169.16L160.004 150.128L152.541 143.371Z" fill="#202020"/>
<path d="M152.541 142.951L150.515 142.845L144.376 166.72C144.376 166.72 151.004 165.045 153.861 166.72C156.718 168.395 161.958 168.74 161.958 168.74L160.004 149.708L152.541 142.951Z" fill="#54A0FC"/>
<path opacity="0.1" d="M198.969 148.181L201.758 148.81C201.758 148.81 208.879 159.042 209.437 159.614C209.995 160.186 206.781 162.267 205.457 162.267C204.133 162.267 197.641 163.025 195.756 164.776C193.87 166.526 194.655 157.715 194.655 157.515C194.655 157.314 196.996 151.754 196.996 151.754L198.969 148.181Z" fill="#202020"/>
<path d="M198.969 147.763L201.758 148.388C201.758 148.388 208.879 158.64 209.437 159.197C209.995 159.754 206.781 161.849 205.457 161.849C204.133 161.849 197.641 162.607 195.756 164.358C193.87 166.109 194.655 157.298 194.655 157.097C194.655 156.896 197.011 151.318 197.011 151.318L198.969 147.763Z" fill="#54A0FC"/>
<g opacity="0.1">
<path opacity="0.1" d="M180.196 108.714C180.18 108.424 180.186 108.132 180.215 107.843C179.637 108.709 179.24 109.682 179.046 110.704V111.583C179.046 111.583 179.046 111.564 179.046 111.553V111.761C179.046 112.375 179.046 112.993 179.027 113.607H178.974V113.891C178.974 113.793 178.974 113.698 178.955 113.599C178.196 113.478 177.654 112.841 177.089 112.334C176.523 111.826 175.639 111.341 174.949 111.731C174.618 111.955 174.355 112.266 174.19 112.629L173.063 114.615C173.058 114.406 173.009 114.2 172.918 114.012C172.827 113.824 172.696 113.657 172.536 113.524C171.508 113.973 170.637 114.717 170.034 115.662C169.43 116.606 169.122 117.709 169.148 118.829C168.111 118.18 167.244 117.294 166.618 116.245C165.992 115.195 165.625 114.012 165.547 112.792C165.481 114.154 165.78 115.508 166.413 116.716C167.046 117.924 167.99 118.941 169.148 119.663C169.123 118.543 169.432 117.441 170.035 116.496C170.638 115.552 171.509 114.807 172.536 114.357C172.696 114.492 172.826 114.66 172.917 114.848C173.008 115.037 173.058 115.243 173.063 115.452L174.179 113.467C174.344 113.103 174.607 112.793 174.937 112.569C175.628 112.19 176.489 112.637 177.077 113.171C177.665 113.705 178.238 114.369 179.027 114.456C179.027 113.486 179.037 112.518 179.058 111.553C179.244 110.54 179.631 109.575 180.196 108.714Z" fill="#202020"/>
<path opacity="0.1" d="M178.914 112.531C178.933 112.273 178.963 112.016 179.001 111.773L179.043 110.727C178.929 111.321 178.885 111.927 178.914 112.531Z" fill="#202020"/>
<path opacity="0.1" d="M190.425 117.051C189.389 117.605 188.069 117.142 187.188 116.369C186.308 115.596 185.712 114.554 184.935 113.675C184.877 113.834 184.869 114.007 184.912 114.17C184.954 114.334 185.046 114.481 185.174 114.592C185.098 114.592 185.026 114.554 184.954 114.535C185.712 115.407 186.316 116.43 187.188 117.188C188.061 117.946 189.389 118.423 190.425 117.87C191.46 117.317 191.756 116.021 191.665 114.759C191.597 115.752 191.24 116.612 190.425 117.051Z" fill="#202020"/>
<path opacity="0.1" d="M184.931 114.528C183.662 114.183 182.53 113.458 181.685 112.452C180.84 111.445 180.323 110.205 180.204 108.896C179.988 111.871 182.234 114.854 185.174 115.426C185.049 115.317 184.959 115.174 184.916 115.014C184.872 114.854 184.878 114.685 184.931 114.528Z" fill="#202020"/>
</g>
<path d="M367.138 176.467C367.138 176.467 365.643 176.258 365.643 174.087C365.643 171.915 364.573 167.849 364.573 167.849C364.573 167.849 363.647 160.773 362.369 159.652C361.09 158.53 359.447 151.943 359.447 151.943C359.447 151.943 359.166 148.37 358.594 147.601C358.021 146.831 357.247 144.948 356.105 142.261C354.963 139.574 350.212 137.732 350.212 137.732C350.212 137.732 341.604 132.745 339.164 131.119C338.941 130.984 338.732 130.827 338.542 130.649C338.117 130.096 336.265 130.085 336.265 130.085C336.072 128.861 335.886 127.458 335.825 126.189C335.825 126.052 335.825 125.916 335.825 125.78C338.546 124.173 340.595 121.641 341.596 118.647C341.642 118.503 341.68 118.356 341.721 118.208C341.888 118.156 342.041 118.07 342.172 117.956C342.303 117.841 342.408 117.699 342.48 117.541C342.696 117.052 342.704 116.483 342.977 116.025C343.296 115.487 343.903 115.199 344.381 114.797C345.587 113.77 345.899 112.046 345.842 110.481C345.804 109.207 345.599 107.926 345.678 106.664C345.678 106.558 345.678 106.452 345.701 106.346C345.724 106.16 345.751 105.967 345.785 105.785C345.971 104.845 346.377 103.959 346.604 103.026C346.832 102.094 346.855 101.044 346.323 100.241C345.546 99.0623 343.926 98.8273 342.503 98.725C340.89 98.5886 339.468 98.7629 338.417 97.4252C337.935 96.7265 337.391 96.0721 336.793 95.4697C336.58 95.2726 334.516 94.0107 334.516 93.9311C332.497 92.9932 330.206 92.8169 328.066 93.4346C326.993 93.7454 325.987 94.2532 324.898 94.5071C322.561 95.0604 319.867 94.4616 317.879 95.7994C316.771 96.5573 316.107 97.7662 315.485 98.9372C314.979 99.9023 314.466 100.869 313.945 101.836C313.103 103.424 312.253 105.039 311.9 106.797C311.826 107.181 311.779 107.57 311.759 107.96C311.759 108.101 311.759 108.241 311.759 108.381C311.759 108.442 311.759 108.502 311.759 108.563C311.759 108.692 311.759 108.821 311.782 108.942C311.805 109.063 311.782 109.097 311.809 109.177C311.835 109.257 311.843 109.435 311.866 109.556C311.888 109.677 311.934 109.893 311.979 110.056C311.979 110.128 312.025 110.196 312.048 110.268C312.071 110.34 312.131 110.522 312.181 110.647C312.23 110.772 312.234 110.78 312.264 110.844C312.321 110.977 312.389 111.106 312.458 111.223C312.488 111.273 312.511 111.322 312.541 111.371C312.645 111.549 312.762 111.718 312.89 111.879C313.698 112.891 314.897 113.535 315.781 114.483C315.781 114.52 315.781 114.558 315.781 114.596C315.781 114.699 315.781 114.801 315.781 114.907C315.835 117.02 316.406 119.088 317.442 120.931C318.479 122.774 319.951 124.335 321.73 125.48C321.73 125.624 321.749 125.772 321.757 125.92C321.831 127.043 321.817 128.171 321.715 129.293C321.56 129.111 321.367 128.967 321.149 128.87C320.931 128.773 320.694 128.726 320.455 128.732C320.292 128.724 320.129 128.738 319.97 128.773L319.936 128.747V128.781C319.101 128.986 318.073 129.853 317.09 132.321C317.09 132.321 314.1 135.686 311.824 135.546C309.548 135.405 303.784 139.051 303.784 139.051C303.784 139.051 298.161 142.693 296.955 146.407C296.28 148.513 295.471 150.574 294.531 152.576L287.561 166.871L286.282 178.24C286.282 178.24 286.992 183.284 286.851 184.057C286.711 184.83 289.769 191.765 289.769 191.765C289.769 191.765 299.873 209.494 304.001 210.403L304.296 210.198C304.474 210.288 304.661 210.357 304.854 210.403L305.704 209.808C305.757 210.474 305.734 211.144 305.636 211.805C305.07 213.56 305.852 224.982 306.846 227.222C307.84 229.461 307.487 258.831 307.487 258.831L307.347 261.42C307.347 261.42 307.347 261.503 307.381 261.647L307.347 262.261L307.449 262.314C307.556 263.138 307.521 263.973 307.347 264.785C306.99 265.922 306.846 269.132 306.846 269.132C306.846 269.132 304.001 287.277 305.351 290.922C306.702 294.568 307.844 298.562 307.844 298.562C307.844 298.562 309.267 303.11 307.912 303.868C306.558 304.626 302.722 305.971 303.504 307.862C304.224 309.613 306.96 314.305 307.366 314.991L307.332 315.37L306.774 321.407C306.864 322.204 307.081 322.981 307.415 323.711C308.026 325.03 309.21 326.39 311.471 326.242C311.851 326.216 312.287 326.174 312.716 326.117C316.847 325.56 321.931 323.718 321.931 323.718C321.668 323.552 321.427 323.352 321.214 323.123C321.011 322.927 320.85 322.691 320.741 322.43C320.632 322.17 320.578 321.89 320.581 321.607C320.641 320.505 318.581 315.271 318.065 313.979L317.948 313.691C317.948 313.691 322.645 308.783 321.863 304.44C321.863 304.44 316.665 301.408 318.376 299.741C320.087 298.074 323.145 293.299 323.145 293.299C323.145 293.299 323.286 275.43 323.145 272.766C322.999 270.913 323.087 269.049 323.407 267.218C323.464 266.945 323.532 266.676 323.605 266.407C325.973 266.764 328.365 266.945 330.76 266.949C331.635 266.949 332.521 266.931 333.416 266.896C333.416 267.148 333.427 267.421 333.45 267.714C333.647 272.141 334.015 279.906 334.315 282.79C334.74 286.921 337.089 298.066 337.089 298.066C337.089 298.066 332.608 300.935 337.87 308.018C337.87 308.018 337.87 310.579 337.521 310.955C337.148 312.17 336.848 313.406 336.622 314.657C336.402 315.987 336.311 317.34 336.668 318.038C337.521 319.713 342.643 319.576 342.643 319.576C342.684 319.567 342.726 319.56 342.768 319.557C343.735 319.455 344.713 319.547 345.644 319.827C346.575 320.106 347.44 320.569 348.19 321.187C350.137 322.748 357.52 322.066 361.523 321.566C363.089 321.365 364.137 321.187 364.137 321.187C364.187 321.01 364.205 320.825 364.19 320.641C364.148 319.66 363.378 317.507 358.157 315.586C358.157 315.586 353.248 312.289 353.316 309.416H353.206H352.641C352.997 309.405 353.248 309.405 353.248 309.405C353.248 309.405 351.324 302.398 352.109 301.825C352.895 301.253 350.542 293.488 350.542 293.488C350.542 293.488 349.196 280.452 349.12 279.542C349.125 278.758 349.245 277.979 349.476 277.23L349.12 270.079C349.12 270.079 349.051 267.703 349.12 266.93C349.112 266.259 349.059 265.589 348.96 264.925C348.926 264.66 348.892 264.383 348.854 264.11C350.694 263.644 351.889 263.216 351.889 263.216L351.677 238.337C353.24 235.305 353.528 228.65 353.521 223.936C353.521 220.904 353.384 218.661 353.384 218.661L355.52 215.178C355.52 215.178 356.014 211.009 355.232 210.096C354.887 209.683 355.042 209.255 355.327 208.902C355.477 208.78 355.635 208.668 355.801 208.569C355.782 208.542 355.766 208.515 355.752 208.486C355.901 208.361 356.059 208.248 356.226 208.148C356.226 208.148 355.467 206.973 356.146 206.477C356.784 206.909 357.353 207.254 357.785 207.5C357.755 207.777 357.725 207.936 357.725 207.936L357.907 207.557C358.324 207.792 358.578 207.936 358.578 207.936C358.578 207.936 361.925 201.278 361.853 200.3C361.781 199.322 364.129 195.184 364.129 195.184C364.129 195.184 364.414 193.008 365.696 192.099C366.978 191.189 366.69 184.599 366.69 184.599C366.69 184.599 367.047 181.166 367.9 179.767C368.754 178.369 367.138 176.467 367.138 176.467ZM303.109 173.545L303.173 175.133C302.794 174.522 302.521 174.087 302.521 174.087L303.109 173.545Z" fill="url(#paint1_linear)"/>
<path d="M358.776 205.056L357.956 208.542C357.956 208.542 351.392 205.189 350.212 200.944C349.032 196.7 352.189 195.082 352.189 195.082L358.309 197.666L358.776 205.056Z" fill="white"/>
<path opacity="0.1" d="M358.776 205.056L357.956 208.542C357.956 208.542 351.392 205.189 350.212 200.944C349.032 196.7 352.189 195.082 352.189 195.082L358.309 197.666L358.776 205.056Z" fill="#202020"/>
<path d="M321.939 323.714C321.939 323.714 315.868 325.943 311.695 326.223C309.479 326.371 308.314 325.014 307.715 323.707C307.389 322.986 307.177 322.219 307.085 321.433L307.635 315.426L307.923 312.232L316.79 309.927L318.046 313.766L318.164 314.054C318.665 315.339 320.691 320.546 320.63 321.634C320.625 321.915 320.677 322.194 320.784 322.455C320.89 322.716 321.048 322.952 321.248 323.15C321.454 323.366 321.686 323.556 321.939 323.714Z" fill="white"/>
<path d="M363.385 320.66C363.401 320.843 363.383 321.028 363.332 321.205C363.332 321.205 350.349 323.366 347.693 321.205C346.946 320.574 346.076 320.106 345.138 319.83C344.2 319.554 343.214 319.476 342.245 319.602C342.245 319.602 337.221 319.739 336.383 318.087C336.034 317.393 336.125 316.048 336.341 314.725C336.562 313.481 336.856 312.251 337.221 311.042L337.422 310.882L338.617 309.924L352.61 309.51H352.716C352.648 312.368 357.463 315.646 357.463 315.646C362.588 317.541 363.343 319.682 363.385 320.66Z" fill="white"/>
<path opacity="0.1" d="M363.389 320.66C363.403 320.844 363.383 321.028 363.332 321.206C363.332 321.206 350.349 323.366 347.697 321.206C346.95 320.574 346.079 320.105 345.14 319.829C344.201 319.553 343.215 319.476 342.245 319.602C342.245 319.602 337.218 319.739 336.379 318.087C336.034 317.393 336.121 316.048 336.338 314.721C338.272 314.915 341.327 315.396 342.526 316.548C344.339 318.291 347.412 320.035 349.294 320.175C350.782 320.266 359.626 320.546 363.389 320.66Z" fill="#202020"/>
<path opacity="0.1" d="M321.939 323.714C321.939 323.714 315.868 325.943 311.695 326.223C309.479 326.371 308.314 325.014 307.715 323.707C309.263 324.226 311.406 324.768 312.533 324.271C313.869 323.676 318.604 323.297 321.26 323.135C321.46 323.356 321.688 323.551 321.939 323.714Z" fill="#202020"/>
<path d="M330.946 144.125C325.938 142.181 319.495 135.757 321.104 132.756C321.46 131.998 321.672 131.181 321.73 130.346C321.834 129.212 321.849 128.071 321.776 126.935C321.663 125.073 321.438 123.219 321.104 121.383C321.104 121.383 336.739 121.735 335.829 124.036C335.563 124.714 335.518 125.885 335.594 127.193C335.669 128.5 335.855 129.989 336.053 131.244C336.322 132.961 336.599 134.276 336.599 134.276C336.599 134.276 335.639 135.613 335.081 135.685C334.524 135.757 338.132 146.91 330.946 144.125Z" fill="#FBBEBE"/>
<path opacity="0.1" d="M318.149 314.036L318.031 314.165C313.357 308.518 307.704 315.559 307.704 315.559L307.62 315.408L307.908 312.213L316.775 309.909L318.031 313.748L318.149 314.036Z" fill="#202020"/>
<path opacity="0.1" d="M352.724 309.909C352.724 309.909 349.309 309.84 347.488 311.447C345.667 313.054 336.865 311.792 337.244 311.447C337.355 311.272 337.423 311.074 337.442 310.867L338.637 309.909L352.629 309.496C352.682 309.761 352.724 309.909 352.724 309.909Z" fill="#202020"/>
<path d="M323.964 265.566C323.711 266.194 323.517 266.845 323.388 267.51C323.071 269.331 322.983 271.185 323.126 273.028C323.266 275.681 323.126 293.458 323.126 293.458C323.126 293.458 320.125 298.199 318.448 299.87C316.771 301.541 321.862 304.543 321.862 304.543C322.621 308.867 318.023 313.748 318.023 313.748C313.349 308.101 307.695 315.139 307.695 315.139C307.695 315.139 304.622 309.833 303.856 307.938C303.089 306.043 306.857 304.736 308.181 303.963C309.505 303.19 308.113 298.657 308.113 298.657C308.113 298.657 306.997 294.682 305.669 291.055C304.341 287.429 307.134 269.378 307.134 269.378C307.134 269.378 307.278 266.168 307.623 265.051C307.796 264.244 307.83 263.413 307.726 262.595C307.703 262.318 307.676 262.091 307.657 261.932C307.638 261.772 307.623 261.704 307.623 261.704L307.676 261.613L309.573 258.081C309.573 258.081 324.875 263.341 323.964 265.566Z" fill="#00B4D8"/>
<path d="M352.724 309.492C352.724 309.492 349.309 309.42 347.488 311.008C345.667 312.595 336.864 311.356 337.244 311.008C337.623 310.659 337.589 308.082 337.589 308.082C332.425 301.037 336.83 298.179 336.83 298.179C336.83 298.179 334.527 287.095 334.11 282.983C333.818 280.114 333.457 272.372 333.264 267.987C333.18 266.092 333.131 264.785 333.131 264.785L337.312 263.955L337.854 263.849L348.03 261.806C348.03 261.806 348.311 263.701 348.501 265.251C348.597 265.913 348.649 266.58 348.656 267.248C348.592 268.006 348.656 270.382 348.656 270.382L349.005 277.492C348.78 278.238 348.663 279.012 348.656 279.792C348.728 280.701 350.052 293.666 350.052 293.666C350.052 293.666 352.355 301.404 351.57 301.962C350.785 302.519 352.724 309.492 352.724 309.492Z" fill="#00B4D8"/>
<path opacity="0.1" d="M335.828 124.048C335.563 124.726 335.517 125.897 335.593 127.204C333.499 128.464 331.091 129.108 328.647 129.062C326.203 129.017 323.821 128.284 321.775 126.947C321.662 125.084 321.438 123.23 321.104 121.395C321.104 121.395 336.739 121.747 335.828 124.048Z" fill="#202020"/>
<path d="M341.865 115.68C341.907 119.118 340.579 122.432 338.174 124.893C335.769 127.353 332.484 128.759 329.041 128.8C325.599 128.841 322.281 127.515 319.818 125.112C317.355 122.71 315.948 119.429 315.906 115.991C315.906 115.885 315.906 115.786 315.906 115.68C315.906 112.241 317.274 108.942 319.709 106.51C322.144 104.078 325.446 102.712 328.89 102.712C332.333 102.712 335.635 104.078 338.07 106.51C340.505 108.942 341.873 112.241 341.873 115.68H341.865Z" fill="#FBBEBE"/>
<path opacity="0.1" d="M330.946 144.125C325.938 142.181 319.495 135.758 321.104 132.756C321.46 131.998 321.672 131.181 321.73 130.346L328.586 135.978L332.828 139.453L336.053 131.256C336.322 132.972 336.599 134.287 336.599 134.287C336.599 134.287 335.639 135.625 335.081 135.697C334.524 135.769 338.132 146.911 330.946 144.125Z" fill="#202020"/>
<path d="M348.676 169.012L342.951 265.08L335.484 265.569L316.146 209.865L319.317 143.731L319.989 129.759L328.586 136.811L332.828 140.286L336.148 131.847L342.321 137.22L348.676 169.012Z" fill="#00B4D8"/>
<path opacity="0.1" d="M323.965 265.566C323.711 266.194 323.518 266.845 323.388 267.51C317.95 266.673 312.668 265.027 307.719 262.625L307.616 262.572L307.65 261.962V261.643L309.547 258.111C309.547 258.111 324.875 263.341 323.965 265.566Z" fill="#202020"/>
<path opacity="0.1" d="M337.438 267.525C336.049 267.762 334.648 267.923 333.241 268.006C333.158 266.111 333.108 264.804 333.108 264.804L337.312 263.955L337.438 267.525Z" fill="#202020"/>
<path opacity="0.1" d="M348.516 265.251C345.819 265.952 341.649 266.74 337.923 266.248L337.87 263.849L348.046 261.806C348.046 261.806 348.315 263.686 348.516 265.251Z" fill="#202020"/>
<path opacity="0.1" d="M337.855 266.687C322.299 269.34 308.052 261.734 308.052 261.734L308.189 259.157C308.189 259.157 308.542 229.943 307.563 227.703C306.584 225.463 305.821 214.121 306.375 212.389C306.929 210.657 304.353 184.508 304.353 184.508L303.936 173.897L288.649 167.693L295.479 153.471C296.401 151.477 297.194 149.426 297.854 147.331C299.041 143.636 304.554 140.01 304.554 140.01C304.554 140.01 310.207 136.387 312.442 136.523C314.677 136.66 317.606 133.317 317.606 133.317C319.768 127.811 321.726 130.285 321.726 130.285C321.726 130.551 321.726 130.285 321.62 131.1C320.861 137.145 333.89 156.245 334.076 156.586L335.332 186.774L336.588 224.978L337.855 266.687Z" fill="#202020"/>
<path d="M337.437 266.687C321.882 269.34 307.631 261.734 307.631 261.734L307.772 259.157C307.772 259.157 308.121 229.943 307.142 227.703C306.163 225.463 305.4 214.109 305.958 212.362C306.516 210.615 303.924 184.493 303.924 184.493L303.503 173.882L288.221 167.678L295.05 153.456C295.97 151.462 296.763 149.413 297.425 147.32C298.613 143.636 304.144 140.006 304.144 140.006C304.144 140.006 309.798 136.383 312.029 136.519C314.259 136.656 317.204 133.317 317.204 133.317C319.37 127.811 321.757 130.285 321.757 130.285C321.757 130.551 321.529 130.664 321.65 131.1C323.32 136.963 333.503 156.245 333.689 156.586L334.945 186.774L336.174 224.997L337.437 266.687Z" fill="white"/>
<path opacity="0.1" d="M333.245 157.439C331.572 156.741 322.709 146.634 322.709 146.634V144.334C322.387 143.576 320.467 144.038 318.915 144.569L319.583 130.596L320.342 131.226C322 137.084 333.063 157.101 333.245 157.439Z" fill="#202020"/>
<path d="M333.666 156.605C331.989 155.904 323.126 145.8 323.126 145.8V143.496C322.804 142.738 320.888 143.201 319.332 143.731L319.988 129.774L320.747 130.399C322.42 136.25 333.48 156.264 333.666 156.605Z" fill="white"/>
<path opacity="0.1" d="M308.052 207.007C308.261 207.007 318.869 205.893 318.869 205.893C318.869 205.893 325.292 218.513 324.871 221.579C324.45 224.644 323.687 227.365 321.104 226.884C318.52 226.403 307.198 227.263 307.198 227.263L308.052 207.007Z" fill="#202020"/>
<path d="M307.631 206.17C307.843 206.17 318.452 205.056 318.452 205.056C318.452 205.056 324.871 217.694 324.454 220.726C324.037 223.758 323.266 226.513 320.686 226.032C318.106 225.55 306.777 226.41 306.777 226.41L307.631 206.17Z" fill="white"/>
<path d="M315.625 200.262C315.625 200.262 325.361 205.492 325.57 207.083C325.778 208.675 320.615 206.386 319.499 206.106C318.764 205.931 318.017 205.815 317.264 205.757L309.824 205.958L315.625 200.262Z" fill="#FBBEBE"/>
<path opacity="0.1" d="M330.524 158.09C331.09 158.09 331.549 157.632 331.549 157.067C331.549 156.502 331.09 156.044 330.524 156.044C329.959 156.044 329.5 156.502 329.5 157.067C329.5 157.632 329.959 158.09 330.524 158.09Z" fill="#202020"/>
<path d="M330.524 157.673C331.09 157.673 331.549 157.215 331.549 156.65C331.549 156.085 331.09 155.627 330.524 155.627C329.959 155.627 329.5 156.085 329.5 156.65C329.5 157.215 329.959 157.673 330.524 157.673Z" fill="#3F3D56"/>
<path opacity="0.1" d="M332.41 202.384C332.976 202.384 333.435 201.926 333.435 201.361C333.435 200.796 332.976 200.337 332.41 200.337C331.844 200.337 331.386 200.796 331.386 201.361C331.386 201.926 331.844 202.384 332.41 202.384Z" fill="#202020"/>
<path d="M332.41 201.964C332.976 201.964 333.435 201.506 333.435 200.94C333.435 200.375 332.976 199.917 332.41 199.917C331.844 199.917 331.386 200.375 331.386 200.94C331.386 201.506 331.844 201.964 332.41 201.964Z" fill="#3F3D56"/>
<path opacity="0.1" d="M331.549 180.237C332.115 180.237 332.573 179.779 332.573 179.214C332.573 178.649 332.115 178.191 331.549 178.191C330.983 178.191 330.524 178.649 330.524 179.214C330.524 179.779 330.983 180.237 331.549 180.237Z" fill="#202020"/>
<path d="M331.549 179.82C332.115 179.82 332.573 179.362 332.573 178.797C332.573 178.232 332.115 177.774 331.549 177.774C330.983 177.774 330.524 178.232 330.524 178.797C330.524 179.362 330.983 179.82 331.549 179.82Z" fill="#3F3D56"/>
<path d="M355.163 205.545C355.163 205.545 355.861 206.591 355.163 207.061C354.465 207.531 355.231 208.736 355.231 208.736C355.231 208.736 353.49 209.751 354.256 210.672C355.023 211.593 354.537 215.728 354.537 215.728L352.443 219.21C352.443 219.21 352.568 221.442 352.576 224.459C352.576 229.166 352.299 235.783 350.766 238.799L350.971 263.55C350.971 263.55 343.637 266.229 337.498 265.41L336.587 225.694C336.587 225.694 337.915 203.172 338.405 198.852C338.691 196.609 338.808 194.348 338.754 192.088C338.754 192.088 338.545 185.327 337.843 182.193C337.843 182.193 337.084 168.595 337.008 164.832C336.974 163.032 337.069 157.78 337.175 152.785C337.293 147.324 337.426 142.174 337.426 142.174L336.041 131.225C336.041 131.225 337.426 131.089 337.843 131.642C338.03 131.817 338.233 131.973 338.45 132.108C340.844 133.723 349.29 138.687 349.29 138.687C349.29 138.687 353.964 140.544 355.083 143.205C356.203 145.865 356.981 147.752 357.523 148.51C358.066 149.268 358.362 152.83 358.362 152.83C358.362 152.83 359.97 159.386 361.226 160.497C362.482 161.607 363.385 168.656 363.385 168.656L352.287 177.372C352.287 177.372 351.312 191.872 351.103 192.432C350.895 192.993 355.163 205.545 355.163 205.545Z" fill="white"/>
<path d="M355.585 205.544C355.585 205.544 356.279 206.59 355.585 207.06C354.891 207.53 355.649 208.735 355.649 208.735C355.649 208.735 353.908 209.751 354.674 210.672C355.441 211.592 354.955 215.727 354.955 215.727L352.868 219.21C352.868 219.21 352.994 221.442 353.005 224.458C353.005 229.165 352.728 235.782 351.195 238.799L351.404 263.549C351.404 263.549 344.07 266.228 337.931 265.41L337.024 225.694C337.024 225.694 338.348 203.172 338.842 198.852C339.128 196.609 339.244 194.347 339.187 192.087C339.187 192.087 338.978 185.326 338.28 182.192C338.28 182.192 337.521 168.595 337.442 164.832C337.408 163.031 337.502 157.779 337.609 152.784C337.726 147.323 337.859 142.173 337.859 142.173L336.03 131.077C336.03 131.077 337.859 131.077 338.28 131.642C338.465 131.818 338.669 131.974 338.887 132.108C341.277 133.722 349.723 138.687 349.723 138.687C349.723 138.687 354.386 140.544 355.524 143.204C356.662 145.864 357.421 147.751 357.964 148.509C358.506 149.267 358.802 152.83 358.802 152.83C358.802 152.83 360.411 159.386 361.667 160.496C362.923 161.607 363.829 168.655 363.829 168.655L352.732 177.372C352.732 177.372 351.757 191.871 351.544 192.432C351.332 192.993 355.585 205.544 355.585 205.544Z" fill="white"/>
<path opacity="0.1" d="M342.294 145.391L343.299 148.309L338.022 153.615C338.139 148.154 338.272 143.004 338.272 143.004L336.443 131.911C336.443 131.911 338.272 131.911 338.693 132.476C338.878 132.652 339.082 132.809 339.3 132.942L343.785 145.861L342.294 145.391Z" fill="#202020"/>
<path d="M341.865 144.554L342.871 147.468L337.597 152.773C337.711 147.313 337.847 142.162 337.847 142.162L336.015 131.066C336.015 131.066 337.847 131.066 338.265 131.631C338.451 131.806 338.654 131.962 338.872 132.097L343.383 145.027L341.865 144.554Z" fill="white"/>
<path opacity="0.1" d="M341.865 115.68C341.867 117.045 341.652 118.403 341.228 119.701C341.156 119.713 341.083 119.71 341.013 119.693C340.943 119.676 340.876 119.645 340.818 119.602C340.716 116.192 339.039 112.986 336.971 110.261C336.389 109.439 335.686 108.71 334.884 108.101C334.073 107.492 333.064 107.207 332.054 107.301C330.916 107.456 329.91 108.229 328.761 108.328C327.243 108.453 325.885 107.403 324.378 107.354C323.766 107.359 323.162 107.495 322.606 107.753C322.051 108.01 321.557 108.383 321.157 108.847C320.365 109.78 319.777 110.868 319.431 112.042C318.834 113.822 318.51 115.683 318.467 117.56C318.448 118.621 318.346 119.951 317.359 120.337C317.434 119.558 317.345 118.771 317.099 118.027C316.853 117.283 316.454 116.599 315.929 116.017L315.906 115.991C315.906 115.885 315.906 115.786 315.906 115.68C315.906 112.241 317.274 108.942 319.709 106.51C322.144 104.078 325.446 102.712 328.89 102.712C332.333 102.712 335.635 104.078 338.07 106.51C340.505 108.942 341.873 112.241 341.873 115.68H341.865Z" fill="#202020"/>
<path d="M334.277 95.0907C332.306 94.1644 330.063 93.9891 327.971 94.598C326.92 94.9088 325.93 95.4128 324.864 95.6667C322.588 96.2162 319.932 95.6212 317.978 96.9514C316.893 97.7094 316.24 98.9069 315.633 100.074L314.115 102.958C313.288 104.538 312.454 106.145 312.108 107.885C311.763 109.624 311.972 111.572 313.076 112.974C313.876 113.99 315.068 114.63 315.94 115.589C316.465 116.174 316.862 116.86 317.108 117.606C317.353 118.351 317.441 119.139 317.367 119.921C318.353 119.542 318.452 118.204 318.475 117.143C318.517 115.266 318.842 113.406 319.439 111.625C319.785 110.452 320.373 109.363 321.165 108.43C321.564 107.966 322.058 107.592 322.613 107.334C323.169 107.076 323.773 106.939 324.386 106.933C325.904 106.986 327.266 108.036 328.768 107.907C329.906 107.813 330.916 107.04 332.061 106.884C333.072 106.789 334.081 107.074 334.892 107.684C335.694 108.292 336.397 109.02 336.975 109.844C339.046 112.572 340.727 115.763 340.826 119.185C341.254 119.496 341.873 119.087 342.085 118.602C342.298 118.117 342.305 117.548 342.575 117.086C342.886 116.552 343.482 116.264 343.948 115.862C345.132 114.842 345.428 113.126 345.382 111.568C345.337 110.011 345.033 108.43 345.329 106.899C345.508 105.963 345.91 105.08 346.13 104.152C346.35 103.223 346.376 102.181 345.857 101.382C345.098 100.211 343.501 99.9756 342.108 99.8657C340.526 99.7292 339.111 99.9036 338.102 98.5734C337.627 97.8802 337.094 97.2285 336.508 96.6255C336.299 96.4247 334.277 95.1741 334.277 95.0907Z" fill="#512E4E"/>
<path opacity="0.1" d="M293.027 175.007L289.066 167.689L287.811 178.983C287.811 178.983 288.509 184 288.368 184.77C288.228 185.539 291.229 192.436 291.229 192.436C291.229 192.436 301.143 210.077 305.191 210.983L318.85 201.221L315.223 196.62C315.223 196.62 313.967 196.131 313.652 196.62C313.652 196.62 306.914 185.046 306.219 184.212C305.525 183.379 305.658 181.7 305.658 181.7C305.658 181.7 304.611 180.586 304.96 179.54C305.309 178.494 302.956 174.871 302.956 174.871L305.119 172.851L293.027 175.007Z" fill="#202020"/>
<path d="M289.276 166.852L288.228 167.69L286.973 178.983C286.973 178.983 287.671 184.001 287.53 184.77C287.39 185.539 290.395 192.436 290.395 192.436C290.395 192.436 300.305 210.077 304.353 210.983L318.035 201.221L314.404 196.62C314.404 196.62 313.148 196.131 312.833 196.62C312.833 196.62 306.099 185.047 305.4 184.213C304.702 183.379 304.843 181.7 304.843 181.7C304.843 181.7 303.796 180.586 304.145 179.54C304.494 178.494 302.119 174.871 302.119 174.871L304.281 172.851L289.276 166.852Z" fill="white"/>
<path opacity="0.1" d="M354.256 211.108C355.015 212.029 354.537 216.167 354.537 216.167L352.443 219.627C352.443 219.627 352.568 221.863 352.575 224.88L349.054 225.979C348.736 226.078 348.398 226.1 348.069 226.042C347.74 225.984 347.43 225.849 347.164 225.647C346.898 225.445 346.685 225.183 346.541 224.882C346.397 224.581 346.328 224.25 346.338 223.917L346.949 204.362L355.163 207.496C354.465 207.981 355.231 209.171 355.231 209.171C355.231 209.171 353.49 210.187 354.256 211.108Z" fill="#202020"/>
<path d="M354.674 210.691C355.433 211.608 354.955 215.746 354.955 215.746L352.868 219.21C352.868 219.21 352.994 221.442 353.005 224.458L349.42 225.576C349.108 225.674 348.778 225.696 348.457 225.64C348.135 225.584 347.832 225.452 347.572 225.255C347.312 225.058 347.103 224.802 346.962 224.507C346.822 224.213 346.754 223.89 346.764 223.564L347.375 203.941L355.585 207.083C354.883 207.568 355.649 208.758 355.649 208.758C355.649 208.758 353.908 209.77 354.674 210.691Z" fill="white"/>
<path d="M357.398 201.361C357.398 201.361 356.84 204.92 355.444 205.128C354.048 205.337 353.422 210.885 352.029 210.691C350.637 210.498 351.559 205.53 351.608 204.567C351.658 203.605 350.091 199.618 351.259 198.712C352.428 197.806 356.146 198.712 356.146 198.712L357.398 201.361Z" fill="#FBBEBE"/>
<path opacity="0.1" d="M360.35 173.962L362.98 168.656C362.98 168.656 364.031 172.7 364.031 174.86C364.031 177.02 365.495 177.232 365.495 177.232C365.495 177.232 367.1 179.127 366.254 180.51C365.408 181.893 365.07 185.319 365.07 185.319C365.07 185.319 365.347 191.872 364.091 192.777C362.835 193.683 362.555 195.847 362.555 195.847C362.555 195.847 360.252 199.959 360.324 200.937C360.396 201.914 357.114 208.535 357.114 208.535C357.114 208.535 358.719 200.307 349.366 196.753C349.366 196.753 349.294 193.963 349.992 193.198C350.69 192.432 351.779 192.061 351.096 188.211C350.414 184.36 350.899 179.718 350.899 178.79C350.899 177.861 352.994 172.074 352.994 172.074L360.35 173.962Z" fill="#202020"/>
<path d="M361.518 167.898L363.818 168.656C363.818 168.656 364.869 172.7 364.869 174.86C364.869 177.02 366.333 177.232 366.333 177.232C366.333 177.232 367.938 179.127 367.092 180.51C366.246 181.894 365.904 185.32 365.904 185.32C365.904 185.32 366.185 191.872 364.929 192.778C363.673 193.683 363.412 195.847 363.412 195.847C363.412 195.847 361.109 199.959 361.181 200.937C361.253 201.915 357.967 208.535 357.967 208.535C357.967 208.535 359.572 200.308 350.22 196.753C350.22 196.753 350.151 193.964 350.849 193.198C351.548 192.433 352.636 192.061 351.954 188.211C351.271 184.361 351.756 179.718 351.756 178.79C351.756 177.861 353.851 172.075 353.851 172.075L361.518 167.898Z" fill="white"/>
<path opacity="0.1" d="M310.724 305.414C310.724 305.414 314.389 303.114 316.794 304.785C319.2 306.456 310.724 305.414 310.724 305.414Z" fill="#202020"/>
<path opacity="0.1" d="M339.209 298.301C339.209 298.301 342.453 297.884 345.177 300.813C347.901 303.743 339.209 298.301 339.209 298.301Z" fill="#202020"/>
<g opacity="0.1">
<path opacity="0.1" d="M343.948 115.028C343.481 115.434 342.882 115.718 342.57 116.252C342.305 116.711 342.297 117.279 342.085 117.768C341.872 118.257 341.254 118.662 340.821 118.352C340.723 114.941 339.042 111.739 336.974 109.01C336.396 108.188 335.693 107.46 334.891 106.854C334.08 106.243 333.069 105.956 332.057 106.05C330.919 106.206 329.917 106.979 328.768 107.077C327.25 107.202 325.888 106.153 324.382 106.103C323.77 106.108 323.166 106.244 322.611 106.501C322.056 106.759 321.563 107.132 321.164 107.597C320.372 108.53 319.784 109.618 319.438 110.791C318.842 112.572 318.517 114.432 318.474 116.309C318.452 117.366 318.353 118.685 317.374 119.079C317.397 119.36 317.397 119.643 317.374 119.924C318.364 119.545 318.463 118.208 318.486 117.147C318.528 115.269 318.853 113.409 319.449 111.629C319.796 110.455 320.384 109.367 321.176 108.434C321.574 107.97 322.067 107.596 322.622 107.338C323.177 107.08 323.781 106.943 324.393 106.937C325.911 106.99 327.277 108.04 328.779 107.911C329.917 107.816 330.926 107.043 332.068 106.888C333.08 106.793 334.091 107.078 334.903 107.687C335.705 108.295 336.407 109.024 336.986 109.848C339.053 112.576 340.734 115.767 340.833 119.189C341.265 119.5 341.884 119.091 342.096 118.606C342.309 118.12 342.316 117.552 342.582 117.09C342.893 116.555 343.492 116.267 343.959 115.866C345.143 114.846 345.439 113.129 345.393 111.572C345.393 111.523 345.393 111.477 345.393 111.428C345.317 112.785 344.957 114.16 343.948 115.028Z" fill="#202020"/>
<path opacity="0.1" d="M315.936 114.763C315.067 113.804 313.876 113.16 313.075 112.144C312.399 111.248 312.014 110.166 311.971 109.044C311.852 110.447 312.244 111.845 313.075 112.982C313.876 113.998 315.067 114.638 315.936 115.597C316.775 116.534 317.28 117.723 317.37 118.977C317.427 118.215 317.33 117.448 317.083 116.724C316.837 116 316.446 115.333 315.936 114.763Z" fill="#202020"/>
<path opacity="0.1" d="M346.13 103.318C345.906 104.247 345.507 105.13 345.325 106.066C345.216 106.699 345.176 107.342 345.208 107.983C345.22 107.621 345.259 107.26 345.325 106.903C345.507 105.967 345.906 105.084 346.13 104.156C346.258 103.643 346.301 103.113 346.255 102.587C346.23 102.833 346.189 103.078 346.13 103.318Z" fill="#202020"/>
</g>
<path opacity="0.1" d="M50.3591 317.908C70.7768 317.908 87.3286 315.253 87.3286 311.977C87.3286 308.702 70.7768 306.047 50.3591 306.047C29.9414 306.047 13.3896 308.702 13.3896 311.977C13.3896 315.253 29.9414 317.908 50.3591 317.908Z" fill="#54A0FC"/>
<path d="M51.5498 198.359H49.1709V251.858H51.5498V198.359Z" fill="#535461"/>
<path d="M66.5022 251.699L66.3504 254.109L66.1417 257.52L66.0545 258.937L65.842 262.348L65.7509 263.765L65.5423 267.176L63.1406 305.857C63.0382 307.522 62.3041 309.084 61.0879 310.226C59.8718 311.369 58.2652 312.004 56.5958 312.004H44.1247C42.4508 312.005 40.84 311.366 39.623 310.218C38.4059 309.07 37.6749 307.5 37.5799 305.831L35.1783 267.15L34.9696 263.739L34.8823 262.322L34.6661 258.911L34.5788 257.494L34.3701 254.083L34.2184 251.673C34.1921 251.211 34.2603 250.748 34.4186 250.313C34.577 249.878 34.8223 249.48 35.1396 249.143C35.4569 248.806 35.8396 248.537 36.2643 248.352C36.6891 248.167 37.147 248.071 37.6103 248.069H63.1141C63.5794 248.071 64.0392 248.169 64.4654 248.355C64.8916 248.542 65.2751 248.814 65.5924 249.154C65.9097 249.494 66.154 249.895 66.3105 250.333C66.4669 250.77 66.5322 251.235 66.5022 251.699Z" fill="#281E99"/>
<path d="M66.3512 254.106L66.1388 257.509H34.5797L34.3672 254.106H66.3512Z" fill="#9D9CB5"/>
<path d="M66.0506 258.926L65.8419 262.329H34.8785L34.666 258.926H66.0506Z" fill="#9D9CB5"/>
<path d="M65.7509 263.75L65.5423 267.149H35.1783L34.9658 263.75H65.7509Z" fill="#9D9CB5"/>
<path d="M30.7506 218.414C44.6066 228.427 50.3774 244.086 50.3774 244.086C50.3774 244.086 33.6834 243.513 19.8237 233.501C5.96392 223.489 0.185547 207.841 0.185547 207.841C0.185547 207.841 16.8795 208.402 30.7506 218.414Z" fill="#2FC63C"/>
<path d="M0.185547 207.841C0.185547 207.841 17.5131 217.448 23.0714 225.402C28.6297 233.357 50.3622 244.093 50.3622 244.093" stroke="#E6E6E6" stroke-width="2" stroke-miterlimit="10"/>
<path d="M39.6783 198.246C47.2209 203.692 50.3624 212.215 50.3624 212.215C50.3624 212.215 41.2566 211.904 33.7329 206.458C26.2093 201.012 23.0488 192.486 23.0488 192.486C23.0488 192.486 32.1394 192.796 39.6783 198.246Z" fill="#2FC63C"/>
<path d="M23.0488 192.486C23.0488 192.486 32.4809 197.715 35.5086 202.043C38.5362 206.371 50.3624 212.215 50.3624 212.215" stroke="#E6E6E6" stroke-width="2" stroke-miterlimit="10"/>
<path d="M61.3196 211.783C52.6577 221.291 50.8252 233.717 50.8252 233.717C50.8252 233.717 63.0383 230.723 71.6926 221.211C80.3469 211.699 82.187 199.277 82.187 199.277C82.187 199.277 69.9815 202.274 61.3196 211.783Z" fill="#2FC63C"/>
<path d="M82.1946 199.281C82.1946 199.281 70.911 209.028 68.0427 215.743C65.1744 222.458 50.8252 233.717 50.8252 233.717" stroke="#E6E6E6" stroke-width="2" stroke-miterlimit="10"/>
<path d="M97.7608 246.222H96.3838V277.19H97.7608V246.222Z" fill="#535461"/>
<path d="M106.416 277.097L106.328 278.492L106.207 280.467L106.157 281.287L106.034 283.261L105.981 284.082L105.86 286.056L104.47 308.446C104.411 309.41 103.986 310.314 103.282 310.975C102.578 311.637 101.648 312.005 100.682 312.004H93.463C92.494 312.005 91.5616 311.635 90.8572 310.97C90.1527 310.306 89.7296 309.397 89.6746 308.431L88.2844 286.041L88.1636 284.066L88.1131 283.246L87.9879 281.272L87.9374 280.451L87.8166 278.477L87.7288 277.082C87.7136 276.815 87.753 276.547 87.8447 276.295C87.9363 276.043 88.0783 275.813 88.262 275.618C88.4457 275.423 88.6672 275.267 88.913 275.16C89.1589 275.053 89.424 274.997 89.6921 274.996H104.455C104.724 274.997 104.99 275.054 105.237 275.162C105.484 275.27 105.706 275.427 105.889 275.624C106.073 275.821 106.214 276.053 106.305 276.306C106.396 276.56 106.433 276.829 106.416 277.097Z" fill="#281E99"/>
<path d="M85.7216 257.831C93.742 263.626 97.0824 272.69 97.0824 272.69C97.0824 272.69 87.4193 272.359 79.3967 266.564C71.3741 260.768 68.0293 251.711 68.0293 251.711C68.0293 251.711 77.6924 252.035 85.7216 257.831Z" fill="#2FC63C"/>
<path d="M68.0293 251.711C68.0293 251.711 78.0592 257.272 81.2766 261.876C84.494 266.48 97.0736 272.695 97.0736 272.695" stroke="#E6E6E6" stroke-width="2" stroke-miterlimit="10"/>
<path d="M90.8895 246.156C95.2554 249.308 97.0739 254.242 97.0739 254.242C97.0739 254.242 91.8031 254.062 87.4481 250.91C83.0931 247.757 81.2637 242.822 81.2637 242.822C81.2637 242.822 86.5257 243.002 90.8895 246.156Z" fill="#2FC63C"/>
<path d="M81.2637 242.822C81.2637 242.822 86.7233 245.849 88.4759 248.354C90.2284 250.859 97.0739 254.242 97.0739 254.242" stroke="#E6E6E6" stroke-width="2" stroke-miterlimit="10"/>
<path d="M103.416 253.992C98.4025 259.496 97.3418 266.689 97.3418 266.689C97.3418 266.689 104.411 264.956 109.421 259.45C114.43 253.944 115.495 246.753 115.495 246.753C115.495 246.753 108.43 248.488 103.416 253.992Z" fill="#2FC63C"/>
<path d="M115.5 246.755C115.5 246.755 108.968 252.397 107.308 256.284C105.648 260.171 97.3418 266.688 97.3418 266.688" stroke="#E6E6E6" stroke-width="2" stroke-miterlimit="10"/>
</g>
<defs>
<linearGradient id="paint0_linear" x1="176.625" y1="316.651" x2="176.625" y2="97.7398" gradientUnits="userSpaceOnUse">
<stop stop-color="#808080" stop-opacity="0.25"/>
<stop offset="0.54" stop-color="#808080" stop-opacity="0.12"/>
<stop offset="1" stop-color="#808080" stop-opacity="0.1"/>
</linearGradient>
<linearGradient id="paint1_linear" x1="72193.4" y1="205155" x2="72193.4" y2="61669.2" gradientUnits="userSpaceOnUse">
<stop stop-color="#808080" stop-opacity="0.25"/>
<stop offset="0.54" stop-color="#808080" stop-opacity="0.12"/>
<stop offset="1" stop-color="#808080" stop-opacity="0.1"/>
</linearGradient>
<clipPath id="clip0">
<rect width="443" height="327" fill="white"/>
</clipPath>
</defs>
</svg>
