<svg width="402" height="294" viewBox="0 0 402 294" fill="none" xmlns="http://www.w3.org/2000/svg">
<path opacity="0.1" d="M0 128.166V180.588H82.2404V128.166H0ZM0 182.21V227.232C0.470465 227.326 0.933343 227.421 1.40001 227.501C2.02604 227.622 2.65585 227.732 3.29705 227.827L3.67646 227.88C3.92687 227.921 4.18107 227.956 4.43527 227.986C5.06889 228.077 5.7025 228.145 6.33231 228.206C6.62825 228.236 6.93557 228.259 7.2353 228.285L7.96756 228.338C8.36594 228.369 8.76052 228.391 9.15511 228.407C9.39793 228.407 9.64074 228.426 9.88736 228.433C10.134 228.441 10.2668 228.433 10.4641 228.433H11.1811C11.5074 228.433 11.8337 228.433 12.1562 228.433H12.5736C12.8999 228.433 13.2261 228.433 13.5486 228.403H13.5676C13.7953 228.403 14.0191 228.403 14.2468 228.376C14.3112 228.38 14.3758 228.38 14.4402 228.376C14.63 228.376 14.8197 228.376 15.0018 228.353C15.0447 228.35 15.0878 228.35 15.1308 228.353C15.5519 228.327 15.9768 228.293 16.4056 228.255C16.8343 228.217 17.2403 228.172 17.669 228.126L18.5303 228.02C22.0496 227.528 25.5299 226.788 28.945 225.807C36.6204 223.669 44.1213 220.679 51.7929 218.493C61.703 215.669 72.6603 214.279 82.2366 217.716V182.21H0ZM82.2404 69.7971V0.00638813C73.2374 -0.0925497 64.2588 0.958122 55.5225 3.13287C34.6968 8.35884 15.9958 19.6938 0 34.1703V69.7933H4.13934V71.4115H0V126.544H82.2404V71.4115H21.0723V69.7895L82.2404 69.7971ZM187.898 46.2215C182.745 46.0396 177.623 44.4138 172.987 41.8937C164.132 37.0846 157.052 29.6493 149.145 23.3811C132.717 10.3181 112.343 2.43178 91.441 0.476308V69.7971H208.834L209.126 69.4902L187.898 46.2215ZM198.593 44.3267L209.934 56.7606V41.0562C206.117 41.5375 202.793 42.6554 198.593 44.3115V44.3267ZM209.934 238.411V182.21H185.75C185.69 181.972 185.621 181.729 185.545 181.487C185.618 181.729 185.682 181.972 185.747 182.21H91.441V222.851C92.3364 223.514 93.2204 224.215 94.0969 224.92C95.0429 225.693 95.9825 226.475 96.9159 227.266L97.8568 228.043C98.3083 228.422 98.7674 228.801 99.2227 229.161C100.136 229.896 101.055 230.624 101.981 231.344C102.444 231.707 102.909 232.065 103.377 232.416C110.788 238.073 118.604 243.179 126.764 247.692C128.593 248.712 130.44 249.693 132.299 250.652C133.536 251.289 134.782 251.913 136.037 252.524C137.918 253.441 139.815 254.325 141.728 255.177C159.357 263.081 177.999 268.504 197.121 271.291C201.366 271.915 205.629 272.407 209.911 272.769V238.404H210.29L209.934 238.411ZM91.441 71.4115V126.544H209.934V71.4115H91.441ZM91.441 128.158V180.588H209.934V128.166L91.441 128.158ZM219.131 40.9804V58.5266L233.601 42.6592C228.805 41.8684 223.982 41.3088 219.131 40.9804ZM219.131 128.166V180.588H334.376V128.166H219.131ZM333.97 242.569L334.376 182.21H219.131V273.379C226.554 273.687 233.988 273.597 241.402 273.11H241.531C245.072 272.882 248.597 272.559 252.105 272.139H252.185C270.907 269.963 289.212 265.078 306.527 257.64L333.97 242.569ZM356.609 136.776C356.171 135.765 355.722 134.755 355.262 133.744C354.405 131.849 353.502 130.008 352.568 128.17H343.576V180.588H366.307C366.288 165.74 362.524 150.582 356.609 136.776V136.776ZM343.576 182.21V234.129C349.977 228.001 355.391 220.986 359.284 212.967C363.969 203.308 366.113 192.856 366.291 182.207L343.576 182.21ZM343.576 112.89V126.532H351.726C349.256 121.843 346.535 117.288 343.576 112.89V112.89ZM265.418 51.2694C264.819 51.0382 264.216 50.807 263.612 50.5872C257.252 48.2392 250.751 46.2875 244.149 44.7436L221.999 69.0202L221.566 69.4864L221.851 69.7933H300.684C289.704 62.2466 277.866 56.0284 265.418 51.2694V51.2694ZM302.999 71.4115H220.747L219.131 72.8857V126.544H233.301H334.376V100.547C325.236 89.507 314.687 79.7119 302.999 71.4115V71.4115Z" fill="#EE6C4D"/>
<g clip-path="url(#clip0)">
<path d="M144.554 159.401H96.7979V212.824H144.554V159.401Z" fill="#CCCCCC"/>
<path d="M72.4852 293.176H48.1732L45.5684 272.328H75.0901L72.4852 293.176Z" fill="#5E4DCD"/>
<path d="M121.305 278.075L120.484 289.296C120.447 289.804 120.519 290.314 120.695 290.792C120.871 291.269 121.147 291.704 121.505 292.067C121.862 292.429 122.293 292.711 122.769 292.893C123.244 293.075 123.753 293.153 124.261 293.122L130.022 292.773C130.289 292.757 130.549 292.682 130.784 292.554C131.019 292.426 131.222 292.247 131.381 292.032C131.539 291.816 131.647 291.568 131.699 291.305C131.75 291.043 131.743 290.772 131.679 290.513L128.481 277.716L121.305 278.075Z" fill="#E6E6E6"/>
<path d="M169.493 284.711C176.273 286.297 181.117 288.553 184.299 291.605C185.432 292.684 186.914 293.32 188.477 293.397C190.472 293.502 192.104 293.278 193.33 292.73H193.33C193.644 292.592 193.916 292.372 194.116 292.093C194.316 291.814 194.438 291.487 194.47 291.145C194.507 290.797 194.45 290.446 194.306 290.128C194.162 289.81 193.935 289.536 193.65 289.335L177.569 277.888L170.739 280.622L169.146 282.216C168.973 282.389 168.843 282.599 168.765 282.83C168.688 283.062 168.665 283.308 168.699 283.55C168.732 283.791 168.822 284.022 168.959 284.224C169.097 284.425 169.28 284.592 169.493 284.711H169.493Z" fill="#E6E6E6"/>
<path d="M148.627 101.502L102.663 101.076C102.779 94.3787 104.336 87.8017 107.741 81.9163C109.977 78.051 109.929 73.8443 109.39 70.3003C108.558 64.8312 110.492 59.2355 114.79 55.754C118.074 53.0888 122.218 51.7168 126.443 51.8965L127.336 51.9337C130.243 52.0546 133.073 52.9042 135.567 54.4045C138.06 55.9049 140.137 58.0079 141.606 60.5204C143.1 63.2027 143.702 66.2905 143.326 69.3377C143.035 72.2049 143.732 75.1012 145.362 78.0252C148.176 84.4457 148.785 92.6617 148.627 101.502Z" fill="#2F2E41"/>
<path d="M179.38 278.485L170.359 280.84L126.431 185.097L129.176 278.485H120.155C110.516 234.549 93.1121 183.841 100.937 167.832L147.61 165.085L179.38 278.485Z" fill="#EE6C4D"/>
<path d="M126.038 85.4303C132.753 85.4303 138.196 79.9843 138.196 73.2663C138.196 66.5483 132.753 61.1023 126.038 61.1023C119.323 61.1023 113.879 66.5483 113.879 73.2663C113.879 79.9843 119.323 85.4303 126.038 85.4303Z" fill="#FFB9B9"/>
<path d="M136.628 95.6328L116.625 94.4556C118.585 89.9543 119.368 85.6197 118.586 81.5068H133.49C133.457 84.6647 135.027 90.1272 136.628 95.6328Z" fill="#FFB9B9"/>
<path d="M149.179 168.617L105.251 171.756L109.761 93.8672L117.41 91.709L126.038 93.6709L134.667 89.3545L140.158 91.3168L149.179 168.617Z" fill="#EE6C4D"/>
<path d="M112.703 224.728L82.6982 217.861C91.6201 188.262 107.693 120.548 102.505 96.4175L118.194 89.3545L112.703 224.728Z" fill="#E6E6E6"/>
<path d="M98.1907 139.188L86.8164 132.125L96.5166 103.702C97.5985 100.77 99.6708 98.3071 102.375 96.7408L105.643 94.8481L103.682 123.492L98.1907 139.188Z" fill="#E6E6E6"/>
<path d="M175.261 218.254C165.791 223.735 142.119 226.791 131.725 222.963C130.961 196.219 129.461 120.573 134.275 88.5698L151.532 95.6328L149.963 116.822C141.713 134.948 165.671 198.081 175.261 218.254Z" fill="#E6E6E6"/>
<path d="M173.888 135.657L163.298 132.125L149.179 116.037L151.532 95.6328L175.065 128.593L173.888 135.657Z" fill="#E6E6E6"/>
<path d="M140.7 150.929C140.873 151.689 141.341 152.35 142 152.767C142.66 153.183 143.458 153.32 144.218 153.149L153.208 151.112L151.909 145.372L142.919 147.408C142.158 147.581 141.497 148.049 141.081 148.709C140.664 149.369 140.527 150.167 140.7 150.929Z" fill="#FFB9B9"/>
<path d="M136.627 70.1276C129.874 67.3494 123.204 67.1484 116.624 69.7352L113.879 59.9255H138.981L136.627 70.1276Z" fill="#2F2E41"/>
<path d="M148.786 144.289L153.885 153.706C162.461 151.313 169.894 143.769 177.026 134.871L175.065 128.593L162.906 131.732L148.786 144.289Z" fill="#E6E6E6"/>
<path d="M145.06 124.865H143.491C143.491 102.666 138.923 87.1963 134.47 87.1963L134.078 85.6267C138.071 85.6267 140.617 92.0653 142.049 97.4667C143.991 104.789 145.06 114.52 145.06 124.865Z" fill="#3F3D56"/>
<path d="M163.461 119.371H161.893C161.893 99.0407 166.493 86.4109 173.267 86.4109L172.875 87.9804C168.189 87.9804 163.461 97.6869 163.461 119.371Z" fill="#3F3D56"/>
<path d="M144.276 129.182C146.442 129.182 148.198 127.425 148.198 125.258C148.198 123.091 146.442 121.334 144.276 121.334C142.11 121.334 140.354 123.091 140.354 125.258C140.354 127.425 142.11 129.182 144.276 129.182Z" fill="#3F3D56"/>
<path d="M102.701 128.789H101.132C101.132 123.164 104.299 118.587 108.192 118.587V120.157C105.164 120.157 102.701 124.029 102.701 128.789Z" fill="#3F3D56"/>
<path d="M115.252 128.789H113.683C113.683 124.029 111.22 120.157 108.192 120.157V118.587C112.085 118.587 115.252 123.164 115.252 128.789Z" fill="#3F3D56"/>
<path d="M114.467 130.752C115.334 130.752 116.036 130.049 116.036 129.182C116.036 128.315 115.334 127.613 114.467 127.613C113.601 127.613 112.898 128.315 112.898 129.182C112.898 130.049 113.601 130.752 114.467 130.752Z" fill="#3F3D56"/>
<path d="M101.917 130.752C102.783 130.752 103.485 130.049 103.485 129.182C103.485 128.315 102.783 127.613 101.917 127.613C101.05 127.613 100.348 128.315 100.348 129.182C100.348 130.049 101.05 130.752 101.917 130.752Z" fill="#3F3D56"/>
<path d="M82.3057 114.749L92.0943 116.497L114.467 148.324L102.581 145.526L82.3057 114.749Z" fill="#EE6C4D"/>
<path d="M80.569 114.359C80.4199 114.362 80.2741 114.404 80.1468 114.482C80.0196 114.56 79.9157 114.67 79.8459 114.802C79.776 114.934 79.7429 115.082 79.75 115.232C79.757 115.381 79.804 115.525 79.8859 115.65L100.799 147.394C100.916 147.572 101.096 147.698 101.303 147.746L111.033 150.037C111.197 150.075 111.369 150.063 111.526 150.002C111.683 149.94 111.818 149.833 111.912 149.693C112.007 149.553 112.056 149.388 112.055 149.22C112.053 149.051 112 148.887 111.903 148.749L88.9419 116.086C88.8797 115.997 88.8005 115.921 88.7089 115.863C88.6173 115.805 88.5151 115.765 88.4082 115.746L80.7259 114.374C80.6741 114.364 80.6216 114.36 80.569 114.359Z" fill="#3F3D56"/>
<path d="M93.6152 137.056L94.1965 142.913L103.368 142.003C104.145 141.925 104.859 141.543 105.353 140.939C105.848 140.336 106.082 139.56 106.005 138.783C105.928 138.007 105.546 137.292 104.942 136.798C104.339 136.303 103.564 136.068 102.787 136.146L93.6152 137.056Z" fill="#FFB9B9"/>
<path d="M85.6396 136.378C85.653 138.375 86.4547 140.286 87.8702 141.694C89.2857 143.102 91.2002 143.894 93.1965 143.896H94.7046L95.8026 134.742L86.7117 131.468L85.6396 136.378Z" fill="#E6E6E6"/>
<path d="M402 43H223.133V137.25H402V43Z" fill="#E6E6E6"/>
<path d="M228.343 132.038H396.79V48.2122H228.343V132.038Z" fill="white"/>
<path d="M301.279 60.3735H241.367V120.312H301.279V60.3735Z" fill="#3F3D56"/>
<path d="M286.952 87.7364C287.911 87.7364 288.689 86.9586 288.689 85.9991C288.689 85.0395 287.911 84.2617 286.952 84.2617C285.993 84.2617 285.216 85.0395 285.216 85.9991C285.216 86.9586 285.993 87.7364 286.952 87.7364Z" fill="#EE6C4D"/>
<path d="M280.44 81.6556C281.399 81.6556 282.176 80.8777 282.176 79.9182C282.176 78.9587 281.399 78.1809 280.44 78.1809C279.481 78.1809 278.703 78.9587 278.703 79.9182C278.703 80.8777 279.481 81.6556 280.44 81.6556Z" fill="#EE6C4D"/>
<path d="M279.572 85.9989C278.933 85.999 278.306 86.1765 277.762 86.5118C277.283 85.7908 276.72 85.1295 276.085 84.5417C276.092 84.449 276.099 84.3561 276.099 84.2615C276.099 83.5798 275.899 82.913 275.523 82.3443C275.147 81.7755 274.613 81.3301 273.986 81.0634C273.358 80.7968 272.667 80.7208 271.997 80.8448C271.326 80.9689 270.708 81.2876 270.217 81.7611C269.287 81.6291 268.344 81.6208 267.412 81.7366C267.412 81.7094 267.416 81.6829 267.416 81.6555C267.417 81.0739 267.271 80.5015 266.994 79.9906C266.716 79.4797 266.314 79.0468 265.826 78.7315C265.337 78.4162 264.777 78.2286 264.198 78.1859C263.618 78.1432 263.037 78.2468 262.507 78.4872C261.978 78.7275 261.517 79.097 261.168 79.5617C260.818 80.0264 260.591 80.5714 260.506 81.1468C260.422 81.7223 260.483 82.3097 260.685 82.8553C260.886 83.4008 261.221 83.8871 261.659 84.2694C261.078 84.7677 260.551 85.3258 260.086 85.9345C259.657 85.5776 259.149 85.3292 258.604 85.2104C258.059 85.0916 257.494 85.1058 256.955 85.2519C256.417 85.398 255.922 85.6716 255.512 86.0496C255.101 86.4276 254.788 86.8989 254.599 87.4236C254.409 87.9483 254.348 88.511 254.422 89.0641C254.496 89.6171 254.701 90.1443 255.022 90.601C255.342 91.0577 255.768 91.4305 256.263 91.6879C256.758 91.9452 257.307 92.0796 257.865 92.0795L257.876 92.079C257.87 92.2234 257.865 92.368 257.865 92.5139C257.865 93.3881 257.97 94.2591 258.179 95.1081C257.147 95.4967 256.23 96.1413 255.515 96.9814C254.8 97.8215 254.31 98.8295 254.091 99.9109C253.873 100.992 253.932 102.112 254.264 103.164C254.596 104.216 255.19 105.166 255.99 105.926C256.789 106.686 257.769 107.23 258.837 107.507C259.904 107.784 261.024 107.785 262.093 107.51C263.161 107.236 264.141 106.694 264.943 105.936C265.744 105.178 266.34 104.229 266.675 103.177C269.09 103.642 271.592 103.27 273.769 102.124C273.992 102.648 274.339 103.109 274.781 103.467C275.223 103.825 275.746 104.069 276.304 104.177C276.862 104.286 277.439 104.255 277.982 104.089C278.526 103.923 279.021 103.625 279.423 103.223C279.825 102.821 280.122 102.326 280.288 101.782C280.455 101.238 280.485 100.662 280.376 100.103C280.268 99.5447 280.024 99.0215 279.666 98.5793C279.309 98.1372 278.848 97.7897 278.325 97.5673C279.077 96.1392 279.499 94.5606 279.561 92.9477L279.572 92.9482C280.493 92.9482 281.376 92.5821 282.028 91.9305C282.679 91.2789 283.045 90.3951 283.045 89.4735C283.045 88.552 282.679 87.6682 282.028 87.0166C281.376 86.365 280.493 85.9989 279.572 85.9989V85.9989Z" fill="#EE6C4D"/>
<path d="M278.704 59.0703H261.338V61.6763H278.704V59.0703Z" fill="#E6E6E6"/>
<path d="M377.688 60.3735H317.776V120.312H377.688V60.3735Z" fill="#3F3D56"/>
<path d="M359.107 101.027C359.538 101.027 359.888 100.677 359.888 100.245C359.888 99.8134 359.538 99.4634 359.107 99.4634C358.675 99.4634 358.325 99.8134 358.325 100.245C358.325 100.677 358.675 101.027 359.107 101.027Z" fill="#EE6C4D"/>
<path d="M356.176 98.2906C356.608 98.2906 356.957 97.9406 356.957 97.5089C356.957 97.0771 356.608 96.7271 356.176 96.7271C355.744 96.7271 355.395 97.0771 355.395 97.5089C355.395 97.9406 355.744 98.2906 356.176 98.2906Z" fill="#EE6C4D"/>
<path d="M355.785 100.245C355.498 100.245 355.216 100.325 354.971 100.476C354.755 100.152 354.502 99.8539 354.216 99.5894C354.219 99.5477 354.222 99.5059 354.222 99.4633C354.223 99.1566 354.132 98.8565 353.963 98.6006C353.794 98.3446 353.554 98.1442 353.271 98.0242C352.989 97.9042 352.678 97.87 352.376 97.9258C352.075 97.9817 351.796 98.1251 351.576 98.3382C351.157 98.2787 350.733 98.275 350.313 98.3271C350.313 98.3149 350.315 98.303 350.315 98.2907C350.315 98.0289 350.25 97.7713 350.125 97.5414C350 97.3115 349.819 97.1167 349.599 96.9748C349.38 96.8329 349.128 96.7485 348.867 96.7293C348.606 96.7101 348.344 96.7567 348.106 96.8649C347.868 96.9731 347.661 97.1393 347.503 97.3484C347.346 97.5575 347.244 97.8028 347.206 98.0617C347.168 98.3207 347.195 98.585 347.286 98.8305C347.377 99.076 347.527 99.2948 347.725 99.4669C347.463 99.6911 347.226 99.9423 347.017 100.216C346.824 100.056 346.595 99.9438 346.35 99.8903C346.104 99.8369 345.85 99.8433 345.608 99.909C345.366 99.9748 345.143 100.098 344.958 100.268C344.774 100.438 344.633 100.65 344.547 100.886C344.462 101.122 344.435 101.376 344.468 101.624C344.501 101.873 344.594 102.111 344.738 102.316C344.882 102.522 345.073 102.689 345.296 102.805C345.519 102.921 345.766 102.981 346.017 102.981L346.022 102.981C346.019 103.046 346.017 103.111 346.017 103.177C346.017 103.57 346.065 103.962 346.158 104.344C345.694 104.519 345.281 104.809 344.96 105.187C344.638 105.565 344.417 106.019 344.319 106.506C344.221 106.992 344.247 107.496 344.397 107.969C344.546 108.443 344.813 108.871 345.173 109.212C345.533 109.554 345.974 109.799 346.454 109.924C346.935 110.048 347.439 110.049 347.92 109.925C348.4 109.802 348.842 109.558 349.202 109.217C349.563 108.876 349.831 108.449 349.981 107.975C351.069 108.184 352.194 108.017 353.174 107.502C353.274 107.737 353.43 107.945 353.629 108.106C353.828 108.267 354.064 108.377 354.315 108.425C354.566 108.474 354.825 108.461 355.07 108.386C355.315 108.311 355.537 108.177 355.718 107.996C355.899 107.815 356.033 107.592 356.108 107.348C356.182 107.103 356.196 106.843 356.147 106.592C356.098 106.341 355.989 106.105 355.828 105.906C355.667 105.707 355.459 105.551 355.224 105.451C355.562 104.808 355.753 104.098 355.78 103.372L355.785 103.372C356.2 103.372 356.597 103.208 356.89 102.914C357.183 102.621 357.348 102.223 357.348 101.809C357.348 101.394 357.183 100.996 356.89 100.703C356.597 100.41 356.2 100.245 355.785 100.245V100.245Z" fill="#EE6C4D"/>
<path d="M365.238 86.1906C365.669 86.1906 366.019 85.8405 366.019 85.4088C366.019 84.977 365.669 84.627 365.238 84.627C364.806 84.627 364.456 84.977 364.456 85.4088C364.456 85.8405 364.806 86.1906 365.238 86.1906Z" fill="#EE6C4D"/>
<path d="M367.075 82.6271C367.507 82.6271 367.857 82.2771 367.857 81.8453C367.857 81.4135 367.507 81.0635 367.075 81.0635C366.644 81.0635 366.294 81.4135 366.294 81.8453C366.294 82.2771 366.644 82.6271 367.075 82.6271Z" fill="#EE6C4D"/>
<path d="M364.337 82.2109C364.259 81.934 364.106 81.6842 363.894 81.4893C364.148 81.1937 364.366 80.869 364.543 80.5219C364.584 80.5138 364.625 80.5054 364.666 80.4939C364.961 80.4109 365.225 80.2429 365.426 80.0107C365.626 79.7784 365.754 79.4923 365.793 79.188C365.832 78.8837 365.78 78.5747 365.645 78.2995C365.509 78.0242 365.296 77.795 365.031 77.6403C364.975 77.2212 364.863 76.8113 364.699 76.4215C364.711 76.4184 364.723 76.4167 364.735 76.4134C364.987 76.3427 365.217 76.21 365.404 76.0273C365.592 75.8446 365.73 75.6177 365.807 75.3676C365.884 75.1174 365.897 74.852 365.845 74.5955C365.792 74.3391 365.677 74.0999 365.508 73.8998C365.339 73.6997 365.123 73.5452 364.879 73.4504C364.635 73.3556 364.372 73.3235 364.112 73.3571C363.853 73.3908 363.606 73.489 363.394 73.6429C363.183 73.7967 363.013 74.0012 362.901 74.2377C362.614 74.0465 362.308 73.8861 361.988 73.7589C362.09 73.5296 362.136 73.2791 362.121 73.0284C362.106 72.7778 362.031 72.5345 361.902 72.3191C361.773 72.1036 361.594 71.9224 361.38 71.7908C361.167 71.6591 360.924 71.5809 360.674 71.5627C360.424 71.5445 360.173 71.5869 359.942 71.6863C359.712 71.7857 359.509 71.9392 359.35 72.1337C359.191 72.3282 359.082 72.5582 359.031 72.804C358.98 73.0498 358.989 73.3043 359.057 73.546L359.058 73.5507C358.995 73.5659 358.932 73.5812 358.869 73.599C358.49 73.7057 358.126 73.8576 357.784 74.0516C357.49 73.6517 357.099 73.3331 356.648 73.1257C356.197 72.9184 355.701 72.8291 355.206 72.8661C354.711 72.9032 354.233 73.0655 353.818 73.3377C353.403 73.6099 353.064 73.9832 352.833 74.4225C352.602 74.8617 352.485 75.3526 352.496 75.849C352.506 76.3454 352.642 76.831 352.891 77.2604C353.141 77.6897 353.495 78.0487 353.921 78.3035C354.347 78.5584 354.83 78.7008 355.326 78.7174C355.42 79.821 355.886 80.8599 356.648 81.6635C356.448 81.8237 356.291 82.0304 356.19 82.2656C356.089 82.5008 356.047 82.7572 356.068 83.0123C356.089 83.2674 356.173 83.5134 356.311 83.7287C356.449 83.9441 356.638 84.1221 356.862 84.2473C357.085 84.3725 357.335 84.4409 357.591 84.4466C357.847 84.4523 358.1 84.3951 358.329 84.28C358.557 84.1649 358.754 83.9954 358.902 83.7864C359.05 83.5775 359.144 83.3354 359.176 83.0815C359.886 83.2332 360.621 83.2237 361.327 83.0537L361.328 83.0585C361.384 83.2563 361.478 83.4412 361.605 83.6027C361.732 83.7641 361.889 83.899 362.068 83.9995C362.248 84.1 362.445 84.1642 362.649 84.1885C362.852 84.2127 363.059 84.1966 363.257 84.1409C363.454 84.0852 363.639 83.9911 363.8 83.8639C363.962 83.7368 364.096 83.5791 364.197 83.3998C364.297 83.2206 364.361 83.0233 364.385 82.8193C364.409 82.6153 364.393 82.4086 364.337 82.2109V82.2109Z" fill="#EE6C4D"/>
<path d="M334.971 75.567C335.403 75.567 335.752 75.217 335.752 74.7852C335.752 74.3534 335.403 74.0034 334.971 74.0034C334.539 74.0034 334.189 74.3534 334.189 74.7852C334.189 75.217 334.539 75.567 334.971 75.567Z" fill="#EE6C4D"/>
<path d="M330.975 75.8871C331.406 75.8871 331.756 75.5371 331.756 75.1053C331.756 74.6735 331.406 74.3235 330.975 74.3235C330.543 74.3235 330.193 74.6735 330.193 75.1053C330.193 75.5371 330.543 75.8871 330.975 75.8871Z" fill="#EE6C4D"/>
<path d="M332.732 77.2393C332.538 77.4518 332.407 77.7139 332.353 77.9965C331.968 77.9371 331.577 77.9237 331.189 77.9566C331.161 77.926 331.132 77.8956 331.101 77.8669C330.874 77.6599 330.592 77.5241 330.289 77.4765C329.986 77.4289 329.676 77.4716 329.397 77.5992C329.118 77.7268 328.883 77.9338 328.721 78.1942C328.559 78.4546 328.477 78.757 328.486 79.0637C328.16 79.3328 327.871 79.644 327.626 79.9891C327.617 79.9806 327.61 79.9714 327.601 79.9631C327.408 79.7864 327.173 79.661 326.919 79.5984C326.665 79.5358 326.4 79.5379 326.147 79.6047C325.894 79.6714 325.662 79.8006 325.472 79.9804C325.281 80.1602 325.14 80.3849 325.059 80.6338C324.978 80.8828 324.961 81.148 325.009 81.4052C325.058 81.6624 325.17 81.9034 325.335 82.1061C325.501 82.3087 325.715 82.4665 325.957 82.5651C326.199 82.6636 326.462 82.6997 326.722 82.6701C326.711 83.0146 326.737 83.3593 326.798 83.6985C326.549 83.7327 326.313 83.8264 326.108 83.9715C325.903 84.1166 325.736 84.3089 325.621 84.5322C325.507 84.7555 325.447 85.0032 325.448 85.2542C325.45 85.5053 325.511 85.7524 325.628 85.9747C325.745 86.1969 325.913 86.3878 326.119 86.5311C326.325 86.6744 326.563 86.766 326.812 86.798C327.061 86.83 327.314 86.8017 327.549 86.7152C327.785 86.6288 327.996 86.4868 328.165 86.3014L328.169 86.2976C328.215 86.3433 328.261 86.3889 328.31 86.4332C328.6 86.6984 328.922 86.9276 329.267 87.1158C329.083 87.5769 329.019 88.0772 329.081 88.5698C329.143 89.0624 329.329 89.5311 329.622 89.932C329.915 90.3329 330.305 90.6527 330.755 90.8616C331.205 91.0704 331.701 91.1614 332.196 91.1259C332.691 91.0905 333.169 90.9298 333.585 90.659C334.001 90.3881 334.341 90.016 334.574 89.5775C334.807 89.139 334.925 88.6485 334.916 88.1521C334.907 87.6556 334.773 87.1695 334.525 86.7394C335.412 86.0771 336.048 85.1325 336.328 84.061C336.569 84.1459 336.828 84.1703 337.081 84.1319C337.334 84.0936 337.573 83.9937 337.779 83.841C337.984 83.6884 338.149 83.4876 338.259 83.2564C338.368 83.0251 338.42 82.7704 338.408 82.5147C338.396 82.259 338.322 82.01 338.192 81.7897C338.062 81.5694 337.879 81.3844 337.661 81.2511C337.443 81.1177 337.195 81.04 336.939 81.0248C336.684 81.0096 336.429 81.0574 336.196 81.1639C335.95 80.4805 335.554 79.8611 335.037 79.3512L335.04 79.3477C335.179 79.1962 335.286 79.0187 335.356 78.8255C335.426 78.6323 335.458 78.4272 335.449 78.2219C335.439 78.0166 335.39 77.8151 335.303 77.629C335.216 77.4428 335.093 77.2757 334.941 77.1371C334.789 76.9986 334.612 76.8913 334.419 76.8214C334.225 76.7515 334.02 76.7205 333.815 76.7299C333.61 76.7394 333.409 76.7893 333.223 76.8767C333.037 76.9641 332.87 77.0873 332.732 77.2393Z" fill="#EE6C4D"/>
<path d="M355.113 59.0703H337.747V61.6763H355.113V59.0703Z" fill="#E6E6E6"/>
<path d="M41.9302 264.616C48.1904 273.003 61.1853 273.886 61.1853 273.886C61.1853 273.886 64.0305 261.17 57.7703 252.783C51.5101 244.395 38.5152 243.512 38.5152 243.512C38.5152 243.512 35.67 256.228 41.9302 264.616Z" fill="#00C61F"/>
<path d="M73.821 267.768C69.6901 273.303 61.1151 273.886 61.1151 273.886C61.1151 273.886 59.2377 265.495 63.3686 259.96C67.4995 254.426 76.0745 253.843 76.0745 253.843C76.0745 253.843 77.9519 262.234 73.821 267.768Z" fill="#00C61F"/>
<path d="M256.562 293.027H31V294H256.562V293.027Z" fill="#3F3D56"/>
</g>
<defs>
<clipPath id="clip0">
<rect width="371" height="251" fill="white" transform="translate(31 43)"/>
</clipPath>
</defs>
</svg>
