<svg width="77" height="76" viewBox="0 0 77 76" fill="none" xmlns="http://www.w3.org/2000/svg">
<path d="M38.8277 3.74105e-05C47.6226 -0.00247656 56.1462 3.04477 62.9461 8.6225C69.746 14.2002 74.4014 21.9633 76.119 30.5888C77.8366 39.2144 76.5101 48.1686 72.3655 55.9257C68.2209 63.6828 61.5148 69.7627 53.3898 73.1294C45.2648 76.4961 36.2238 76.9412 27.8074 74.389C19.3911 71.8367 12.1201 66.445 7.23354 59.1325C2.347 51.8201 0.14728 43.0395 1.00923 34.287C1.87118 25.5344 5.74146 17.3516 11.9605 11.1329C15.4839 7.59774 19.6715 4.79423 24.2825 2.88362C28.8934 0.97301 33.8366 -0.00697893 38.8277 3.74105e-05ZM62.2375 14.5902C56.8178 9.18032 49.6901 5.81685 42.0686 5.07283C34.4472 4.32881 26.8035 6.25026 20.4398 10.5098C14.0761 14.7694 9.38616 21.1036 7.16888 28.4332C4.9516 35.7629 5.3442 43.6346 8.27977 50.7073C11.2154 57.7799 16.5123 63.616 23.2682 67.2213C30.0241 70.8265 37.8211 71.9779 45.3307 70.4792C52.8403 68.9806 59.598 64.9246 64.4525 59.0023C69.3071 53.08 71.9581 45.6577 71.954 38C71.9571 33.6502 71.1002 29.3427 69.4327 25.3251C67.7652 21.3076 65.3199 17.6594 62.2375 14.5902Z" fill="#00B4D8"/>
<path fill-rule="evenodd" clip-rule="evenodd" d="M35.1143 57.9232C35.1639 65.2058 34.371 59.47 33.157 57.7643C33.0414 57.7142 32.9175 57.6556 32.7854 57.5971C17.9858 50.5737 12.8571 37.6891 28.3174 19.9048C32.0834 25.4399 37.8314 30.5068 40.689 36.3429C44.5375 32.6807 50.9793 30.8329 60.5429 31.6439C56.8512 42.5469 58.4204 57.965 39.3263 56.4349C38.616 56.3847 38.1288 56.3262 37.7819 56.1757C36.0476 57.4968 35.3373 57.9316 35.1804 57.873L35.1143 57.9232ZM40.8293 52.3881C48.3778 48.8095 50.938 39.6707 56.0997 35.1222C46.6352 40.072 47.0647 42.7476 40.8293 52.3881ZM33.7269 52.4884C35.6264 42.9901 29.0524 34.353 28.433 26.4349C26.484 38.6423 29.2176 40.0804 33.7269 52.4884Z" fill="#00B4D8"/>
</svg>
