<svg width="35" height="35" viewBox="0 0 35 35" fill="none" xmlns="http://www.w3.org/2000/svg">
<path d="M17.4999 0C22.3323 0 26.7072 1.95878 29.8742 5.12553C33.0412 8.29228 35 12.6676 35 17.4997C35 22.3324 33.0412 26.7074 29.8742 29.8742C26.7072 33.0409 22.3323 35 17.4999 35C12.6675 35 8.29249 33.0412 5.12577 29.8745C1.95905 26.7077 0 22.3324 0 17.4997C0 12.6676 1.95877 8.29228 5.12577 5.12553C8.29278 1.95878 12.6675 0 17.4999 0ZM9.84253 19.1346C9.46855 18.7963 9.4395 18.2186 9.77816 17.8446C10.1165 17.4707 10.6942 17.4416 11.0681 17.78L14.8965 21.2515L23.8809 11.8418C24.2292 11.4755 24.8088 11.4613 25.1748 11.8094C25.5408 12.1577 25.5554 12.7371 25.207 13.1031L15.6066 23.1582L15.6055 23.157C15.2651 23.5151 14.6991 23.5381 14.3309 23.2049L9.84253 19.1346ZM28.5768 6.42293C25.7419 3.5883 21.8255 1.83459 17.4999 1.83459C13.1739 1.83459 9.25749 3.58801 6.42288 6.42265C3.58798 9.25757 1.83486 13.1737 1.83486 17.4997C1.83486 21.8257 3.58827 25.7421 6.42288 28.5771C9.25749 31.4117 13.1739 33.1651 17.4999 33.1651C21.8255 33.1651 25.7419 31.4117 28.5768 28.5771C31.4117 25.7421 33.1646 21.826 33.1646 17.4997C33.1649 13.174 31.4117 9.25757 28.5768 6.42293Z" fill="white"/>
</svg>
