<svg width="77" height="76" viewBox="0 0 77 76" fill="none" xmlns="http://www.w3.org/2000/svg">
<path d="M56.5543 55.3502L56.5542 55.3501L56.5488 55.3628C56.4879 55.5053 56.4104 55.6193 56.3187 55.7112C56.2289 55.8013 56.118 55.8776 55.9801 55.938C55.8281 55.9959 55.7009 56.0272 55.5816 56.0272H22.2862C22.1454 56.0272 22.0216 55.9995 21.9087 55.9472L21.9088 55.9471L21.8961 55.9416C21.7543 55.8807 21.6407 55.8031 21.5491 55.7112C21.4593 55.6211 21.383 55.5098 21.3227 55.3711C21.2648 55.2185 21.2334 55.0905 21.2334 54.9701V38.4726C21.2334 38.3308 21.2612 38.2061 21.3135 38.0924L21.3137 38.0925L21.3191 38.0799C21.38 37.9373 21.4575 37.8233 21.5491 37.7314L21.1959 37.3792L21.5491 37.7314C21.6171 37.6632 21.7009 37.6042 21.8305 37.5262L21.8629 37.5067C21.9688 37.4619 22.0648 37.4351 22.1568 37.428L22.1687 37.427L22.1806 37.4256C22.2065 37.4223 22.2359 37.4241 22.2751 37.4384C23.3027 37.8444 24.3414 38.1186 25.4025 38.3055C26.4592 38.4942 27.5264 38.5661 28.5884 38.5517L28.5895 38.5517C29.4969 38.5372 30.4289 38.4507 31.3707 38.3076L31.3718 38.3074C32.3008 38.1641 33.2277 37.9638 34.1383 37.7212L34.1599 37.7155L34.1809 37.7078C34.2197 37.6937 34.2569 37.6889 34.3267 37.7123L34.4852 37.2381L34.3267 37.7123C34.4277 37.7461 34.4953 37.8678 34.4499 37.9907L34.4498 37.9907L34.448 37.9958C34.108 38.9477 33.8237 39.8594 33.5958 40.7309C33.3696 41.5956 33.1829 42.4288 33.0672 43.2397C32.9237 44.1903 32.8656 45.0734 32.8801 45.8885L32.88 45.8885L32.8804 45.8977C32.9093 46.6954 33.0109 47.4733 33.239 48.1766C33.5383 49.1501 34.0042 49.982 34.582 50.6529L34.5836 50.6548C35.2097 51.3745 35.9602 51.897 36.7863 52.2345L36.7892 52.2356C37.2408 52.4168 37.7296 52.5557 38.2123 52.6182L38.2142 52.6184C38.6921 52.6783 39.1828 52.695 39.6816 52.6324C40.1699 52.5712 40.6575 52.4489 41.1294 52.2658L41.1294 52.2658L41.1346 52.2637C41.598 52.0778 42.027 51.8312 42.4357 51.5276L42.4357 51.5277L42.4433 51.5219C43.1795 50.9528 43.802 50.1884 44.254 49.2365L44.2556 49.233C44.6772 48.3272 44.9425 47.2668 45.0012 46.0296L45.0013 46.0275C45.0292 45.3857 45.0035 44.7202 44.9769 44.0293C44.9759 44.0023 44.9749 43.9752 44.9738 43.9481V43.948V43.9478V43.9477V43.9475V43.9473V43.9472V43.947V43.9469V43.9467V43.9465V43.9464V43.9462V43.946V43.9459V43.9457V43.9455V43.9454V43.9452V43.945V43.9449V43.9447V43.9446V43.9444V43.9442V43.9441V43.9439V43.9437V43.9436V43.9434V43.9432V43.9431V43.9429V43.9427V43.9426V43.9424V43.9423V43.9421V43.9419V43.9418V43.9416V43.9414V43.9413V43.9411V43.9409V43.9408V43.9406V43.9404V43.9403V43.9401V43.94V43.9398V43.9396V43.9395V43.9393V43.9391V43.939V43.9388V43.9386V43.9385V43.9383V43.9381V43.938V43.9378V43.9377V43.9375V43.9373V43.9372V43.937V43.9368V43.9367V43.9365V43.9363V43.9362V43.936V43.9358V43.9357V43.9355V43.9354V43.9352V43.935V43.9349V43.9347V43.9345V43.9344V43.9342V43.934V43.9339V43.9337V43.9335V43.9334V43.9332V43.9331V43.9329V43.9327V43.9326V43.9324V43.9322V43.9321V43.9319V43.9317V43.9316V43.9314V43.9312V43.9311V43.9309V43.9307V43.9306V43.9304V43.9303V43.9301V43.9299V43.9298V43.9296V43.9294V43.9293V43.9291V43.9289V43.9288V43.9286V43.9284V43.9283V43.9281V43.928V43.9278V43.9276V43.9275V43.9273V43.9271V43.927V43.9268V43.9266V43.9265V43.9263V43.9261V43.926V43.9258V43.9257V43.9255V43.9253V43.9252V43.925V43.9248V43.9247V43.9245V43.9243V43.9242V43.924V43.9238V43.9237V43.9235V43.9234V43.9232V43.923V43.9229V43.9227V43.9225V43.9224V43.9222V43.922V43.9219V43.9217V43.9215V43.9214V43.9212V43.9211V43.9209V43.9207V43.9206V43.9204V43.9202V43.9201V43.9199V43.9197V43.9196V43.9194V43.9192V43.9191V43.9189V43.9188V43.9186V43.9184V43.9183V43.9181V43.9179V43.9178V43.9176V43.9174V43.9173V43.9171V43.9169V43.9168V43.9166V43.9164V43.9163V43.9161V43.916V43.9158V43.9156V43.9155V43.9153V43.9151V43.915V43.9148V43.9146V43.9145V43.9143V43.9141V43.914V43.9138V43.9137V43.9135V43.9133V43.9132V43.913V43.9128V43.9127V43.9125V43.9123V43.9122V43.912V43.9118V43.9117V43.9115V43.9114V43.9112V43.911V43.9109V43.9107V43.9105V43.9104V43.9102V43.91V43.9099V43.9097V43.9095V43.9094V43.9092V43.9091V43.9089V43.9087V43.9086V43.9084V43.9082V43.9081V43.9079V43.9077V43.9076V43.9074V43.9072V43.9071V43.9069V43.9068V43.9066V43.9064V43.9063V43.9061V43.9059V43.9058V43.9056V43.9054V43.9053V43.9051V43.9049V43.9048V43.9046V43.9045V43.9043V43.9041V43.904V43.9038V43.9036V43.9035V43.9033V43.9031V43.903V43.9028V43.9026V43.9025V43.9023V43.9021V43.902V43.9018V43.9017V43.9015V43.9013V43.9012V43.901V43.9008V43.9007V43.9005V43.9003V43.9002V43.9V43.8998V43.8997V43.8995V43.8994V43.8992V43.899V43.8989V43.8987V43.8985V43.8984V43.8982V43.898V43.8979V43.8977V43.8975V43.8974V43.8972V43.8971V43.8969V43.8967V43.8966V43.8964V43.8962V43.8961V43.8959V43.8957V43.8956V43.8954V43.8952V43.8951V43.8949V43.8948V43.8946V43.8944V43.8943V43.8941V43.8939V43.8938V43.8936V43.8934V43.8933V43.8931V43.8929V43.8928V43.8926V43.8925V43.8923V43.8921V43.892V43.8918V43.8916V43.8915V43.8913V43.8911V43.891V43.8908V43.8906V43.8905V43.8903V43.8902V43.89V43.8898V43.8897V43.8895V43.8893V43.8892V43.889V43.8888V43.8887V43.8885V43.8883V43.8882V43.888V43.8878V43.8877V43.8875V43.8874V43.8872V43.887V43.8869V43.8867V43.8865V43.8864V43.8862V43.886V43.8859V43.8857V43.8855V43.8854V43.8852V43.8851V43.8849V43.8847V43.8846V43.8844V43.8842V43.8841V43.8839V43.8837V43.8836V43.8834V43.8832V43.8831V43.8829V43.8828V43.8826V43.8824V43.8823V43.8821V43.8819V43.8818V43.8816V43.8814V43.8813V43.8811V43.8809V43.8808V43.8806V43.8805V43.8803V43.8801V43.88V43.8798V43.8796V43.8795V43.8793V43.8791V43.879V43.8788V43.8786V43.8785V43.8783V43.8782V43.878V43.8778V43.8777V43.8775V43.8773V43.8772V43.877V43.8768V43.8767V43.8765V43.8763V43.8762V43.876V43.8759V43.8757V43.8755V43.8754V43.8752V43.875V43.8749V43.8747V43.8745V43.8744V43.8742V43.874V43.8739V43.8737V43.8735V43.8608L44.9732 43.848C44.9452 43.302 44.9179 42.7236 44.9179 42.0639C44.9179 41.9391 44.9143 41.812 44.9109 41.6915L44.9107 41.6833C44.9071 41.5579 44.9039 41.4385 44.9039 41.3204V41.3063V41.2932L44.9032 41.2801C44.89 41.0289 44.8899 40.7756 44.8899 40.4927C44.8899 39.5333 44.9872 38.8777 45.1629 38.4313L45.1629 38.4313L45.1647 38.4265C45.3763 37.8726 45.6784 37.5871 46.0265 37.4514L46.0265 37.4515L46.0356 37.4477C46.3854 37.3033 46.836 37.2883 47.4325 37.3814L47.4333 37.3815C47.9371 37.4592 48.4931 37.617 49.1136 37.8244C49.1137 37.8245 49.1137 37.8245 49.1138 37.8245L49.1556 37.8385L49.1556 37.8385L49.1623 37.8407C49.4577 37.9349 49.714 38.0295 49.9357 38.1129L49.9443 38.1162L49.9531 38.1191C50.0533 38.1526 50.1711 38.2013 50.3087 38.2581C50.3762 38.286 50.4485 38.3159 50.5258 38.3469C50.5472 38.3556 50.5685 38.3643 50.5897 38.3729C51.1224 38.5895 51.5818 38.7762 52.0982 38.7762H52.106L52.1138 38.7759C52.666 38.7586 53.3167 38.5533 54.3419 38.1026L54.3533 38.0976L54.3645 38.092L54.3925 38.078L54.3928 38.0778L54.5326 38.0077C54.5326 38.0077 54.5326 38.0077 54.5327 38.0077C54.5408 38.0036 54.5458 38.0011 54.5493 37.9994C54.5522 37.998 54.5541 37.9972 54.5558 37.9964C54.5581 37.9953 54.5606 37.9943 54.565 37.9928L54.5899 37.9845L54.6138 37.9736C55.0912 37.756 55.6234 37.5417 56.0293 37.5417C56.2344 37.5417 56.3784 37.6024 56.4925 37.7714C56.5616 37.9083 56.6344 38.1313 56.6344 38.4726V54.9561V54.9701C56.6344 55.1119 56.6067 55.2366 56.5543 55.3502ZM39.0849 49.5041L39.0849 49.504H39.0738C38.8132 49.504 38.5719 49.4686 38.3461 49.4184C37.3909 49.1929 36.7923 48.6015 36.4258 47.7685L36.4252 47.7673C36.0749 46.9767 35.9514 45.9929 35.9783 44.9811C36.0053 43.9953 36.1538 43.0192 36.3291 42.2617C36.6293 40.9895 37.0524 39.7578 37.5848 38.5804L37.585 38.58C39.6624 33.9751 43.4062 30.318 47.3124 27.0444C50.2797 24.5694 53.5956 22.3293 57.1351 20.4085L57.1351 20.4085L57.14 20.4058C57.1411 20.4052 57.1417 20.405 57.143 20.4049C57.1446 20.4047 57.148 20.4047 57.1525 20.4061C57.1622 20.409 57.169 20.415 57.1727 20.4217C57.1744 20.4247 57.1745 20.426 57.1745 20.4264V20.4264C57.1746 20.4273 57.1747 20.4293 57.1737 20.4326C57.1715 20.4401 57.1663 20.4466 57.1602 20.4502L57.1531 20.4544L57.1461 20.4589C55.1368 21.7358 53.1557 23.2257 51.3014 24.9007L51.301 24.901C49.5609 26.4758 47.9302 28.2098 46.5378 30.0477C44.7196 32.4363 43.6759 34.2114 43.0912 35.9264L43.0904 35.9288C42.5197 37.6312 42.3932 39.2651 42.3651 41.3276H42.365V41.3344C42.365 41.6966 42.3775 42.1197 42.3904 42.5598C42.3913 42.5904 42.3922 42.6211 42.3932 42.6519C42.3964 42.794 42.4003 42.9381 42.4042 43.0838C42.4177 43.5823 42.4316 44.0994 42.4211 44.6195C42.3864 45.9603 42.2184 47.2169 41.7237 48.1187C41.4818 48.5595 41.167 48.9055 40.7562 49.141C40.3449 49.3767 39.8052 49.52 39.0849 49.5041Z" stroke="#00B4D8"/>
<path d="M38.827 3.74105e-05C47.6219 -0.00247656 56.1455 3.04477 62.9454 8.6225C69.7453 14.2002 74.4007 21.9633 76.1183 30.5888C77.8359 39.2144 76.5093 48.1686 72.3648 55.9257C68.2202 63.6828 61.514 69.7627 53.3891 73.1294C45.2641 76.4961 36.2231 76.9412 27.8067 74.389C19.3903 71.8367 12.1193 66.445 7.2328 59.1325C2.34626 51.8201 0.146547 43.0395 1.0085 34.287C1.87045 25.5344 5.74073 17.3516 11.9598 11.1329C15.4832 7.59774 19.6708 4.79423 24.2817 2.88362C28.8927 0.97301 33.8359 -0.00697893 38.827 3.74105e-05ZM62.2368 14.5902C56.8171 9.18032 49.6893 5.81685 42.0679 5.07283C34.4464 4.32881 26.8028 6.25026 20.4391 10.5098C14.0754 14.7694 9.38543 21.1036 7.16815 28.4332C4.95087 35.7629 5.34346 43.6346 8.27904 50.7073C11.2146 57.7799 16.5116 63.616 23.2675 67.2213C30.0234 70.8265 37.8203 71.9779 45.3299 70.4792C52.8396 68.9806 59.5973 64.9246 64.4518 59.0023C69.3063 53.08 71.9574 45.6577 71.9533 38C71.9564 33.6502 71.0995 29.3427 69.432 25.3251C67.7645 21.3076 65.3192 17.6594 62.2368 14.5902Z" fill="#00B4D8"/>
</svg>
