<svg width="28" height="37" viewBox="0 0 28 37" fill="none" xmlns="http://www.w3.org/2000/svg">
<path d="M17.5 0H3.5C2.57174 0 1.6815 0.38982 1.02513 1.0837C0.368749 1.77759 0 2.7187 0 3.7V33.3C0 35.3535 1.5575 37 3.5 37H24.5C26.4425 37 28 35.3535 28 33.3V11.1L17.5 0ZM24.5 33.3H3.5V3.7H15.75V12.95H24.5V33.3ZM9.695 25.2525L13.3525 29.119L11.1125 31.45L5.25 25.2525L11.1125 19.055L13.3525 21.386L9.695 25.2525ZM22.75 25.2525L16.8875 31.45L14.665 29.119L18.3225 25.2525L14.665 21.386L16.8875 19.055L22.75 25.2525Z" fill="white"/>
</svg>
