<svg width="32" height="32" viewBox="0 0 32 32" fill="none" xmlns="http://www.w3.org/2000/svg">
<path d="M14.2857 16C14.2857 16.4547 14.4663 16.8907 14.7878 17.2122C15.1093 17.5337 15.5454 17.7143 16 17.7143C16.4547 17.7143 16.8907 17.5337 17.2122 17.2122C17.5337 16.8907 17.7143 16.4547 17.7143 16C17.7143 15.5453 17.5337 15.1093 17.2122 14.7878C16.8907 14.4663 16.4547 14.2857 16 14.2857C15.5454 14.2857 15.1093 14.4663 14.7878 14.7878C14.4663 15.1093 14.2857 15.5453 14.2857 16V16ZM21.4285 16C21.4285 16.4547 21.6091 16.8907 21.9306 17.2122C22.2521 17.5337 22.6881 17.7143 23.1428 17.7143C23.5974 17.7143 24.0334 17.5337 24.3549 17.2122C24.6764 16.8907 24.857 16.4547 24.857 16C24.857 15.5453 24.6764 15.1093 24.3549 14.7878C24.0334 14.4663 23.5974 14.2857 23.1428 14.2857C22.6881 14.2857 22.2521 14.4663 21.9306 14.7878C21.6091 15.1093 21.4285 15.5453 21.4285 16ZM7.14297 16C7.14297 16.4547 7.32358 16.8907 7.64507 17.2122C7.96655 17.5337 8.40258 17.7143 8.85723 17.7143C9.31189 17.7143 9.74792 17.5337 10.0694 17.2122C10.3909 16.8907 10.5715 16.4547 10.5715 16C10.5715 15.5453 10.3909 15.1093 10.0694 14.7878C9.74792 14.4663 9.31189 14.2857 8.85723 14.2857C8.40258 14.2857 7.96655 14.4663 7.64507 14.7878C7.32358 15.1093 7.14297 15.5453 7.14297 16V16ZM30.757 9.8C29.9498 7.88214 28.7927 6.16071 27.3177 4.68214C25.8531 3.21213 24.1143 2.04365 22.1999 1.24286C20.2357 0.417857 18.15 0 16 0H15.9286C13.7643 0.0107143 11.6679 0.439286 9.69651 1.28214C7.79852 2.09115 6.07607 3.2617 4.62514 4.72857C3.16445 6.20357 2.01803 7.91786 1.22519 9.82857C0.403769 11.8071 -0.0105115 13.9107 0.000202614 16.075C0.0123212 18.5553 0.599094 20.999 1.71447 23.2143V28.6429C1.71447 29.0786 1.88755 29.4964 2.19564 29.8045C2.50373 30.1126 2.9216 30.2857 3.3573 30.2857H8.78938C11.0047 31.4011 13.4484 31.9879 15.9286 32H16.0036C18.1428 32 20.2178 31.5857 22.1714 30.775C24.0761 29.9838 25.8083 28.8289 27.2713 27.375C28.7463 25.9143 29.907 24.2071 30.7177 22.3036C31.5605 20.3321 31.9891 18.2357 31.9998 16.0714C32.0105 13.8964 31.5891 11.7857 30.757 9.8V9.8ZM25.3606 25.4429C22.8571 27.9214 19.5357 29.2857 16 29.2857H15.9393C13.7857 29.275 11.6465 28.7393 9.75722 27.7321L9.45723 27.5714H4.42872V22.5429L4.26801 22.2429C3.26088 20.3536 2.72517 18.2143 2.71445 16.0607C2.70017 12.5 4.06087 9.15714 6.55726 6.63929C9.05009 4.12143 12.3822 2.72857 15.9429 2.71429H16.0036C17.7893 2.71429 19.5214 3.06071 21.1535 3.74643C22.7463 4.41429 24.1749 5.375 25.4035 6.60357C26.6284 7.82857 27.5927 9.26071 28.2606 10.8536C28.9534 12.5036 29.2998 14.2536 29.2927 16.0607C29.2713 19.6179 27.8749 22.95 25.3606 25.4429V25.4429Z" fill="white"/>
</svg>
