<svg width="77" height="76" viewBox="0 0 77 76" fill="none" xmlns="http://www.w3.org/2000/svg">
<path d="M38.827 3.74105e-05C47.6219 -0.00247656 56.1455 3.04477 62.9454 8.6225C69.7453 14.2002 74.4007 21.9633 76.1183 30.5888C77.8359 39.2144 76.5093 48.1686 72.3648 55.9257C68.2202 63.6828 61.514 69.7627 53.3891 73.1294C45.2641 76.4961 36.2231 76.9412 27.8067 74.389C19.3903 71.8367 12.1193 66.445 7.2328 59.1325C2.34626 51.8201 0.146547 43.0395 1.0085 34.287C1.87045 25.5344 5.74073 17.3516 11.9598 11.1329C15.4832 7.59774 19.6708 4.79423 24.2817 2.88362C28.8927 0.97301 33.8359 -0.00697893 38.827 3.74105e-05ZM62.2368 14.5902C56.8171 9.18032 49.6893 5.81685 42.0679 5.07283C34.4464 4.32881 26.8028 6.25026 20.4391 10.5098C14.0754 14.7694 9.38543 21.1036 7.16815 28.4332C4.95087 35.7629 5.34346 43.6346 8.27904 50.7073C11.2146 57.7799 16.5116 63.616 23.2675 67.2213C30.0234 70.8265 37.8203 71.9779 45.3299 70.4792C52.8396 68.9806 59.5973 64.9246 64.4518 59.0023C69.3063 53.08 71.9574 45.6577 71.9533 38C71.9564 33.6502 71.0995 29.3427 69.432 25.3251C67.7645 21.3076 65.3192 17.6594 62.2368 14.5902Z" fill="#00B4D8"/>
<path fill-rule="evenodd" clip-rule="evenodd" d="M30.2468 43.6435C30.2608 43.5313 30.2888 43.405 30.2888 43.2788C29.2676 41.9601 29.1137 40.7537 29.3935 39.954C29.5474 39.5332 29.8132 39.2105 30.1489 39.0141C30.4847 38.8318 30.8904 38.7756 31.2961 38.9019C32.0095 39.1264 32.723 39.8839 33.1287 41.3569C33.2406 41.7777 33.2966 42.1846 33.2826 42.5633C33.2686 42.9561 33.1847 43.3349 33.0588 43.6856C33.0448 43.7417 33.0308 43.7978 33.0028 43.8399C32.9748 43.882 32.9608 43.9381 32.9189 43.9802C32.695 44.4432 32.3733 44.85 31.9676 45.2007C31.5759 45.5514 31.1002 45.846 30.5686 46.0845C30.4987 46.2388 30.4287 46.3791 30.3727 46.5474C30.3028 46.7298 30.2468 46.9122 30.2049 47.1086C30.1209 47.4453 30.065 47.796 30.051 48.1467C30.037 48.4834 30.051 48.806 30.1209 49.1287C30.1349 49.1708 30.1349 49.1988 30.1489 49.2409C30.2608 49.1848 30.4147 49.0866 30.5826 48.9603C30.8344 48.7639 31.1142 48.4974 31.436 48.1607C31.8277 47.7539 32.2474 47.333 32.695 46.8981C33.1427 46.4633 33.6044 46.0284 34.08 45.5795C37.0178 42.8018 40.3893 39.6033 41.0329 36.8397C41.3127 35.6613 41.0329 34.511 39.9137 33.4729C38.7945 32.4348 36.836 31.4808 33.7722 30.6812C33.8562 31.1582 33.9821 31.6351 34.15 32.1121C34.3598 32.6873 34.6536 33.2624 35.0173 33.8516L35.0313 33.8657C35.1432 34.048 35.1712 34.2585 35.1292 34.4689C35.0873 34.6653 34.9613 34.8477 34.7795 34.9599C34.5976 35.0721 34.3878 35.1002 34.1919 35.0581C33.9961 35.016 33.8142 34.8897 33.7023 34.7074C33.2546 33.9919 32.9049 33.2624 32.6391 32.547C32.3733 31.8315 32.2194 31.1161 32.1494 30.4006C32.0795 29.6852 32.0935 28.9697 32.2054 28.2543C32.3173 27.5529 32.5132 26.8514 32.8069 26.15C33.4225 24.649 34.2759 23.4565 35.2551 22.5587C36.3183 21.5907 37.5494 20.9735 38.8085 20.6929C39.452 20.5526 40.0955 20.4965 40.7531 20.5246C41.3966 20.5526 42.0541 20.6789 42.6696 20.8753C43.2992 21.0717 43.9147 21.3663 44.4883 21.731C45.0479 22.0958 45.5795 22.5307 46.0551 23.0497C47.1323 24.2141 47.9717 25.7853 48.3914 27.7212C48.7691 29.4467 48.8111 31.4808 48.3914 33.7815C48.2095 34.7775 47.9577 35.7034 47.622 36.5732C47.2862 37.4429 46.8805 38.2706 46.4189 39.0562C45.9572 39.8418 45.4396 40.5853 44.866 41.3148C44.2924 42.0443 43.6769 42.7597 43.0194 43.4892C42.5018 44.0644 41.9282 44.6395 41.3546 45.2287L41.3406 45.2428L41.2567 45.3269C41.0468 45.5374 40.837 45.7618 40.6411 45.9582L40.4873 46.1266L40.4733 46.1406C39.2422 47.4032 36.6681 50.0686 36.6961 51.1347C36.6961 51.3592 36.6261 51.5556 36.4862 51.6959C36.3463 51.8502 36.1505 51.9344 35.9406 51.9484C35.7168 51.9484 35.5209 51.8782 35.381 51.738C35.2411 51.5977 35.1432 51.4153 35.1292 51.1908C35.1012 50.3071 35.8147 49.1146 36.724 47.9643C37.6054 46.842 38.6686 45.7478 39.3541 45.0323L39.5499 44.8219C39.8437 44.5273 40.0396 44.3169 40.2354 44.1205L40.2494 44.1065C40.795 43.5453 41.3406 42.9982 41.8722 42.409C42.5018 41.7216 43.0893 41.0342 43.6209 40.3468C44.1525 39.6594 44.6422 38.958 45.0759 38.2426C45.4956 37.5271 45.8733 36.7836 46.1671 35.998C46.4608 35.2124 46.6987 34.3847 46.8665 33.5009C47.2303 31.4528 47.2023 29.6571 46.8945 28.142C46.5448 26.4726 45.8453 25.1259 44.922 24.1299C44.5443 23.709 44.1106 23.3583 43.6629 23.0637C43.2012 22.7691 42.7116 22.5306 42.222 22.3763C41.7323 22.222 41.2147 22.1238 40.7111 22.0958C40.2075 22.0677 39.6899 22.1098 39.1862 22.222C38.165 22.4465 37.1857 22.9515 36.3183 23.7371C35.5209 24.4806 34.8214 25.4626 34.3038 26.7252C34.136 27.132 34.0101 27.5388 33.9121 27.9456C33.8282 28.2963 33.7722 28.6471 33.7443 29.0118C37.5215 29.9517 39.9137 31.1441 41.2847 32.5049C42.6976 33.9218 43.0194 35.507 42.6277 37.1764C42.2499 38.8037 41.1728 40.4591 39.7878 42.0864C38.4168 43.6996 36.766 45.2708 35.2132 46.7298C34.7375 47.1787 34.2759 47.6276 33.8282 48.0485C33.3945 48.4693 32.9748 48.8762 32.6111 49.269C32.1914 49.7038 31.7997 50.0546 31.4499 50.3211C31.0862 50.5876 30.7365 50.77 30.4287 50.8401C29.9391 50.9524 29.5474 50.8963 29.2256 50.6578C28.9178 50.4193 28.708 50.0125 28.6101 49.4373C28.5261 49.0164 28.4981 48.5675 28.5261 48.1186C28.5401 47.6697 28.61 47.2068 28.722 46.7579C28.8339 46.3089 28.9878 45.8741 29.1836 45.4813C29.3655 45.0885 29.6033 44.7237 29.8691 44.4011L29.8831 44.387C29.9391 44.3169 29.995 44.2468 30.065 44.1766C30.1209 44.1205 30.1629 44.0644 30.2189 44.0223C30.1909 43.896 30.2189 43.7698 30.2468 43.6435ZM26.1759 56.0728V27.9036V27.0618V27.0478V27.0338C26.1619 25.5468 26.1619 24.7051 26.4696 23.8634C26.7774 23.0216 27.365 22.208 28.5681 20.7911C28.8619 20.4404 29.1836 20.0897 29.4914 19.767C29.8132 19.4444 30.1349 19.1358 30.4567 18.8552C30.7924 18.5606 31.1282 18.294 31.4639 18.0275C31.8137 17.775 32.1634 17.5225 32.5132 17.298C33.9401 16.4002 35.451 15.6567 36.9898 15.1517C38.4028 14.6887 39.8437 14.4502 41.2567 14.4783C42.5857 14.5064 43.8867 14.7729 45.1458 15.334C46.307 15.8531 47.4121 16.6387 48.4334 17.7189C48.6432 17.9293 48.8391 18.1678 49.0209 18.3922C49.2028 18.6307 49.3847 18.8692 49.5526 19.1217C49.7204 19.3742 49.8883 19.6408 50.0282 19.9213C50.1821 20.2019 50.322 20.4825 50.4479 20.7771C51.0075 21.9976 51.3572 23.3864 51.567 24.8453C51.7909 26.4586 51.8189 28.1701 51.7209 29.8956C51.595 31.8456 51.3013 33.8376 50.9095 35.7174C50.4479 37.8778 49.8603 39.9119 49.2448 41.6234C48.6432 43.2788 47.8038 45.0183 46.7686 46.7579C45.7194 48.5395 44.4743 50.3071 43.1173 51.9765C41.7743 53.6178 40.3194 55.1609 38.8085 56.5217C37.3676 57.8263 35.8707 58.9486 34.3878 59.8184C33.4365 60.3795 32.5272 60.7583 31.6878 60.9266C30.8344 61.095 30.037 61.0669 29.3095 60.7863C28.5821 60.5058 27.9526 60.0007 27.4209 59.2432C26.9033 58.4997 26.4836 57.5037 26.1759 56.2551C26.1619 56.2271 26.1619 56.185 26.1619 56.1569C26.1619 56.1289 26.1619 56.1149 26.1619 56.0868C26.1759 56.0868 26.1759 56.0728 26.1759 56.0728ZM27.7567 27.9036V55.9886C27.9945 56.9566 28.3023 57.7001 28.68 58.2612C29.0297 58.7943 29.4494 59.145 29.8971 59.3274C30.3588 59.5098 30.9044 59.5097 31.5199 59.3695C32.1494 59.2292 32.8489 58.9206 33.6044 58.4716C34.9893 57.658 36.4023 56.5778 37.7873 55.3433C39.2282 54.0527 40.6271 52.5656 41.9142 50.9944C43.2152 49.3952 44.4183 47.6978 45.4256 46.0003C46.4049 44.3449 47.2163 42.6896 47.7759 41.1184C48.3634 39.4771 48.937 37.5271 49.3847 35.4369C49.7624 33.6272 50.0562 31.7193 50.1681 29.8395C50.266 28.2262 50.238 26.627 50.0422 25.154C49.8603 23.8213 49.5386 22.5727 49.0349 21.4645C48.923 21.212 48.7971 20.9595 48.6712 20.721C48.5453 20.4825 48.4054 20.258 48.2515 20.0336C48.1116 19.8231 47.9577 19.6127 47.8038 19.4023C47.65 19.2059 47.4821 19.0095 47.3142 18.8271C46.4468 17.9153 45.5095 17.2419 44.5303 16.807C43.481 16.3301 42.3759 16.1056 41.2567 16.0775C40.0116 16.0495 38.7246 16.2739 37.4515 16.6948C36.0525 17.1437 34.6816 17.8311 33.3665 18.6588C33.0448 18.8692 32.723 19.0796 32.4152 19.3181C32.1075 19.5566 31.7997 19.7951 31.5059 20.0616C31.2121 20.3282 30.9183 20.5947 30.6246 20.8893C30.3308 21.1839 30.051 21.4925 29.7712 21.8292C28.7499 23.0357 28.2463 23.7231 27.9945 24.4105C27.7567 25.0979 27.7567 25.7993 27.7567 27.0618V27.9036Z" fill="#00B4D8"/>
</svg>
