<svg width="77" height="76" viewBox="0 0 77 76" fill="none" xmlns="http://www.w3.org/2000/svg">
<path d="M38.827 3.74105e-05C47.6219 -0.00247656 56.1455 3.04477 62.9454 8.6225C69.7453 14.2002 74.4007 21.9633 76.1183 30.5888C77.8359 39.2144 76.5094 48.1686 72.3648 55.9257C68.2202 63.6828 61.5141 69.7627 53.3891 73.1294C45.2641 76.4961 36.2231 76.9412 27.8067 74.389C19.3903 71.8367 12.1193 66.445 7.2328 59.1325C2.34626 51.8201 0.146547 43.0395 1.0085 34.287C1.87045 25.5344 5.74073 17.3516 11.9598 11.1329C15.4832 7.59774 19.6708 4.79423 24.2817 2.88362C28.8927 0.97301 33.8359 -0.00697894 38.827 3.74105e-05ZM33.3286 36.1322C35.1346 34.8952 36.0438 33.281 35.8892 29.5886V20.0948C35.8892 18.7712 33.4647 18.6104 33.3472 20.0948L33.2544 27.795C33.2544 28.082 33.1404 28.3573 32.9374 28.5603C32.7344 28.7633 32.4591 28.8773 32.172 28.8773C31.885 28.8773 31.6097 28.7633 31.4067 28.5603C31.2037 28.3573 31.0897 28.082 31.0897 27.795L31.1825 19.8288C31.1825 18.4063 28.8508 18.264 28.826 19.8288C28.826 22.043 28.7332 25.587 28.7332 27.795C28.7553 27.9295 28.7478 28.0672 28.7113 28.1985C28.6749 28.3299 28.6102 28.4517 28.522 28.5556C28.4337 28.6595 28.3239 28.743 28.2002 28.8002C28.0765 28.8574 27.9418 28.8871 27.8055 28.8871C27.6692 28.8871 27.5345 28.8574 27.4108 28.8002C27.2871 28.743 27.1773 28.6595 27.089 28.5556C27.0008 28.4517 26.9362 28.3299 26.8997 28.1985C26.8632 28.0672 26.8557 27.9295 26.8778 27.795L26.9706 19.8845C26.9511 19.659 26.8728 19.4426 26.7434 19.2568C26.6141 19.0711 26.4382 18.9226 26.2334 18.8262C26.0287 18.7297 25.8022 18.6888 25.5766 18.7073C25.3511 18.7259 25.1343 18.8034 24.9481 18.932C24.0946 19.4763 24.2678 20.571 24.2306 21.4987L23.9338 30.5844C23.9771 33.2253 24.6698 35.3715 26.7417 36.2868C27.1392 36.4447 27.5547 36.5527 27.9787 36.6084L27.2798 55.2002C27.2716 55.5082 27.3246 55.8147 27.4359 56.102C27.5471 56.3893 27.7144 56.6517 27.9278 56.8738C28.1413 57.0959 28.3968 57.2734 28.6795 57.3959C28.9621 57.5185 29.2663 57.5836 29.5744 57.5876H29.8589C30.2049 57.582 30.5463 57.508 30.8636 57.3698C31.1808 57.2316 31.4676 57.032 31.7073 56.7825C31.9471 56.5329 32.1351 56.2384 32.2605 55.9159C32.3859 55.5934 32.4462 55.2493 32.438 54.9034L31.8195 36.6023C32.3505 36.546 32.8652 36.3863 33.3348 36.1322H33.3286ZM44.4614 54.5323L44.4305 38.198C37.4478 34.1654 39.6743 18.6289 46.6571 18.7155C55.1427 18.8145 56.1509 36.225 48.8527 38.1361L49.3908 54.6127C49.4959 58.404 44.4429 58.7565 44.4429 54.5323H44.4614ZM62.2368 14.5902C56.8171 9.18032 49.6894 5.81685 42.0679 5.07283C34.4464 4.32881 26.8028 6.25026 20.4391 10.5098C14.0754 14.7694 9.38543 21.1036 7.16815 28.4332C4.95087 35.7629 5.34346 43.6346 8.27904 50.7073C11.2146 57.7799 16.5116 63.616 23.2675 67.2213C30.0234 70.8265 37.8203 71.9779 45.3299 70.4792C52.8396 68.9806 59.5973 64.9246 64.4518 59.0023C69.3064 53.08 71.9574 45.6577 71.9533 38C71.9564 33.6502 71.0995 29.3427 69.432 25.3252C67.7645 21.3076 65.3192 17.6594 62.2368 14.5902Z" fill="#00B4D8"/>
</svg>
