<svg width="77" height="76" viewBox="0 0 77 76" fill="none" xmlns="http://www.w3.org/2000/svg">
<path d="M38.827 3.74105e-05C47.6219 -0.00247656 56.1455 3.04477 62.9454 8.6225C69.7453 14.2002 74.4007 21.9633 76.1183 30.5888C77.8359 39.2144 76.5093 48.1686 72.3648 55.9257C68.2202 63.6828 61.514 69.7627 53.3891 73.1294C45.2641 76.4961 36.2231 76.9412 27.8067 74.389C19.3903 71.8367 12.1193 66.445 7.2328 59.1325C2.34626 51.8201 0.146547 43.0395 1.0085 34.287C1.87045 25.5344 5.74073 17.3516 11.9598 11.1329C15.4832 7.59774 19.6708 4.79423 24.2817 2.88362C28.8927 0.97301 33.8359 -0.00697893 38.827 3.74105e-05ZM62.2368 14.5902C56.8171 9.18032 49.6893 5.81685 42.0679 5.07283C34.4464 4.32881 26.8028 6.25026 20.4391 10.5098C14.0754 14.7694 9.38543 21.1036 7.16815 28.4332C4.95087 35.7629 5.34346 43.6346 8.27904 50.7073C11.2146 57.7799 16.5116 63.616 23.2675 67.2213C30.0234 70.8265 37.8203 71.9779 45.3299 70.4792C52.8396 68.9806 59.5973 64.9246 64.4518 59.0023C69.3063 53.08 71.9574 45.6577 71.9533 38C71.9564 33.6502 71.0995 29.3427 69.432 25.3251C67.7645 21.3076 65.3192 17.6594 62.2368 14.5902Z" fill="#00B4D8"/>
<path fill-rule="evenodd" clip-rule="evenodd" d="M42.4904 12.6665H36.7546V20.9012C36.8525 23.4544 35.1738 25.9375 32.6696 28.4065C29.2562 32.8675 28.4727 39.8116 35.4116 38.6473C36.195 38.521 36.9505 38.1422 37.8178 37.8757C41.707 36.6131 40.9095 38.1142 44.0152 38.4368C47.1209 38.7595 48.9116 37.4268 49.2754 34.074C49.3593 33.2042 49.0935 32.3485 48.6178 31.4647C46.6173 27.7191 43.7914 27.172 42.8121 22.0796C42.1546 18.7128 42.4904 16.2999 42.4904 12.6665ZM31.4385 40.0361C33.3971 41.5933 35.1738 41.9299 36.8525 41.5652C40.6577 40.7235 37.8318 40.4429 42.2106 41.1584C44.309 41.5091 46.2256 41.1584 47.9323 39.9519C49.0515 39.1663 49.1215 38.3807 49.4152 40.0922C49.681 41.6353 49.3593 43.0943 48.464 44.441C46.9531 46.7137 45.4002 47.2327 43.9733 50.3049C43.3018 51.7639 42.8121 53.4193 42.5044 55.257V62.6079H36.6287V55.5376C35.5655 47.7237 28.7525 45.7737 29.9137 40.3307C30.3334 38.535 30.3474 39.1663 31.4385 40.0361Z" fill="#00B4D8"/>
</svg>
