<svg width="77" height="76" viewBox="0 0 77 76" fill="none" xmlns="http://www.w3.org/2000/svg">
<path d="M41.8488 56.2801H51.2056C51.9572 55.5196 52.7814 54.7287 53.6184 53.9247C55.3736 52.2342 57.2056 50.4699 59.0889 48.2622C61.2413 45.7374 61.4719 44.8639 62.1253 42.3912C62.2491 41.9262 62.3858 41.4047 62.5651 40.7572L63.684 36.7548L63.6968 36.7113C64.2947 34.9296 64.3417 33.7519 64.094 33.074C64.0171 32.8654 63.9189 32.7263 63.8036 32.6524C63.7139 32.5916 63.5943 32.5699 63.4705 32.5829C63.1801 32.6133 62.8513 32.8002 62.5523 33.1348L59.2299 41.1874C59.2 41.2613 59.1573 41.3308 59.1103 41.3917C58.9138 41.7524 58.6491 42.1044 58.3074 42.439L52.4141 49.127C52.0938 49.4921 51.5429 49.5225 51.1885 49.1966C50.8297 48.8706 50.7999 48.31 51.1201 47.9494L57.0177 41.2613C57.0434 41.2309 57.069 41.2005 57.0989 41.1744C57.7096 40.5834 57.9017 39.9445 57.795 39.4796C57.7608 39.3361 57.701 39.2145 57.6156 39.1319C57.5345 39.058 57.4277 39.0059 57.2953 38.9928C56.77 38.9363 55.9971 39.3318 55.0533 40.466C55.0277 40.4965 54.9978 40.5269 54.9679 40.5573L52.6832 42.6085L52.6703 42.6215C50.1977 45.003 49.1343 45.5679 47.1955 46.5978C46.7898 46.8151 46.3457 47.0498 45.7948 47.354C45.577 47.4757 45.3635 47.6234 45.1542 47.7842C44.9322 47.958 44.7186 48.1362 44.5179 48.31C43.493 49.1879 42.9549 49.9006 42.6474 50.6871C42.3271 51.5041 42.2118 52.4993 42.0538 53.8639C41.9898 54.4158 41.9428 54.959 41.9044 55.5022C41.8745 55.7673 41.8616 56.0237 41.8488 56.2801ZM39.7307 12.6665C42.0624 12.6665 43.9457 14.5873 43.9457 16.9557C43.9457 19.3285 42.0581 21.2449 39.7307 21.2449C37.4032 21.2449 35.5156 19.3241 35.5156 16.9557C35.5156 14.5873 37.4032 12.6665 39.7307 12.6665ZM35.2637 32.1396L38.6075 35.5901L36.1434 38.0976L38.1207 40.1662L38.7911 40.8658C39.9442 42.4173 38.2103 44.2598 36.7157 42.9779L32.3256 38.4235C31.6636 37.4936 31.4629 36.468 32.1462 35.3033L35.2637 32.131V32.1396ZM44.1934 32.1396L40.8495 35.5901L43.3136 38.0976L41.3364 40.1662L40.6659 40.8658C39.5129 42.4173 41.2467 44.2598 42.7414 42.9779L47.1272 38.4192C47.7891 37.4892 47.9898 36.4636 47.3066 35.299L44.1891 32.1266V32.1396H44.1934ZM49.7493 31.0054C49.0617 31.5139 48.1906 31.2748 47.6012 30.6534L44.2361 27.0682V30.3318H35.2082V27.0769L31.8558 30.6578C31.275 31.2748 30.3953 31.5139 29.7077 31.0098C29.0202 30.5013 28.7554 29.4236 29.3618 28.8239L33.7775 24.4608C34.495 23.7524 35.8786 22.0706 36.8139 22.0706H42.7243C43.5955 22.0706 44.945 23.7394 45.6795 24.4608L50.0952 28.8239C50.7016 29.4192 50.4283 30.497 49.7493 31.0054ZM37.6039 56.2801H28.2429C27.4913 55.5196 26.6671 54.7287 25.8301 53.9247C24.0749 52.2342 22.2429 50.4699 20.3596 48.2622C18.2072 45.7374 17.9766 44.8639 17.3232 42.3912C17.1994 41.9262 17.0627 41.4047 16.8834 40.7572L15.7645 36.7548L15.7517 36.7113C15.1538 34.9296 15.1068 33.7519 15.3545 33.074C15.4314 32.8654 15.5296 32.7263 15.6449 32.6524C15.7346 32.5916 15.8542 32.5699 15.978 32.5829C16.2684 32.6133 16.5972 32.8002 16.8962 33.1348L20.2186 41.1874C20.2485 41.2613 20.2912 41.3308 20.3382 41.3917C20.5346 41.7524 20.7994 42.1044 21.1411 42.439L27.0344 49.127C27.3547 49.4921 27.9056 49.5225 28.26 49.1966C28.6188 48.8706 28.6486 48.31 28.3284 47.9494L22.4393 41.257C22.4137 41.2265 22.3881 41.1961 22.3582 41.17C21.7475 40.579 21.5553 39.9402 21.6621 39.4752C21.6962 39.3318 21.756 39.2101 21.8414 39.1276C21.9226 39.0537 22.0293 39.0015 22.1617 38.9885C22.687 38.932 23.4642 39.3275 24.4037 40.4617C24.4294 40.4921 24.4593 40.5225 24.4892 40.5529L26.7739 42.6041L26.7867 42.6172C29.2593 44.9986 30.3227 45.5636 32.2615 46.5935C32.6672 46.8108 33.1113 47.0454 33.6622 47.3496C33.88 47.4713 34.0936 47.6191 34.3028 47.7799C34.5249 47.9537 34.7384 48.1319 34.9391 48.3057C35.9641 49.1835 36.5021 49.8962 36.8096 50.6828C37.1299 51.4998 37.2452 52.495 37.4032 53.8595C37.4673 54.4114 37.5143 54.9546 37.5527 55.4979C37.5783 55.7673 37.5911 56.0237 37.6039 56.2801ZM26.065 56.5843C25.9326 56.7407 25.8515 56.945 25.8515 57.1666V62.4423C25.8515 62.9334 26.2443 63.3288 26.7226 63.3288H38.5007C38.9833 63.3288 39.3719 62.9334 39.3719 62.4423V57.1145C39.3719 56.5495 39.3378 55.9411 39.2993 55.3762C39.2609 54.7982 39.2097 54.2246 39.1456 53.6553C38.9748 52.1647 38.8467 51.0739 38.4367 50.0266C38.0139 48.9532 37.3349 48.0276 36.0751 46.9455C35.8445 46.7456 35.6096 46.5457 35.3619 46.3588C35.1014 46.1589 34.8196 45.9677 34.5035 45.7895C33.9911 45.5071 33.5128 45.2507 33.0772 45.016C31.2836 44.0599 30.3013 43.5385 27.991 41.3134C27.9739 41.2961 27.9525 41.2787 27.9355 41.2656L25.7063 39.2623C24.344 37.6413 23.0116 37.1024 21.9909 37.2154H21.9866C21.487 37.2676 21.0599 37.4675 20.7183 37.7717L18.4677 32.3135H18.4634C18.4293 32.2353 18.3866 32.1614 18.3311 32.0918C17.7076 31.3313 16.9175 30.8881 16.1616 30.8099C15.6449 30.7577 15.1452 30.8707 14.7097 31.1575C14.2954 31.4313 13.9538 31.8572 13.7402 32.4438C13.3644 33.4651 13.373 35.0513 14.1075 37.2459L15.2178 41.2222C15.3801 41.7958 15.5211 42.3477 15.6534 42.8344C16.3794 45.594 16.6357 46.5718 19.057 49.4052C20.9745 51.6519 22.8493 53.4597 24.6514 55.1937C25.1169 55.6673 25.5867 56.1193 26.065 56.5843ZM27.7305 58.0575C27.8458 58.0836 27.9654 58.0836 28.0849 58.0575H37.6253V61.5601H27.5938V58.0575H27.7305ZM53.3878 56.5843C53.5202 56.7407 53.6013 56.945 53.6013 57.1666V62.4423C53.6013 62.9334 53.2127 63.3288 52.7301 63.3288H40.9563C40.4737 63.3288 40.0851 62.9334 40.0851 62.4423V57.1145C40.0851 57.084 40.0851 57.0493 40.0894 57.0189C40.1022 56.4496 40.1235 55.8977 40.1577 55.3762C40.1961 54.7982 40.2474 54.2246 40.3114 53.6553C40.4823 52.1647 40.6104 51.0739 41.0204 50.0266C41.4431 48.9532 42.1221 48.0276 43.382 46.9455C43.6126 46.7456 43.8474 46.5457 44.0951 46.3588C44.3556 46.1589 44.6375 45.9677 44.9535 45.7895C45.466 45.5071 45.9443 45.2507 46.3799 45.016C48.1735 44.0599 49.1557 43.5385 51.4661 41.3134C51.4831 41.2961 51.5045 41.2787 51.5216 41.2656L53.7508 39.2623C55.1131 37.6413 56.4455 37.1024 57.4661 37.2154H57.4704C57.9701 37.2676 58.3971 37.4675 58.7388 37.7717L60.9893 32.3135H60.9936C61.0278 32.2353 61.0705 32.1614 61.126 32.0918C61.7495 31.3313 62.5395 30.8881 63.2954 30.8099C63.8121 30.7577 64.3118 30.8707 64.7474 31.1575C65.1616 31.4313 65.5033 31.8572 65.7168 32.4438C66.0926 33.4651 66.0841 35.0513 65.3495 37.2459L64.2392 41.2222C64.0769 41.7958 63.936 42.3477 63.8036 42.8344C63.0776 45.594 62.8214 46.5718 60.4 49.4052C58.4825 51.6519 56.6078 53.4597 54.8056 55.1937C54.3358 55.6673 53.8661 56.1193 53.3878 56.5843ZM51.7223 58.0575C51.607 58.0836 51.4874 58.0836 51.3678 58.0575H41.8275V61.5601H51.8589V58.0575H51.7223Z" fill="#00B4D8"/>
<path d="M38.827 3.74105e-05C47.6219 -0.00247656 56.1455 3.04477 62.9454 8.6225C69.7453 14.2002 74.4007 21.9633 76.1183 30.5888C77.8359 39.2144 76.5093 48.1686 72.3648 55.9257C68.2202 63.6828 61.514 69.7627 53.3891 73.1294C45.2641 76.4961 36.2231 76.9412 27.8067 74.389C19.3903 71.8367 12.1193 66.445 7.2328 59.1325C2.34626 51.8201 0.146547 43.0395 1.0085 34.287C1.87045 25.5344 5.74073 17.3516 11.9598 11.1329C15.4832 7.59774 19.6708 4.79423 24.2817 2.88362C28.8927 0.97301 33.8359 -0.00697893 38.827 3.74105e-05ZM62.2368 14.5902C56.8171 9.18032 49.6893 5.81685 42.0679 5.07283C34.4464 4.32881 26.8028 6.25026 20.4391 10.5098C14.0754 14.7694 9.38543 21.1036 7.16815 28.4332C4.95087 35.7629 5.34346 43.6346 8.27904 50.7073C11.2146 57.7799 16.5116 63.616 23.2675 67.2213C30.0234 70.8265 37.8203 71.9779 45.3299 70.4792C52.8396 68.9806 59.5973 64.9246 64.4518 59.0023C69.3063 53.08 71.9574 45.6577 71.9533 38C71.9564 33.6502 71.0995 29.3427 69.432 25.3251C67.7645 21.3076 65.3192 17.6594 62.2368 14.5902Z" fill="#00B4D8"/>
</svg>
