<svg width="77" height="76" viewBox="0 0 77 76" fill="none" xmlns="http://www.w3.org/2000/svg">
<path fill-rule="evenodd" clip-rule="evenodd" d="M39.3399 22.1928C41.5922 18.2788 46.6285 16.9321 50.5316 19.1907C54.4347 21.4493 55.7777 26.4995 53.5254 30.4135C48.8668 38.5079 44.2222 46.5041 39.5637 54.5986C38.4445 56.5485 36.6259 57.8532 34.6114 58.4003C32.5969 58.9474 30.3725 58.7229 28.4279 57.5866C26.4834 56.4644 25.1823 54.6407 24.6367 52.6206C24.0911 50.6004 24.315 48.3699 25.4482 46.42C30.1067 38.3115 34.6813 30.2872 39.3399 22.1928ZM44.572 42.997L33.0166 36.3054L26.959 46.8408C26.0497 48.426 25.8538 50.2497 26.3015 51.9051C26.7492 53.5605 27.8124 55.0475 29.3932 55.9734C30.9741 56.8992 32.7927 57.0816 34.4575 56.6327C36.1083 56.1838 37.5912 55.1176 38.5145 53.5324L44.572 42.997Z" fill="#00B4D8"/>
<path d="M38.827 3.74105e-05C47.6219 -0.00247656 56.1455 3.04477 62.9454 8.6225C69.7453 14.2002 74.4007 21.9633 76.1183 30.5888C77.8359 39.2144 76.5093 48.1686 72.3648 55.9257C68.2202 63.6828 61.514 69.7627 53.3891 73.1294C45.2641 76.4961 36.2231 76.9412 27.8067 74.389C19.3903 71.8367 12.1193 66.445 7.2328 59.1325C2.34626 51.8201 0.146547 43.0395 1.0085 34.287C1.87045 25.5344 5.74073 17.3516 11.9598 11.1329C15.4832 7.59774 19.6708 4.79423 24.2817 2.88362C28.8927 0.97301 33.8359 -0.00697893 38.827 3.74105e-05ZM62.2368 14.5902C56.8171 9.18032 49.6893 5.81685 42.0679 5.07283C34.4464 4.32881 26.8028 6.25026 20.4391 10.5098C14.0754 14.7694 9.38543 21.1036 7.16815 28.4332C4.95087 35.7629 5.34346 43.6346 8.27904 50.7073C11.2146 57.7799 16.5116 63.616 23.2675 67.2213C30.0234 70.8265 37.8203 71.9779 45.3299 70.4792C52.8396 68.9806 59.5973 64.9246 64.4518 59.0023C69.3063 53.08 71.9574 45.6577 71.9533 38C71.9564 33.6502 71.0995 29.3427 69.432 25.3251C67.7645 21.3076 65.3192 17.6594 62.2368 14.5902Z" fill="#00B4D8"/>
</svg>
