<svg width="77" height="76" viewBox="0 0 77 76" fill="none" xmlns="http://www.w3.org/2000/svg">
<path d="M23.5809 31.8708C22.9954 30.7781 22.2202 29.294 22.3604 29.1798C23.5479 28.2339 21.8285 26.6193 20.6492 27.3002L19.6761 25.4125C19.4823 25.5225 19.3009 25.6775 19.1277 25.8976C18.9339 26.1504 18.7566 26.4848 18.6 26.9169C18.5876 26.9618 18.5629 27.0026 18.5299 27.0393L17.7011 27.977C17.664 28.026 17.6104 28.0626 17.5444 28.083C17.5485 28.0993 17.5527 28.1238 17.5609 28.1605C17.5691 28.1931 17.5815 28.2257 17.598 28.2624C17.6104 28.291 17.6227 28.3195 17.6269 28.3481C17.8207 29.347 17.5073 29.8689 17.2929 30.2317C17.1857 30.4152 17.1362 30.4968 17.8248 30.8189L19.2308 31.4794C19.2432 31.4834 19.2514 31.4916 19.2638 31.4957C19.4081 31.5854 19.5318 31.7036 19.6267 31.8626C19.7132 32.0053 19.7833 32.1766 19.8287 32.3764L20.8884 35.5199L20.8925 35.5321C21.111 36.1478 21.1605 36.7798 21.0698 37.4321C21.0038 37.9336 20.8513 38.4473 20.6369 38.9611C21.1935 38.9529 21.7171 38.8673 22.2119 38.7001C22.7397 38.5207 23.2345 38.2516 23.6922 37.8847C23.3788 37.5259 23.2139 37.1141 23.1644 36.6941C23.1273 36.3557 23.1644 36.0173 23.2675 35.6993C23.3665 35.3853 23.5355 35.0877 23.7499 34.8349C23.9973 34.5495 24.3066 34.3212 24.6653 34.1907L23.6139 32.0053C23.5974 31.9646 23.5809 31.9197 23.5809 31.8708ZM63.7538 50.94C63.9971 51.0827 64.162 51.3436 64.162 51.6412C64.162 52.0897 63.7909 52.4567 63.3374 52.4567L14.32 52.261C13.8665 52.261 13.4954 51.894 13.4954 51.4455C13.4954 50.997 13.8665 50.6301 14.32 50.6301L28.937 50.6872C27.8237 50.2917 26.8877 49.5741 25.927 48.832C25.4157 48.4406 24.8962 48.0411 24.3395 47.6823L21.0698 45.664C20.2287 45.2318 19.639 44.6733 19.2968 43.9842C18.9504 43.2911 18.8639 42.4797 19.0247 41.5623C19.0288 41.5379 19.037 41.5134 19.0453 41.489L19.8163 39.2016C19.8204 39.1772 19.8287 39.1568 19.8369 39.1364V39.1323C19.8411 39.1201 19.8452 39.1079 19.8534 39.0956C20.1462 38.4922 20.34 37.9051 20.4183 37.3424C20.4925 36.792 20.4513 36.2579 20.2699 35.7441L20.2616 35.7238L19.1937 32.5558C19.1896 32.5435 19.1855 32.5354 19.1855 32.5231C19.1566 32.3927 19.1154 32.2867 19.0659 32.2051C19.0288 32.144 18.9834 32.095 18.9339 32.0624L17.5444 31.4101C16.1961 30.7781 16.361 30.5049 16.7239 29.8974C16.8847 29.6242 17.1197 29.2328 16.9836 28.4989C16.9589 28.4378 16.9383 28.3848 16.9259 28.3358C16.8641 28.1238 16.8764 27.9566 16.93 27.818C16.996 27.6549 17.1115 27.553 17.2475 27.4959L17.9938 26.656C18.1711 26.1708 18.3732 25.7916 18.6 25.4981C18.8474 25.176 19.1277 24.9517 19.4246 24.8009H19.4287C20.1792 24.4258 20.9667 24.2219 21.7625 24.2382C22.4593 24.2504 23.152 24.4339 23.8241 24.809L26.1414 23.7897C26.83 23.4921 27.5392 23.4309 28.1783 23.6103C28.805 23.7856 29.3658 24.1893 29.774 24.8131C30.3966 25.7672 30.3842 26.5663 30.3719 27.5408C30.3719 27.6386 30.3678 27.7365 30.3678 27.977V34.0643L41.8222 34.0847L42.3582 33.2611L42.3788 33.2244C42.9973 32.2703 43.253 31.8749 43.6777 31.6995C43.9786 31.5731 44.2796 31.5935 44.7951 31.6302C45.1125 31.6506 45.5207 31.6791 46.0815 31.6791C46.2629 31.6791 46.4114 31.8259 46.4114 32.0053C46.4114 32.0502 46.4031 32.095 46.3825 32.1358L45.1909 35.6341C44.3539 38.0845 44.2425 38.0804 42.4159 38.0315C41.9954 38.0192 41.4676 38.007 40.7955 38.0315L31.98 38.3454V39.275C31.98 39.4544 31.8315 39.6012 31.6501 39.6012C31.6254 39.6012 31.5965 39.5971 31.5717 39.593L27.5268 38.9203C27.8938 39.7765 28.335 40.5838 28.8421 41.3422C29.4029 42.1821 30.0461 42.9649 30.7718 43.6988C33.5839 41.5053 36.0372 42.492 38.973 43.6784C40.4739 44.2859 42.1067 44.9424 43.9786 45.2237C44.8487 45.3542 44.5312 45.4642 45.2321 45.5703C49.71 46.2512 53.3178 46.8016 57.672 47.0095L58.1668 46.5203C58.4307 46.1166 58.7441 45.876 59.0987 45.7823C59.4615 45.6844 59.8532 45.7497 60.2573 45.9535C60.7851 46.2145 61.7375 47.1278 62.5787 47.9269C63.0487 48.3754 63.4817 48.7913 63.7703 49.0237C63.8487 49.0889 63.8899 49.1827 63.8899 49.2765V50.6668C63.8981 50.785 63.8404 50.8829 63.7538 50.94ZM24.3148 31.671L24.2942 31.883L25.3374 34.0521L28.0216 34.0562C27.8567 33.9542 27.7 33.8442 27.5598 33.7218C26.9537 33.2 26.5702 32.4946 26.3888 31.6221C26.3847 31.6017 26.3806 31.5772 26.3806 31.5568V28.0871C26.3806 27.4755 26.3723 27.3695 26.2486 27.3695C26.1538 27.3695 26.0466 27.3777 25.9188 27.3858C25.7909 27.394 25.6384 27.4062 25.4693 27.4103C25.4899 27.5652 25.4982 27.7161 25.5023 27.871C25.5064 28.1483 25.4817 28.4214 25.4322 28.6824C25.3786 28.9637 25.292 29.2328 25.1766 29.4978C25.0694 29.7425 24.9374 29.983 24.7807 30.2195L24.3148 31.671ZM49.5945 46.8872V50.3447H63.2343V49.4355C62.9415 49.1868 62.5457 48.8076 62.1251 48.4039C61.317 47.6333 60.4016 46.7567 59.9687 46.5406C59.7089 46.4102 59.4739 46.3653 59.276 46.4183C59.078 46.4713 58.8925 46.6222 58.7234 46.8872C58.7069 46.9157 58.6905 46.9402 58.6657 46.9647L58.0431 47.5803C57.9813 47.6415 57.8905 47.6782 57.7957 47.6741C54.8641 47.5436 52.2953 47.2582 49.5945 46.8872ZM30.6688 50.3447V44.4613C30.6152 44.449 30.5657 44.4205 30.5203 44.3797C29.675 43.5561 28.9287 42.6673 28.2938 41.7132C27.6546 40.7551 27.1186 39.7276 26.6939 38.6267C26.6733 38.5737 26.6651 38.5167 26.6774 38.4555C26.7063 38.2761 26.8795 38.1579 27.0568 38.1864L31.3244 38.8958V38.0804C31.3202 38.0559 31.3161 38.0315 31.3161 38.0029V34.7208L25.3168 34.7085C25.292 34.7167 25.2673 34.7208 25.2425 34.7248C24.8508 34.7697 24.5086 34.9735 24.2612 35.263C24.1045 35.4465 23.9808 35.6667 23.9066 35.9032C23.8324 36.1356 23.8035 36.3843 23.8324 36.6289C23.8736 36.9999 24.0509 37.3669 24.3931 37.6564C24.4055 37.6645 24.4179 37.6767 24.4261 37.689C24.5498 37.8195 24.5416 38.0274 24.4096 38.1497C23.8118 38.7001 23.152 39.0875 22.4346 39.328C21.7955 39.5441 21.1069 39.6379 20.3812 39.6216L19.6803 41.701C19.5483 42.4756 19.6143 43.1484 19.8947 43.707C20.175 44.2655 20.6657 44.7303 21.379 45.0973C21.3955 45.1055 21.4079 45.1095 21.4244 45.1218L24.6941 47.14L24.6983 47.1441C25.2755 47.511 25.8116 47.9228 26.3393 48.3305C27.6588 49.3376 28.9287 50.3161 30.6688 50.3447ZM31.9758 34.7208V37.6971L40.779 37.3832C41.4717 37.3587 42.0119 37.375 42.4407 37.3832C43.8096 37.4199 43.8921 37.424 44.5724 35.4302L45.628 32.3315C45.2775 32.3233 44.993 32.303 44.7538 32.2867C44.3374 32.2581 44.09 32.2418 43.9333 32.307C43.7024 32.4049 43.4756 32.7474 42.9355 33.5791L42.9148 33.6158L42.284 34.5903C42.2263 34.68 42.1232 34.7411 42.0077 34.7411L31.9758 34.7208Z" fill="#00B4D8"/>
<path d="M38.827 3.74105e-05C47.6219 -0.00247656 56.1455 3.04477 62.9454 8.6225C69.7453 14.2002 74.4007 21.9633 76.1183 30.5888C77.8359 39.2144 76.5093 48.1686 72.3648 55.9257C68.2202 63.6828 61.514 69.7627 53.3891 73.1294C45.2641 76.4961 36.2231 76.9412 27.8067 74.389C19.3903 71.8367 12.1193 66.445 7.2328 59.1325C2.34626 51.8201 0.146547 43.0395 1.0085 34.287C1.87045 25.5344 5.74073 17.3516 11.9598 11.1329C15.4832 7.59774 19.6708 4.79423 24.2817 2.88362C28.8927 0.97301 33.8359 -0.00697893 38.827 3.74105e-05ZM62.2368 14.5902C56.8171 9.18032 49.6893 5.81685 42.0679 5.07283C34.4464 4.32881 26.8028 6.25026 20.4391 10.5098C14.0754 14.7694 9.38543 21.1036 7.16815 28.4332C4.95087 35.7629 5.34346 43.6346 8.27904 50.7073C11.2146 57.7799 16.5116 63.616 23.2675 67.2213C30.0234 70.8265 37.8203 71.9779 45.3299 70.4792C52.8396 68.9806 59.5973 64.9246 64.4518 59.0023C69.3063 53.08 71.9574 45.6577 71.9533 38C71.9564 33.6502 71.0995 29.3427 69.432 25.3251C67.7645 21.3076 65.3192 17.6594 62.2368 14.5902Z" fill="#00B4D8"/>
</svg>
