<svg width="77" height="76" viewBox="0 0 77 76" fill="none" xmlns="http://www.w3.org/2000/svg">
<path d="M28.0522 46.252C28.3645 46.1128 28.7447 46.2334 28.8941 46.521C29.0469 46.8086 28.9145 47.1519 28.5988 47.288C28.0454 47.5323 27.4208 47.6096 26.7215 47.5446C26.3447 47.5075 25.9441 47.4302 25.5266 47.3127C25.5436 47.4611 25.5605 47.6065 25.5809 47.7549C25.642 48.1693 25.7235 48.5961 25.8287 49.0321C25.8661 49.1836 25.8321 49.3352 25.7506 49.4589C25.3976 50.1114 25.2177 50.6556 25.1837 51.1071C25.1498 51.5772 25.289 51.9297 25.5605 52.1833C25.8627 52.4616 26.3379 52.6472 26.9388 52.7523C27.8961 52.9162 29.1249 52.8667 30.459 52.6472C31.732 52.44 33.1646 52.1029 34.4817 51.639C35.551 51.2618 36.5423 50.7979 37.2993 50.2474C38.0393 49.7094 38.3788 48.828 38.6673 48.0735C38.7284 47.9157 38.7861 47.7673 38.8133 47.7024L38.8982 47.4952C39.2614 46.586 39.8928 45.0057 40.7109 44.4305C40.9859 44.2357 41.3831 44.2821 41.5969 44.5357C41.8108 44.7862 41.7599 45.148 41.4815 45.3428C40.9519 45.7139 40.402 47.0931 40.0829 47.891C40.0184 48.0549 40.032 48.024 39.998 48.1044C39.9301 48.2714 39.8928 48.3641 39.8589 48.4569C39.5126 49.3568 39.1086 50.4082 38.0834 51.1535C37.2246 51.7782 36.1213 52.2977 34.9366 52.7152C34.6684 52.8111 34.3934 52.9008 34.1185 52.9843C34.1287 53.3615 34.1151 53.7357 34.0744 54.113C34.02 54.6387 33.9148 55.1552 33.7654 55.6592C33.6738 55.9654 33.3275 56.1478 32.9915 56.0674C32.6554 55.9839 32.4551 55.6685 32.5434 55.3623C32.6758 54.9078 32.7708 54.4563 32.8183 54.0048C32.8421 53.7821 32.8557 53.5595 32.8591 53.3337C32.1156 53.5192 31.3756 53.6677 30.6831 53.7821C29.1996 54.0233 27.818 54.079 26.7079 53.8873C25.8593 53.7419 25.1566 53.4512 24.661 52.9966C24.1382 52.5111 23.8666 51.8679 23.9243 51.0422C23.9651 50.4825 24.1619 49.8331 24.5489 49.094C24.4641 48.7136 24.3894 48.3208 24.3317 47.9126C24.2672 47.4581 24.223 47.0004 24.2027 46.5365C24.1993 46.521 24.1993 46.5025 24.1993 46.487C24.1959 46.4685 24.1925 46.4468 24.1891 46.4283C24.0974 45.5593 24.0873 44.712 24.0737 43.8554L24.0703 43.6574L22.6106 43.5801H22.5936C22.2134 43.5678 21.8705 43.4657 21.5854 43.2956C21.307 43.1317 21.0864 42.9029 20.9404 42.6307C20.8012 42.3524 20.7265 42.0494 20.7333 41.7154C20.7435 41.2546 20.9133 40.7413 21.2833 40.2155L22.8448 37.3055C23.612 35.8799 23.6018 35.6913 23.5713 34.9429C23.5577 34.6058 23.5373 34.176 23.5611 33.5297C23.5882 32.7597 23.6833 32.0237 23.8666 31.334C23.9956 30.8454 24.1687 30.3816 24.3928 29.9424L21.5514 28.8137C21.2324 28.6869 21.0864 28.3467 21.2256 28.056C21.2459 28.0158 21.2697 27.9787 21.2935 27.9447C28.0828 19.5147 35.7513 17.1954 42.2385 18.3581C46.027 19.0385 49.4046 20.9125 51.9574 23.4607C54.5102 26.0027 56.2449 29.2188 56.7609 32.5865C57.6061 38.125 55.1654 44.0564 47.653 48.0704C47.5885 48.1044 47.5206 48.1291 47.4493 48.1384C47.4527 48.9795 47.5104 49.7929 47.6157 50.5845C47.8261 52.1493 48.2267 53.6182 48.797 54.9974C48.9192 55.2943 48.7563 55.6252 48.427 55.7396C48.1011 55.851 47.7379 55.7025 47.6123 55.4025C47.0046 53.9336 46.5769 52.3781 46.3562 50.7237C46.1356 49.0754 46.1186 47.3251 46.3291 45.4572C46.363 45.1418 46.6753 44.9099 47.0216 44.9439C47.3678 44.9748 47.6224 45.2593 47.5851 45.5748C47.5376 45.9953 47.5036 46.4097 47.4799 46.821C54.1096 43.0915 56.2686 37.7385 55.5082 32.7442C55.0296 29.6084 53.4103 26.6088 51.0273 24.2369C48.6544 21.8681 45.5144 20.1239 41.9975 19.49C36.101 18.4323 29.108 20.5197 22.7871 28.0499L25.4859 29.1229C25.5232 29.1353 25.5605 29.1508 25.5945 29.1693C25.8932 29.3332 25.9883 29.6889 25.8084 29.961C25.4791 30.4589 25.2448 31.0093 25.0887 31.6031C24.9257 32.2154 24.8443 32.8741 24.8171 33.5668C24.7967 34.1698 24.8137 34.5811 24.8273 34.8996C24.8714 35.8768 24.8816 36.1211 23.9752 37.8127L22.4069 40.732C22.3933 40.7598 22.3764 40.7907 22.356 40.8186C22.1082 41.1649 21.9961 41.4773 21.9894 41.7401C21.986 41.8824 22.0131 42.0061 22.0674 42.105C22.115 42.1947 22.1829 42.2658 22.2677 42.3153C22.3662 42.3741 22.4884 42.4081 22.6276 42.4143C22.6445 42.4143 22.6615 42.4143 22.6785 42.4143L24.4878 42.5101C24.5455 42.4916 24.6066 42.4823 24.6711 42.4823C24.6915 42.4823 24.7153 42.4823 24.7356 42.4854V42.4823L26.4024 42.6122C26.7521 42.6369 27.0101 42.9152 26.9795 43.2338C26.9524 43.5523 26.6468 43.7873 26.2972 43.7595L26.2632 43.7564L25.3229 43.7069L25.3263 43.8244C25.3365 44.5728 25.3467 45.3119 25.4146 46.0603C25.9407 46.2396 26.4194 46.354 26.8437 46.3943C27.319 46.4437 27.7195 46.3973 28.0522 46.252ZM39.8758 28.1055C40.1881 27.6633 40.6023 27.4252 41.0368 27.3417C41.4509 27.2644 41.8719 27.3324 42.2351 27.4994C42.5949 27.6633 42.9005 27.9293 43.0906 28.2478C43.1619 28.3684 43.2162 28.4952 43.2501 28.6251C43.4606 28.622 43.6778 28.6529 43.8883 28.7178C44.2855 28.8415 44.6691 29.0796 44.9644 29.3982C45.2631 29.7198 45.4736 30.1218 45.5279 30.5702C45.5517 30.7774 45.5449 30.9908 45.494 31.2103C45.7112 31.3897 45.8946 31.5876 46.0303 31.8041C46.2408 32.135 46.3528 32.4999 46.3427 32.871C46.3291 33.2452 46.1967 33.6194 45.9149 33.9657C45.7384 34.1822 45.5076 34.3894 45.2122 34.5718C45.2394 35.1439 45.0527 35.6573 44.754 36.0562C44.4145 36.5046 43.9223 36.8077 43.4097 36.8912C43.2976 37.2901 43.0057 37.6395 42.6323 37.8838C42.157 38.1931 41.5392 38.3384 40.9757 38.1962C40.5582 38.091 40.1813 37.8405 39.92 37.3983C39.6043 37.8838 39.1697 38.1405 38.7149 38.2271C38.1683 38.3291 37.6048 38.1776 37.1771 37.8746C36.8376 37.6333 36.5796 37.2932 36.488 36.9097C36.308 36.9035 36.1281 36.8695 35.9516 36.8169C35.5612 36.6963 35.1878 36.4644 34.8959 36.1552C34.6005 35.8459 34.3867 35.4563 34.3222 35.0233C34.2882 34.7976 34.2916 34.5625 34.3459 34.3213C34.1558 34.1636 33.9895 33.9843 33.8605 33.7925C33.6364 33.4616 33.5142 33.0875 33.5176 32.7071C33.521 32.3205 33.6568 31.9309 33.9487 31.566C34.1185 31.3557 34.3425 31.1547 34.6277 30.9691C34.6243 30.898 34.6243 30.8269 34.6277 30.7588C34.6514 30.196 34.8789 29.7012 35.2116 29.3301C35.5544 28.9467 36.0195 28.6962 36.4913 28.6343H36.4947C36.5117 28.5725 36.5321 28.5075 36.5558 28.4488C36.7086 28.0715 37.0209 27.7499 37.4079 27.5458C37.7949 27.3417 38.26 27.2489 38.7149 27.3355C39.1494 27.4252 39.5635 27.6633 39.8758 28.1055ZM43.2297 29.392C43.1619 29.5992 43.0363 29.8064 42.8495 30.0105C42.707 30.1651 42.4524 30.1836 42.2826 30.0538C42.1129 29.9239 42.0891 29.6919 42.2351 29.5373C42.5372 29.2095 42.5406 28.8663 42.3811 28.5972C42.2725 28.4117 42.0891 28.254 41.8719 28.155C41.6614 28.0591 41.4238 28.0189 41.1997 28.0622C40.901 28.1179 40.6091 28.3313 40.4054 28.7611C40.4088 28.7797 40.4088 28.8013 40.4088 28.8199V36.3964C40.4156 36.4149 40.4224 36.4335 40.4258 36.4551C40.5412 37.0953 40.8467 37.4045 41.1896 37.4911C41.5053 37.5715 41.8685 37.4787 42.1604 37.287C42.4456 37.1014 42.6493 36.8293 42.6527 36.5417C42.6561 36.217 42.3947 35.8459 41.6886 35.5212C41.4883 35.4284 41.4102 35.2058 41.5121 35.0264C41.6139 34.844 41.8583 34.7728 42.0552 34.8656C42.8326 35.2274 43.2399 35.6696 43.3927 36.1181C43.6439 36.0438 43.8849 35.8707 44.0682 35.6294C44.2991 35.3264 44.4281 34.9182 44.367 34.4605C44.3296 34.3028 44.4043 34.1358 44.5672 34.0523C44.8728 33.8915 45.0968 33.709 45.2496 33.5204C45.4227 33.307 45.5076 33.0813 45.5144 32.8586C45.5211 32.6329 45.4499 32.4071 45.3141 32.1968C45.1919 32.0051 45.0153 31.8257 44.7947 31.6742C44.6419 31.5814 44.5672 31.4021 44.6317 31.2351C44.7064 31.0341 44.7268 30.8423 44.703 30.6599C44.6691 30.3723 44.5299 30.1094 44.333 29.8991C44.1361 29.6858 43.8849 29.528 43.6269 29.4476C43.4877 29.4013 43.352 29.3827 43.2297 29.392ZM36.5287 36.1552C36.6882 35.6944 37.1126 35.2367 37.9137 34.8625C38.114 34.7697 38.3584 34.8409 38.4569 35.0233C38.5587 35.2058 38.4806 35.4284 38.2803 35.5212C37.5403 35.8645 37.2585 36.2603 37.2619 36.6067C37.2619 36.8757 37.4317 37.1293 37.6761 37.3025C37.9239 37.4787 38.2464 37.5684 38.5485 37.5127C38.9253 37.4416 39.2919 37.1231 39.4787 36.4304V29.1384C39.2885 28.4488 38.9253 28.1334 38.5485 28.0622C38.3007 28.0158 38.0359 28.0684 37.8119 28.189C37.5844 28.3096 37.4011 28.4952 37.3129 28.7085C37.1974 28.9931 37.2653 29.3456 37.6557 29.6734C37.8187 29.8095 37.8288 30.0414 37.6795 30.1898C37.5301 30.3383 37.2755 30.3475 37.1126 30.2115C36.8071 29.9548 36.6203 29.6827 36.5253 29.4105C36.2843 29.4631 36.0466 29.6084 35.8565 29.8187C35.6325 30.0692 35.4797 30.4032 35.4628 30.7898C35.4594 30.8918 35.4628 31.0001 35.4797 31.1114C35.5001 31.2567 35.4322 31.4052 35.2862 31.4887C34.9943 31.6526 34.777 31.835 34.6243 32.0206C34.441 32.2494 34.3561 32.4875 34.3527 32.7195C34.3493 32.9545 34.4274 33.1864 34.57 33.3967C34.6888 33.573 34.8551 33.7369 35.0554 33.8729C35.2048 33.9657 35.2761 34.1451 35.215 34.309C35.1369 34.5223 35.1165 34.7295 35.1471 34.9244C35.1912 35.2027 35.3304 35.4563 35.5273 35.6604C35.7208 35.8645 35.9686 36.0191 36.2198 36.0964C36.3284 36.1335 36.4302 36.1521 36.5287 36.1552ZM36.6237 30.9753C36.7833 30.8331 37.0379 30.8362 37.194 30.9784C37.3502 31.1237 37.3468 31.3557 37.1906 31.4979C36.8444 31.8072 36.6645 32.2061 36.6475 32.6174C36.6271 33.038 36.7799 33.4709 37.0956 33.8265C37.2348 33.9843 37.2076 34.2162 37.0345 34.343C36.8614 34.4698 36.6068 34.445 36.4676 34.2873C36.0263 33.7894 35.8158 33.1833 35.843 32.5896C35.8633 31.9958 36.1247 31.4206 36.6237 30.9753ZM42.3403 31.3279C42.1604 31.2072 42.1197 30.9784 42.2487 30.8145C42.3811 30.6506 42.6323 30.6135 42.8122 30.7341C42.8937 30.7867 42.9684 30.8423 43.0396 30.9011C43.5658 31.334 43.851 31.903 43.9053 32.4906C43.9562 33.0751 43.7797 33.6781 43.3757 34.1822C43.318 34.2564 43.2535 34.3275 43.1822 34.3986C43.0329 34.5502 42.7783 34.5625 42.6119 34.4265C42.4456 34.2904 42.432 34.0585 42.5814 33.907C42.6323 33.8575 42.6764 33.8049 42.7205 33.7523C43.0091 33.3905 43.1347 32.9638 43.1008 32.5494C43.0634 32.1412 42.8665 31.7484 42.4999 31.4485C42.449 31.4052 42.3981 31.365 42.3403 31.3279ZM34.1966 24.778C33.9963 24.4657 34.1151 24.0668 34.4579 23.8843C34.8008 23.7019 35.2387 23.8101 35.439 24.1224L36.3624 25.5759C36.5626 25.8882 36.4438 26.2872 36.101 26.4696C35.7581 26.6521 35.3202 26.5438 35.1199 26.2315L34.1966 24.778ZM39.3598 23.238C39.3598 22.8762 39.6823 22.5824 40.0795 22.5824C40.4767 22.5824 40.7992 22.8762 40.7992 23.238V24.9172C40.7992 25.279 40.4767 25.5728 40.0795 25.5728C39.6823 25.5728 39.3598 25.279 39.3598 24.9172V23.238ZM44.6793 24.2585C44.8762 23.9462 45.3141 23.8379 45.6569 24.0173C45.9998 24.1967 46.1186 24.5956 45.9217 24.9079L44.9984 26.3614C44.5299 27.1036 43.2875 26.4542 43.7559 25.712L44.6793 24.2585ZM48.7257 27.5643C49.0686 27.3819 49.5065 27.4901 49.7068 27.8025C49.907 28.1148 49.7882 28.5137 49.4454 28.6962L47.8499 29.5373C47.507 29.7198 47.0691 29.6115 46.8688 29.2992C46.6685 28.9869 46.7874 28.5879 47.1302 28.4055L48.7257 27.5643ZM50.4162 32.268C50.8134 32.268 51.1359 32.5617 51.1359 32.9236C51.1359 33.2854 50.8134 33.5792 50.4162 33.5792H48.5695C48.1724 33.5792 47.8499 33.2854 47.8499 32.9236C47.8499 32.5617 48.1724 32.268 48.5695 32.268H50.4162ZM49.2926 37.1138C49.6355 37.2932 49.7543 37.6921 49.5574 38.0044C49.3605 38.3168 48.9226 38.425 48.5797 38.2457L46.9842 37.4045C46.6414 37.2251 46.5226 36.8262 46.7195 36.5139C46.9164 36.2015 47.3543 36.0933 47.6971 36.2727L49.2926 37.1138ZM45.6671 40.7969C45.8674 41.1093 45.7486 41.5082 45.4057 41.6906C45.0629 41.8731 44.625 41.7649 44.4247 41.4525L43.5013 39.9991C43.301 39.6867 43.4198 39.2878 43.7627 39.1054C44.1056 38.9229 44.5435 39.0311 44.7438 39.3435L45.6671 40.7969ZM40.5038 42.337C40.5038 42.6988 40.1813 42.9926 39.7842 42.9926C39.387 42.9926 39.0645 42.6988 39.0645 42.337V40.6578C39.0645 40.2959 39.387 40.0022 39.7842 40.0022C40.1813 40.0022 40.5038 40.2959 40.5038 40.6578V42.337ZM35.1844 41.3165C34.9875 41.6288 34.5496 41.737 34.2067 41.5577C33.8639 41.3783 33.7451 40.9794 33.942 40.667L34.8653 39.2136C35.0622 38.9013 35.5001 38.793 35.843 38.9724C36.1858 39.1517 36.3046 39.5507 36.1078 39.863L35.1844 41.3165ZM31.138 38.0106C30.7951 38.1931 30.3572 38.0848 30.1569 37.7725C29.9566 37.4602 30.0754 37.0612 30.4183 36.8788L32.0138 36.0376C32.3567 35.8552 32.7946 35.9634 32.9948 36.2758C33.1951 36.5881 33.0763 36.987 32.7335 37.1695L31.138 38.0106ZM29.4474 33.307C29.0503 33.307 28.7278 33.0132 28.7278 32.6514C28.7278 32.2896 29.0503 31.9958 29.4474 31.9958H31.2907C31.6879 31.9958 32.0104 32.2896 32.0104 32.6514C32.0104 33.0132 31.6879 33.307 31.2907 33.307H29.4474ZM30.5711 28.4612C30.2282 28.2818 30.1094 27.8829 30.3063 27.5705C30.5032 27.2582 30.9411 27.15 31.2839 27.3293L32.8794 28.1705C33.2223 28.3498 33.3411 28.7487 33.1442 29.0611C32.9473 29.3734 32.5094 29.4817 32.1666 29.3023L30.5711 28.4612Z" fill="#00B4D8"/>
<path d="M38.827 3.74105e-05C47.6219 -0.00247656 56.1455 3.04477 62.9454 8.6225C69.7453 14.2002 74.4007 21.9633 76.1183 30.5888C77.8359 39.2144 76.5093 48.1686 72.3648 55.9257C68.2202 63.6828 61.514 69.7627 53.3891 73.1294C45.2641 76.4961 36.2231 76.9412 27.8067 74.389C19.3903 71.8367 12.1193 66.445 7.2328 59.1325C2.34626 51.8201 0.146547 43.0395 1.0085 34.287C1.87045 25.5344 5.74073 17.3516 11.9598 11.1329C15.4832 7.59774 19.6708 4.79423 24.2817 2.88362C28.8927 0.97301 33.8359 -0.00697893 38.827 3.74105e-05ZM62.2368 14.5902C56.8171 9.18032 49.6893 5.81685 42.0679 5.07283C34.4464 4.32881 26.8028 6.25026 20.4391 10.5098C14.0754 14.7694 9.38543 21.1036 7.16815 28.4332C4.95087 35.7629 5.34346 43.6346 8.27904 50.7073C11.2146 57.7799 16.5116 63.616 23.2675 67.2213C30.0234 70.8265 37.8203 71.9779 45.3299 70.4792C52.8396 68.9806 59.5973 64.9246 64.4518 59.0023C69.3063 53.08 71.9574 45.6577 71.9533 38C71.9564 33.6502 71.0995 29.3427 69.432 25.3251C67.7645 21.3076 65.3192 17.6594 62.2368 14.5902Z" fill="#00B4D8"/>
</svg>
