<svg width="35" height="35" viewBox="0 0 35 35" fill="none" xmlns="http://www.w3.org/2000/svg">
<circle cx="17.5" cy="17.5" r="16.75" stroke="white" stroke-width="1.5"/>
<path fill-rule="evenodd" clip-rule="evenodd" d="M21.3965 16.1211C21.8959 16.1211 22.3397 16.3679 22.6165 16.7477C22.8932 16.3664 23.337 16.1211 23.8364 16.1211C24.676 16.1211 25.3564 16.8173 25.3564 17.6764C25.3564 18.5354 24.676 19.2316 23.8364 19.2316C23.337 19.2316 22.8932 18.9848 22.6165 18.6051C22.3397 18.9864 21.8959 19.2316 21.3965 19.2316C20.5569 19.2316 19.8765 18.5354 19.8765 17.6764C19.8765 16.8173 20.5569 16.1211 21.3965 16.1211ZM14.0581 14.8428C15.7419 15.9344 17.2634 16.4518 18.5684 16.33C18.6519 18.0608 18.4757 19.5322 18.0706 20.7567H25.9563C26.0769 20.7567 26.1867 20.7061 26.2671 20.6239C26.3475 20.5416 26.397 20.4292 26.397 20.3058V14.3776H8.60457V20.3058C8.60457 20.4292 8.65405 20.5416 8.73446 20.6239C8.81486 20.7061 8.92464 20.7567 9.04525 20.7567H10.1106C9.71167 19.5322 9.51994 18.0434 9.56478 16.2572C11.0971 16.341 12.6016 16.0009 14.0581 14.8428ZM17.8386 21.3754C17.0872 23.1489 15.7945 24.3371 14.0751 25C12.3866 24.3687 11.0986 23.2075 10.3379 21.3754H9.04525C8.75765 21.3754 8.49634 21.2551 8.3077 21.0621C8.11751 20.8691 8 20.6017 8 20.3074V10.0695C8 9.77524 8.11751 9.50786 8.30615 9.31326C8.49634 9.12024 8.75765 9 9.04525 9H25.9563C26.2439 9 26.5052 9.12024 26.6938 9.31326C26.8825 9.50628 27 9.77524 27 10.0679V20.3043C27 20.5985 26.8825 20.8659 26.6938 21.0589C26.5052 21.252 26.2439 21.3738 25.9563 21.3738H17.8386V21.3754ZM14.0612 15.7889C15.4605 16.697 16.7253 17.1258 17.8092 17.0245C17.8835 18.5497 17.7134 19.8186 17.3315 20.858L17.3206 20.8865C17.3083 20.9181 17.2974 20.9498 17.2851 20.9798L17.2712 21.0146C17.2603 21.0431 17.248 21.0716 17.2371 21.1001L17.2232 21.1333C17.2109 21.1618 17.1985 21.1903 17.1861 21.2187L17.1691 21.2583C17.1583 21.282 17.1475 21.3057 17.1366 21.3295L17.1134 21.3769C16.4779 22.7186 15.4373 23.6172 14.0736 24.1425C12.7314 23.641 11.6939 22.7645 11.0522 21.3769L11.0476 21.3674L11.0461 21.3564L11.0414 21.3469C11.0306 21.3216 11.0198 21.2978 11.009 21.2725L11.0043 21.263L10.9997 21.2535L10.995 21.244L10.9904 21.2345L10.9858 21.2251C10.9749 21.1997 10.9641 21.1744 10.9533 21.1491L10.9486 21.1396L10.944 21.1301L10.9394 21.1206C10.9239 21.0827 10.9084 21.0431 10.893 21.0051L10.8899 20.9956L10.8868 20.9862C10.876 20.9561 10.8636 20.9276 10.8528 20.8976L10.8497 20.8881L10.8466 20.8786L10.8435 20.8691L10.8404 20.8596C10.8296 20.8295 10.8188 20.7995 10.8079 20.7694L10.8049 20.7599C10.4554 19.741 10.2853 18.4896 10.324 16.966C11.6012 17.0324 12.8505 16.7508 14.0612 15.7889ZM8.60457 11.3036H26.3954V10.0695C26.3954 9.94611 26.3459 9.83378 26.2655 9.75151C26.1851 9.66924 26.0754 9.61861 25.9548 9.61861H9.04525C8.92464 9.61861 8.81486 9.66924 8.73446 9.75151C8.65405 9.83378 8.60457 9.94611 8.60457 10.0695V11.3036Z" fill="white"/>
<path d="M11.807 19.6546L12.6064 19.6435L12.6667 19.6594C12.8276 19.7543 12.9806 19.8635 13.1229 19.9869C13.2249 20.0755 13.3239 20.172 13.4167 20.278C13.7043 19.8049 14.0089 19.3714 14.332 18.9727C14.6861 18.5361 15.0618 18.1389 15.4561 17.7766L15.5334 17.7466H16.4071L16.2308 17.9459C15.6896 18.5614 15.1995 19.1958 14.7557 19.8524C14.3119 20.509 13.9161 21.1861 13.5636 21.8822L13.4538 22.099L13.3533 21.8791C13.1677 21.4709 12.9451 21.0959 12.6791 20.7605C12.4132 20.4251 12.1039 20.1277 11.7437 19.8745L11.807 19.6546Z" fill="#69C229"/>
</svg>
