<svg width="41" height="31" viewBox="0 0 41 31" fill="none" xmlns="http://www.w3.org/2000/svg">
<path fill-rule="evenodd" clip-rule="evenodd" d="M38.4375 31C38.4375 31 41 31 41 28.4167C41 25.8333 38.4375 18.0833 28.1875 18.0833C17.9375 18.0833 15.375 25.8333 15.375 28.4167C15.375 31 17.9375 31 17.9375 31H38.4375ZM17.9939 28.4167H38.3811C38.3931 28.4153 38.4051 28.4135 38.417 28.4115L38.4375 28.4063C38.4324 27.7243 38.0096 25.7455 36.49 23.963C35.0755 22.2916 32.5899 20.6667 28.1875 20.6667C23.7877 20.6667 21.3021 22.2942 19.885 23.963C18.3654 25.7455 17.9401 27.7269 17.9375 28.4063C17.9563 28.41 17.975 28.4134 17.9939 28.4167ZM28.1875 12.9167C29.5467 12.9167 30.8503 12.3723 31.8114 11.4034C32.7725 10.4344 33.3125 9.12029 33.3125 7.75C33.3125 6.37971 32.7725 5.06555 31.8114 4.09661C30.8503 3.12768 29.5467 2.58333 28.1875 2.58333C26.8283 2.58333 25.5247 3.12768 24.5636 4.09661C23.6025 5.06555 23.0625 6.37971 23.0625 7.75C23.0625 9.12029 23.6025 10.4344 24.5636 11.4034C25.5247 12.3723 26.8283 12.9167 28.1875 12.9167ZM35.875 7.75C35.875 8.76774 35.6762 9.77552 35.2898 10.7158C34.9035 11.6561 34.3372 12.5104 33.6234 13.2301C32.9095 13.9497 32.0621 14.5206 31.1294 14.9101C30.1967 15.2995 29.197 15.5 28.1875 15.5C27.178 15.5 26.1783 15.2995 25.2456 14.9101C24.3129 14.5206 23.4655 13.9497 22.7516 13.2301C22.0378 12.5104 21.4715 11.6561 21.0852 10.7158C20.6988 9.77552 20.5 8.76774 20.5 7.75C20.5 5.69457 21.3099 3.72333 22.7516 2.26992C24.1933 0.816516 26.1486 0 28.1875 0C30.2264 0 32.1817 0.816516 33.6234 2.26992C35.0651 3.72333 35.875 5.69457 35.875 7.75ZM17.7735 18.8067C16.7485 18.4813 15.6918 18.2674 14.6216 18.1686C14.0203 18.1109 13.4165 18.0825 12.8125 18.0833C2.5625 18.0833 0 25.8333 0 28.4167C0 30.1397 0.853312 31 2.5625 31H13.366C12.9861 30.1935 12.7967 29.3093 12.8125 28.4167C12.8125 25.8075 13.7786 23.1415 15.6056 20.9147C16.2283 20.1552 16.9535 19.4447 17.7735 18.8067ZM12.6075 20.6667C8.33325 20.7183 5.90656 22.32 4.51 23.963C2.98019 25.7558 2.5625 27.7424 2.5625 28.4167H10.25C10.25 25.7171 11.0777 23.0278 12.6075 20.6667ZM3.84375 9.04167C3.84375 6.98624 4.65368 5.015 6.09537 3.56159C7.53705 2.10818 9.4924 1.29167 11.5312 1.29167C13.5701 1.29167 15.5254 2.10818 16.9671 3.56159C18.4088 5.015 19.2188 6.98624 19.2188 9.04167C19.2188 11.0971 18.4088 13.0683 16.9671 14.5217C15.5254 15.9752 13.5701 16.7917 11.5312 16.7917C9.4924 16.7917 7.53705 15.9752 6.09537 14.5217C4.65368 13.0683 3.84375 11.0971 3.84375 9.04167ZM11.5312 3.875C10.172 3.875 8.86845 4.41934 7.90733 5.38828C6.9462 6.35722 6.40625 7.67138 6.40625 9.04167C6.40625 10.412 6.9462 11.7261 7.90733 12.6951C8.86845 13.664 10.172 14.2083 11.5312 14.2083C12.8905 14.2083 14.194 13.664 15.1552 12.6951C16.1163 11.7261 16.6562 10.412 16.6562 9.04167C16.6562 7.67138 16.1163 6.35722 15.1552 5.38828C14.194 4.41934 12.8905 3.875 11.5312 3.875Z" fill="white"/>
</svg>
