<svg width="14" height="24" viewBox="0 0 14 24" fill="none" xmlns="http://www.w3.org/2000/svg">
<path d="M9.98972 12.7841C10.1313 12.4745 10.5237 12.1877 10.8621 12.1493C11.2005 12.1109 11.5089 11.8013 11.5473 11.4629C11.5881 11.1269 11.8737 10.7333 12.1821 10.5905C12.3375 10.5115 12.4639 10.3854 12.5434 10.2302C12.6229 10.0751 12.6515 9.89882 12.6249 9.72653C12.5553 9.39293 12.7065 8.93093 12.9561 8.70173C13.0799 8.57821 13.1613 8.41863 13.1887 8.24592C13.2161 8.07322 13.188 7.89627 13.1085 7.74053C13.0262 7.57305 12.9834 7.38893 12.9834 7.20233C12.9834 7.01572 13.0262 6.8316 13.1085 6.66413C13.1882 6.50842 13.2164 6.33144 13.189 6.15868C13.1616 5.98593 13.0801 5.82634 12.9561 5.70293C12.7065 5.47133 12.5565 5.01053 12.6249 4.67813C12.6518 4.50548 12.6235 4.32874 12.544 4.17315C12.4644 4.01756 12.3378 3.89107 12.1821 3.81173C12.0172 3.72376 11.8745 3.59955 11.7645 3.44845C11.6545 3.29734 11.5803 3.12327 11.5473 2.93933C11.52 2.76733 11.439 2.60836 11.3159 2.4851C11.1929 2.36185 11.0341 2.28059 10.8621 2.25293C10.6781 2.22059 10.5039 2.14671 10.3527 2.03692C10.2015 1.92713 10.0774 1.78431 9.98972 1.61933C9.91055 1.46369 9.78394 1.33727 9.6282 1.25832C9.47246 1.17937 9.29564 1.15198 9.12331 1.18013C8.93838 1.20605 8.74996 1.18948 8.57239 1.13167C8.39482 1.07387 8.23275 0.976348 8.09851 0.846526C7.86691 0.594526 7.43492 0.527326 7.13852 0.694126C6.84212 0.860926 6.35611 0.860926 6.06091 0.694126C5.90564 0.613387 5.72862 0.584394 5.5557 0.611379C5.38278 0.638364 5.22301 0.719915 5.09972 0.844126C4.96558 0.974097 4.80353 1.07171 4.62592 1.12953C4.44832 1.18734 4.25986 1.20383 4.07492 1.17773C3.90281 1.15004 3.72636 1.17778 3.57105 1.25694C3.41575 1.3361 3.28963 1.46259 3.21092 1.61813C3.06812 1.92533 2.67572 2.21213 2.33732 2.25053C2.16505 2.2782 2.00593 2.35959 1.88266 2.48307C1.7594 2.60655 1.67829 2.76581 1.65092 2.93813C1.61836 3.12207 1.54426 3.29616 1.43425 3.44713C1.32425 3.5981 1.18124 3.72198 1.01612 3.80933C0.860979 3.88907 0.734989 4.01577 0.65612 4.17136C0.57725 4.32694 0.549531 4.50346 0.576916 4.67573C0.642916 5.00813 0.492916 5.47013 0.243316 5.70053C-0.00628418 5.93093 -0.075884 6.36293 0.090916 6.66173C0.257716 6.95693 0.257716 7.44293 0.090916 7.73813C0.0113118 7.89405 -0.0168203 8.0712 0.0105619 8.24412C0.037944 8.41703 0.119431 8.57682 0.243316 8.70053C0.494116 8.92853 0.642916 9.39053 0.576916 9.72533C0.549505 9.89727 0.577237 10.0735 0.656136 10.2287C0.735035 10.3839 0.86105 10.5101 1.01612 10.5893C1.32572 10.7321 1.61012 11.1257 1.64972 11.4617C1.69052 11.8001 1.99772 12.1097 2.33612 12.1481C2.67452 12.1865 3.06692 12.4745 3.20972 12.7829C3.28904 12.9379 3.41531 13.0638 3.57048 13.1427C3.72566 13.2215 3.90179 13.2493 4.07372 13.2221C4.40732 13.1561 4.86931 13.3049 5.09852 13.5557C5.22213 13.6793 5.3817 13.7607 5.55436 13.788C5.72703 13.8154 5.90393 13.7874 6.05972 13.7081C6.35492 13.5413 6.84092 13.5413 7.13732 13.7081C7.43372 13.8749 7.86572 13.8053 8.09731 13.5557C8.32892 13.3037 8.78852 13.1561 9.12212 13.2221C9.29444 13.2499 9.47112 13.2225 9.62694 13.1438C9.78275 13.0652 9.90972 12.9393 9.98972 12.7841ZM6.59972 11.2793C5.51763 11.2793 4.47987 10.8495 3.71472 10.0843C2.94957 9.31917 2.51972 8.28141 2.51972 7.19933C2.51972 6.11724 2.94957 5.07948 3.71472 4.31433C4.47987 3.54918 5.51763 3.11933 6.59972 3.11933C7.6818 3.11933 8.71956 3.54918 9.48471 4.31433C10.2499 5.07948 10.6797 6.11724 10.6797 7.19933C10.6797 8.28141 10.2499 9.31917 9.48471 10.0843C8.71956 10.8495 7.6818 11.2793 6.59972 11.2793ZM1.76972 13.6913L0.278116 22.1501L4.03172 21.5933L7.36892 23.4005L8.85452 14.9753C7.65498 15.3261 6.39025 15.3926 5.16052 15.1698C3.9308 14.9469 2.76987 14.4407 1.76972 13.6913ZM11.3529 13.7489C10.9782 14.0213 10.5807 14.261 10.1649 14.4653L9.26731 19.5485L13.3101 17.3549L11.3529 13.7489Z" fill="#40BB15"/>
</svg>
