<svg width="62" height="69" viewBox="0 0 62 69" fill="none" xmlns="http://www.w3.org/2000/svg">
<path d="M17.0535 19.417H19.5806V24.4712H17.0535C16.3832 24.4712 15.7405 24.205 15.2665 23.731C14.7926 23.2571 14.5264 22.6143 14.5264 21.9441C14.5264 21.2739 14.7926 20.6311 15.2665 20.1572C15.7405 19.6832 16.3832 19.417 17.0535 19.417V19.417Z" fill="#FFBE86"/>
<path d="M44.4914 24.4697H41.9643V19.4155H44.4914C45.1617 19.4155 45.8045 19.6817 46.2784 20.1557C46.7523 20.6296 47.0186 21.2724 47.0186 21.9426C47.0186 22.6128 46.7523 23.2556 46.2784 23.7296C45.8045 24.2035 45.1617 24.4697 44.4914 24.4697V24.4697Z" fill="#FFBE86"/>
<path d="M52.5816 43.6778L37.7549 39.5771H24.5645L9.73783 43.6778C8.56354 43.9891 7.49723 44.6168 6.65512 45.4924C5.81302 46.368 5.22743 47.458 4.9622 48.6436L1.04688 67.0287H61.2726L57.3572 48.6436C57.092 47.458 56.5064 46.368 55.6643 45.4924C54.8222 44.6168 53.7559 43.9891 52.5816 43.6778V43.6778Z" fill="#EBF6FF"/>
<path d="M21.4629 39.6717L30.7774 63.7656L40.019 39.6717L37.245 38.8735H24.2369L21.4629 39.6717Z" fill="#8BC9FE"/>
<path d="M25.1576 49.2295L30.7409 44.8789L36.353 49.2295L40.019 39.6717L37.245 38.8735H24.2369L21.4629 39.6717L25.1576 49.2295Z" fill="#66B8FE"/>
<path d="M45.3461 57.8421C47.6574 57.8421 49.531 55.9684 49.531 53.6571C49.531 51.3458 47.6574 49.4722 45.3461 49.4722C43.0348 49.4722 41.1611 51.3458 41.1611 53.6571C41.1611 55.9684 43.0348 57.8421 45.3461 57.8421Z" fill="#8BC9FE"/>
<path d="M37.2444 38.8751L30.7404 44.8806L24.2363 38.8751V29.5469H37.2444V38.8751Z" fill="#FFBE86"/>
<path d="M18.8018 7.17627V22.5703C18.8018 25.7368 20.0596 28.7735 22.2986 31.0125C24.5376 33.2515 27.5744 34.5094 30.7408 34.5094C33.9073 34.5094 36.944 33.2515 39.183 31.0125C41.4221 28.7735 42.6799 25.7368 42.6799 22.5703V7.17627H18.8018Z" fill="#FED3A4"/>
<path d="M37.3168 1.04639H24.2006C22.2979 1.04639 20.4731 1.80224 19.1276 3.14766C17.7822 4.49309 17.0264 6.31788 17.0264 8.2206V17.5692C17.0264 18.0593 17.2211 18.5293 17.5676 18.8759C17.9142 19.2224 18.3842 19.4171 18.8743 19.4171C19.117 19.4171 19.3572 19.3693 19.5814 19.2765C19.8056 19.1836 20.0093 19.0475 20.1808 18.8759C20.3524 18.7042 20.4884 18.5005 20.5812 18.2763C20.674 18.0521 20.7218 17.8118 20.7217 17.5692V13.4494C20.7197 12.5073 20.9598 11.5806 21.4189 10.7579C21.8779 9.93528 22.5406 9.24432 23.3433 8.75129C24.1461 8.25825 25.062 7.97966 26.0033 7.94222C26.9446 7.90478 27.8798 8.10974 28.7191 8.53746C29.4267 8.91077 30.1027 9.34105 30.7405 9.82403V9.85034L30.7584 9.83718L30.7769 9.85034V9.82403C31.4146 9.3405 32.0906 8.90981 32.7983 8.53626C33.6376 8.10868 34.5727 7.90383 35.5139 7.94135C36.4552 7.97886 37.371 8.25747 38.1737 8.75049C38.9763 9.24351 39.6389 9.93441 40.0979 10.757C40.5569 11.5796 40.797 12.5062 40.7951 13.4482V17.568C40.7951 18.0581 40.9898 18.5281 41.3364 18.8747C41.6829 19.2213 42.153 19.4159 42.6431 19.4159C43.1332 19.4159 43.6032 19.2213 43.9498 18.8747C44.2963 18.5281 44.491 18.0581 44.491 17.568V8.2206C44.491 6.31788 43.7352 4.49309 42.3898 3.14766C41.0443 1.80224 39.2195 1.04639 37.3168 1.04639V1.04639Z" fill="#883F2E"/>
<path d="M30.7406 44.8804L27.1738 47.6592L29.3638 50.1797H30.7406H32.1175L34.3074 47.6592L30.7406 44.8804Z" fill="#B4DAFE"/>
<path d="M30.7767 63.575L33.6117 56.2411L32.1159 50.1777H30.7408H30.7396H29.364L27.8682 56.2411L30.7038 63.575L30.7032 63.7651L30.7402 63.6694L30.7773 63.7651L30.7767 63.575Z" fill="#D8ECFD"/>
<path d="M42.8959 65.98H28.141C27.8635 65.98 27.5974 66.0902 27.4012 66.2864C27.205 66.4826 27.0947 66.7487 27.0947 67.0262C27.0947 67.3037 27.205 67.5698 27.4012 67.766C27.5974 67.9622 27.8635 68.0725 28.141 68.0725H42.8959C43.1734 68.0725 43.4395 67.9622 43.6357 67.766C43.8319 67.5698 43.9422 67.3037 43.9422 67.0262C43.9422 66.7487 43.8319 66.4826 43.6357 66.2864C43.4395 66.0902 43.1734 65.98 42.8959 65.98V65.98Z" fill="black"/>
<path d="M61.4611 66.8164L57.5989 47.959C57.3167 46.5738 56.6595 45.2928 55.6991 44.2555C54.7387 43.2183 53.5119 42.4646 52.1525 42.0767L46.1615 40.3519C45.7367 38.5112 44.7519 36.8473 43.3426 35.5892C41.9334 34.3312 40.1689 33.5407 38.292 33.3266V33.115C40.8689 31.2979 42.6824 28.5917 43.3833 25.5175H44.4917C45.3626 25.5194 46.2042 25.2028 46.858 24.6273C47.5117 24.0517 47.9324 23.257 48.0409 22.3929C48.1494 21.5287 47.9382 20.6546 47.447 19.9354C46.9558 19.2162 46.2185 18.7013 45.3741 18.4879C45.4789 18.1927 45.5343 17.8823 45.5379 17.569V8.22045C45.5352 6.04108 44.6683 3.95173 43.1272 2.41068C41.5862 0.869634 39.4968 0.00268951 37.3175 0H24.2006C22.0212 0.00268951 19.9319 0.869634 18.3909 2.41068C16.8498 3.95173 15.9829 6.04108 15.9802 8.22045V17.569C15.9842 17.884 16.0403 18.1961 16.1464 18.4927C15.3049 18.7114 14.5722 19.2296 14.0857 19.9502C13.5992 20.6708 13.3924 21.5441 13.5041 22.4063C13.6158 23.2685 14.0383 24.0603 14.6923 24.6331C15.3463 25.2059 16.1869 25.5204 17.0563 25.5175H18.1001C18.8143 28.5906 20.6239 31.2982 23.1902 33.1335V33.3959C21.4417 33.6974 19.8184 34.5005 18.5179 35.7075C17.2174 36.9145 16.2956 38.4735 15.8648 40.1947L9.33027 42.0761C7.97057 42.4639 6.7435 43.2176 5.78294 44.2552C4.82238 45.2927 4.16525 46.5741 3.88325 47.9596L0.0211385 66.8158C-0.00988364 66.9678 -0.00672597 67.1248 0.0303835 67.2754C0.0674931 67.426 0.137626 67.5664 0.235704 67.6866C0.333783 67.8068 0.457353 67.9036 0.59747 67.9702C0.737587 68.0367 0.890744 68.0712 1.04585 68.0713H8.794C9.07148 68.0713 9.3376 67.9611 9.5338 67.7649C9.73001 67.5686 9.84024 67.3025 9.84024 67.0251C9.84024 66.7476 9.73001 66.4815 9.5338 66.2852C9.3376 66.089 9.07148 65.9788 8.794 65.9788H2.32824L5.93029 48.3811C6.13635 47.37 6.61607 46.4349 7.31714 45.6777C8.01821 44.9205 8.91372 44.3704 9.906 44.0873L15.6011 42.448V45.1276C14.5562 45.2144 13.5756 45.668 12.8329 46.4082C12.0902 47.1484 11.6333 48.1274 11.5429 49.172L10.9146 56.9124C10.7836 58.5302 10.6593 60.0583 11.5818 61.0585C11.8599 61.3395 12.1948 61.5579 12.5641 61.6992C12.9334 61.8404 13.3286 61.9012 13.7233 61.8776C14.0008 61.8776 14.2669 61.7673 14.4631 61.5711C14.6593 61.3749 14.7695 61.1088 14.7695 60.8313C14.7695 60.5538 14.6593 60.2877 14.4631 60.0915C14.2669 59.8953 14.0008 59.7851 13.7233 59.7851C13.5118 59.8045 13.2997 59.7537 13.12 59.6404C12.8211 59.314 12.9198 58.0758 13.0005 57.0583L13.6306 49.3418C13.6809 48.7605 13.9465 48.219 14.3754 47.8235C14.8044 47.4279 15.3656 47.207 15.9491 47.2039H17.3492C17.9326 47.207 18.4938 47.428 18.9227 47.8235C19.3515 48.219 19.617 48.7606 19.6671 49.3418L20.2955 57.0828C20.3762 58.077 20.4748 59.3146 20.1759 59.641C19.9962 59.7544 19.7842 59.8053 19.5727 59.7857C19.2952 59.7857 19.0291 59.8959 18.8328 60.0921C18.6366 60.2883 18.5264 60.5544 18.5264 60.8319C18.5264 61.1094 18.6366 61.3755 18.8328 61.5717C19.0291 61.7679 19.2952 61.8782 19.5727 61.8782C19.9672 61.9018 20.3622 61.8411 20.7314 61.6999C21.1006 61.5588 21.4354 61.3405 21.7136 61.0597C22.636 60.0595 22.5123 58.532 22.379 56.8903L21.753 49.172C21.6622 48.1277 21.2053 47.1491 20.4629 46.4091C19.7206 45.669 18.7406 45.2151 17.696 45.1276C17.7038 42.3637 17.6799 42.3631 17.7169 41.8394L20.8311 40.9426L26.8921 56.6171L29.6566 63.768C29.6577 64.0448 29.7685 64.31 29.9647 64.5053C30.1609 64.7006 30.4266 64.8102 30.7034 64.81C30.9262 64.821 31.147 64.7624 31.335 64.6425C31.5231 64.5225 31.6693 64.3471 31.7533 64.1404L37.3306 49.6049L40.6535 40.9432L44.2866 41.9895C44.3129 42.4743 44.2932 41.8974 44.3004 48.5311C43.03 48.7904 41.9012 49.5121 41.1328 50.5564C40.3643 51.6007 40.011 52.8931 40.1413 54.183C40.2716 55.473 40.8762 56.6686 41.838 57.5381C42.7997 58.4076 44.0501 58.889 45.3466 58.889C46.6431 58.889 47.8935 58.4076 48.8552 57.5381C49.817 56.6686 50.4216 55.473 50.5519 54.183C50.6822 52.8931 50.3289 51.6007 49.5604 50.5564C48.792 49.5121 47.6632 48.7904 46.3928 48.5311V42.5957L51.575 44.0903C52.5669 44.3733 53.4621 44.9232 54.1629 45.6801C54.8638 46.4369 55.3434 47.3716 55.5495 48.3823L59.154 65.9824H48.4674C48.1899 65.9824 47.9238 66.0926 47.7276 66.2888C47.5314 66.485 47.4211 66.7512 47.4211 67.0286C47.4211 67.3061 47.5314 67.5722 47.7276 67.7684C47.9238 67.9647 48.1899 68.0749 48.4674 68.0749H60.4363C60.5918 68.0749 60.7452 68.0403 60.8856 67.9736C61.026 67.9069 61.1497 67.8098 61.2479 67.6892C61.346 67.5687 61.4161 67.4279 61.4529 67.2769C61.4898 67.1259 61.4926 66.9686 61.4611 66.8164ZM48.4877 53.6571C48.4878 54.2777 48.3039 54.8845 47.9593 55.4006C47.6147 55.9168 47.1248 56.3192 46.5515 56.5569C45.9782 56.7947 45.3473 56.8572 44.7386 56.7365C44.1298 56.6158 43.5705 56.3173 43.1313 55.8788C42.6921 55.4403 42.3928 54.8814 42.2711 54.2728C42.1495 53.6642 42.211 53.0332 42.4479 52.4596C42.6848 51.886 43.0865 51.3954 43.6021 51.05C44.1177 50.7046 44.7242 50.5198 45.3448 50.519H45.3538C46.1845 50.522 46.9802 50.8538 47.5669 51.4419C48.1536 52.0299 48.4836 52.8264 48.4847 53.6571H48.4877ZM43.7503 39.6566L38.292 38.0849V35.431C39.488 35.6076 40.6184 36.0891 41.5744 36.8292C42.5304 37.5692 43.2798 38.543 43.7503 39.6566ZM35.8826 47.5393L32.3601 44.8119L37.5231 40.0423L38.6357 40.3639L35.8826 47.5393ZM33.8499 52.8375L33.2628 50.4568L34.4585 49.0818L35.0994 49.581L33.8499 52.8375ZM26.4133 49.5762L27.0344 49.0925L28.2182 50.4556L27.6478 52.7687L26.4133 49.5762ZM28.6881 47.8053L30.7411 46.2061L32.7935 47.8053L31.6403 49.1326H29.8443L28.6881 47.8053ZM30.7411 43.4578L25.2827 38.4155V34.3417C26.9913 35.1414 28.8547 35.556 30.7411 35.556C32.6275 35.556 34.4909 35.1414 36.1995 34.3417V38.4167L30.7411 43.4578ZM23.9597 40.0423L29.1245 44.8131L25.6247 47.5363L22.8501 40.3621L23.9597 40.0423ZM28.9637 56.1717L30.1833 51.2251H31.2971L32.5173 56.1723L30.7411 60.7673L28.9637 56.1717ZM45.9743 21.9423C45.9743 22.3355 45.8181 22.7127 45.5401 22.9907C45.262 23.2688 44.8849 23.425 44.4917 23.425H43.6917C43.7515 22.5186 43.7139 22.5635 43.7264 20.4656H44.4917C44.884 20.4652 45.2605 20.6204 45.5385 20.8973C45.8165 21.1741 45.9732 21.55 45.9743 21.9423ZM18.0726 8.22045C18.0747 6.59584 18.721 5.03836 19.8698 3.88959C21.0185 2.74082 22.576 2.09453 24.2006 2.09248H37.3175C38.9421 2.09438 40.4997 2.74061 41.6485 3.88942C42.7973 5.03822 43.4435 6.59579 43.4454 8.22045V17.569C43.4454 17.7817 43.361 17.9856 43.2106 18.1359C43.0603 18.2863 42.8563 18.3708 42.6437 18.3708C42.4311 18.3708 42.2272 18.2863 42.0768 18.1359C41.9265 17.9856 41.842 17.7817 41.842 17.569V13.4499C41.8458 12.3189 41.5557 11.2064 41.0003 10.2212C40.4448 9.23611 39.643 8.41214 38.6734 7.83005C37.7233 7.2465 36.638 6.91961 35.5237 6.88136C34.4094 6.84311 33.3043 7.09481 32.3164 7.61184C31.7789 7.89302 31.2588 8.20647 30.759 8.55046C30.2604 8.20554 29.7413 7.89109 29.2046 7.60885C28.2164 7.09193 27.1108 6.84045 25.9962 6.87901C24.8816 6.91758 23.7961 7.24487 22.8459 7.82886C21.8762 8.41085 21.0743 9.2348 20.5188 10.22C19.9634 11.2051 19.6734 12.3177 19.6773 13.4487V17.5678C19.6716 17.7768 19.5846 17.9752 19.4348 18.121C19.285 18.2667 19.0843 18.3483 18.8753 18.3483C18.6663 18.3483 18.4655 18.2667 18.3157 18.121C18.1659 17.9752 18.0789 17.7768 18.0732 17.5678L18.0726 8.22045ZM15.5736 21.9423C15.5747 21.55 15.7315 21.1741 16.0095 20.8973C16.2875 20.6204 16.664 20.4652 17.0563 20.4656H17.7558C17.7683 22.594 17.7301 22.5216 17.7905 23.425H17.0563C16.8615 23.4253 16.6686 23.3872 16.4885 23.3128C16.3085 23.2384 16.1449 23.1292 16.0072 22.9914C15.8694 22.8537 15.7602 22.6901 15.6858 22.5101C15.6114 22.3301 15.5733 22.1371 15.5736 21.9423ZM19.99 24.3008C19.8352 22.9674 19.7879 21.6237 19.8483 20.2827C20.4088 20.083 20.894 19.7152 21.2378 19.2296C21.5816 18.7439 21.7671 18.164 21.7692 17.569V13.4499C21.7665 12.6786 21.9642 11.9199 22.3428 11.2481C22.7215 10.5762 23.2681 10.0142 23.9292 9.61703C24.5722 9.22128 25.3069 8.99928 26.0615 8.97276C26.816 8.94625 27.5645 9.11613 28.2337 9.46577C28.8497 9.79101 29.4397 10.1632 29.9986 10.579C30.1983 10.776 30.467 10.8873 30.7475 10.889C31.0281 10.8908 31.2982 10.783 31.5004 10.5885C32.0641 10.1686 32.6596 9.79304 33.2814 9.46517C33.9511 9.11527 34.7002 8.94526 35.4554 8.97178C36.2106 8.99829 36.9459 9.22042 37.5895 9.61643C38.2506 10.0136 38.7972 10.5756 39.1759 11.2475C39.5545 11.9193 39.7522 12.678 39.7495 13.4493V17.5684C39.7512 18.1571 39.9326 18.7313 40.2693 19.2142C40.606 19.697 41.0821 20.0657 41.6339 20.2707C41.6947 21.6179 41.6469 22.9679 41.4911 24.3074C41.0793 26.8627 39.7708 29.1877 37.8002 30.8656C35.8295 32.5435 33.3257 33.4646 30.7374 33.4638C28.1492 33.4629 25.646 32.5401 23.6765 30.8609C21.707 29.1816 20.4 26.8564 19.99 24.3008ZM23.1902 35.5237V38.0861L18.3058 39.4916C18.758 38.4978 19.4344 37.6223 20.2819 36.9338C21.1293 36.2454 22.1248 35.7627 23.1902 35.5237Z" fill="black"/>
<path d="M22.5681 65.98H14.3656C14.0881 65.98 13.822 66.0902 13.6258 66.2864C13.4296 66.4826 13.3193 66.7487 13.3193 67.0262C13.3193 67.3037 13.4296 67.5698 13.6258 67.766C13.822 67.9622 14.0881 68.0725 14.3656 68.0725H22.5681C22.8456 68.0725 23.1117 67.9622 23.3079 67.766C23.5041 67.5698 23.6143 67.3037 23.6143 67.0262C23.6143 66.7487 23.5041 66.4826 23.3079 66.2864C23.1117 66.0902 22.8456 65.98 22.5681 65.98V65.98Z" fill="black"/>
<path d="M27.9425 28.0142C28.6815 28.7268 29.6583 29.1402 30.6842 29.1747C31.7129 29.1381 32.6929 28.7279 33.4409 28.0208C33.545 27.9311 33.6304 27.8218 33.6923 27.6991C33.7542 27.5764 33.7912 27.4427 33.8014 27.3056C33.8116 27.1686 33.7947 27.0309 33.7517 26.9004C33.7086 26.7699 33.6403 26.6491 33.5506 26.545C33.4609 26.4409 33.3516 26.3555 33.2289 26.2936C33.1062 26.2318 32.9725 26.1947 32.8355 26.1845C32.6984 26.1743 32.5607 26.1912 32.4302 26.2343C32.2997 26.2773 32.1789 26.3456 32.0748 26.4353C31.0854 27.289 30.2879 27.2902 29.3247 26.4425C29.1157 26.2638 28.8447 26.1746 28.5704 26.1942C28.296 26.2137 28.0405 26.3406 27.8589 26.5472C27.6774 26.7538 27.5845 27.0235 27.6004 27.2981C27.6162 27.5726 27.7396 27.8299 27.9437 28.0142H27.9425Z" fill="black"/>
<path d="M26.6107 20.7043C27.1885 20.7043 27.6569 20.2359 27.6569 19.6581C27.6569 19.0802 27.1885 18.6118 26.6107 18.6118C26.0329 18.6118 25.5645 19.0802 25.5645 19.6581C25.5645 20.2359 26.0329 20.7043 26.6107 20.7043Z" fill="black"/>
<path d="M34.8714 20.7043C35.4493 20.7043 35.9177 20.2359 35.9177 19.6581C35.9177 19.0802 35.4493 18.6118 34.8714 18.6118C34.2936 18.6118 33.8252 19.0802 33.8252 19.6581C33.8252 20.2359 34.2936 20.7043 34.8714 20.7043Z" fill="black"/>
</svg>
