<svg width="63" height="59" viewBox="0 0 63 59" fill="none" xmlns="http://www.w3.org/2000/svg">
<path d="M43.551 29.1714H51.8566C52.5026 29.1714 53.0307 29.6973 53.0307 30.3522V36.4265C53.0307 36.6586 53.0256 36.5606 53.0204 36.8597C53.0153 37.102 53.0153 37.2361 53.0204 37.2567C53.0307 37.2877 53.123 37.4372 53.3332 37.7569L62.0234 51.1998L62.0746 51.272C62.7206 52.3136 63.0231 53.3656 62.9975 54.304C62.9821 54.897 62.8488 55.4488 62.5873 55.9283C62.3207 56.4285 61.9311 56.8513 61.4235 57.1659C60.798 57.5578 59.9931 57.7795 59.0344 57.7743L58.9472 57.7795H38.3881C37.9626 57.7795 37.8908 57.7795 37.8293 57.7795C36.3886 57.8053 35.0095 57.8311 33.6764 56.6554C32.9228 55.9902 32.487 55.0981 32.4972 54.0359C32.5024 53.1645 32.8151 52.2105 33.5226 51.2102C36.3732 46.724 39.4955 42.109 42.1923 37.561C42.3307 37.3444 42.3769 37.298 42.3871 37.2722C42.3923 37.2464 42.3769 37.2155 42.3769 37.0608V36.7462L42.382 30.445C42.3769 30.4089 42.3769 30.378 42.3769 30.3419C42.3769 29.6973 42.905 29.1714 43.551 29.1714Z" fill="#324768"/>
<path fill-rule="evenodd" clip-rule="evenodd" d="M51.8565 30.3525H43.5508L43.5457 36.7569C43.5457 37.6696 43.6175 37.52 43.1304 38.2883L34.4813 51.9014C33.3123 53.5515 33.502 54.9283 34.4608 55.7739C35.6092 56.7949 36.9832 56.6041 38.3983 56.6041H58.9573C61.7772 56.666 62.6077 54.3611 61.085 51.8963L52.4358 38.5255C51.7591 37.4788 51.8565 37.685 51.8565 36.432V30.3525V30.3525Z" fill="white"/>
<path fill-rule="evenodd" clip-rule="evenodd" d="M37.2701 47.4873L34.4656 51.9012C33.2967 53.5513 33.4864 54.9281 34.4451 55.7738C35.5936 56.7947 36.9676 56.6039 38.3826 56.6039H58.9417C61.7615 56.6658 62.5921 54.3609 61.0694 51.8961L58.2188 47.4873H37.2701V47.4873Z" fill="#8BBCDB"/>
<path d="M41.1001 41.5939C40.7874 41.5939 40.5361 41.3412 40.5361 41.0267C40.5361 40.7121 40.7874 40.4595 41.1001 40.4595H43.3201C43.6328 40.4595 43.884 40.7121 43.884 41.0267C43.884 41.3412 43.6328 41.5939 43.3201 41.5939H41.1001Z" fill="#262626"/>
<path d="M39.5669 44.0636C39.2541 44.0636 39.0029 43.811 39.0029 43.4964C39.0029 43.1819 39.2541 42.9292 39.5669 42.9292H42.4072C42.72 42.9292 42.9712 43.1819 42.9712 43.4964C42.9712 43.811 42.72 44.0636 42.4072 44.0636H39.5669Z" fill="#262626"/>
<path d="M51.4824 50.8335C52.1746 50.8335 52.8 51.1171 53.2563 51.5709C53.7075 52.0298 53.9895 52.6589 53.9895 53.355C53.9895 54.0511 53.7075 54.6802 53.2563 55.1392C52.8052 55.5981 52.1746 55.8765 51.4824 55.8765C50.7954 55.8765 50.1648 55.5929 49.7136 55.134C49.2625 54.6802 48.9805 54.046 48.9805 53.3499C48.9805 52.6537 49.2625 52.0246 49.7136 51.5657C50.1648 51.1171 50.7903 50.8335 51.4824 50.8335Z" fill="#324768"/>
<path fill-rule="evenodd" clip-rule="evenodd" d="M51.4819 51.5874C52.4509 51.5874 53.2354 52.3763 53.2354 53.3509C53.2354 54.3255 52.4509 55.1144 51.4819 55.1144C50.5129 55.1144 49.7285 54.3255 49.7285 53.3509C49.7285 52.3763 50.5129 51.5874 51.4819 51.5874Z" fill="#8BBCDB"/>
<path d="M57.4446 50.8086C57.8394 50.8086 58.1931 50.9684 58.4495 51.2263C58.7058 51.4841 58.8647 51.845 58.8647 52.2369C58.8647 52.6288 58.7058 52.9898 58.4495 53.2476C58.1931 53.5054 57.8342 53.6653 57.4446 53.6653C57.0549 53.6653 56.696 53.5054 56.4397 53.2476C56.1834 52.9898 56.0244 52.6288 56.0244 52.2369C56.0244 51.845 56.1834 51.4841 56.4397 51.2263C56.696 50.9684 57.0498 50.8086 57.4446 50.8086Z" fill="#324768"/>
<path fill-rule="evenodd" clip-rule="evenodd" d="M57.4451 51.561C57.8142 51.561 58.1167 51.8653 58.1167 52.2365C58.1167 52.6078 57.8142 52.912 57.4451 52.912C57.0759 52.912 56.7734 52.6078 56.7734 52.2365C56.7734 51.8653 57.0759 51.561 57.4451 51.561Z" fill="#8BBCDB"/>
<path d="M52.1643 44.4346C52.7078 44.4346 53.2 44.6563 53.5588 45.0172L53.605 45.0688C53.9331 45.4246 54.1382 45.899 54.1382 46.4198C54.1382 46.9664 53.9177 47.4614 53.5588 47.8172C53.2 48.1782 52.7078 48.3999 52.1643 48.3999C51.6208 48.3999 51.1287 48.1782 50.7698 47.8172C50.4109 47.4614 50.1904 46.9612 50.1904 46.4147C50.1904 45.8681 50.4109 45.373 50.7698 45.0121C51.1287 44.6511 51.6208 44.4346 52.1643 44.4346Z" fill="#324768"/>
<path fill-rule="evenodd" clip-rule="evenodd" d="M52.1636 45.188C52.8352 45.188 53.3838 45.7346 53.3838 46.4152C53.3838 47.0959 52.8403 47.6425 52.1636 47.6425C51.4868 47.6425 50.9434 47.0959 50.9434 46.4152C50.9434 45.7346 51.4919 45.188 52.1636 45.188Z" fill="#8BBCDB"/>
<path d="M47.2161 39.8296C47.6006 39.8296 47.9492 39.9894 48.2004 40.2421L48.2056 40.2473C48.4568 40.4999 48.6157 40.8506 48.6157 41.2373C48.6157 41.624 48.4568 41.9747 48.2056 42.2273H48.2004C47.9492 42.48 47.6006 42.6399 47.2161 42.6399C46.8315 42.6399 46.4829 42.48 46.2317 42.2273H46.2266C45.9753 41.9747 45.8164 41.6189 45.8164 41.2373C45.8164 40.8557 45.9753 40.4999 46.2266 40.2473L46.2317 40.2421C46.4829 39.9894 46.8315 39.8296 47.2161 39.8296Z" fill="#324768"/>
<path fill-rule="evenodd" clip-rule="evenodd" d="M47.2163 40.5884C47.5752 40.5884 47.8623 40.8823 47.8623 41.2381C47.8623 41.5939 47.5701 41.8878 47.2163 41.8878C46.8625 41.8878 46.5703 41.5939 46.5703 41.2381C46.5703 40.8823 46.8574 40.5884 47.2163 40.5884Z" fill="#8BBCDB"/>
<path d="M47.0935 44.5078C47.5293 44.5078 47.9241 44.6831 48.2061 44.9719L48.2573 45.0286C48.5137 45.3122 48.6675 45.6835 48.6675 46.096C48.6675 46.5343 48.4932 46.9314 48.2061 47.215L48.1497 47.2665C47.8677 47.5244 47.4985 47.679 47.0935 47.679C46.6628 47.679 46.2681 47.4986 45.981 47.215C45.6938 46.9262 45.5195 46.5292 45.5195 46.096C45.5195 45.6629 45.6938 45.2658 45.981 44.9771C46.2629 44.6883 46.6577 44.5078 47.0935 44.5078Z" fill="#324768"/>
<path fill-rule="evenodd" clip-rule="evenodd" d="M47.093 45.2651C47.5493 45.2651 47.9185 45.6364 47.9185 46.0953C47.9185 46.5543 47.5493 46.9255 47.093 46.9255C46.6367 46.9255 46.2676 46.5543 46.2676 46.0953C46.2676 45.6364 46.6367 45.2651 47.093 45.2651Z" fill="#8BBCDB"/>
<path d="M46.5188 21.5454C47.0623 21.5454 47.5544 21.7671 47.9082 22.1281H47.9133C48.2722 22.489 48.4927 22.9841 48.4927 23.5307C48.4927 24.0772 48.2722 24.5723 47.9133 24.9332C47.5544 25.289 47.0623 25.5159 46.5188 25.5159C45.9753 25.5159 45.4832 25.2942 45.1243 24.9332C44.7705 24.5723 44.5449 24.0772 44.5449 23.5307C44.5449 22.9841 44.7654 22.489 45.1243 22.1281L45.1755 22.0817C45.5293 21.7465 46.001 21.5454 46.5188 21.5454Z" fill="#324768"/>
<path fill-rule="evenodd" clip-rule="evenodd" d="M46.519 22.2979C47.1907 22.2979 47.7393 22.8444 47.7393 23.5251C47.7393 24.2057 47.1907 24.7523 46.519 24.7523C45.8474 24.7523 45.2988 24.2057 45.2988 23.5251C45.2988 22.8444 45.8474 22.2979 46.519 22.2979Z" fill="#8BBCDB"/>
<path d="M49.5134 18.457C49.9492 18.457 50.344 18.6324 50.626 18.9211C50.9131 19.2099 51.0874 19.6069 51.0874 20.0401C51.0874 20.4784 50.9131 20.8754 50.626 21.1642C50.3389 21.4529 49.9441 21.6283 49.5134 21.6283C49.0776 21.6283 48.6829 21.4529 48.4009 21.1642C48.1189 20.8754 47.9395 20.4784 47.9395 20.0401C47.9395 19.6018 48.1138 19.2047 48.4009 18.9211C48.6829 18.6375 49.0776 18.457 49.5134 18.457Z" fill="#324768"/>
<path fill-rule="evenodd" clip-rule="evenodd" d="M49.5129 19.2144C49.9692 19.2144 50.3384 19.5856 50.3384 20.0445C50.3384 20.5035 49.9692 20.8747 49.5129 20.8747C49.0566 20.8747 48.6875 20.5035 48.6875 20.0445C48.6875 19.5856 49.0566 19.2144 49.5129 19.2144Z" fill="#8BBCDB"/>
<path d="M43.269 26.3403H52.2412C52.9539 26.3403 53.5999 26.6343 54.0664 27.1035C54.533 27.5727 54.8252 28.2224 54.8252 28.9392C54.8252 29.6559 54.533 30.3057 54.0664 30.7749C54.0356 30.8058 54.01 30.8316 53.9792 30.8574C53.5178 31.2802 52.9077 31.5381 52.2463 31.5381H43.2742C42.5666 31.5381 41.9207 31.2441 41.4541 30.7749C40.9875 30.3057 40.6953 29.6559 40.6953 28.9392C40.6953 28.2224 40.9875 27.5727 41.4541 27.1035C41.9104 26.6343 42.5564 26.3403 43.269 26.3403Z" fill="#324768"/>
<path fill-rule="evenodd" clip-rule="evenodd" d="M43.269 27.5273H52.2412C53.0154 27.5273 53.646 28.1616 53.646 28.9402C53.646 29.7188 53.0154 30.3531 52.2412 30.3531H43.269C42.4949 30.3531 41.8643 29.7188 41.8643 28.9402C41.8643 28.1616 42.4949 27.5273 43.269 27.5273Z" fill="white"/>
<path d="M24.217 22.8449C22.3611 23.015 20.6846 23.5462 19.2952 24.3763C17.9673 25.1704 16.906 26.243 16.2087 27.5269C15.5166 28.8161 15.1834 30.3321 15.3115 32.0182C15.4397 33.6425 15.9934 35.4267 17.0598 37.3346C17.4751 37.2727 17.8801 37.2314 18.2954 37.2005C20.2693 37.0819 22.238 37.3861 24.0735 38.0668C24.7861 38.3298 25.4834 38.6495 26.1499 39.031H44.2788C44.6377 39.031 44.9197 39.3198 44.9197 39.6756V45.0486C44.9197 45.4096 44.6326 45.6932 44.2788 45.6932H32.2407C32.9277 47.2092 33.3892 48.8954 33.5686 50.7362H46.2629C46.4219 50.7362 46.5808 50.793 46.7039 50.9167L52.9126 56.8621C53.0562 56.9807 53.1484 57.1612 53.1484 57.3623C53.1484 57.7233 52.8613 58.0069 52.5076 58.0069H0.643316V58.0017C0.499761 58.0017 0.356206 57.9553 0.233159 57.8573C-0.038569 57.6304 -0.0795847 57.2231 0.146001 56.9498L4.87818 51.1487C4.88331 49.3904 5.22681 47.7558 5.85743 46.2398C6.45215 44.8011 7.30835 43.4656 8.36963 42.2126C7.09815 40.0623 6.22144 37.943 5.69336 35.8907C4.56544 31.4871 5.03199 27.3877 6.60596 23.8762C8.17481 20.3698 10.846 17.4564 14.1221 15.4196C15.7371 14.414 17.5059 13.6251 19.3618 13.0785L18.9568 12.2689C18.9465 12.2483 18.9312 12.2329 18.926 12.2071C18.7722 11.8874 18.9055 11.5006 19.2285 11.3408L20.0078 10.9695L18.1416 7.23107L17.0239 7.81891C17.0034 7.83438 16.9829 7.84469 16.9624 7.84985C16.6445 8.00454 16.26 7.87563 16.1062 7.55078L14.5322 4.3022C14.3836 3.99281 14.5015 3.61123 14.8091 3.44622L21.146 0.094516C21.1614 0.0842031 21.1716 0.0790466 21.1819 0.0687337C21.4946 -0.091117 21.8843 0.0377948 22.0432 0.35234L23.6838 3.5906C23.8428 3.90515 23.7197 4.28673 23.407 4.45174L22.5662 4.9055L24.5862 8.77286L25.4885 8.33972C25.7961 8.19018 26.1755 8.31393 26.3345 8.62332L34.2402 23.8194L35.0093 23.4069C35.322 23.2419 35.7117 23.3605 35.8757 23.6751L37.6394 27.0474L37.6445 27.0526C37.8086 27.3671 37.6804 27.759 37.3677 27.9188L28.0059 32.7917L27.9854 32.802C27.6675 32.9567 27.283 32.8226 27.1292 32.4978L25.5347 29.1822C25.3809 28.8728 25.5039 28.4861 25.8115 28.321L26.7036 27.8467L24.217 22.8449Z" fill="#324768"/>
<path d="M33.0867 52.0312C33.061 52.0364 33.0354 52.0416 33.0098 52.0416C32.9585 52.0467 32.9072 52.0416 32.8611 52.0312H5.82153L2.00195 56.7185H50.8977L46.0015 52.0312H33.0867Z" fill="#FF5A43"/>
<path d="M9.69727 42.635C9.67676 42.6659 9.66138 42.6917 9.63574 42.7175C8.52319 43.9705 7.63623 45.3009 7.0415 46.7395C6.52368 47.9874 6.22119 49.3126 6.16992 50.7358H32.2764C31.9072 47.1572 30.3589 44.2283 28.1748 42.1245C26.8572 40.8612 25.3037 39.8969 23.6323 39.2781C21.9609 38.6593 20.1716 38.3809 18.3772 38.4892C15.3062 38.6748 12.2249 39.9897 9.69727 42.635Z" fill="#FF5A43"/>
<path d="M28.0625 40.3201C28.406 40.5934 28.7393 40.8822 29.0571 41.1864C30.0261 42.1094 30.8721 43.1871 31.5745 44.3937H43.6331V40.3149H28.0625V40.3201Z" fill="#61C4F2"/>
<path d="M21.167 10.4183L21.2439 10.3822L23.4126 9.29938L21.4438 5.53516L19.998 6.25706L19.2803 6.63348L21.167 10.4183Z" fill="#61C4F2"/>
<path d="M27.8367 27.2383L28.2725 27.0063L33.102 24.4178L25.4834 9.78369L21.6433 11.6246L21.1614 11.8669C21.1306 11.8824 21.0999 11.8978 21.0691 11.903L20.377 12.2382L27.8367 27.2383Z" fill="#61C4F2"/>
<path d="M36.2031 27.0786L35.0393 24.8613L28.2307 28.4915L27.8564 28.6874L27.8411 28.6977L27.8206 28.7081L26.9541 29.1721L27.9949 31.3379L36.2031 27.0786Z" fill="#61C4F2"/>
<path d="M19.9407 14.2495C18.1155 14.76 16.3775 15.5283 14.7933 16.5132C11.7274 18.4159 9.23566 21.1386 7.77447 24.4026C6.31329 27.6667 5.88263 31.4721 6.93365 35.5715C7.40533 37.4021 8.17438 39.2997 9.2818 41.2333C11.23 39.3615 13.45 38.1807 15.7418 37.598C14.7112 35.6592 14.1627 33.8132 14.0294 32.1115C13.8807 30.1675 14.2652 28.4092 15.0753 26.9087C15.8802 25.4133 17.1107 24.1757 18.6385 23.2579C20.0587 22.4071 21.7505 21.8398 23.6014 21.6078L19.9407 14.2495Z" fill="#61C4F2"/>
<path d="M22.2581 3.62206L21.1968 1.53369L15.957 4.30787L16.9722 6.39625L17.9514 5.8806C18.0027 5.82903 18.0591 5.78778 18.1257 5.75169L19.5049 5.06072L22.2581 3.62206Z" fill="#61C4F2"/>
</svg>
